<svg xmlns="http://www.w3.org/2000/svg"  xmlns:xlink="http://www.w3.org/1999/xlink"  id="map" width="633" height="633"><defs><filter id="sofGlow" height="300%" width="300%" x="-75%" y="-75%"><feMorphology operator="dilate" radius="4" in="SourceAlpha" result="thicken"></feMorphology><feGaussianBlur in="thicken" stdDeviation="10" result="blurred"></feGaussianBlur><feFlood flood-color="rgb(0,186,255)" result="glowColor"></feFlood><feComposite in="glowColor" in2="blurred" operator="in" result="softGlow_colored"></feComposite><feMerge><feMergeNode in="softGlow_colored"></feMergeNode><feMergeNode in="SourceGraphic"></feMergeNode></feMerge></filter></defs><path d="M230.55541964621807,432.9242847585906L230.37674068498382,430.3212666832833L232.52088821979487,429.6444001463269L234.18855852465276,432.03931465091637L232.6400075272868,434.17355608530215L231.1510161836668,433.913300707301Z" class="sc-kAyceB dIJauC Itanagar mapstate" fill="rgb(18, 108, 189)" stroke-width="0.9px" data-darkreader-inline-fill="" style="--darkreader-inline-fill: #5fb0f0;"></path><path d="M308.16164847572327,282.94847973246215L308.34032743695934,284.26456392923865L305.5410237109518,286.58054937774205L305.3027850959734,288.31726854839735L307.32781332329796,292.1582808053954L309.82931878058116,293.31562458641065L306.1366202484005,292.84217816202226L304.6476289047805,294.47286583967843L304.5285095972904,298.46982017428127L303.2777568686488,300.0998061247237L307.0300150545736,306.9855715124372L307.08957470831774,314.2878895019162L315.2492472713584,318.43631883697526L317.03603688370276,321.7436222298493L317.0955965374487,321.7436222298493L320.19269853217884,322.53095292033186L322.2177267595034,326.09959509441524L321.56257056831055,329.2475946281943L322.2772864132494,331.08358071932525L325.07659013925513,336.3278485337901L328.76928867143397,337.795870508432L328.8288483251781,337.795870508432L329.0075272864142,340.2072670694738L328.41193074896364,340.7314255404499L328.3523710952195,341.3079758741146L327.6376552502825,341.51762431233556L312.747741814077,345.34312517469016L312.0925856228823,347.2292667993893L306.0175009409104,349.1675215734681L300.95493037259985,353.6715602813765L300.8953707188557,353.6715602813765L299.1681407602555,352.10055761972944L299.1681407602555,352.0481876617205L294.10557019194675,347.64837292722314L285.64809936018173,347.38643315038007L285.5289800526916,344.3475532621105L282.07452013548937,343.4567149471354L280.88332706059373,340.78384024535035L272.7832141512972,342.7754452016893L269.9243507715473,335.17428827716276L272.1876176138503,331.81790362772745L267.303726006774,329.7197297433063L265.99341362438827,329.7197297433063L264.6831012420025,328.61805484894785L261.3477606322922,327.09654294907705L260.6926044410993,326.9916046207113L259.3227324049676,326.78172545758207L258.42933759879634,324.31539486647125L255.39179525781037,322.84587201254726L255.093996989086,320.79876323039935L251.16305984192695,317.85876788411997L251.28217914941524,315.4432798646935L249.13803161460237,314.445448716569L251.93733534060993,311.18884073320214L251.46085811065132,309.6127725937208L253.18808806925153,308.66704082804927L248.2446368084311,298.94306282210346L247.52992096349226,295.41962336670804L239.4893677079417,292.21088956585845L232.6400075272868,286.6858116687349L230.2576213774937,284.94887518563974L228.17303349642498,287.10685233620416L224.59945427173625,286.84370351207235L222.93178396688018,291.10606108326647L222.93178396688018,291.15867408334634L221.97882950696476,291.42173590346465L217.392736168611,292.5265376782131L216.7971396311641,292.68435887362375L208.63746706812162,289.948521429641L206.1955212645844,291.05344787115337L206.01684230335013,291.15867408334634L205.83816334211588,290.89560696259605L203.15797892359842,289.7380486449979L202.74106134738395,289.7906671593737L202.5623823861497,289.47495289075414L200.95427173503958,286.84370351207235L198.5718855852465,286.89633370169577L198.33364697026627,286.37002224654225L197.73805043281936,286.2647574062594L196.8446556266481,284.4751250658869L195.77258185923893,284.0539993904008L195.77258185923893,282.3167120911844L193.21151674821158,281.1057384492083L188.62542340986147,282.73789392316166L187.37467068121805,279.73667609212407L184.27756868648794,280.1052839673184L180.94222807677943,283.47492936361186L181.06134738426772,282.47465687412114L182.0738614979291,275.4179203188037L176.65393300715004,271.4138897289381L182.49077907414357,265.3000932707796L186.89819345126125,262.5584901611719L190.0548550997355,255.01608798617872L189.51881821603456,250.95297227621086L192.49680090327456,249.84462804125042L193.50931501693594,245.93827557031364L201.5498682724865,244.40708513646496L205.24256680466715,241.50260377790255L207.44627399322417,244.51269031262882L210.12645841174162,240.5519040706081L214.71255175009355,243.66782468756037L224.0038577342857,243.82624120873743L236.03490779074127,239.97088637992465L240.7401204365833,242.50604405263812L248.18507715468513,237.69938388599485L256.28519006398164,242.2947999604894L260.7521640948453,237.0125716776588L263.67058712834114,240.07652790918428L267.303726006774,244.56549257643064L265.4573767406837,248.20832696554453L264.98089951072507,253.59150450045126L272.48541588257467,258.28676006419255L275.2847196085804,258.6559775608739L276.535472337222,260.50190711204414L277.1906285284149,266.14354683507645L280.8237674068496,270.5707786478192L281.83628152051097,271.15042339593174L283.0274745954084,271.3611968899154L288.50696273993344,270.9923410305273L289.7577154685732,271.9408063620708L290.8893488897247,269.6749131374445L296.36883703424974,271.83542474545493L298.09606699284996,273.3106895930305L297.3813511479111,275.8920001616193L298.09606699284996,278.4201341681237L300.3593338351511,280.57919304205916L304.5285095972904,281.1583918187989L304.6476289047805,281.26369791924753L306.43441851712305,283.26435206389806L308.10208882198094,282.73789392316166Z" class="sc-kAyceB dIJauC Upper Subansiri mapstate" fill="rgb(18, 108, 189)" stroke-width="0.9px" data-darkreader-inline-fill="" style="--darkreader-inline-fill: #0e5697;"></path><path d="M573.6190252164088,369.42368590381466L572.2491531802789,370.26048682398323L565.1019947308996,368.0637723851337L563.3152051185552,370.9926445610258L563.1960858110651,371.14953027625506L558.1335152427546,367.27914377691695L556.8232028603688,367.01759064115095L556.2276063229201,365.81438008026544L550.6885585246528,364.19248950983456L549.6760444109914,363.25065593225827L548.5444109898381,362.8843693220888L548.0083741061353,361.6807851909598L547.5318968761767,360.581765457629L547.1745389537082,359.84903518631245L547.5914565299208,359.32563170311687L549.7356040647355,356.3941913157396L547.1149792999622,352.46714153943367L546.8171810312397,351.9958174970402L548.8422092585624,347.54359763767707L546.936300338728,341.8320907420525L543.8987579977438,342.3037763764787L537.70455400828,336.537575942521L525.6139442980802,333.7584175415677L522.9337598795628,327.46382051967794L511.73654497553616,316.808610241565L511.14094843808925,315.5483103143697L510.12843432442605,313.2374464358154L515.9652803914178,308.3517817531542L516.8586751975909,303.30660524219L512.5703801279633,293.8942580259127L513.2255363191562,289.6328109797869L517.0373541588269,282.8431872533365L514.2976100865653,279.6840169721172L513.6424538953725,279.1574140538978L513.7615732028607,278.94676692033545L513.4637749341364,278.63078982661864L514.5358487015437,277.4194732105425L520.4918140760255,276.73476609705904L521.444768535941,280.421225267326L522.8146405720745,280.6318485410352L523.5889160707575,282.8431872533365L525.0183477606333,282.57995233209067L526.0904215280389,282.0534665300288L527.1029356417021,277.0507892436235L529.961799021452,273.67947963359165L535.5604064734671,273.8375293043532L543.0053631915689,268.3046462890052L552.2371095220169,267.9884103160116L561.5284155062091,273.46874374912704L564.8637561159212,279.7893349990886L572.368272487769,280.1052839673184L577.4308430560795,277.8934801002997L580.3492660895754,282.94847973246215L587.9133421151673,286.52791791360187L590.772205494919,285.2646990326757L593.9288671433969,281.36900316808624L598.2767218667668,279.99996849665104L604.7091644712091,284.36984492281636L607.0915506210022,288.68563379951365L612.5114791117794,288.63301082898306L614.2982687241256,291.632181543499L618.7652427549874,291.52695914746755L622.0410237109518,294.525465279537L628.7117049303724,297.7862172328355L631.451449002634,301.72958907953216L628.4139066616481,300.88843611977154L623.9469326307881,305.4615536511433L623.2917764395934,307.24831530635265L624.7807677832152,310.8211084307409L621.6836657884833,314.02528661113365L621.4454271735049,315.96842371863977L624.0064922845322,317.43871489317416L628.5330259691382,316.808610241565L627.9374294316895,319.0138444263039L628.8903838916067,320.64128013486607L633,322.53095292033186L630.3793752352285,324.00051091603063L629.0095031990968,327.14901179997423L628.7117049303724,332.289946780229L630.02201731276,334.44015202789296L629.069062852841,335.48890560880636L630.2006962739943,338.1104254350066L627.5205118554768,339.5258300046685L625.1976853594279,338.4249728776017L622.8152992096348,338.9492019868867L623.1726571321033,336.22298358117405L621.5049868272508,334.0206272780738L615.8468197214916,336.4851444023893L605.4834399698902,347.0720985845851L599.2296763266859,350.63412065942885L598.0384832517884,356.86535927318937L595.2391795257809,355.08530375020746L593.6906285284167,356.2371316168601L591.9633985698165,355.0329455648043L587.019947308996,362.7273862605248L586.7221490402717,365.08193783006936L581.540459164471,365.70974793902406L578.2051185547607,371.5155897701252Z" class="sc-kAyceB dIJauC Anjaw mapstate" fill="rgb(18, 108, 189)" stroke-width="0.9px" data-darkreader-inline-fill="" style="--darkreader-inline-fill: #0e5697;"></path><path d="M556.2276063229201,365.81438008026544L556.8232028603688,367.01759064115095L558.1335152427546,367.27914377691695L563.1960858110651,371.14953027625506L563.3152051185552,370.9926445610258L565.1019947308996,368.0637723851337L572.2491531802789,370.26048682398323L573.6190252164088,369.42368590381466L577.4308430560795,371.2541197280357L576.7161272111407,375.69841391753425L578.6815957847193,375.69841391753425L578.5029168234851,379.98444966267016L581.6000188182152,384.37359893040457L578.9198343996995,386.9855046812622L578.1455589010166,391.11127837964295L581.2426608957467,393.7218718504628L581.540459164471,395.65338417811336L584.5184418517129,397.32365733484403L584.5184418517129,400.8201195467168L587.4964245389529,404.3156730169176L588.3898193451259,407.445249229761L591.6656003010921,408.64472737694496L594.5244636808438,413.9107382694274L598.0980429055326,417.0902053247705L598.336281520511,420.21682020001435L606.2577154685732,428.86335830376765L606.0194768535948,431.15428681406274L603.4584117425657,434.95429228568537L599.4083552879201,432.87222929108157L599.0509973654516,434.3297069172004L595.4178584870151,434.95429228568537L591.8442792623264,430.11300365521674L587.794222807679,429.12371058454937L586.8412683477618,427.35321644436954L577.9668799397823,425.634574390107L573.4999059089187,423.0822488820377L572.9043093714718,420.52944191945744L576.2396499811821,418.54938227224875L576.1800903274361,414.640518214012L572.0704742190446,413.12878740066617L572.1895935265347,410.8869437404637L566.6505457282656,404.10700874005397L556.6445238991346,400.92447757813034L555.9893677079417,402.6984402553353L546.0429055325549,401.7071370065901L544.4347948814448,403.8461738454748L545.0303914188935,405.6197514844116L540.1464998118172,407.4974026736868L537.1685171245772,411.3561976604783L535.4412871659752,409.79195442682794L530.0809183289439,408.8533213753608L522.3381633421159,411.56474971829266L513.7020135491166,410.4176734932603L510.24755363191434,411.72116164576437L509.9497553631918,413.12878740066617L505.3041023710957,412.24252164061636L500.65844937899965,415.891477785588L497.44222807677943,415.99571918606034L490.3546292811443,419.01836997744977L483.0287918705326,424.3324276223643L481.718479488145,428.86335830376765L477.1323861497931,434.1215054088648L474.80955965374415,439.8458843415856L470.34258562288414,441.35463728485456L466.6498870907053,444.47566400183996L462.4211516748219,445.15179214479394L459.32404968008996,444.2676178181614L454.20191945803526,451.651312495243L454.73795634173985,453.73050492823177L453.48720361309825,455.0298393845319L453.1298456906279,458.6673184224346L450.0327436958978,460.6934940390056L446.0422468949946,458.6673184224346L446.63784343244333,457.73205915259405L447.6503575461047,456.01725089032607L446.22092585622886,447.85596912199253L442.11130974783737,447.1799751973963L440.86055701919577,444.73571726089995L440.62231840421555,442.81120549449133L442.88558524651853,438.38899849132076L441.6943921716211,433.913300707301L444.31501693639257,430.89397351939533L444.7914941663548,425.21790104841557L441.87307113285533,422.66549697143546L441.1583552879183,418.1324906501891L446.280485509973,415.5266265477885L450.4496612721123,415.8393567836415L452.83204742190355,413.7022224672073L456.8821038765527,413.3373120620158L459.20493037260167,411.6168872289577L459.6218479488143,412.92025951728465L465.45869401580785,411.25192042241133L465.1013360933375,413.1809188680595L469.0322732404966,415.1096416342257L470.34258562288414,412.8159943672372L469.56831012420116,411.8775717597491L476.29855099736415,408.33183032633815L475.82207376740735,407.54955591575344L478.0257809559662,406.7150798167718L476.8941475348129,406.2978223832174L479.5147722995862,402.85495514504237L482.2545163718478,401.3940786998005L478.8596161083933,396.0709719383267L477.43018441851746,395.70558335818714L477.31106511102735,394.1395196834969L475.7625141136632,395.1313812180779L474.33308242378735,392.9909568715357L470.69994354535083,393.3564193365023L468.31755739555956,397.7411931799984L468.0197591268352,393.2520025048475L465.22045540082763,395.07917980604043L465.518253669552,396.5407426508659L463.9101430184419,394.8703721285233L464.8630974783591,390.58909872078584L466.70944674444945,389.44023189595873L467.06680466691796,386.14975025614103L468.43667670304967,385.73185348905463L467.24548362815403,383.8511566406755L467.06680466691796,379.98444966267016L467.06680466691796,379.6708838879131L480.8846443357179,378.4688136199584L487.2575272864142,372.4568394960743L494.2260067745592,370.835757000621L495.0002822732404,372.4568394960743L504.88718479488125,377.0575496990059L512.3917011667309,378.2074796924512L513.8806925103509,377.2143641614498L514.2976100865653,376.900733396129L520.8491719984941,367.74992648510715L522.0403650733915,368.42991659525933L523.171998494543,367.27914377691695L528.1154497553634,366.80834443599315L529.4853217914952,368.1683860428989L532.4633044787352,367.59300076358886L536.6920398946186,368.6914420165599L543.4818404215275,366.38984216698464L549.7951637184797,369.7897927677027L554.2621377493415,366.5467820583858Z" class="sc-kAyceB dIJauC Changlang mapstate" fill="rgb(18, 108, 189)" stroke-width="0.9px" data-darkreader-inline-fill="" style="--darkreader-inline-fill: #0e5697;"></path><path d="M50.44702672186577,386.56763398610747L46.813887843432894,389.7013466361491L42.52559277380533,390.1713403548065L32.817369213398706,387.50782472353103L30.554102371095723,389.1791120702642L18.939969890854627,389.02243773356713L17.927455777193245,386.463164275719L15.664188934890262,385.1049838887543L11.733251787729387,387.45559363552366L8.219232216784803,383.798911290306L7.028039141889167,380.35026710707234L5.360368837034912,380.61155915533436L1.9059089198344736,375.1233532993565L3.394900263454474,372.195387898998L1.4889913436218194,369.1098720194591L5.598607452013312,361.94244317553466L8.576590139255131,360.2677431414295L10.30382009785535,353.0955475607857L9.05306736921375,348.7484634709572L5.896405720737675,346.2338366227905L2.322826496048947,346.9149285058447L0,341.9893211547578L12.745765901392588,341.72726942911004L17.86789612344728,347.1768776015497L23.109145652990264,348.69608027688037L30.25630410237136,347.54359763767707L34.12768159578445,356.4988967501972L36.033590515618926,358.38345350954387L39.249811817839145,357.8599923251272L40.381445238992455,359.2209485342087L43.240308618744166,357.5459057189669L44.37194203989384,354.87586977011915L47.4094843808798,352.5195098442505L55.15223936770781,353.8286503223803L65.99209634926592,344.3475532621105L70.7568686488521,341.88450108717643L76.65327436958978,341.3079758741146L82.31144147534906,351.36735939901246L90.1137561159212,349.4818064595379L90.4711140383879,346.96731873920544L93.03217914941706,346.18144348936585L96.9631162965743,348.8008464580744L99.52418140760165,347.01970876544965L98.74990590892048,350.63412065942885L98.69034625517634,351.0007450948633L98.57122694768623,351.0531191871296L93.50865637937568,354.2475480121043L93.56821603311982,359.9013744016147L91.36450884456099,364.3494552953034L85.94458035378193,364.3494552953034L78.08270605946564,367.33145378802374L75.34296198720222,367.01759064115095L72.96057583741094,369.89439288262656L72.96057583741094,372.82286312662336L71.53114414753509,375.5938592831785L65.33694015807305,375.95979692281617L61.04864508844548,382.28370741093795L54.258844561536534,383.32869396054093L50.44702672186577,386.41092911500846Z" class="sc-kAyceB dIJauC Tawang mapstate" fill="rgb(18, 108, 189)" stroke-width="0.9px" data-darkreader-inline-fill="" style="--darkreader-inline-fill: #0e5697;"></path><path d="M258.54845690628645,384.0078914683818L269.6861121565671,385.47066138818354L272.24717726759627,387.50782472353103L276.23767406849765,386.14975025614103L281.062006021828,381.6566763078408L285.4098607452015,381.02961581517775L286.95841174256566,381.55216826688456L288.5665223936776,384.79153808413366L281.7171622130227,388.44794949860443L282.01496048174704,390.06689872983316L274.4508844561551,396.64513391155015L271.29422280767903,402.2288846628435L263.8492660895754,406.2456642952279L243.89678208505939,428.0301973979972L243.83722243131342,429.48819537757663L243.00338727888447,429.48819537757663L245.92181031238215,431.93519672568254L247.29168234851386,435.73498359732366L246.33872788859662,437.97271670900545L244.373259315018,437.9206805896506L243.5989838163332,439.0133972600811L242.52691004892768,437.2962316144558L243.2416258938647,439.0133972600811L241.45483628152215,439.8458843415856L241.15703801279778,438.1288238716079L240.85923974407342,440.10602610161095L240.02540459164447,438.5451008725722L239.66804666917596,441.3026141073351L234.90327436958978,443.53943113597916L232.16353029732818,446.8159645770911L229.9002634550252,448.5839250812278L228.58995107263763,449.8837497533668L228.2921528039151,449.93574016278944L208.04187053067471,453.67852897769944L207.62495295445842,453.73050492823177L207.50583364697013,453.6265528292597L205.3021264584131,452.01519404127475L199.88219796763224,451.2874212432789L199.10792246894925,451.1314648779985L198.6910048927366,450.0397203869629L197.97628904779776,447.9079672657026L193.5688746706801,446.9199686038578L193.86667293940445,441.6667721720023L190.5908919834401,436.4635883351493L188.50630410237136,436.61971283731054L186.24303726006838,433.54893479500106L179.75103500188197,431.8310780013908L179.98927361686037,429.38405786521844L190.47177267594998,425.1137307096874L186.42171622130263,420.52944191945744L181.2400263455038,421.67565973636283L180.5848701543091,421.83195464075834L180.7039894617992,420.4252354826567L181.06134738426772,417.6113580370866L181.06134738426772,417.5592436703914L182.13342115167507,417.1944374753871L181.2400263455038,415.5266265477885L188.62542340986147,410.93908387113015L187.97026721866678,406.34998026924495L189.63793752352285,404.68082771936633L191.36516748212307,403.8461738454748L192.49680090327456,403.06363883300855L197.2020135491166,401.18536911424235L196.8446556266481,395.70558335818714L196.78509597290213,395.70558335818714L192.49680090327456,392.364426632957L190.8291305984185,392.52106193505915L192.19900263455202,390.1191196440004L191.48428678961318,386.9332715571277L188.62542340986147,382.7539614560678L192.5563605570187,378.52107979232824L189.28057960105434,375.80296773344844L187.31511102747572,376.0120729100886L187.55334964245412,374.6528307380104L186.1834776063224,373.81630524204957L181.53782461422634,372.875151397227L181.5973842679723,372.7705746511642L188.3276251411353,366.1805861025541L192.43724124953042,364.71570159903786L212.38972525404643,367.1222125115196L215.48682724877654,370.5742736325569L215.6655062100108,370.78346073709326L217.57141512984708,372.9274394629697L223.52738050432708,381.44765940951356L222.45530673692156,386.09751387327196L218.167011667294,388.813535769561L217.0353782461425,392.93874713555215L219.2986450884473,393.30421102221817L221.6810312382404,401.49843227823203L222.99134362062432,402.75061208750685L224.95681219420476,402.38540501435546L228.70907038012774,405.3067841702082L236.80918328942425,403.2723192850758L241.57395558901044,403.533165300104L243.95634173880535,401.02883479982756L246.1004892736164,402.6462682208844L247.05344373353546,401.96801336394765L246.16004892736055,394.5049508790821L248.6019947308978,392.6254844540176L248.89979299962215,389.6491240949226L252.77117049303706,386.41092911500846ZM230.55541964621807,432.9242847585906L231.21057583741094,433.80919715897153L232.69956718103276,433.9653521820719L234.0098795634167,431.8831374634228L232.40176891230658,429.8006031154373L230.43630033872796,430.4253969978827Z" class="sc-kAyceB dIJauC Papum Pare mapstate" fill="rgb(18, 108, 189)" stroke-width="0.9px" data-darkreader-inline-fill="" style="--darkreader-inline-fill: #0e5697;"></path><path d="M441.1583552879183,418.1324906501891L441.87307113285533,422.66549697143546L444.7914941663548,425.21790104841557L444.31501693639257,430.89397351939533L441.6943921716211,433.913300707301L442.88558524651853,438.38899849132076L440.62231840421555,442.81120549449133L440.86055701919577,444.73571726089995L442.11130974783737,447.1799751973963L446.22092585622886,447.85596912199253L447.6503575461047,456.01725089032607L446.63784343244333,457.73205915259405L444.73193451260886,457.83598000977554L440.9201166729381,461.36881920719816L440.38407978923715,465.10847834732067L438.35905156191257,468.69136034106396L434.1898757997751,468.3279222523797L431.39057207376936,465.9913043790002L427.28095596537423,470.3007560813712L426.328001505457,468.12023901808243L427.2213963116301,461.00518672111L420.31247647723103,462.1479991325127L415.3690252164088,458.0438193535242L413.64179525780855,456.64084243407115L412.4506021829129,453.8864315924302L413.4631162965743,444.995765553213L411.6167670304876,442.1349610751199L414.7138690252177,440.67832045671685L414.53519006398346,435.8390723814232L413.16531802784993,434.79814863718866L413.40355664283015,434.43380647399727L413.3439969890842,434.3297069172004L413.64179525780855,434.1215054088648L415.607263831389,432.6640054241616L419.5977606322922,430.78984680258964L420.1933571697409,430.78984680258964L420.3720361309752,430.4253969978827L421.14631162965634,430.00887094168456L421.6227888596168,430.3733319405319L421.8610274745952,429.6964680026499L422.575743319534,427.9260486833796L421.6227888596168,426.98867422825515L423.05222054949263,424.0719832399059L422.2183853970637,420.8941581251338L423.3500188182152,419.2789116718559L425.01768912307125,416.77750404789685L425.79196462175423,416.46479553273093L427.042717350394,415.943598586392L427.63831388784274,414.3277602112753L430.49717726759445,414.01499496266115L435.26194956718246,417.4550143340125L437.16785848701693,418.862042550385L437.40609710199533,419.01836997744977L438.4186112156567,418.60149282086013Z" class="sc-kAyceB dIJauC Tirap mapstate" fill="rgb(18, 108, 189)" stroke-width="0.9px" data-darkreader-inline-fill="" style="--darkreader-inline-fill: #0e5697;"></path><path d="M428.76994730899605,338.63466701538755L428.29347007903743,339.05404531482054L413.7013549115545,344.03314658263434L406.0181595784743,340.5217646442202L399.5857169740302,342.67063135967373L395.2974219044045,344.1903508554756L387.4951072638305,346.8625380653684L385.1722807677834,341.88450108717643L385.7678773052303,336.22298358117405L380.46706812194134,334.64990940561665L382.3729770417758,328.3557377374191L379.9905908919827,321.5336594253504L385.1722807677834,321.4286767670583L394.88050432819,317.96377903509347L398.69232216785895,318.64633107648524L403.93357169740375,313.342494523145L404.5887278885966,309.6127725937208L399.7643959352645,306.03965025073967L397.32245013172724,305.35644243879324L401.848983816335,300.25753592543924L405.42256304102375,299.62660531545635L405.66080165600215,296.9974002053741L409.65129845690717,294.4202661880886L410.0682160331198,289.6328109797869L414.1182724877672,286.15949171614375L414.2373917952573,286.15949171614375L414.77342867896186,286.7384424955949L419.8955589010184,285.94895778624186L421.8610274745952,290.42207278578644L422.9331012420025,292.8947841677291L424.12429431689816,292.3687145756653L430.49717726759445,289.527572465935L430.73541588257285,289.685429918472L433.4751599548381,293.0526009136438L433.5942792623282,293.21041575284016L433.4751599548381,316.28349995871713L433.1773616861119,318.121294189139L429.9611403838917,324.36787479300574L426.9831576966517,330.1393912146409L426.74491908167147,330.5065840511493L426.8640383891616,330.97867411091966Z" class="sc-kAyceB dIJauC East Siang mapstate" fill="rgb(18, 108, 189)" stroke-width="0.9px" data-darkreader-inline-fill="" style="--darkreader-inline-fill: #0e5697;"></path><path d="M513.6424538953725,279.1574140538978L514.2976100865653,279.6840169721172L517.0373541588269,282.8431872533365L513.2255363191562,289.6328109797869L512.5703801279633,293.8942580259127L516.8586751975909,303.30660524219L515.9652803914178,308.3517817531542L510.12843432442605,313.2374464358154L511.14094843808925,315.5483103143697L511.73654497553616,316.808610241565L522.9337598795628,327.46382051967794L525.6139442980802,333.7584175415677L537.70455400828,336.537575942521L543.8987579977438,342.3037763764787L546.936300338728,341.8320907420525L548.8422092585624,347.54359763767707L546.8171810312397,351.9958174970402L547.1149792999622,352.46714153943367L549.7356040647355,356.3941913157396L547.5914565299208,359.32563170311687L547.1745389537082,359.84903518631245L547.5318968761767,360.581765457629L548.0083741061353,361.6807851909598L548.5444109898381,362.8843693220888L549.6760444109914,363.25065593225827L550.6885585246528,364.19248950983456L556.2276063229201,365.81438008026544L554.2621377493415,366.5467820583858L549.7951637184797,369.7897927677027L543.4818404215275,366.38984216698464L536.6920398946186,368.6914420165599L532.4633044787352,367.59300076358886L529.4853217914952,368.1683860428989L528.1154497553634,366.80834443599315L523.171998494543,367.27914377691695L522.0403650733915,368.42991659525933L520.8491719984941,367.74992648510715L514.2976100865653,376.900733396129L511.4387467068136,373.7640206581609L512.1534625517506,369.7897927677027L509.7710764019557,366.9129679493194L508.8181219420403,358.6451763720884L510.12843432442605,350.31986307848L503.1003951825369,339.36857031142927L483.1479111780209,342.67063135967373L459.6218479488143,356.6036013595335L455.9291494166355,357.38885963238454L456.2865073391058,357.12711203061826L456.82254422280675,356.9177102371568L456.82254422280675,356.7606567265084L456.46518630034006,354.50935235751376L460.45568310124145,349.0103763370589L463.1358675197589,347.59598538598084L463.1358675197589,347.54359763767707L463.19542717350305,347.54359763767707L463.1358675197589,345.86708033782907L466.6498870907053,344.8191492860233L466.70944674444945,344.76675055707665L471.5337786977798,338.5822437927136L472.546292811443,338.8443578276965L471.5337786977798,337.9007229822396L473.9161648475729,336.8521608149249L473.08232969514575,336.2754161615053L475.5838351524271,334.12550971491873L475.5838351524271,334.07306860061453L475.1669175762145,331.97525322102L475.7625141136632,331.24093906816097L477.31106511102735,329.2475946281943L477.3706247647715,329.2475946281943L479.2169740308618,329.4574345435881L482.1353970643595,324.9451401856845L482.79055325555055,319.43384710942746L486.8406097101997,313.920243984825L487.0192886714358,313.7101562120024L487.0192886714358,313.65763374372546L487.1384079789241,313.18492207704367L488.27004140007375,309.6127725937208L488.27004140007375,309.29753624732984L488.0913624388395,303.8847969259118L487.9722431313512,301.09872942690527L490.3546292811443,300.9935831956491L491.54582235604175,301.1513022258114L496.0127963869036,303.56942280776684L503.87467068121805,296.155942921665L509.5328377869773,295.15664204447285L506.37617613850125,287.7383878520077L511.97478359051456,282.21141450518326Z" class="sc-kAyceB dIJauC Lohit mapstate" fill="rgb(18, 108, 189)" stroke-width="0.9px" data-darkreader-inline-fill="" style="--darkreader-inline-fill: #0e5697;"></path><path d="M181.06134738426772,282.47465687412114L180.94222807677943,283.47492936361186L184.27756868648794,280.1052839673184L187.37467068121805,279.73667609212407L188.62542340986147,282.73789392316166L193.21151674821158,281.1057384492083L195.77258185923893,282.3167120911844L195.77258185923893,284.0539993904008L196.8446556266481,284.4751250658869L197.73805043281936,286.2647574062594L198.33364697026627,286.37002224654225L198.5718855852465,286.89633370169577L200.95427173503958,286.84370351207235L202.5623823861497,289.47495289075414L202.74106134738395,289.7906671593737L203.15797892359842,289.7380486449979L205.83816334211588,290.89560696259605L206.01684230335013,291.15867408334634L206.1955212645844,291.05344787115337L206.25508091832853,291.10606108326647L205.12344749717886,299.889496766476L206.49331953330875,310.61097106026864L209.35218291305864,311.7141547226197L211.49633044787515,315.91591027757113L218.4052502822724,317.38620732568916L220.31115920210686,327.14901179997423L223.58694015807305,330.03447709842067L219.95380127963836,335.90838372989947L221.85971019947283,335.69864633415136L220.78763643206548,344.76675055707665L211.9132480240878,355.76594137932034L214.35519382762504,358.3311083187041L214.89123071132963,364.19248950983456L212.38972525404643,367.1222125115196L192.43724124953042,364.71570159903786L188.3276251411353,366.1805861025541L181.5973842679723,372.7705746511642L182.66945803537783,371.5155897701252L181.65694392171645,367.59300076358886L177.9642453895376,364.08784462481026L181.00178773052357,359.6920163044465L178.61940158073048,357.12711203061826L181.18046669175783,353.6715602813765L182.66945803537783,348.7484634709572L178.79808054196474,343.98074474362147L178.38116296575026,343.4043108267515L178.202484004516,343.5615225656493L175.87965750846706,346.2338366227905L170.9957659013926,346.1290501487556L167.2435077154696,347.7007602614117L164.92068121942066,345.5527097267527L154.55730146782116,345.9194747144152L150.86460293564232,342.61822412743595L149.4947308995106,339.2637294770552L149.4947308995106,333.54864600353267L142.34757245013316,331.0311275193785L141.75197591268443,329.50989400080925L141.75197591268443,329.4574345435881L130.61432066240013,329.5623532493846L128.23193451260886,327.253948875225L128.94665035754588,325.73227950433966L125.67086940158151,320.37880412047843L120.48917952578086,316.1259627828654L123.34804290553257,309.03483350546276L135.43865261573228,299.6791840281926L137.22544222807664,299.7843408198564L138.5357546104624,303.4642964143495L145.80203236733178,299.41628835170286L147.6483816334221,295.68259939774816L153.24698908543542,292.42132248842836L157.05880692510436,296.20853558856834L160.75150545728138,292.2634981143874L159.6198720361317,287.31736757256203L167.3626270229579,286.84370351207235L170.51928867143397,284.4751250658869L178.02380504328357,285.52787972675515Z" class="sc-kAyceB dIJauC Kurung Kumey mapstate" fill="rgb(18, 108, 189)" stroke-width="0.9px" data-darkreader-inline-fill="" style="--darkreader-inline-fill: #0e5697;"></path><path d="M258.54845690628645,384.0078914683818L252.77117049303706,386.41092911500846L248.89979299962215,389.6491240949226L248.6019947308978,392.6254844540176L246.16004892736055,394.5049508790821L247.05344373353546,401.96801336394765L246.1004892736164,402.6462682208844L243.95634173880535,401.02883479982756L241.57395558901044,403.533165300104L236.80918328942425,403.2723192850758L228.70907038012774,405.3067841702082L224.95681219420476,402.38540501435546L222.99134362062432,402.75061208750685L221.6810312382404,401.49843227823203L219.2986450884473,393.30421102221817L217.0353782461425,392.93874713555215L218.167011667294,388.813535769561L222.45530673692156,386.09751387327196L223.52738050432708,381.44765940951356L217.57141512984708,372.9274394629697L215.6655062100108,370.78346073709326L215.48682724877654,370.5742736325569L219.1795257809572,371.09723524285846L229.9002634550252,362.8843693220888L233.41428302596978,362.7273862605248L239.7276063229201,357.336510524457L239.78716597666607,350.1103538881666L250.21010538200971,346.7053655011855L252.94984945427314,346.338622268112L254.8557583741076,349.1675215734681L253.00940910801546,355.76594137932034L256.1065111027474,358.1740715094347L256.76166729394026,365.97132675111743L258.4888972525405,368.6391373427573L270.5795069627384,372.2476786282273L270.1030297327816,375.3324691163584L276.2972337222436,378.78240758878337L276.2972337222436,380.0367099102664L272.5449755363188,383.4854349058446Z" class="sc-kAyceB dIJauC Lower Subansiri mapstate" fill="rgb(18, 108, 189)" stroke-width="0.9px" data-darkreader-inline-fill="" style="--darkreader-inline-fill: #0e5697;"></path><path d="M98.69034625517634,351.0007450948633L98.74990590892048,350.63412065942885L99.52418140760165,347.01970876544965L103.2168799397823,343.8235379823159L107.80297327813241,346.7577565630422L109.5897628904786,346.28622954903767L114.41409484380893,339.42099041694973L121.32301467820798,336.6948693147797L128.23193451260886,327.253948875225L130.61432066240013,329.5623532493846L141.75197591268443,329.4574345435881L141.75197591268443,329.50989400080925L142.34757245013316,331.0311275193785L149.4947308995106,333.54864600353267L149.4947308995106,339.2637294770552L150.86460293564232,342.61822412743595L154.55730146782116,345.9194747144152L164.92068121942066,345.5527097267527L167.2435077154696,347.7007602614117L170.9957659013926,346.1290501487556L175.87965750846706,346.2338366227905L178.202484004516,343.5615225656493L178.38116296575026,343.4043108267515L178.79808054196474,343.98074474362147L182.66945803537783,348.7484634709572L181.18046669175783,353.6715602813765L178.61940158073048,357.12711203061826L181.00178773052357,359.6920163044465L177.9642453895376,364.08784462481026L181.65694392171645,367.59300076358886L182.66945803537783,371.5155897701252L181.5973842679723,372.7705746511642L181.53782461422634,372.875151397227L186.1834776063224,373.81630524204957L187.55334964245412,374.6528307380104L187.31511102747572,376.0120729100886L189.28057960105434,375.80296773344844L192.5563605570187,378.52107979232824L188.62542340986147,382.7539614560678L191.48428678961318,386.9332715571277L192.19900263455202,390.1191196440004L190.8291305984185,392.52106193505915L192.49680090327456,392.364426632957L196.78509597290213,395.70558335818714L196.8446556266481,395.70558335818714L197.2020135491166,401.18536911424235L192.49680090327456,403.06363883300855L189.2210199473102,397.58461875846206L177.9642453895376,400.1939543522367L174.68846443357143,408.2796801116647L157.1183665788485,415.8393567836415L155.21245765901404,419.4352342782786L157.89264207752967,421.7277582384654L164.68244260444044,421.41516421610913L165.57583741061353,423.44689627630805L164.32508468197375,425.32207058578706L158.1308806925099,428.811287247549L152.35359427926232,426.8845175077463L145.62335340609752,429.8006031154373L141.45417764395825,429.12371058454937L139.5482687241256,430.060937398413L138.35707564922814,426.46788261748816L136.21292811441344,424.6449542676628L136.21292811441344,424.540779520833L136.86808430560814,424.7491282129372L136.27248776816123,421.7277582384654L138.95267218667686,420.11261135409995L138.35707564922814,418.862042550385L139.25047045540123,417.8719268557593L139.25047045540123,417.819813493983L137.88059841926952,416.72538646472185L135.20041400075206,414.53626635147157L135.91512984568908,410.26124644870015L137.58280015054515,411.25192042241133L140.14386526157432,410.521957181576L135.73645088445664,406.08918881941736L135.31953330824217,403.58533389648073L136.86808430560814,403.06363883300855L136.5702860368856,400.0895906518185L137.76147911178123,400.14177260327415L137.76147911178123,397.53242687918964L137.34456153556675,395.7577823353781L135.67689123071068,395.44458542895154L136.45116672939548,394.45274703155474L135.67689123071068,391.6334377109183L124.5392359804282,391.4245764174261L122.87156567557577,388.7090835667268L120.19138125705831,387.50782472353103L119.23842679713925,385.31394368252995L119.95314264207809,382.28370741093795L118.40459164471213,379.0437302766568L114.41409484380893,377.73706574578864L115.90308618742893,374.75739273999216L114.47365449755489,373.45030885433016L114.8310124200234,370.8880530591182L113.10378246142318,369.47598749980034L107.98165223936849,370.62657071626245L106.25442228076827,369.68519183227863L106.19486262702412,363.4599580412969L104.05071509220943,359.2732902216817L104.64631162965634,356.8130081029758L99.64330071509175,351.5768487389605Z" class="sc-kAyceB dIJauC East Kameng mapstate" fill="rgb(18, 108, 189)" stroke-width="0.9px" data-darkreader-inline-fill="" style="--darkreader-inline-fill: #0e5697;"></path><path d="M50.44702672186577,386.56763398610747L50.44702672186577,386.41092911500846L54.258844561536534,383.32869396054093L61.04864508844548,382.28370741093795L65.33694015807305,375.95979692281617L71.53114414753509,375.5938592831785L72.96057583741094,372.82286312662336L72.96057583741094,369.89439288262656L75.34296198720222,367.01759064115095L78.08270605946564,367.33145378802374L85.94458035378193,364.3494552953034L91.36450884456099,364.3494552953034L93.56821603311982,359.9013744016147L93.50865637937568,354.2475480121043L98.57122694768623,351.0531191871296L98.69034625517634,351.0007450948633L99.64330071509175,351.5768487389605L104.64631162965634,356.8130081029758L104.05071509220943,359.2732902216817L106.19486262702412,363.4599580412969L106.25442228076827,369.68519183227863L107.98165223936849,370.62657071626245L113.10378246142318,369.47598749980034L114.8310124200234,370.8880530591182L114.47365449755489,373.45030885433016L115.90308618742893,374.75739273999216L114.41409484380893,377.73706574578864L118.40459164471213,379.0437302766568L119.95314264207809,382.28370741093795L119.23842679713925,385.31394368252995L120.19138125705831,387.50782472353103L122.87156567557577,388.7090835667268L124.5392359804282,391.4245764174261L135.67689123071068,391.6334377109183L136.45116672939548,394.45274703155474L135.67689123071068,395.44458542895154L137.34456153556675,395.7577823353781L137.76147911178123,397.53242687918964L137.76147911178123,400.14177260327415L136.5702860368856,400.0895906518185L136.86808430560814,403.06363883300855L135.31953330824217,403.58533389648073L135.73645088445664,406.08918881941736L140.14386526157432,410.521957181576L137.58280015054515,411.25192042241133L135.91512984568908,410.26124644870015L135.20041400075206,414.53626635147157L137.88059841926952,416.72538646472185L139.25047045540123,417.819813493983L139.25047045540123,417.8719268557593L138.35707564922814,418.862042550385L138.95267218667686,420.11261135409995L136.27248776816123,421.7277582384654L136.86808430560814,424.7491282129372L136.21292811441344,424.540779520833L131.26947685359482,422.92596841960267L130.13784343244333,422.61340208014644L123.46716221302268,425.21790104841557L115.36704930372616,428.75921599129606L113.8184983063602,431.8310780013908L113.10378246142318,434.53790523259204L113.46114038389169,439.63776735001875L119.83402333458798,445.09978347957485L118.52371095220042,447.6479745630668L113.75893865261605,450.09171020171925L113.46114038389169,450.19568923659745L110.48315769664987,450.9755067295978L109.7088821979687,451.1834505312095L97.20135491155452,451.0794790266632L94.93808806924972,453.2107365165284L93.38953707188557,453.0028236095668L91.90054572826557,455.1857512106376L87.79092961987226,455.08181019102267L88.32696650357502,454.3022273234624L81.59672563041022,455.44560029862214L81.65628528415618,457.3163678210167L78.73786225066033,457.939900076738L76.47459540835553,457.004591023343L69.92303349642498,459.394698061446L61.22732404967974,459.0829686692564L60.63172751223283,459.0310130795183L61.64424162589421,451.027492977199L60.0361309747841,448.21995196174066L60.15525028227421,445.20380061137894L57.65374482499101,443.6434601898404L55.92651486639079,439.8458843415856L53.84192698532388,439.8458843415856L52.650733910424606,438.2849292411038L51.45954083552897,432.24754810436343L52.94853217914897,429.38405786521844L51.57866014301908,426.46788261748816L55.09267971396184,423.18643485437315L56.58167105758366,419.01836997744977L56.16475348136919,416.4126767430794L53.30589010161748,413.8064807709561L56.64123071132963,412.5031940832514L60.0361309747841,413.49370344373347L61.88248024087261,412.659595131624L62.06115920210868,411.3040591422118L55.39047798268621,406.4542954354174L55.56915694392046,404.2113412827739L54.08016560030228,401.4462555902069L54.97356040647355,397.58461875846206L53.24633044787333,393.1475848608261L51.161742566806424,391.79008154709436Z" class="sc-kAyceB dIJauC West Kameng mapstate" fill="rgb(18, 108, 189)" stroke-width="0.9px" data-darkreader-inline-fill="" style="--darkreader-inline-fill: #0e5697;"></path><path d="M206.1955212645844,291.05344787115337L208.63746706812162,289.948521429641L216.7971396311641,292.68435887362375L217.392736168611,292.5265376782131L221.97882950696476,291.42173590346465L222.93178396688018,291.15867408334634L222.93178396688018,291.10606108326647L224.59945427173625,286.84370351207235L228.17303349642498,287.10685233620416L230.2576213774937,284.94887518563974L232.6400075272868,286.6858116687349L239.4893677079417,292.21088956585845L247.52992096349226,295.41962336670804L248.2446368084311,298.94306282210346L253.18808806925153,308.66704082804927L251.46085811065132,309.6127725937208L251.93733534060993,311.18884073320214L249.13803161460237,314.445448716569L251.28217914941524,315.4432798646935L251.16305984192695,317.85876788411997L255.093996989086,320.79876323039935L255.39179525781037,322.84587201254726L258.42933759879634,324.31539486647125L259.3227324049676,326.78172545758207L260.6926044410993,326.9916046207113L258.8462551750108,328.7229802324837L256.8807866014304,334.17795062098L252.1160143018442,335.43646990718753L252.2351336093343,336.537575942521L256.9403462551745,338.4249728776017L255.2131162965743,345.0811398213359L252.94984945427314,346.338622268112L250.21010538200971,346.7053655011855L239.78716597666607,350.1103538881666L239.7276063229201,357.336510524457L233.41428302596978,362.7273862605248L229.9002634550252,362.8843693220888L219.1795257809572,371.09723524285846L215.48682724877654,370.5742736325569L212.38972525404643,367.1222125115196L214.89123071132963,364.19248950983456L214.35519382762504,358.3311083187041L211.9132480240878,355.76594137932034L220.78763643206548,344.76675055707665L221.85971019947283,335.69864633415136L219.95380127963836,335.90838372989947L223.58694015807305,330.03447709842067L220.31115920210686,327.14901179997423L218.4052502822724,317.38620732568916L211.49633044787515,315.91591027757113L209.35218291305864,311.7141547226197L206.49331953330875,310.61097106026864L205.12344749717886,299.889496766476L206.25508091832853,291.10606108326647Z" class="sc-kAyceB dIJauC Kra Daadi mapstate" fill="rgb(18, 108, 189)" stroke-width="0.9px" data-darkreader-inline-fill="" style="--darkreader-inline-fill: #0e5697;"></path><path d="M514.2976100865653,376.900733396129L513.8806925103509,377.2143641614498L512.3917011667309,378.2074796924512L504.88718479488125,377.0575496990059L495.0002822732404,372.4568394960743L494.2260067745592,370.835757000621L487.2575272864142,372.4568394960743L480.8846443357179,378.4688136199584L467.06680466691796,379.6708838879131L467.06680466691796,379.98444966267016L465.93517124576647,380.0889699536265L465.57781332329614,380.1412297927577L460.57480240873156,376.32572453762714L460.7534813699658,373.5548802747812L460.7534813699658,373.34573661465083L458.1328566051943,373.24116355571414L457.83505833646996,372.665997085644L456.8821038765527,370.62657071626245L458.60933383515294,368.1160793166514L455.86958976289134,366.1282715728639L456.4056266465941,364.08784462481026L458.07329695144836,363.4599580412969L455.571791494167,362.57040134731096L455.33355287918675,359.2209485342087L454.20191945803526,357.9646862111622L454.9166353029723,357.7029499498399L456.2865073391058,357.12711203061826L455.9291494166355,357.38885963238454L459.6218479488143,356.6036013595335L483.1479111780209,342.67063135967373L503.1003951825369,339.36857031142927L510.12843432442605,350.31986307848L508.8181219420403,358.6451763720884L509.7710764019557,366.9129679493194L512.1534625517506,369.7897927677027L511.4387467068136,373.7640206581609Z" class="sc-kAyceB dIJauC Namsai mapstate" fill="rgb(18, 108, 189)" stroke-width="0.9px" data-darkreader-inline-fill="" style="--darkreader-inline-fill: #0e5697;"></path><path d="M413.3439969890842,434.3297069172004L413.40355664283015,434.43380647399727L413.16531802784993,434.79814863718866L414.53519006398346,435.8390723814232L414.7138690252177,440.67832045671685L411.6167670304876,442.1349610751199L413.4631162965743,444.995765553213L412.4506021829129,453.8864315924302L413.64179525780855,456.64084243407115L415.3690252164088,458.0438193535242L420.31247647723103,462.1479991325127L427.2213963116301,461.00518672111L426.328001505457,468.12023901808243L427.1618366578841,471.1832477605508L424.77945050809285,476.78834055067455L422.27794505080965,477.20344162254787L418.8234851336092,482.59861539379926L413.1057583741058,484.3101034746951L411.6167670304876,485.91767125567185L408.93658261197015,485.5546884785408L405.4821226947679,488.3027488014086L400.71735039518353,487.7324417190016L400.4791117802033,485.2435527709581L397.9776063229201,484.4138231876491L397.8584870154318,481.66498673734986L395.4165412118946,478.8637205499549L396.07169740308564,475.6467479342691L398.93056078283917,472.4290217327093L398.8710011290932,472.3771167419077L395.17830259691436,470.8717865920612L393.9871095220169,467.54909389680734L394.6422657132098,464.6410768198516L392.2598795634167,463.4984725775671L395.2378622506603,460.27789274662337L397.3820097854714,460.48569497144445L397.79892736168586,457.83598000977554L397.56068874670564,455.44560029862214L394.9996236356801,453.10678045895884L394.5231464057215,451.1834505312095L395.5356605193829,450.19568923659745L393.45107263831414,447.9079672657026L393.80843056078265,441.8748581180703L395.4761008656387,442.6031338679991L397.79892736168586,440.8864215241374L399.2879187053077,443.17532318591066L400.65779074143757,442.39505905987653L400.8960293564178,442.1349610751199L404.2313699661281,438.02475262911366L412.5101618366589,432.7681177570057L412.569721490403,433.34072131058974L412.80796010538324,434.7461003553253Z" class="sc-kAyceB dIJauC Longding mapstate" fill="rgb(18, 108, 189)" stroke-width="0.9px" data-darkreader-inline-fill="" style="--darkreader-inline-fill: #0e5697;"></path><path d="M414.1182724877672,286.15949171614375L410.0682160331198,289.6328109797869L409.65129845690717,294.4202661880886L405.66080165600215,296.9974002053741L405.42256304102375,299.62660531545635L401.848983816335,300.25753592543924L397.32245013172724,305.35644243879324L396.9055325555146,305.82943625568123L393.5106322920601,304.2527238012408L391.2473654497553,300.3626880698066L387.55466691757647,299.4688679095725L386.83995107263945,297.8388033429842L387.7333458788107,296.41890414045065L384.21932630786796,292.1582808053954L385.4105193827636,278.3148050599557L381.6582611968388,275.9973488904907L381.5391418893505,273.5741121185324L383.98108769288774,269.9911080232873L384.69580353782476,267.6721666359622L383.68328942416156,265.1419396198039L384.6362438840806,263.03303989230926L381.83694015807487,259.86904662629377L376.8934888972526,261.2402052609741L371.5331200602195,259.5526047842218L369.74633044787333,255.06884732352773L368.19777945050737,254.17190931235746L362.12269476853544,257.1262936406729L353.3078660143001,254.75228807070562L350.62768159578445,257.4955442452142L346.6967444486272,258.91969789658833L348.72177267595,255.86021155775552L346.8158637561155,255.7546991240506L345.38643206623965,252.32507626478082L345.26731275874954,240.23498857872528L333.17670304855164,230.3538758444056L333.1171433948057,228.1864133604122L331.7472713586758,227.0232338993087L328.709729017688,227.23472891177107L325.43394806172364,224.96097489312933L321.5030109145664,224.80232585825524L320.43093714715724,223.63883965639388L320.6096161083915,221.7347254657825L316.55955965374415,219.03674616118678L313.3433383515239,215.597321349268L312.44994354535265,214.90932550425669L307.5064922845322,209.9334850791738L301.7887655250288,203.57853204297044L284.99294316898704,196.79642543279033L288.2687241249532,191.2833043004648L296.13059841927134,183.2744204489527L303.57555513737316,182.74385248959516L305.3027850959734,178.12697497641648L311.6161083929237,173.6146084135944L318.4059089198363,174.83576030746144L325.31482875423353,173.3491250306938L327.4589762890482,166.9227286784817L331.92595031991004,162.9377851049394L332.9384644335714,158.5263148166914L338.1797139631162,161.077714513488L344.5525969138125,166.76335505590987L350.38944298080423,173.66770442235702L350.9850395182548,177.5431121497586L351.1041588257449,181.364271996546L359.1447120812936,178.87003423753004L364.20728264960417,181.68265003614079L369.44853217914897,182.0010200886636L375.4044975536326,185.60865613414626L371.5331200602195,180.24988594471915L372.6647534813692,180.302954166767L377.191287165977,182.84996785544445L383.5046104629291,183.96412564999173L386.06567557395465,187.3590514527914L399.94307489649873,188.15460599347716L399.82395558901044,193.29799077971347L401.848983816335,195.47137386669328L402.5041400075279,198.01535116211198L399.2283590515617,201.40653114642555L401.134267971398,205.80312533426923L400.4791117802033,207.5507482011435L400.4791117802033,207.6037027372331L403.0997365449748,208.2920917328047L405.2438840797895,206.70344576658363L408.1027474595412,210.4099791513422L407.14979299962397,212.52751576165474L408.16230711328535,214.48592506319483L406.9711140383897,215.54439990480796L407.68582988332673,220.7825623235085L411.14028980052535,223.0570569806423L411.67632668422993,227.34047511156223L413.52267595032026,228.8208304806367L412.9866390666175,230.51245630425228L415.1307866014304,233.36657006348332L410.90205118554695,237.69938388599485L412.9866390666175,248.26111410824342L414.1182724877672,254.17190931235746L416.2028603688377,254.54124426355293L416.9771358675207,256.440514559647L415.547704177643,259.1306702970369L415.42858487015474,259.2888973411664L415.3690252164088,259.44712245154506L415.42858487015474,259.44712245154506L415.3690252164088,261.55660587140346L409.29394053443866,265.98540347021253L409.41305984192877,270.41268922583004L407.26891230711226,272.1515670305448L409.3535001881828,274.57506902254045L409.2343808806927,279.6313576390703L412.569721490403,280.5265373301195L414.058712834023,286.00159158743827Z" class="sc-kAyceB dIJauC Upper Siang mapstate" fill="rgb(18, 108, 189)" stroke-width="0.9px" data-darkreader-inline-fill="" style="--darkreader-inline-fill: #0e5697;"></path><path d="M299.1681407602555,352.10055761972944L300.8953707188557,353.6715602813765L300.95493037259985,353.6715602813765L306.0175009409104,349.1675215734681L312.0925856228823,347.2292667993893L312.747741814077,345.34312517469016L327.6376552502825,341.51762431233556L328.3523710952195,341.3079758741146L328.41193074896364,340.7314255404499L329.0075272864142,340.2072670694738L332.9980240873174,340.67901062789315L334.4870154309392,342.67063135967373L342.2297704177636,345.7622909630236L342.9444862627024,349.4818064595379L345.3268724124955,352.10055761972944L352.11667293940445,350.58174491294676L361.944015807303,346.0242628459782L362.48005269100577,343.61392606378604L365.0411178020331,341.8320907420525L362.9565299209644,341.5700359029024L362.9565299209644,341.51762431233556L362.8969702672184,341.51762431233556L362.53961234475173,339.0016237547575L364.5646405720727,337.9007229822396L368.0786601430191,326.72925514460667L364.3264019570943,324.6827499613978L364.26684230335013,324.6827499613978L359.8594279262343,324.31539486647125L361.2888596161083,322.53095292033186L361.2888596161083,322.4784656725965L364.86243884079886,318.1737988211962L364.98155814828897,318.0162842960963L379.9905908919827,321.5336594253504L382.3729770417758,328.3557377374191L380.46706812194134,334.64990940561665L385.7678773052303,336.22298358117405L385.1722807677834,341.88450108717643L387.4951072638305,346.8625380653684L368.61469702672184,353.51446838162155L356.76232593150235,357.6506020790621L355.5115732028589,360.9481154569926L350.4490026345502,361.57612055635263L346.2202672186686,365.81438008026544L343.0636055701925,364.7680216772728L341.3363756115923,366.2852145456286L339.01354911554336,365.23889313170366L338.4775122318406,367.59300076358886L336.3333646970259,367.69761811657463L333.1171433948057,370.26048682398323L328.17369213398524,370.94034891258434L326.80382009785535,372.7182859708387L323.58759879563513,373.0320149799095L318.6441475348147,376.5870952685668L316.3808806925117,376.11662427089004L314.65365073390967,378.62561152397575L311.3778697779453,373.1365896774764L304.1711516748219,376.32572453762714L303.9924727135858,376.27344977778876L296.96443357169665,372.9274394629697L294.7011667293955,374.4437042775862L292.2592209258564,371.46329617167476L292.61657884832493,371.04494000444856L293.62909296198814,369.842092927724L293.56953330824217,369.7374924025562L293.3908543470079,369.42368590381466L293.0334964245376,368.79605074851224L292.49745954083664,368.9006586596197L291.36582611968333,369.05756898728623L290.4128716597679,369.21447746826334L288.98343996989024,370.9926445610258L287.73268724125046,372.40454958646114L287.4348889725243,372.14309696485725L291.1871471584491,367.2268335604672L302.97995859992443,358.2264173186527L302.97995859992443,357.7029499498399L302.56304102370996,357.38885963238454L301.0144900263458,358.01703284494806L301.0144900263458,357.9646862111622L298.69166353029686,356.13242411943156L298.57254422280675,356.0277157967462L299.0490214527672,352.624245834008Z" class="sc-kAyceB dIJauC Lower Siang mapstate" fill="rgb(18, 108, 189)" stroke-width="0.9px" data-darkreader-inline-fill="" style="--darkreader-inline-fill: #0e5697;"></path><path d="M415.42858487015474,259.44712245154506L415.3690252164088,259.44712245154506L415.42858487015474,259.2888973411664L415.547704177643,259.1306702970369L416.9771358675207,256.440514559647L416.2028603688377,254.54124426355293L414.1182724877672,254.17190931235746L412.9866390666175,248.26111410824342L410.90205118554695,237.69938388599485L415.1307866014304,233.36657006348332L412.9866390666175,230.51245630425228L413.52267595032026,228.8208304806367L411.67632668422993,227.34047511156223L411.14028980052535,223.0570569806423L407.68582988332673,220.7825623235085L406.9711140383897,215.54439990480796L408.16230711328535,214.48592506319483L407.14979299962397,212.52751576165474L408.1027474595412,210.4099791513422L405.2438840797895,206.70344576658363L403.0997365449748,208.2920917328047L400.4791117802033,207.6037027372331L400.4791117802033,207.5507482011435L401.134267971398,205.80312533426923L399.2283590515617,201.40653114642555L402.5041400075279,198.01535116211198L401.848983816335,195.47137386669328L401.6107452013566,194.67627674917685L403.7548927361695,194.093173973185L415.9646217538575,197.4324012314155L421.8610274745952,197.22041282584496L425.3154873917938,192.39672310026253L426.4471208129471,184.44159192159304L431.86704930372616,185.9269277653052L430.91409484381074,175.31357031144398L436.09578471960776,174.83576030746144L437.5252164094836,169.3662060782599L441.75395182536704,170.90641669331444L448.60331200602195,164.6913150934688L451.34305607828355,164.4256443749009L456.82254422280675,157.7288966066194L458.84757245013316,160.22730525329507L464.44617990214647,157.4099152082199L467.96019947309105,153.36878556949023L476.17943168987586,154.48554302599405L486.8406097101997,145.06977121470072L490.2355099736542,144.69725119859186L499.7054949190824,156.77192820956952L500.8371283402339,159.27052634466236L500.53933007150954,163.62859870093098L507.03133232969594,172.8712409158029L512.3321415129849,172.81814156754717L514.4762890477978,169.89733436467031L517.9903086187442,168.88817155524293L519.9557771923228,166.60397942431337L521.2065299209626,166.8696043608429L523.1124388407989,170.21600063516053L518.1094279262325,180.83362417867738L508.8181219420403,182.1602021201038L504.1724689499424,184.8659913155293L500.7180090327438,190.27584141162606L493.03481369966175,192.34370536664892L496.9657508468208,195.4183689366355L500.5988897252555,203.41961768491046L500.1224124952969,205.85608711684472L497.44222807677943,207.44483847042102L496.37015430937026,209.6687584749784L498.5738614979291,213.63908215238553L507.4482499059086,209.08634064455146L512.3321415129849,202.14823156582042L518.1094279262325,198.01535116211198L527.6985321791508,197.37940446068205L537.2876364320673,192.18465084043328L532.1655062100108,202.78394046144558L533.2375799774181,206.3327332755821L536.6324802408726,205.59127600719012L538.7170681219432,211.83935482381185L538.597948814453,216.39111676444827L546.2215844937891,227.0232338993087L546.9958599924739,231.14675857518614L543.7796386902537,236.43139426129028L531.5699096725639,240.5519040706081L533.8331765148669,246.73019931654153L526.6860180654876,253.0110736287029L523.8271546857359,252.1139928268326L524.4227512231828,255.86021155775552L518.8241437711695,256.2822526862383L515.6674821226952,259.49986372530293L515.7866014301853,261.82026714360245L510.4262325931504,262.2948439119482L508.3416447120817,258.49774278046743L504.8276251411371,259.2888973411664L499.7054949190824,261.34567298981483L499.16945803537783,263.5075722467732L491.8436206247661,264.50930572415245L482.1949567181018,262.2421140183419L480.3486074520133,264.50930572415245L475.1073579224685,265.3528107257821L474.6308806925099,271.57196696335086L476.29855099736415,273.7848462943357L474.8691193074883,275.1545351587606L470.7595031990968,275.52327288882816L464.5057395558906,279.57869809297426L463.9101430184419,282.94847973246215L468.07931878057934,286.9489636789185L462.6593902898003,290.7903786299862L458.6688934888989,285.73842045654646L455.21443357169665,285.52787972675515L446.6974030861875,281.68491380529076L445.6848889725261,280.0526263384904L434.60679337598776,278.99942902337716L435.38106887467075,267.6721666359622L433.11780203236594,264.9837840397795L429.6633421151673,265.5636784026424L428.29347007903743,262.8221310461645Z" class="sc-kAyceB dIJauC Upper Dibang Valley mapstate" fill="rgb(18, 108, 189)" stroke-width="0.9px" data-darkreader-inline-fill="" style="--darkreader-inline-fill: #0e5697;"></path><path d="M514.5358487015437,277.4194732105425L513.4637749341364,278.63078982661864L513.7615732028607,278.94676692033545L513.6424538953725,279.1574140538978L511.97478359051456,282.21141450518326L506.37617613850125,287.7383878520077L509.5328377869773,295.15664204447285L503.87467068121805,296.155942921665L496.0127963869036,303.56942280776684L491.54582235604175,301.1513022258114L490.3546292811443,300.9935831956491L487.9722431313512,301.09872942690527L488.0913624388395,303.8847969259118L488.27004140007375,309.29753624732984L488.27004140007375,309.6127725937208L487.1384079789241,313.18492207704367L487.0192886714358,313.65763374372546L487.0192886714358,313.7101562120024L486.8406097101997,313.920243984825L482.79055325555055,319.43384710942746L482.1353970643595,324.9451401856845L479.2169740308618,329.4574345435881L477.3706247647715,329.2475946281943L477.31106511102735,329.2475946281943L477.6088633797517,328.93282849504976L464.2675009409122,328.14588029083507L461.22995859992443,327.93601950405446L461.1703989461821,327.93601950405446L438.1803726006783,329.8771043596116L438.1803726006783,329.92956214781816L435.9766654121195,332.13260093847975L434.3089951072652,332.0277026685958L434.24943545351925,332.23749837471814L433.53471960858224,334.2303913188098L428.76994730899605,338.63466701538755L426.8640383891616,330.97867411091966L426.74491908167147,330.5065840511493L426.9831576966517,330.1393912146409L429.9611403838917,324.36787479300574L433.1773616861119,318.121294189139L433.4751599548381,316.28349995871713L433.5942792623282,293.21041575284016L433.4751599548381,293.0526009136438L430.73541588257285,289.685429918472L430.49717726759445,289.527572465935L424.12429431689816,292.3687145756653L422.9331012420025,292.8947841677291L421.8610274745952,290.42207278578644L419.8955589010184,285.94895778624186L414.77342867896186,286.7384424955949L414.2373917952573,286.15949171614375L414.1182724877672,286.15949171614375L414.058712834023,286.00159158743827L412.569721490403,280.5265373301195L409.2343808806927,279.6313576390703L409.3535001881828,274.57506902254045L407.26891230711226,272.1515670305448L409.41305984192877,270.41268922583004L409.29394053443866,265.98540347021253L415.3690252164088,261.55660587140346L415.42858487015474,259.44712245154506L428.29347007903743,262.8221310461645L429.6633421151673,265.5636784026424L433.11780203236594,264.9837840397795L435.38106887467075,267.6721666359622L434.60679337598776,278.99942902337716L445.6848889725261,280.0526263384904L446.6974030861875,281.68491380529076L455.21443357169665,285.52787972675515L458.6688934888989,285.73842045654646L462.6593902898003,290.7903786299862L468.07931878057934,286.9489636789185L463.9101430184419,282.94847973246215L464.5057395558906,279.57869809297426L470.7595031990968,275.52327288882816L474.8691193074883,275.1545351587606L476.29855099736415,273.7848462943357L474.6308806925099,271.57196696335086L475.1073579224685,265.3528107257821L480.3486074520133,264.50930572415245L482.1949567181018,262.2421140183419L491.8436206247661,264.50930572415245L499.16945803537783,263.5075722467732L499.7054949190824,261.34567298981483L504.8276251411371,259.2888973411664L508.3416447120817,258.49774278046743L510.4262325931504,262.2948439119482L515.7866014301853,261.82026714360245L515.8461610839277,260.1854807352315L520.134456153557,263.13849302820245L520.730052691004,265.3528107257821L508.99680090327456,274.3643476592988L513.4042152803904,275.47059671052693Z" class="sc-kAyceB dIJauC Lower Dibang Valley mapstate" fill="rgb(18, 108, 189)" stroke-width="0.9px" data-darkreader-inline-fill="" style="--darkreader-inline-fill: #0e5697;"></path><path d="M397.32245013172724,305.35644243879324L399.7643959352645,306.03965025073967L404.5887278885966,309.6127725937208L403.93357169740375,313.342494523145L398.69232216785895,318.64633107648524L394.88050432819,317.96377903509347L385.1722807677834,321.4286767670583L379.9905908919827,321.5336594253504L364.98155814828897,318.0162842960963L361.944015807303,315.0231496704332L364.98155814828897,312.5546133843254L367.185265336846,308.61449817511766L362.8374106134743,304.9885465560892L363.49256680466715,300.41526382517395L361.34841926985246,297.3655207394636L355.0946556266463,297.5758706778056L351.16371847948903,301.677018602918L348.42397440722743,301.5718770163985L343.3018441851709,297.2603445014561L339.3709070380137,297.8913892417031L336.0951260820475,299.0482255301381L334.01053820097695,304.0950421199632L331.15167482122706,306.0922032227236L331.3303537824595,301.9924382963559L330.07960105382153,299.62660531545635L331.3303537824595,296.155942921665L331.03255551373695,292.8947841677291L327.4589762890482,289.7906671593737L325.43394806172364,284.4224851006652L321.8603688370349,283.7907889320645L318.70370718855884,279.8419936930186L317.57207376740735,278.4201341681237L317.7507527286398,277.3141360005743L317.1551561911929,275.8920001616193L318.04855099736596,274.4697087679365L318.82282649604895,267.935703571241L323.58759879563513,266.9342347382685L323.4089198344009,265.45824499283526L325.07659013925513,263.77119382540695L322.8728829506963,258.97244131903244L322.6346443357161,252.21953497679215L316.6786789612361,250.7946432079043L314.1771735039529,251.90290594083763L313.4028980052699,248.94732732290595L315.30880692510436,247.68044366587856L317.0955965374487,239.65395659379556L311.6161083929237,231.78102954277165L312.56906285284094,229.03229589063994L311.8543470079021,225.01385746886444L310.5440346255182,224.64367486178207L307.3873729770421,219.56580647872534L306.6130974783591,217.55526102777503L305.60058336469774,214.90932550425669L307.5064922845322,209.9334850791738L312.44994354535265,214.90932550425669L313.3433383515239,215.597321349268L316.55955965374415,219.03674616118678L320.6096161083915,221.7347254657825L320.43093714715724,223.63883965639388L321.5030109145664,224.80232585825524L325.43394806172364,224.96097489312933L328.709729017688,227.23472891177107L331.7472713586758,227.0232338993087L333.1171433948057,228.1864133604122L333.17670304855164,230.3538758444056L345.26731275874954,240.23498857872528L345.38643206623965,252.32507626478082L346.8158637561155,255.7546991240506L348.72177267595,255.86021155775552L346.6967444486272,258.91969789658833L350.62768159578445,257.4955442452142L353.3078660143001,254.75228807070562L362.12269476853544,257.1262936406729L368.19777945050737,254.17190931235746L369.74633044787333,255.06884732352773L371.5331200602195,259.5526047842218L376.8934888972526,261.2402052609741L381.83694015807487,259.86904662629377L384.6362438840806,263.03303989230926L383.68328942416156,265.1419396198039L384.69580353782476,267.6721666359622L383.98108769288774,269.9911080232873L381.5391418893505,273.5741121185324L381.6582611968388,275.9973488904907L385.4105193827636,278.3148050599557L384.21932630786796,292.1582808053954L387.7333458788107,296.41890414045065L386.83995107263945,297.8388033429842L387.55466691757647,299.4688679095725L391.2473654497553,300.3626880698066L393.5106322920601,304.2527238012408L396.9055325555146,305.82943625568123Z" class="sc-kAyceB dIJauC Siang mapstate" fill="rgb(18, 108, 189)" stroke-width="0.9px" data-darkreader-inline-fill="" style="--darkreader-inline-fill: #0e5697;"></path><path d="M308.16164847572327,282.94847973246215L308.10208882198094,282.73789392316166L306.43441851712305,283.26435206389806L304.6476289047805,281.26369791924753L304.5285095972904,281.1583918187989L300.3593338351511,280.57919304205916L298.09606699284996,278.4201341681237L297.3813511479111,275.8920001616193L298.09606699284996,273.3106895930305L296.36883703424974,271.83542474545493L290.8893488897247,269.6749131374445L289.7577154685732,271.9408063620708L288.50696273993344,270.9923410305273L283.0274745954084,271.3611968899154L281.83628152051097,271.15042339593174L280.8237674068496,270.5707786478192L277.1906285284149,266.14354683507645L276.535472337222,260.50190711204414L275.2847196085804,258.6559775608739L272.48541588257467,258.28676006419255L264.98089951072507,253.59150450045126L265.4573767406837,248.20832696554453L267.303726006774,244.56549257643064L263.67058712834114,240.07652790918428L260.7521640948453,237.0125716776588L261.5859992472706,232.30956477606605L265.15957847196114,229.34948747850058L263.43234851336274,226.54735738210002L265.04045916447103,223.8503904508798L264.50442228076645,221.20575467336994L268.25668046669125,219.72452031442208L272.24717726759627,214.4329990231231L281.7767218667668,207.2330163746542L284.99294316898704,196.79642543279033L301.7887655250288,203.57853204297044L307.5064922845322,209.9334850791738L305.60058336469774,214.90932550425669L306.6130974783591,217.55526102777503L307.3873729770421,219.56580647872534L310.5440346255182,224.64367486178207L311.8543470079021,225.01385746886444L312.56906285284094,229.03229589063994L311.6161083929237,231.78102954277165L317.0955965374487,239.65395659379556L315.30880692510436,247.68044366587856L313.4028980052699,248.94732732290595L314.1771735039529,251.90290594083763L316.6786789612361,250.7946432079043L322.6346443357161,252.21953497679215L322.8728829506963,258.97244131903244L325.07659013925513,263.77119382540695L323.4089198344009,265.45824499283526L323.58759879563513,266.9342347382685L318.82282649604895,267.935703571241L318.04855099736596,274.4697087679365L317.1551561911929,275.8920001616193L312.92642077531127,274.9965015014127L311.67566804666967,278.6834532083867Z" class="sc-kAyceB dIJauC Shi Yomi mapstate" fill="rgb(18, 108, 189)" stroke-width="0.9px" data-darkreader-inline-fill="" style="--darkreader-inline-fill: #0e5697;"></path><path d="M192.49680090327456,403.06363883300855L191.36516748212307,403.8461738454748L189.63793752352285,404.68082771936633L187.97026721866678,406.34998026924495L188.62542340986147,410.93908387113015L181.2400263455038,415.5266265477885L182.13342115167507,417.1944374753871L181.06134738426772,417.5592436703914L181.06134738426772,417.6113580370866L180.7039894617992,420.4252354826567L180.5848701543091,421.83195464075834L181.2400263455038,421.67565973636283L186.42171622130263,420.52944191945744L190.47177267594998,425.1137307096874L179.98927361686037,429.38405786521844L179.75103500188197,431.8310780013908L186.24303726006838,433.54893479500106L188.50630410237136,436.61971283731054L190.5908919834401,436.4635883351493L193.86667293940445,441.6667721720023L193.5688746706801,446.9199686038578L197.97628904779776,447.9079672657026L198.6910048927366,450.0397203869629L199.10792246894925,451.1314648779985L199.88219796763224,451.2874212432789L199.9417576213782,451.2874212432789L197.02333458788235,451.2874212432789L187.85114791117667,451.5993286249536L168.43470079036524,455.08181019102267L166.40967256304066,456.4329817490225L163.49124952954298,455.54953854948235L159.20295445991724,456.5369124868739L147.94617990214647,450.55960961547544L148.06529920963476,448.21995196174066L144.67039894618028,446.08791415657515L136.45116672939548,444.1635935340787L133.35406473466355,443.38338606438447L132.93714715844908,443.27935502273385L126.98118178396726,443.8515159124436L121.97817086940086,442.39505905987653L121.50169363944224,442.23900086566755L120.25094091080246,444.52767505101747L119.83402333458798,445.09978347957485L113.46114038389169,439.63776735001875L113.10378246142318,434.53790523259204L113.8184983063602,431.8310780013908L115.36704930372616,428.75921599129606L123.46716221302268,425.21790104841557L130.13784343244333,422.61340208014644L131.26947685359482,422.92596841960267L136.21292811441344,424.540779520833L136.21292811441344,424.6449542676628L138.35707564922814,426.46788261748816L139.5482687241256,430.060937398413L141.45417764395825,429.12371058454937L145.62335340609752,429.8006031154373L152.35359427926232,426.8845175077463L158.1308806925099,428.811287247549L164.32508468197375,425.32207058578706L165.57583741061353,423.44689627630805L164.68244260444044,421.41516421610913L157.89264207752967,421.7277582384654L155.21245765901404,419.4352342782786L157.1183665788485,415.8393567836415L174.68846443357143,408.2796801116647L177.9642453895376,400.1939543522367L189.2210199473102,397.58461875846206Z" class="sc-kAyceB dIJauC Pakke Kessang mapstate" fill="rgb(18, 108, 189)" stroke-width="0.9px" data-darkreader-inline-fill="" style="--darkreader-inline-fill: #0e5697;"></path><path d="M317.0955965374487,321.7436222298493L317.03603688370276,321.7436222298493L315.2492472713584,318.43631883697526L307.08957470831774,314.2878895019162L307.0300150545736,306.9855715124372L303.2777568686488,300.0998061247237L304.5285095972904,298.46982017428127L304.6476289047805,294.47286583967843L306.1366202484005,292.84217816202226L309.82931878058116,293.31562458641065L307.32781332329796,292.1582808053954L305.3027850959734,288.31726854839735L305.5410237109518,286.58054937774205L308.34032743695934,284.26456392923865L308.16164847572327,282.94847973246215L311.67566804666967,278.6834532083867L312.92642077531127,274.9965015014127L317.1551561911929,275.8920001616193L317.7507527286398,277.3141360005743L317.57207376740735,278.4201341681237L318.70370718855884,279.8419936930186L321.8603688370349,283.7907889320645L325.43394806172364,284.4224851006652L327.4589762890482,289.7906671593737L331.03255551373695,292.8947841677291L331.3303537824595,296.155942921665L330.07960105382153,299.62660531545635L331.3303537824595,301.9924382963559L331.15167482122706,306.0922032227236L334.01053820097695,304.0950421199632L336.0951260820475,299.0482255301381L339.3709070380137,297.8913892417031L343.3018441851709,297.2603445014561L348.42397440722743,301.5718770163985L351.16371847948903,301.677018602918L355.0946556266463,297.5758706778056L361.34841926985246,297.3655207394636L363.49256680466715,300.41526382517395L362.8374106134743,304.9885465560892L367.185265336846,308.61449817511766L364.98155814828897,312.5546133843254L361.944015807303,315.0231496704332L364.98155814828897,318.0162842960963L364.86243884079886,318.1737988211962L361.2888596161083,322.4784656725965L361.2888596161083,322.53095292033186L353.3078660143001,326.1520679143373L350.15120436582583,325.99464882774555L350.15120436582583,325.9421753809838L346.04158825743434,323.05581388940254L345.9820286036902,323.0033287340125L340.3238614979309,322.0585601569437L337.04808054196474,319.38134750743484L333.9509785472346,319.1188463543822L333.89141889348866,319.1188463543822L329.9604817463314,316.808610241565L326.0891042529165,318.3838152530707L319.4779826872418,317.5962363374306L319.18018441851746,318.0162842960963L317.1551561911929,321.5336594253504Z" class="sc-kAyceB dIJauC West Siang mapstate" fill="rgb(18, 108, 189)" stroke-width="0.9px" data-darkreader-inline-fill="" style="--darkreader-inline-fill: #0e5697;"></path><path d="M329.0075272864142,340.2072670694738L328.8288483251781,337.795870508432L328.76928867143397,337.795870508432L325.07659013925513,336.3278485337901L322.2772864132494,331.08358071932525L321.56257056831055,329.2475946281943L322.2177267595034,326.09959509441524L320.19269853217884,322.53095292033186L317.0955965374487,321.7436222298493L317.1551561911929,321.5336594253504L319.18018441851746,318.0162842960963L319.4779826872418,317.5962363374306L326.0891042529165,318.3838152530707L329.9604817463314,316.808610241565L333.89141889348866,319.1188463543822L333.9509785472346,319.1188463543822L337.04808054196474,319.38134750743484L340.3238614979309,322.0585601569437L345.9820286036902,323.0033287340125L346.04158825743434,323.05581388940254L350.15120436582583,325.9421753809838L350.15120436582583,325.99464882774555L353.3078660143001,326.1520679143373L361.2888596161083,322.53095292033186L359.8594279262343,324.31539486647125L364.26684230335013,324.6827499613978L364.3264019570943,324.6827499613978L368.0786601430191,326.72925514460667L364.5646405720727,337.9007229822396L362.53961234475173,339.0016237547575L362.8969702672184,341.51762431233556L362.9565299209644,341.51762431233556L362.9565299209644,341.5700359029024L365.0411178020331,341.8320907420525L362.48005269100577,343.61392606378604L361.944015807303,346.0242628459782L352.11667293940445,350.58174491294676L345.3268724124955,352.10055761972944L342.9444862627024,349.4818064595379L342.2297704177636,345.7622909630236L334.4870154309392,342.67063135967373L332.9980240873174,340.67901062789315Z" class="sc-kAyceB dIJauC Lepa Rada mapstate" fill="rgb(18, 108, 189)" stroke-width="0.9px" data-darkreader-inline-fill="" style="--darkreader-inline-fill: #0e5697;"></path><path d="M260.6926044410993,326.9916046207113L261.3477606322922,327.09654294907705L264.6831012420025,328.61805484894785L265.99341362438827,329.7197297433063L267.303726006774,329.7197297433063L272.1876176138503,331.81790362772745L269.9243507715473,335.17428827716276L272.7832141512972,342.7754452016893L280.88332706059373,340.78384024535035L282.07452013548937,343.4567149471354L285.5289800526916,344.3475532621105L285.64809936018173,347.38643315038007L294.10557019194675,347.64837292722314L299.1681407602555,352.0481876617205L299.1681407602555,352.10055761972944L299.0490214527672,352.624245834008L298.57254422280675,356.0277157967462L298.69166353029686,356.13242411943156L301.0144900263458,357.9646862111622L301.0144900263458,358.01703284494806L302.56304102370996,357.38885963238454L302.97995859992443,357.7029499498399L302.97995859992443,358.2264173186527L291.1871471584491,367.2268335604672L287.4348889725243,372.14309696485725L287.73268724125046,372.40454958646114L287.49444862627024,372.665997085644L289.22167858487046,373.45030885433016L289.0429996236362,376.3779990929115L292.73569815581504,378.62561152397575L292.6761385020691,381.13412793856105L293.509973654498,382.9107091322944L291.3062664659392,383.7466657360278L290.8297892359824,383.798911290306L289.8172751223192,384.2691121034768L288.5665223936776,384.79153808413366L286.95841174256566,381.55216826688456L285.4098607452015,381.02961581517775L281.062006021828,381.6566763078408L276.23767406849765,386.14975025614103L272.24717726759627,387.50782472353103L269.6861121565671,385.47066138818354L258.54845690628645,384.0078914683818L272.5449755363188,383.4854349058446L276.2972337222436,380.0367099102664L276.2972337222436,378.78240758878337L270.1030297327816,375.3324691163584L270.5795069627384,372.2476786282273L258.4888972525405,368.6391373427573L256.76166729394026,365.97132675111743L256.1065111027474,358.1740715094347L253.00940910801546,355.76594137932034L254.8557583741076,349.1675215734681L252.94984945427314,346.338622268112L255.2131162965743,345.0811398213359L256.9403462551745,338.4249728776017L252.2351336093343,336.537575942521L252.1160143018442,335.43646990718753L256.8807866014304,334.17795062098L258.8462551750108,328.7229802324837Z" class="sc-kAyceB dIJauC Kamle mapstate" fill="rgb(18, 108, 189)" stroke-width="0.9px" data-darkreader-inline-fill="" style="--darkreader-inline-fill: #0e5697;"></path></svg>