<svg xmlns="http://www.w3.org/2000/svg"  xmlns:xlink="http://www.w3.org/1999/xlink"  id="map" width="695" height="695"><defs><filter id="sofGlow" height="300%" width="300%" x="-75%" y="-75%"><feMorphology operator="dilate" radius="4" in="SourceAlpha" result="thicken"></feMorphology><feGaussianBlur in="thicken" stdDeviation="10" result="blurred"></feGaussianBlur><feFlood flood-color="rgb(0,186,255)" result="glowColor"></feFlood><feComposite in="glowColor" in2="blurred" operator="in" result="softGlow_colored"></feComposite><feMerge><feMergeNode in="softGlow_colored"></feMergeNode><feMergeNode in="SourceGraphic"></feMergeNode></feMerge></filter></defs><path d="M484.19157502827875,158.07062503889756L484.19157502827875,161.171028668301L485.48527890034893,163.44883203271456L490.36607078133966,170.78816600771825L493.7179399044253,176.60874078139022L494.1295729546255,183.4412776200843L495.71730043398566,188.7552401753419L498.8339506712364,195.8402068429932L499.7160214931064,200.6476566837664L502.5974528445222,202.92481161293836L510.53609024130856,207.47900933521305L518.2983134737005,210.51505809677474L519.8860409530607,213.80403595355165L519.4156031814055,218.1048893706029L518.2983134737005,224.42943167833437L518.2983134737005,233.030346748812L517.4162426518451,238.84831066495826L515.4168821222993,248.20713240859186L513.2411074283445,254.7832244334786L510.1244571910938,259.841544897994L507.65465888986364,266.92288411909976L507.65465888986364,274.762517273688L510.1244571910938,283.36031607930636L512.300231885034,291.9575830597605L515.0052490720846,297.26739411812014L520.0624551174405,298.53160495706834L517.0046096016449,302.5770024000158L511.8885988348193,305.1053160374795L510.7713091271289,307.823201930034L513.6527404785447,315.15490827483154L517.1810237660247,320.463833697293L522.2970345328213,323.49741440320213L528.2951161214878,326.025347796196L532.2938371806231,325.519764792145L536.0573393539235,323.24461853753746L538.2919187693042,328.80602147919853L538.7035518195044,334.36720214197703L543.5843437004805,331.33385842374264L546.0541420017107,334.6199778005612L548.7003544673207,340.4336912308936L548.7003544673207,345.99440728225454L546.7009939377458,348.2691816405786L544.7016334081854,353.0713609975355L543.5843437004805,358.3788402128048L541.5849831709202,363.18067089778924L537.1746290616138,367.9823360110313L533.1759080024785,374.55276738652174L531.0001333085675,380.17529430188006L529.2359916648275,376.63755103006406L522.708667583036,372.02571507597895L510.59489496276365,363.05430905376124L501.30374897243746,357.99974126404413L498.65753650685656,354.0191399820833L497.5990515206213,351.61808735616796L496.1877382056409,351.42852880623104L491.8361888177751,354.20869500473054L487.42583470846876,354.39824976933596L482.30982394162857,351.9972036816689L476.8997895675275,348.20599396592297L473.5479204444564,347.0054226974753L471.07812214324076,346.43672742994386L468.96115217075567,347.0054226974753L466.9029869197402,350.038424886814L465.6680877691251,354.65098905399645L463.0218753035442,359.0106695004797L460.0228345092037,364.0020200890285L455.49487095695804,369.43543887480337L453.0250726557424,371.4571219876889L451.2609310120024,372.02571507597895L448.20308549620677,371.5202991121041L451.3197357334575,367.47690537414746L457.7294503723533,360.147954993452L462.84546113914985,355.8514943907212L463.25709418935,350.5439188271921L461.2577336598042,348.2691816405786L458.8467400800437,346.24716182448174L458.37630230837385,341.76070047060057L455.49487095695804,337.9692119315514L448.20308549620677,337.2109018287447L441.7933708573255,335.94704247517075L436.6773600905144,333.92484363465337L434.79560900386423,329.5643773845077L437.7358450767497,326.34133624075184L440.5584717067104,320.1478319027883L443.38109833670023,318.7574154792237L445.3216541447764,315.723731404687L447.4386241172615,309.7193699341078L448.26189021766186,306.9383146804903L447.2622099528817,305.3581448729601L443.55751250105095,305.1053160374795L442.1461991860706,302.5137939700653L441.4405425285804,299.9222236035348L437.91225924111495,297.330604933064L435.9717034330097,294.9285737612663L435.79528926865896,293.34826746249746L436.32453176175477,290.50367085453763L436.50094592614914,288.2911665825741L436.6773600905144,286.7107848274318L437.91225924111495,287.9118766000465L443.7339266654453,293.53790516682784L445.67448247353605,293.53790516682784L448.4383043820417,289.9347445479725L450.5552743545122,287.3429396856518L453.3779009844875,285.1303851036646L456.61216066463385,281.1476980979205L458.37630230837385,280.32585959027347L459.4347872946091,282.09596726030577L460.66968644523877,285.3200340192925L463.31589891081967,285.1303851036646L465.0800405545597,284.4982201826788L465.90330665496003,287.1532935300638L467.66744829870004,291.32544918677013L469.784418271156,292.7161399131146L473.1362873942562,292.1472226611222L476.4881565173273,291.9575830597605L479.604806754578,293.53790516682784L483.30950420640875,293.91717979946407L487.1906158226193,292.1472226611222L489.48399995946966,289.3026014764546L491.5421652104851,286.52113780935906L492.95347852546547,281.52700653923966L493.30630685421056,270.08407974024885L493.1298926898453,262.49708940649725L496.1289334841713,253.70830760270474L496.3053476485511,248.27036554533697L494.54120600482565,244.0969167559815L492.7770643611002,241.6939650971035L492.7770643611002,238.46888566729467L492.4242360323551,236.8879370158029L486.3085450007493,235.87612043093395L475.25325736672676,232.8406264291334L471.37214575053076,232.8406264291334L468.5495191205555,234.67457865834876L465.72689249059476,236.69822196784662L462.7866564177093,237.6467946152552L462.6102422533295,233.85246513786115L461.5517572670942,229.8683075689114L458.5527164727537,229.48885802696896L454.6716048565577,226.83268218902958L451.9077829480375,225.4413317020444L448.0266713318415,222.84832312161598L443.96914555125113,219.24332825728197L443.08707472941023,214.2467770190633L442.38141807192005,209.62955073748162L445.73328719499114,207.0362466731458L449.79081297556695,206.65673469525063L451.5549546192924,204.63265327917907L451.2021262905473,201.59647578049044L448.0266713318415,199.63557582703652L447.32101467433677,196.78905882538675L445.2040447018662,195.8402068429932L442.55783223627077,193.18338675778796L441.8521755787806,187.80633322573703L440.26444809943496,183.8208531276905L438.2062828484195,179.96178704556223L439.44118199902005,177.17813171236776L444.49838804437604,178.1903764821036L450.3200554686773,178.7597609172226L455.5536756783986,178.38017155362468L460.1404439520993,175.40668558063044L466.6089633124502,169.96567377738393L470.6664890930406,163.5753755663245L473.4891157230013,160.15865959998337L478.01707927524694,158.13389927571552L480.3104634120682,153.57808037095674Z" class="sc-kAyceB dIJauC Central mapstate" fill="rgb(18, 108, 189)" stroke-width="0.9px"></path><path d="M480.3104634120682,153.57808037095674L478.01707927524694,158.13389927571552L473.4891157230013,160.15865959998337L470.6664890930406,163.5753755663245L466.6089633124502,169.96567377738393L460.1404439520993,175.40668558063044L455.5536756783986,178.38017155362468L450.3200554686773,178.7597609172226L444.49838804437604,178.1903764821036L439.44118199902005,177.17813171236776L438.2062828484195,179.96178704556223L440.26444809943496,183.8208531276905L441.8521755787806,187.80633322573703L442.55783223627077,193.18338675778796L445.2040447018662,195.8402068429932L447.32101467433677,196.78905882538675L448.0266713318415,199.63557582703652L451.2021262905473,201.59647578049044L451.5549546192924,204.63265327917907L449.79081297556695,206.65673469525063L445.73328719499114,207.0362466731458L442.38141807192005,209.62955073748162L443.08707472941023,214.2467770190633L443.96914555125113,219.24332825728197L448.0266713318415,222.84832312161598L451.9077829480375,225.4413317020444L454.6716048565577,226.83268218902958L458.5527164727537,229.48885802696896L461.5517572670942,229.8683075689114L462.6102422533295,233.85246513786115L462.7866564177093,237.6467946152552L465.72689249059476,236.69822196784662L468.5495191205555,234.67457865834876L471.37214575053076,232.8406264291334L475.25325736672676,232.8406264291334L486.3085450007493,235.87612043093395L492.4242360323551,236.8879370158029L492.7770643611002,238.46888566729467L492.7770643611002,241.6939650971035L494.54120600482565,244.0969167559815L496.3053476485511,248.27036554533697L496.1289334841713,253.70830760270474L493.1298926898453,262.49708940649725L493.30630685421056,270.08407974024885L492.95347852546547,281.52700653923966L491.5421652104851,286.52113780935906L489.48399995946966,289.3026014764546L487.1906158226193,292.1472226611222L483.30950420640875,293.91717979946407L479.604806754578,293.53790516682784L476.4881565173273,291.9575830597605L473.1362873942562,292.1472226611222L469.784418271156,292.7161399131146L467.66744829870004,291.32544918677013L465.90330665496003,287.1532935300638L465.0800405545597,284.4982201826788L463.31589891081967,285.1303851036646L460.66968644523877,285.3200340192925L459.4347872946091,282.09596726030577L458.37630230837385,280.32585959027347L456.61216066463385,281.1476980979205L448.90874215369695,277.1016769737471L450.49646963305713,273.6877550202771L451.2021262905473,270.7163102337654L445.73328719499114,272.4865403114454L437.32421202653495,272.92909430702275L429.3855746297777,270.52664138776163L425.38685357065697,266.7332100945787L427.26860465727805,265.91128632931213L428.3270896435133,264.89968117370154L426.79816688563733,262.1177290132691L427.7978471504175,258.89312384197547L430.2676454516186,257.12272054468485L429.7384029585228,251.8746067495449L427.9742613147682,248.1438992430485L425.73968189940206,244.66603079502966L429.0915510224877,241.18807523833675L429.6207935155835,236.44526816729194L427.9742613147682,232.6509058501615L426.3277291139675,228.85643981867906L422.9758599908819,231.3860953642652L419.3887719819759,235.180492251151L415.80168397305533,236.1290752684872L408.86272684104915,235.4966873104131L405.8048813252535,235.8128816495373L401.10050360865716,245.29837699168274L398.33668170015153,247.82773298333632L394.161546476651,250.6732034080269L392.8090378831257,253.5186155336778L391.69174817543535,258.57698205096676L389.98641125315044,260.4738220045547L386.10529963695444,264.26742421083327L382.2241880207439,263.6351643704911L379.22514722640335,262.68676921461156L379.22514722640335,257.31240769159194L375.34403561020736,244.03368171878537L366.17049906282045,226.95916790534102L363.7007007616048,224.11321140796645L359.2315419308143,223.1645462739325L355.1152114287688,222.5320992487832L351.46931869840773,220.3185119638947L350.64605259797827,221.2671965521149L347.5882070821972,221.89964934151794L344.0011190732912,221.89964934151794L342.3545868724759,223.1645462739325L336.8269430554501,230.43747993697616L334.0043164254894,233.59950615208072L331.00527563114883,233.28330677167105L306.01326901165885,215.25875129266205L300.48562519463303,214.62626823655592L295.4872238707467,215.25875129266205L282.1973568213143,207.41575761287822L274.1411099816178,205.83445518161898L266.1436678633763,204.25313472589914L260.85124293219997,201.40671248032595L257.55817853055487,200.45789208562928L255.61762272246415,193.81596758485102L251.73651110626815,186.85741978281294L252.5597772066685,184.32695218818117L252.85380081395851,173.25561341706634L252.5597772066685,167.56143773526856L250.0311741839978,165.03061789877393L236.44728352727543,159.01973555782752L230.9196397102496,159.01973555782752L225.68601950052835,158.07062503889756L216.51248295314144,148.57916227081296L214.27790353773162,147.62998023096588L209.86754942842526,149.21194668456155L201.2820600956038,142.56756617883366L199.0474806802231,140.98552384581126L199.3415042875131,139.71987696953147L200.45879399520345,137.50496710749576L197.93019097251818,135.92286694866198L198.22421457979362,134.0243229017433L200.45879399520345,129.91072151105618L198.22421457979362,128.01209503930295L197.69497208669782,126.74632959558221L198.7534570729331,123.89831504090398L196.2836587717029,121.05024190314725L193.343422698832,118.51857215019118L196.636487100448,117.37930565706483L199.2238948445738,103.64407721294992L202.5169592462189,101.87169038023421L213.80746576607635,110.60680575020524L217.45335849645198,109.65736339303112L224.27470618553343,95.16173458110279L228.92027918068925,91.99654814504174L231.74290581066452,91.99654814504174L248.38464198318252,87.69177838151518L266.67291035650123,87.18532607343514L280.90365294924413,95.4149463680078L284.8435692868952,95.03512851388223L288.3718525743607,84.65303672056325L291.95894058326667,73.82697698610718L306.07207373311394,46.663131006775075L324.59556099226756,46.91643161461252L329.82918120198883,37.60732927378558L336.474114726705,31.59090909090446L345.17721350243664,44.76336164974782L363.9359196474106,47.67633065269183L372.8742373089772,52.93218461613287L375.8732781033177,56.03494434427557L397.80743920701207,57.048075294835144L405.4520529965084,66.22923601938965L406.04010021108843,73.89028974036773L403.9819349600584,84.52642103606922L410.2740401560295,88.57806545924541L413.97873760786024,87.50185898328346L423.5639072054619,79.52500879187573L434.0311476249335,67.62218644845416L439.79401032776514,63.37997552358138L462.02219503876404,61.10052484949847L465.78569721204985,55.148448671461665L473.4891157230013,57.048075294835144L480.66329174082784,57.61795819154213L486.6613733294944,60.340699606444105L490.18965661695984,63.886515014200995L494.4235965619155,70.9145589554173L493.4239162971353,83.76672449533362L501.2449442509969,97.06081168803212L496.9521995845862,126.05015366952284L474.78281959505694,123.51857534080045L474.6064054306771,140.92224177667958L477.4878367821075,150.2243957349565Z" class="sc-kAyceB dIJauC North mapstate" fill="rgb(18, 108, 189)" stroke-width="0.9px"></path><path d="M456.61216066463385,281.1476980979205L453.3779009844875,285.1303851036646L450.5552743545122,287.3429396856518L448.4383043820417,289.9347445479725L445.67448247353605,293.53790516682784L443.7339266654453,293.53790516682784L437.91225924111495,287.9118766000465L436.6773600905144,286.7107848274318L436.50094592614914,288.2911665825741L436.32453176175477,290.50367085453763L435.79528926865896,293.34826746249746L435.9717034330097,294.9285737612663L437.91225924111495,297.330604933064L441.4405425285804,299.9222236035348L442.1461991860706,302.5137939700653L443.55751250105095,305.1053160374795L447.2622099528817,305.3581448729601L448.26189021766186,306.9383146804903L447.4386241172615,309.7193699341078L445.3216541447764,315.723731404687L443.38109833670023,318.7574154792237L440.5584717067104,320.1478319027883L437.7358450767497,326.34133624075184L434.79560900386423,329.5643773845077L430.20884073017805,328.55323525892163L425.9749007852224,326.72052142694156L427.03338577147224,324.7613868412591L429.85601240143296,321.91743270657025L429.5031840726879,318.567812162888L428.0918707577075,313.5116283882089L426.3277291139675,312.12114562753413L423.8579308127519,311.552307764272L424.03434497711714,307.5071714158403L424.38717330586223,304.3468267729768L421.97617972608714,305.1053160374795L418.4478964386508,307.5071714158403L413.3318856718397,310.7306489655675L409.8036023843888,312.7531849692823L407.39260880462825,311.74192064388626L404.92281050339807,311.74192064388626L401.0416988872021,310.7306489655675L398.9247289147024,307.9496139346302L392.8090378831257,301.7552905697303L388.39868377379025,299.9222236035348L386.8109562944446,299.9222236035348L382.98864939968917,297.330604933064L380.16602276972844,294.29645339735L379.9896086053486,291.70472985549713L381.40092192034354,289.49224469974433L381.9301644134539,286.33149053250236L380.51885109847353,284.30857014568755L379.63678027660353,285.3200340192925L376.8141536466428,288.1015217206732L376.8141536466428,290.69331243933266L375.9320828247728,291.70472985549713L373.99152701666753,294.1068167277481L372.58021370168717,296.31922844517976L371.4041192725417,296.31922844517976L369.11073513569136,293.09541678765527L366.81735099885555,288.73367025417974L364.52396686199063,288.73367025417974L362.054168560775,291.70472985549713L359.40795609517954,294.7389379538872L356.64413418665936,290.94616748325643L353.11585089920845,286.33149053250236L350.64605259797827,285.69933107426914L349.0583251186472,288.2911665825741L347.9998401324119,289.9347445479725L345.7652607170021,288.73367025417974L342.94263408704137,286.7107848274318L338.88510830646555,287.3429396856518L335.886067512125,288.92331425366865L331.18168979552865,292.90577847971144L328.711891494313,293.91717979946407L326.947749850573,293.34826746249746L321.47891075501684,288.5440259959796L316.9509472027712,283.2970989114983L314.1283205728105,283.2970989114983L310.7764514497103,284.9407359292454L306.7777303906041,288.1015217206732L304.660760418119,291.70472985549713L302.8966187743936,293.53790516682784L300.77964880192303,291.8943698017829L296.54570885698195,285.3200340192925L291.3120886472461,277.9235345481211L288.4894620172854,274.88895934523316L283.54986541482504,273.11875987368694L277.4341743832483,274.88895934523316L270.5540219726972,277.1016769737471L262.4977751330007,277.9235345481211L256.7349124301545,277.7338755392557L254.08869996455905,278.11319329810067L251.97172999207396,284.11891984997055L244.91516341717215,295.3078446000436L241.79851317992143,298.53160495706834L238.62305822120106,297.8995009744831L229.68474055964907,290.94616748325643L214.3955129806709,278.11319329810067L212.80778550129617,273.49809023029957L211.04364385757071,269.32539935063687L209.10308804948,268.88283387691627L204.3987103328691,270.08407974024885L198.0478004154429,273.6877550202771L194.81354073526745,276.0901532867574L195.22517378546763,269.70474006327277L190.991233840512,263.82484262474463L179.7007273206691,254.21415185346996L190.6384055117669,228.4137453584699L188.93306858949654,221.7099138073463L190.22677246156672,214.87926180493378L186.8749033384811,208.9337909903843L176.1724440331891,197.61139195955184L185.8752230737009,178.50670145697222L182.87618227937492,172.49640350758273L180.9356264712551,160.22193288341805L181.81769729313964,150.4775068415256L175.29037321133364,139.34018065148848L175.17276376842347,131.80932195182686L180.9356264712551,116.49320301385887L187.81577888180618,120.48062024502724L193.343422698832,118.51857215019118L196.2836587717029,121.05024190314725L198.7534570729331,123.89831504090398L197.69497208669782,126.74632959558221L198.22421457979362,128.01209503930295L200.45879399520345,129.91072151105618L198.22421457979362,134.0243229017433L197.93019097251818,135.92286694866198L200.45879399520345,137.50496710749576L199.3415042875131,139.71987696953147L199.0474806802231,140.98552384581126L201.2820600956038,142.56756617883366L209.86754942842526,149.21194668456155L214.27790353773162,147.62998023096588L216.51248295314144,148.57916227081296L225.68601950052835,158.07062503889756L230.9196397102496,159.01973555782752L236.44728352727543,159.01973555782752L250.0311741839978,165.03061789877393L252.5597772066685,167.56143773526856L252.85380081395851,173.25561341706634L252.5597772066685,184.32695218818117L251.73651110626815,186.85741978281294L255.61762272246415,193.81596758485102L257.55817853055487,200.45789208562928L260.85124293219997,201.40671248032595L266.1436678633763,204.25313472589914L274.1411099816178,205.83445518161898L282.1973568213143,207.41575761287822L295.4872238707467,215.25875129266205L300.48562519463303,214.62626823655592L306.01326901165885,215.25875129266205L331.00527563114883,233.28330677167105L334.0043164254894,233.59950615208072L336.8269430554501,230.43747993697616L342.3545868724759,223.1645462739325L344.0011190732912,221.89964934151794L347.5882070821972,221.89964934151794L350.64605259797827,221.2671965521149L351.46931869840773,220.3185119638947L355.1152114287688,222.5320992487832L359.2315419308143,223.1645462739325L363.7007007616048,224.11321140796645L366.17049906282045,226.95916790534102L375.34403561020736,244.03368171878537L379.22514722640335,257.31240769159194L379.22514722640335,262.68676921461156L382.2241880207439,263.6351643704911L386.10529963695444,264.26742421083327L389.98641125315044,260.4738220045547L391.69174817543535,258.57698205096676L392.8090378831257,253.5186155336778L394.161546476651,250.6732034080269L398.33668170015153,247.82773298333632L401.10050360865716,245.29837699168274L405.8048813252535,235.8128816495373L408.86272684104915,235.4966873104131L415.80168397305533,236.1290752684872L419.3887719819759,235.180492251151L422.9758599908819,231.3860953642652L426.3277291139675,228.85643981867906L427.9742613147682,232.6509058501615L429.6207935155835,236.44526816729194L429.0915510224877,241.18807523833675L425.73968189940206,244.66603079502966L427.9742613147682,248.1438992430485L429.7384029585228,251.8746067495449L430.2676454516186,257.12272054468485L427.7978471504175,258.89312384197547L426.79816688563733,262.1177290132691L428.3270896435133,264.89968117370154L427.26860465727805,265.91128632931213L425.38685357065697,266.7332100945787L429.3855746297777,270.52664138776163L437.32421202653495,272.92909430702275L445.73328719499114,272.4865403114454L451.2021262905473,270.7163102337654L450.49646963305713,273.6877550202771L448.90874215369695,277.1016769737471Z" class="sc-kAyceB dIJauC North West mapstate" fill="rgb(18, 108, 189)" stroke-width="0.9px"></path><path d="M434.79560900386423,329.5643773845077L436.6773600905144,333.92484363465337L441.7933708573255,335.94704247517075L448.20308549620677,337.2109018287447L455.49487095695804,337.9692119315514L458.37630230837385,341.76070047060057L458.8467400800437,346.24716182448174L461.2577336598042,348.2691816405786L463.25709418935,350.5439188271921L462.84546113914985,355.8514943907212L457.7294503723533,360.147954993452L451.3197357334575,367.47690537414746L448.20308549620677,371.5202991121041L447.32101467433677,368.9931917820577L443.96914555125113,364.4442830316257L439.79401032776514,365.96060245764966L433.79592873908405,366.2133207568768L431.7965682095237,364.69700408251083L427.38621410021733,358.3788402128048L421.7997655617364,352.06038963556784L419.3887719819759,351.3021562962167L416.5073406305455,353.8295847013651L413.1554715074599,354.3350648764681L411.8617676353897,353.32410269096727L410.09762599166424,350.7966651090828L406.98097575439897,352.56587623420637L404.51117745318334,351.55490120152535L400.100823343877,350.038424886814L394.1027417551959,350.5439188271921L384.81159576488426,353.8295847013651L383.459087171359,356.3569672252197L383.2238682855241,365.2024448084121L381.2245077559637,366.7187559795493L377.93144335433317,369.245904578449L375.2852308887377,374.55276738652174L373.6975034093921,379.1013460198883L365.70006129115063,384.1551481009592L360.17241747413937,386.42929923004704L347.9998401324119,381.12288885193266L343.53068130162137,380.1121211026839L339.59076496395573,381.6282699765143L334.47475419714465,385.67125297799794L330.240814252189,386.93466110691224L321.83173908376193,380.1121211026839L315.59843860924593,376.3216767260601L313.599078079671,377.33247197767196L311.42330338575994,379.606734478024L308.0714342626743,379.3540404781379L302.95542349584866,379.1013460198883L301.4265007379581,379.8594280195466L301.6617196237785,382.8917147674583L303.66108015333884,388.19805778011505L303.1906423816836,390.2194686307266L301.1912818521232,392.7461909589474L303.1906423816836,395.5255326065453L311.188084499925,401.5893583624056L312.54059309343575,404.3685236708261L308.71828619869484,404.3685236708261L305.19000291124394,404.8738205010013L302.95542349584866,406.8949895056576L300.9560629662883,406.13705456309253L293.66427750553703,400.83139457023935L284.13791262940504,398.05215873334964L281.9033332140243,395.27286747450125L280.13919157029886,392.7461909589474L277.90461215488904,382.13364926783834L276.37568939701305,378.09056360322575L275.4936185751285,377.33247197767196L270.84804557998723,376.0689767671138L266.37888674921123,374.80547009604925L264.37952621965087,369.7513287956099L263.49745539778087,365.96060245764966L260.2043909961503,366.4660385975076L253.97109052163432,369.245904578449L247.9730089329678,369.7513287956099L246.4440861750627,367.72962092187663L246.91452394673252,363.6861171272394L245.79723423904215,358.1261076949959L242.21014623010706,349.78567722830485L241.09285652243125,343.2140770260521L241.56329429407197,337.71644235635904L243.32743593779742,334.430396099684L241.56329429407197,332.9137331945749L234.0362899475149,329.88035779185157L231.39007748191943,327.60528284256725L228.92027918068925,323.05502133684786L226.68569976530853,322.8022246673645L220.04076624059235,328.86921796249226L217.15933488917653,330.13314160110167L214.51312242356653,327.85807078508515L211.3964721863158,327.3524944407618L207.8681888988649,327.85807078508515L205.63360948346963,326.84691625935375L204.98675754743454,324.571791707589L203.22261590370908,323.5606132978137L198.57704290853871,321.2854350035559L193.46103214174218,316.98777447631437L189.22709219678654,312.1843496909787L186.69848917413037,307.1279338508102L185.16956641621073,298.7212355914962L187.99219304617145,292.7793527974063L189.87394413282163,284.6246533968879L194.81354073526745,276.0901532867574L198.0478004154429,273.6877550202771L204.3987103328691,270.08407974024885L209.10308804948,268.88283387691627L211.04364385757071,269.32539935063687L212.80778550129617,273.49809023029957L214.3955129806709,278.11319329810067L229.68474055964907,290.94616748325643L238.62305822120106,297.8995009744831L241.79851317992143,298.53160495706834L244.91516341717215,295.3078446000436L251.97172999207396,284.11891984997055L254.08869996455905,278.11319329810067L256.7349124301545,277.7338755392557L262.4977751330007,277.9235345481211L270.5540219726972,277.1016769737471L277.4341743832483,274.88895934523316L283.54986541482504,273.11875987368694L288.4894620172854,274.88895934523316L291.3120886472461,277.9235345481211L296.54570885698195,285.3200340192925L300.77964880192303,291.8943698017829L302.8966187743936,293.53790516682784L304.660760418119,291.70472985549713L306.7777303906041,288.1015217206732L310.7764514497103,284.9407359292454L314.1283205728105,283.2970989114983L316.9509472027712,283.2970989114983L321.47891075501684,288.5440259959796L326.947749850573,293.34826746249746L328.711891494313,293.91717979946407L331.18168979552865,292.90577847971144L335.886067512125,288.92331425366865L338.88510830646555,287.3429396856518L342.94263408704137,286.7107848274318L345.7652607170021,288.73367025417974L347.9998401324119,289.9347445479725L349.0583251186472,288.2911665825741L350.64605259797827,285.69933107426914L353.11585089920845,286.33149053250236L356.64413418665936,290.94616748325643L359.40795609517954,294.7389379538872L362.054168560775,291.70472985549713L364.52396686199063,288.73367025417974L366.81735099885555,288.73367025417974L369.11073513569136,293.09541678765527L371.4041192725417,296.31922844517976L372.58021370168717,296.31922844517976L373.99152701666753,294.1068167277481L375.9320828247728,291.70472985549713L376.8141536466428,290.69331243933266L376.8141536466428,288.1015217206732L379.63678027660353,285.3200340192925L380.51885109847353,284.30857014568755L381.9301644134539,286.33149053250236L381.40092192034354,289.49224469974433L379.9896086053486,291.70472985549713L380.16602276972844,294.29645339735L382.98864939968917,297.330604933064L386.8109562944446,299.9222236035348L388.39868377379025,299.9222236035348L392.8090378831257,301.7552905697303L398.9247289147024,307.9496139346302L401.0416988872021,310.7306489655675L404.92281050339807,311.74192064388626L407.39260880462825,311.74192064388626L409.8036023843888,312.7531849692823L413.3318856718397,310.7306489655675L418.4478964386508,307.5071714158403L421.97617972608714,305.1053160374795L424.38717330586223,304.3468267729768L424.03434497711714,307.5071714158403L423.8579308127519,311.552307764272L426.3277291139675,312.12114562753413L428.0918707577075,313.5116283882089L429.5031840726879,318.567812162888L429.85601240143296,321.91743270657025L427.03338577147224,324.7613868412591L425.9749007852224,326.72052142694156L430.20884073017805,328.55323525892163Z" class="sc-kAyceB dIJauC West mapstate" fill="rgb(18, 108, 189)" stroke-width="0.9px"></path><path d="M360.17241747413937,386.42929923004704L359.70197970246954,392.8725258727427L357.11457195834373,398.6206432994586L355.0564067073283,402.34731803281466L356.76174362959864,405.315953724923L358.70229943768936,408.0950447369396L357.4674002870888,409.48456946737133L353.64509339233337,412.26357738077786L351.76334230569773,417.9477392288172L337.356185548575,438.66139073560043L333.0634408821643,441.06094423600007L330.240814252189,438.09306938786176L321.77293436230684,436.32494372203655L319.7147691112914,436.70382967981277L318.3034557962965,442.38699557028303L315.89246221653593,443.3973119372604L310.0119900707796,440.42948678982793L307.95382481974957,441.43981733186956L300.13279686588794,451.85842433766084L299.07431187965267,455.0154244094083L299.603554372763,459.1825551611546L317.77421330317156,469.6629704828447L320.5968399331323,473.19835480635084L321.42010603356175,475.7235745172584L322.30217685540265,477.93310430333077L332.5341983890539,483.6145917990434L337.7090138773201,484.8139873895125L340.47283578582574,484.8139873895125L342.0605632651859,485.1927417518673L340.649249950191,489.5483430983004L338.94391302792064,493.0832240578093L339.47315552104556,495.4818423383549L341.35490660769574,497.6279395757083L354.5271642141888,508.1054703943664L357.8202286158339,511.4505406879616L357.64381445143954,515.7422117319875L353.2922650635883,523.441644214523L349.88159121904755,530.0678654334624L348.29386373968737,527.7329471240155L332.5341983890539,515.237316096056L326.7125309647381,514.7955309184836L314.48114890155557,523.7571856799623L304.8959793039394,521.9270352661842L296.6633182998776,517.0044428425317L286.72532037355995,504.57096949875995L270.96565502288286,498.0066591954237L266.37888674921123,497.94353933008097L255.20598967224942,485.44524408949655L248.38464198318252,486.45524887503416L243.3862406592816,493.2094681519884L246.0324531248625,499.5215274081929L253.91228580019379,504.0660335011271L261.3804854253103,510.1882594174749L260.85124293219997,518.2666625545753L254.55913773622888,522.9998849663971L236.80011185602052,515.9315471252339L220.80522761953762,510.5669449957277L211.3964721863158,505.5808360201336L183.64064365830563,524.0727264331435L170.35077660890238,520.8541773320903L158.001785102766,516.6257747062191L141.5364630946424,522.3687979046153L128.6582290954102,518.5822157016228L124.30667970755894,520.7279582102638L116.2504328678624,527.2280947948748L107.60613881358586,530.1309707925611L101.13761945326405,523.0629935159086L107.72374825652514,510.31448805758555L104.07785552613495,504.5078525988647L84.14305495200097,486.5814989596911L81.2616236005706,478.75377789092454L58.97463416811661,466.56943575977493L53.50579507257498,432.72547579652746L55.975593373790616,420.97919747098786L73.67581453254388,422.62120983674686L79.02704418518988,419.71609787903435L86.08361076010624,406.20021596573497L105.95960661278514,359.64249592111446L124.30667970755894,366.08696166458685L128.4818149310595,366.0237820754628L136.30284288490657,359.2002177276954L143.71223778859712,359.3265830691671L159.17787953194056,371.5202991121041L161.8828967189911,370.76217172755423L171.11523798784765,359.57931340808136L152.82696961451438,338.85390182935953L152.00370351411402,333.54567808056163L158.53102759590547,317.6829932695109L166.293250828312,310.7938536608999L181.2296500785451,309.84578021518973L186.69848917413037,307.1279338508102L189.22709219678654,312.1843496909787L193.46103214174218,316.98777447631437L198.57704290853871,321.2854350035559L203.22261590370908,323.5606132978137L204.98675754743454,324.571791707589L205.63360948346963,326.84691625935375L207.8681888988649,327.85807078508515L211.3964721863158,327.3524944407618L214.51312242356653,327.85807078508515L217.15933488917653,330.13314160110167L220.04076624059235,328.86921796249226L226.68569976530853,322.8022246673645L228.92027918068925,323.05502133684786L231.39007748191943,327.60528284256725L234.0362899475149,329.88035779185157L241.56329429407197,332.9137331945749L243.32743593779742,334.430396099684L241.56329429407197,337.71644235635904L241.09285652243125,343.2140770260521L242.21014623010706,349.78567722830485L245.79723423904215,358.1261076949959L246.91452394673252,363.6861171272394L246.4440861750627,367.72962092187663L247.9730089329678,369.7513287956099L253.97109052163432,369.245904578449L260.2043909961503,366.4660385975076L263.49745539778087,365.96060245764966L264.37952621965087,369.7513287956099L266.37888674921123,374.80547009604925L270.84804557998723,376.0689767671138L275.4936185751285,377.33247197767196L276.37568939701305,378.09056360322575L277.90461215488904,382.13364926783834L280.13919157029886,392.7461909589474L281.9033332140243,395.27286747450125L284.13791262940504,398.05215873334964L293.66427750553703,400.83139457023935L300.9560629662883,406.13705456309253L302.95542349584866,406.8949895056576L305.19000291124394,404.8738205010013L308.71828619869484,404.3685236708261L312.54059309343575,404.3685236708261L311.188084499925,401.5893583624056L303.1906423816836,395.5255326065453L301.1912818521232,392.7461909589474L303.1906423816836,390.2194686307266L303.66108015333884,388.19805778011505L301.6617196237785,382.8917147674583L301.4265007379581,379.8594280195466L302.95542349584866,379.1013460198883L308.0714342626743,379.3540404781379L311.42330338575994,379.606734478024L313.599078079671,377.33247197767196L315.59843860924593,376.3216767260601L321.83173908376193,380.1121211026839L330.240814252189,386.93466110691224L334.47475419714465,385.67125297799794L339.59076496395573,381.6282699765143L343.53068130162137,380.1121211026839L347.9998401324119,381.12288885193266Z" class="sc-kAyceB dIJauC South West mapstate" fill="rgb(18, 108, 189)" stroke-width="0.9px"></path><path d="M371.5217287154519,555.8755816744015L373.52108924501226,550.2601270034429L368.6991020854912,545.5278272554497L353.2922650635883,534.9268947502787L349.88159121904755,530.0678654334624L353.2922650635883,523.441644214523L357.64381445143954,515.7422117319875L357.8202286158339,511.4505406879616L354.5271642141888,508.1054703943664L341.35490660769574,497.6279395757083L339.47315552104556,495.4818423383549L338.94391302792064,493.0832240578093L340.649249950191,489.5483430983004L342.0605632651859,485.1927417518673L340.47283578582574,484.8139873895125L337.7090138773201,484.8139873895125L332.5341983890539,483.6145917990434L322.30217685540265,477.93310430333077L321.42010603356175,475.7235745172584L320.5968399331323,473.19835480635084L317.77421330317156,469.6629704828447L299.603554372763,459.1825551611546L299.07431187965267,455.0154244094083L300.13279686588794,451.85842433766084L307.95382481974957,441.43981733186956L310.0119900707796,440.42948678982793L315.89246221653593,443.3973119372604L318.3034557962965,442.38699557028303L319.7147691112914,436.70382967981277L321.77293436230684,436.32494372203655L330.240814252189,438.09306938786176L333.0634408821643,441.06094423600007L337.356185548575,438.66139073560043L351.76334230569773,417.9477392288172L353.64509339233337,412.26357738077786L357.4674002870888,409.48456946737133L358.70229943768936,408.0950447369396L356.76174362959864,405.315953724923L355.0564067073283,402.34731803281466L357.11457195834373,398.6206432994586L359.70197970246954,392.8725258727427L360.17241747413937,386.42929923004704L365.70006129115063,384.1551481009592L373.6975034093921,379.1013460198883L375.2852308887377,374.55276738652174L377.93144335433317,369.245904578449L381.2245077559637,366.7187559795493L383.2238682855241,365.2024448084121L383.459087171359,356.3569672252197L384.81159576488426,353.8295847013651L394.1027417551959,350.5439188271921L400.100823343877,350.038424886814L404.51117745318334,351.55490120152535L406.98097575439897,352.56587623420637L410.09762599166424,350.7966651090828L411.8617676353897,353.32410269096727L413.1554715074599,354.3350648764681L416.5073406305455,353.8295847013651L419.3887719819759,351.3021562962167L421.7997655617364,352.06038963556784L427.38621410021733,358.3788402128048L431.7965682095237,364.69700408251083L433.79592873908405,366.2133207568768L439.79401032776514,365.96060245764966L443.96914555125113,364.4442830316257L447.32101467433677,368.9931917820577L448.20308549620677,371.5202991121041L451.2609310120024,372.02571507597895L453.0250726557424,371.4571219876889L455.49487095695804,369.43543887480337L460.0228345092037,364.0020200890285L463.0218753035442,359.0106695004797L465.6680877691251,354.65098905399645L466.9029869197402,350.038424886814L468.96115217075567,347.0054226974753L471.07812214324076,346.43672742994386L473.5479204444564,347.0054226974753L476.8997895675275,348.20599396592297L482.30982394162857,351.9972036816689L487.42583470846876,354.39824976933596L491.8361888177751,354.20869500473054L496.1877382056409,351.42852880623104L497.5990515206213,351.61808735616796L498.65753650685656,354.0191399820833L501.30374897243746,357.99974126404413L510.59489496276365,363.05430905376124L522.708667583036,372.02571507597895L529.2359916648275,376.63755103006406L532.1762277376984,382.4495103939553L533.0582985595829,388.26122731305804L531.7057899660576,389.2087668709355L529.9416483223176,388.82975182098016L523.9435667336365,387.6295306947941L520.944525939296,389.4614429981666L520.4152834461856,394.26220236552035L517.8278757020453,396.66252003204136L514.1231782502146,399.8207697689213L511.4769657846191,404.4316858747625L510.94772329150874,411.253035457863L512.8882790995995,413.65306056524423L511.8297941133642,416.05304435992L508.30151082589873,416.05304435992L499.8924356574571,416.43198539337754L488.4843196946895,419.6529425990957L487.95507720156456,427.2313719830272L483.89755142098875,438.85083067038795L482.30982394162857,450.02733157217153L482.4862381060084,454.25775090516254L480.9573153481033,454.25775090516254L478.13468871814257,453.6263531761797L477.60544622501766,454.0051921563427L474.9592337594222,454.8260064189526L474.9592337594222,452.80553185784083L474.07716293756675,447.8173600292139L471.2545363075915,446.0493575942528L464.6096027828753,453.2475131675965L461.2577336598042,454.6365881714519L456.4945512217382,455.2048421427389L452.8486584913626,459.05628029962827L454.78921429946786,464.2334559518349L454.43638597072277,467.8321112731792L451.2609310120024,472.8195679106793L446.6741627383162,473.19835480635084L438.61791589860513,473.19835480635084L432.4434201455588,476.41800193166273L426.3277291139675,477.04929658433684L428.6211132508033,479.63757482232177L433.14907680304896,480.83700456847146L441.2641283642006,486.3921237899267L444.9100210945762,490.2427017752343L442.4990275148157,491.1895489540475L437.3830167480046,494.21941679820156L432.9726626386837,498.8272148495744L430.50286433746805,502.4249789070527L427.03338577147224,502.9930384476975L424.38717330586223,505.39148660332285L422.9758599908819,508.7997368511933L419.9768191965413,508.4210464841526L412.2734006855899,506.7800430351417L404.8640057819284,505.5808360201336L396.9841731066117,505.5808360201336L394.161546476651,507.2218535517095L390.3392395819101,520.4124099070686L389.4571687600255,526.5970268197925L392.10338122563553,528.9950699712717L398.57190058595734,531.5823861906538L402.8058405309275,534.8006883324706L405.74607660379843,538.7761357782147L410.33284487749916,538.3975266048365L413.6847140005848,537.198590793334L414.74319898682006,538.2082216337221L414.21395649369515,541.8049722666765L413.50829983620497,545.1492363590078L408.92153156250424,550.7648961941013L408.21587490501406,552.7839547431868L408.21587490501406,556.5696109832861L406.98097575439897,558.3362155072537L405.04041994630825,557.5791020140532L399.80679973657243,554.5506070696865L393.4558898191608,554.5506070696865L384.16474382884917,554.5506070696865L379.75438971952826,556.1910499688602Z" class="sc-kAyceB dIJauC New Delhi mapstate" fill="rgb(18, 108, 189)" stroke-width="0.9px"></path><path d="M482.4862381060084,454.25775090516254L483.0742853205884,457.09900533732434L485.13245057160384,456.5307590781522L487.5434441513644,451.60586124670954L490.18965661695984,449.39591470266896L492.07140770361,449.01706320959784L493.7767446258804,450.2167560758826L495.0116437764955,452.36354914831463L497.422637356256,452.994952590554L500.0100451003964,453.75263295047625L501.2449442509969,456.90959017464047L501.597772579742,460.25588687173877L501.9506009084871,463.22329041460034L504.5380086526129,464.8016708541618L507.30183056111855,466.00122805278806L509.71282414089364,467.9583781964102L509.71282414089364,470.92561801796546L511.124137455874,475.09227387096325L512.8294743781444,478.24874856165843L514.4172018575191,484.3089799752852L514.9464443506149,489.0433528016438L514.4172018575191,491.8207768410066L515.4756868437544,493.9669303211558L521.7089873182704,498.32225809427473L526.0017319846665,499.3321697798747L527.765873628392,501.0994976642105L526.7073886421567,504.0660335011271L525.1784658842371,508.9890816498737L525.4724894915416,515.489764142003L526.5309744777769,517.2568876967998L526.5309744777769,519.5919809852203L524.1199808980164,524.9562367531398L523.2379100761464,530.8882328800028L524.4728092267615,536.5675678164553L526.7073886421567,542.4990713901279L529.1183822219173,545.843318886371L531.5881805231329,550.5756079610583L532.4114466235478,555.6863003562903L532.4114466235478,559.4087859428328L532.4114466235478,562.37408494798L530.764914422718,562.5633572189909L523.8259572907264,569.0615499155901L518.8275559668255,574.2346526589026L513.2411074283445,582.2462759087575L511.0653327344189,589.8158923696683L511.8297941133642,594.7989998324556L519.6508220672258,595.8712909121241L527.5306547425571,603.6293876670825L531.4705710802082,611.7023979738806L532.6466655093682,619.3965529372144L531.3529616373125,629.9910913163985L528.353920842972,636.423098910469L507.53704944695346,649.4753837061289L498.8927553926769,653.7628256772732L487.95507720156456,656.8522246653447L475.4884762525471,658.0501365752352L457.2002078792284,658.2392796257482L441.2053236427455,663.4090909090883L427.85665187185805,646.3858221954215L424.97522052044224,637.1167291579404L414.0375423293299,627.3425318075169L401.15930833011225,623.3695986915845L392.63262371873134,622.67590040707L385.92888547256007,618.3875075060569L379.16634250494826,608.1074430321605L374.75598839562736,598.6465944051961L371.6393381583621,587.3558119092777L367.7582265421661,581.3000450736436L366.4057179486408,573.288367665511L368.46388319965627,564.5191556954887L371.5217287154519,555.8755816744015L379.75438971952826,556.1910499688602L384.16474382884917,554.5506070696865L393.4558898191608,554.5506070696865L399.80679973657243,554.5506070696865L405.04041994630825,557.5791020140532L406.98097575439897,558.3362155072537L408.21587490501406,556.5696109832861L408.21587490501406,552.7839547431868L408.92153156250424,550.7648961941013L413.50829983620497,545.1492363590078L414.21395649369515,541.8049722666765L414.74319898682006,538.2082216337221L413.6847140005848,537.198590793334L410.33284487749916,538.3975266048365L405.74607660379843,538.7761357782147L402.8058405309275,534.8006883324706L398.57190058595734,531.5823861906538L392.10338122563553,528.9950699712717L389.4571687600255,526.5970268197925L390.3392395819101,520.4124099070686L394.161546476651,507.2218535517095L396.9841731066117,505.5808360201336L404.8640057819284,505.5808360201336L412.2734006855899,506.7800430351417L419.9768191965413,508.4210464841526L422.9758599908819,508.7997368511933L424.38717330586223,505.39148660332285L427.03338577147224,502.9930384476975L430.50286433746805,502.4249789070527L432.9726626386837,498.8272148495744L437.3830167480046,494.21941679820156L442.4990275148157,491.1895489540475L444.9100210945762,490.2427017752343L441.2641283642006,486.3921237899267L433.14907680304896,480.83700456847146L428.6211132508033,479.63757482232177L426.3277291139675,477.04929658433684L432.4434201455588,476.41800193166273L438.61791589860513,473.19835480635084L446.6741627383162,473.19835480635084L451.2609310120024,472.8195679106793L454.43638597072277,467.8321112731792L454.78921429946786,464.2334559518349L452.8486584913626,459.05628029962827L456.4945512217382,455.2048421427389L461.2577336598042,454.6365881714519L464.6096027828753,453.2475131675965L471.2545363075915,446.0493575942528L474.07716293756675,447.8173600292139L474.9592337594222,452.80553185784083L474.9592337594222,454.8260064189526L477.60544622501766,454.0051921563427L478.13468871814257,453.6263531761797L480.9573153481033,454.25775090516254Z" class="sc-kAyceB dIJauC South mapstate" fill="rgb(18, 108, 189)" stroke-width="0.9px"></path><path d="M533.0582985595829,388.26122731305804L536.5277771255787,390.72481676159805L541.1145453992795,401.08404962561326L546.3481656090007,413.5267444843121L549.7000347321009,416.4951421321384L552.6990755264269,416.30567182998493L551.9934188689222,412.32673600774433L552.8754896908067,409.10560955076653L559.5204232155083,403.73690005725075L561.1081506948685,401.90517539263965L565.6949189685693,404.49484805009706L568.6351550414402,409.10560955076653L569.5172258633102,416.4951421321384L568.1059125483298,422.49490187963966L567.5766700552049,425.52626127685653L571.2813675070211,425.33680324487796L576.9266207669571,423.69482285326376L579.6904426754772,419.08454379260365L580.2196851686022,416.93723850265815L583.7479684560531,424.51581546559464L587.9819084009941,429.31536787064397L591.6278011313698,432.85177448900504L590.1576830949343,436.4512391556491L590.3340972593141,453.6894930776034L591.9218247386598,461.0135278158632L601.0953612860612,475.28166436453466L609.9748742261581,484.2458539200961L614.8556661071489,487.14962292840937L622.6178893395409,494.5981456581212L633.0851297590125,510.1882594174749L637.0838508181332,514.6693063255443L640.4357199412188,521.3590526796834L641.4942049274541,530.2571814252879L637.6718980327132,527.4174146319128L631.3209881152725,531.140652664435L628.6159709282219,537.5772032126915L622.7943035039352,542.9407690388252L614.8556661071489,549.3136798616906L605.5645201168227,554.487512727901L598.6255629848165,555.2446429514239L593.21552861073,553.8565677448933L580.9841465475329,547.1052782938932L571.9870241645112,544.5813480929646L563.8719726033742,546.0957116787104L551.0525433256262,557.452916033566L543.9371720292256,561.3015372428708L532.4114466235478,562.37408494798L532.4114466235478,559.4087859428328L532.4114466235478,555.6863003562903L531.5881805231329,550.5756079610583L529.1183822219173,545.843318886371L526.7073886421567,542.4990713901279L524.4728092267615,536.5675678164553L523.2379100761464,530.8882328800028L524.1199808980164,524.9562367531398L526.5309744777769,519.5919809852203L526.5309744777769,517.2568876967998L525.4724894915416,515.489764142003L525.1784658842371,508.9890816498737L526.7073886421567,504.0660335011271L527.765873628392,501.0994976642105L526.0017319846665,499.3321697798747L521.7089873182704,498.32225809427473L515.4756868437544,493.9669303211558L514.4172018575191,491.8207768410066L514.9464443506149,489.0433528016438L514.4172018575191,484.3089799752852L512.8294743781444,478.24874856165843L511.124137455874,475.09227387096325L509.71282414089364,470.92561801796546L509.71282414089364,467.9583781964102L507.30183056111855,466.00122805278806L504.5380086526129,464.8016708541618L501.9506009084871,463.22329041460034L501.597772579742,460.25588687173877L501.2449442509969,456.90959017464047L500.0100451003964,453.75263295047625L497.422637356256,452.994952590554L495.0116437764955,452.36354914831463L493.7767446258804,450.2167560758826L492.07140770361,449.01706320959784L490.18965661695984,449.39591470266896L487.5434441513644,451.60586124670954L485.13245057160384,456.5307590781522L483.0742853205884,457.09900533732434L482.4862381060084,454.25775090516254L482.30982394162857,450.02733157217153L483.89755142098875,438.85083067038795L487.95507720156456,427.2313719830272L488.4843196946895,419.6529425990957L499.8924356574571,416.43198539337754L508.30151082589873,416.05304435992L511.8297941133642,416.05304435992L512.8882790995995,413.65306056524423L510.94772329150874,411.253035457863L511.4769657846191,404.4316858747625L514.1231782502146,399.8207697689213L517.8278757020453,396.66252003204136L520.4152834461856,394.26220236552035L520.944525939296,389.4614429981666L523.9435667336365,387.6295306947941L529.9416483223176,388.82975182098016L531.7057899660576,389.2087668709355Z" class="sc-kAyceB dIJauC South East mapstate" fill="rgb(18, 108, 189)" stroke-width="0.9px"></path><path d="M591.6278011313698,432.85177448900504L587.9819084009941,429.31536787064397L583.7479684560531,424.51581546559464L580.2196851686022,416.93723850265815L579.6904426754772,419.08454379260365L576.9266207669571,423.69482285326376L571.2813675070211,425.33680324487796L567.5766700552049,425.52626127685653L568.1059125483298,422.49490187963966L569.5172258633102,416.4951421321384L568.6351550414402,409.10560955076653L565.6949189685693,404.49484805009706L561.1081506948685,401.90517539263965L559.5204232155083,403.73690005725075L552.8754896908067,409.10560955076653L551.9934188689222,412.32673600774433L552.6990755264269,416.30567182998493L549.7000347321009,416.4951421321384L546.3481656090007,413.5267444843121L541.1145453992795,401.08404962561326L536.5277771255787,390.72481676159805L533.0582985595829,388.26122731305804L532.1762277376984,382.4495103939553L531.0001333085675,380.17529430188006L533.1759080024785,374.55276738652174L537.1746290616138,367.9823360110313L541.5849831709202,363.18067089778924L543.5843437004805,358.3788402128048L544.7016334081854,353.0713609975355L546.7009939377458,348.2691816405786L548.7003544673207,345.99440728225454L551.8170047045714,343.71959574890934L554.4632171701523,338.6643258960976L556.6977965855622,337.400479741802L560.6377129231987,337.400479741802L564.6364339823194,335.12552774025244L567.5178653337498,331.83942030201433L572.2222430503607,331.33385842374264L575.5153074519767,329.05880724022427L579.514028511112,328.30044857937173L581.7486079264927,332.3449803434851L587.276251743504,340.9392200521979L592.1570436244947,345.99440728225454L600.8013376787712,348.77468200542353L607.2110523176525,349.78567722830485L610.6217261621932,350.2911720864504L613.3855480707134,352.1867614573057L621.9710374035058,361.72750276877196L633.0263250375574,367.85597852377396L637.3778744254232,373.73148041440436L640.7297435485088,380.491159868041L641.2589860416047,386.3029584744436L639.6712585622736,397.7994981818847L636.1429752748081,400.64190297818277L629.9684795217472,403.04211077664513L617.2666596869094,409.61088921065675L609.0928034042881,410.93723960484203L605.8585437241272,413.65306056524423Z" class="sc-kAyceB dIJauC East mapstate" fill="rgb(18, 108, 189)" stroke-width="0.9px"></path><path d="M592.1570436244947,345.99440728225454L587.276251743504,340.9392200521979L585.9825478714338,338.9170937497038L581.7486079264927,332.3449803434851L579.514028511112,328.30044857937173L575.5153074519767,329.05880724022427L572.2222430503607,331.33385842374264L567.5178653337498,331.83942030201433L564.6364339823194,335.12552774025244L560.6377129231987,337.400479741802L556.6977965855622,337.400479741802L554.4632171701523,338.6643258960976L551.8170047045714,343.71959574890934L548.7003544673207,345.99440728225454L548.7003544673207,340.4336912308936L546.0541420017107,334.6199778005612L543.5843437004805,331.33385842374264L538.7035518195044,334.36720214197703L538.2919187693042,328.80602147919853L536.0573393539235,323.24461853753746L532.7054702308378,319.19982221237296L531.1765474729327,315.15490827483154L534.7048307603982,312.37396170889406L541.17335012072,312.37396170889406L547.5830647596158,311.36269462619384L552.2286377547571,309.08731680530764L553.345927462462,304.09399609878164L556.2273588138778,298.2787637088695L556.6977965855622,290.69331243933266L557.9915004576033,277.5442162716063L563.5191442746291,275.26828486954037L567.1062322835351,276.0269328118666L570.3992966851802,279.5672351158137L571.1049533426703,280.32585959027347L572.6338761005609,280.32585959027347L573.7511658082512,278.80860650029354L577.9851057531923,280.0729852255681L586.1589620358136,284.6246533968879L587.923103679539,284.11891984997055L587.923103679539,278.80860650029354L586.8058139718632,271.2220925572765L587.923103679539,267.681577627809L589.334416994534,263.82484262474463L592.4510672317847,259.52540526549274L599.213610199411,254.5935338325653L604.800058737892,253.32892320559768L617.5018785727443,253.9612299583896L624.9112734764058,255.73167355223268L622.7943035039352,261.1060962332049L620.6185288099805,271.9807625905305L621.9122326820507,277.22811691695824L629.6744559144718,287.659016036705L629.1452134213469,296.5088620970855L627.0870481703314,300.0486427908327L618.3839493945998,304.22041149334837L617.9723163443996,314.5228798467506L616.7962219152541,319.83182939049584L615.502518043184,325.58296276815236L615.4437133217289,332.7241491691675L605.9173484455678,331.3970537589994L597.8611016058858,333.60887241130695L593.1567238892749,346.3103503883103Z" class="sc-kAyceB dIJauC Shahdara mapstate" fill="rgb(18, 108, 189)" stroke-width="0.9px"></path><path d="M536.0573393539235,323.24461853753746L532.2938371806231,325.519764792145L528.2951161214878,326.025347796196L522.2970345328213,323.49741440320213L517.1810237660247,320.463833697293L513.6527404785447,315.15490827483154L510.7713091271289,307.823201930034L511.8885988348193,305.1053160374795L517.0046096016449,302.5770024000158L520.0624551174405,298.53160495706834L515.0052490720846,297.26739411812014L512.300231885034,291.9575830597605L510.1244571910938,283.36031607930636L507.65465888986364,274.762517273688L507.65465888986364,266.92288411909976L510.1244571910938,259.841544897994L513.2411074283445,254.7832244334786L515.4168821222993,248.20713240859186L517.4162426518451,238.84831066495826L518.2983134737005,233.030346748812L518.2983134737005,224.42943167833437L519.4156031814055,218.1048893706029L519.8860409530607,213.80403595355165L518.2983134737005,210.51505809677474L510.53609024130856,207.47900933521305L502.5974528445222,202.92481161293836L499.7160214931064,200.6476566837664L498.8339506712364,195.8402068429932L495.71730043398566,188.7552401753419L494.1295729546255,183.4412776200843L493.7179399044253,176.60874078139022L490.36607078133966,170.78816600771825L485.48527890034893,163.44883203271456L484.19157502827875,161.171028668301L484.19157502827875,158.07062503889756L490.89531327443547,160.98121003130655L496.246542927096,161.99357309078914L502.3622339586873,160.41175256041606L509.8304335838184,160.41175256041606L506.77258806802274,165.6000563911948L501.009725365162,168.32067467497836L505.42007947449747,173.31888072182483L514.8876396291598,180.59442819038668L525.2960753271618,198.18069665798976L534.4696118745633,200.6476566837664L537.5274573903589,200.3946371618731L543.0551012073847,206.71998676368094L541.46737372801,216.3972135288568L546.4657750519109,223.79699041711137L550.8761291612318,226.20025187849387L558.3443287863629,224.6191634947536L563.8719726033742,226.07376547058084L570.5757108495309,231.13313188416942L575.044869680336,236.95117530753487L579.3964190682018,245.0454388585713L578.5143482463318,251.62168059394025L579.9256615612976,260.2841391747497L589.334416994534,263.82484262474463L587.923103679539,267.681577627809L586.8058139718632,271.2220925572765L587.923103679539,278.80860650029354L587.923103679539,284.11891984997055L586.1589620358136,284.6246533968879L577.9851057531923,280.0729852255681L573.7511658082512,278.80860650029354L572.6338761005609,280.32585959027347L571.1049533426703,280.32585959027347L570.3992966851802,279.5672351158137L567.1062322835351,276.0269328118666L563.5191442746291,275.26828486954037L557.9915004576033,277.5442162716063L556.6977965855622,290.69331243933266L556.2273588138778,298.2787637088695L553.345927462462,304.09399609878164L552.2286377547571,309.08731680530764L547.5830647596158,311.36269462619384L541.17335012072,312.37396170889406L534.7048307603982,312.37396170889406L531.1765474729327,315.15490827483154L532.7054702308378,319.19982221237296Z" class="sc-kAyceB dIJauC North East mapstate" fill="rgb(18, 108, 189)" stroke-width="0.9px"></path></svg>