<svg xmlns="http://www.w3.org/2000/svg"  xmlns:xlink="http://www.w3.org/1999/xlink"  id="map" width="633" height="633"><defs><filter id="sofGlow" height="300%" width="300%" x="-75%" y="-75%"><feMorphology operator="dilate" radius="4" in="SourceAlpha" result="thicken"></feMorphology><feGaussianBlur in="thicken" stdDeviation="10" result="blurred"></feGaussianBlur><feFlood flood-color="rgb(0,186,255)" result="glowColor"></feFlood><feComposite in="glowColor" in2="blurred" operator="in" result="softGlow_colored"></feComposite><feMerge><feMergeNode in="softGlow_colored"></feMergeNode><feMergeNode in="SourceGraphic"></feMergeNode></feMerge></filter></defs><path d="M467.402241037169,226.440873873471L435.6665329638854,242.49116209733256L422.84614758329553,261.2140431511925L389.0087369886096,260.7682909565847L380.1815863986849,272.803075382717L376.39852186015196,267.45441684394973L354.75098588964465,277.70582339536304L346.974686560432,280.6028168420344L346.76451630828524,280.1571296476268L345.50349479544093,262.99703697170116L333.7339606755413,255.19626227901063L337.7271954662283,252.0758240660507L328.26953411989234,237.81002887589784L331.4220879019995,234.46626105410905L288.7575267174034,195.44939190924742L278.03884385821584,205.48340112720507L288.7575267174034,219.08384152139115L288.7575267174034,219.3067879061491L284.5541216745769,229.33898646162743L281.82190839674877,235.35794072425233L285.8151431874212,243.82859837228534L286.025313439568,244.2744074661714L278.87952486677386,254.0818284814759L271.73373629397975,263.8885249082414L253.23875410558685,273.69449755440473L238.73700670786639,262.5512907601169L228.01832384867885,266.3400858926725L219.40134351089364,251.4071491895029L190.81818921973172,252.74449557339176L181.57069812553527,244.05150310657882L190.60801896759222,245.6118257556136L198.17414804467262,226.2179395080566L183.8825708990771,220.64445832427737L168.11980198851234,224.43445106744548L161.3943539200045,191.21258121432948L147.10277677442355,162.88934870082812L150.46550080867746,145.93709685203794L141.42817996662052,137.23706560575192L121.25183576108975,78.55253462390101L113.0551959275981,74.08875445416197L117.67894147469633,74.98152270809442L123.77387878678564,78.32934924277106L144.79090400086716,80.11482160306514L153.61805459079187,70.07122167632406L179.88933610840468,76.5438524492074L180.09950636054418,76.5438524492074L180.30967661269096,76.09747443255219L190.18767846330593,68.7320165736146L201.74704233105876,66.94638836754712L203.63857460033614,66.72318312173957L204.26908535674738,66.4999774936623L204.68942586103367,64.49110963739986L214.5674277116559,45.96342309548527L220.87253527588473,41.05202771696713L222.76406754514755,30.33561178972377L223.60474855370558,28.772727272727934L224.44542956227087,28.995997641033682L238.1064959514406,45.29369828422932L235.3742826736052,60.25006466862942L274.67611982395465,65.38394361894461L282.66258940531407,82.34662770162322L277.61850335392955,93.72824543175375L290.2287184823799,98.63765677766969L292.3304210037895,134.1138367929907L292.5405912559363,137.46015053339397L306.83216840151,149.50617370064174L325.53732084204967,153.07515359482022L331.63225815414626,142.36792300997695L374.50698959088186,129.65195234864223L382.28328892010177,127.4209531948236L385.4358427022162,123.6281674936672L386.0663534586347,123.40505903438316L390.4799287536007,123.18195019525228L396.1545255614037,125.85923119727158L414.0189969933781,122.51262139871687L415.7003590105087,110.91037880624208L424.10716909613984,104.21630953323802L430.20210640822916,106.22456627605789L427.89023363468004,113.58791064609613L438.3987462417208,116.04226672905133L439.0292569981393,124.29749059256392L458.36492019511206,112.91853282032389L468.0327517935948,122.06640030162816L463.1988359943498,140.13714008688657L475.59888087066065,147.05244378460884L463.8293467507683,178.27831708977828L473.91751885353005,179.39338985150243L484.0056909562991,191.43557464287915L484.2158612084386,206.3752761635842L467.402241037169,226.2179395080566Z" class="sc-kAyceB dIJauC North Goa mapstate" fill="rgb(18, 108, 189)" stroke-width="0.9px" data-darkreader-inline-fill="" style="--darkreader-inline-fill: #0e5697;"></path><path d="M271.73373629397975,263.8885249082414L278.87952486677386,254.0818284814759L286.025313439568,244.2744074661714L285.8151431874212,243.82859837228534L281.82190839674877,235.35794072425233L284.5541216745769,229.33898646162743L288.7575267174034,219.3067879061491L288.7575267174034,219.08384152139115L278.03884385821584,205.48340112720507L288.7575267174034,195.44939190924742L331.4220879019995,234.46626105410905L328.26953411989234,237.81002887589784L337.7271954662283,252.0758240660507L333.7339606755413,255.19626227901063L345.50349479544093,262.99703697170116L346.76451630828524,280.1571296476268L346.974686560432,280.6028168420344L354.75098588964465,277.70582339536304L376.39852186015196,267.45441684394973L380.1815863986849,272.803075382717L389.0087369886096,260.7682909565847L422.84614758329553,261.2140431511925L435.6665329638854,242.49116209733256L467.402241037169,226.440873873471L482.53449919131526,253.41316371178618L478.3310941484888,272.803075382717L482.74466944346204,290.40755763271227L511.9583344910425,305.5589198038051L508.175269952495,330.28759530939533L519.9448040723946,352.33904322815033L513.8498667603053,359.6887193481416L482.954839695587,359.6887193481416L467.6124112893085,375.50029408238333L472.656497340693,386.634089102854L498.50743835401954,397.32166526655783L508.175269952495,421.5882207227587L488.4192662512578,445.6278448288722L488.2090959991183,467.8829479152773L480.64296692204516,478.3415842124632L495.35488457190513,514.3843319585558L477.70058339207753,539.742030296833L468.8734328021528,542.1885765427924L475.59888087066065,554.4206508869702L468.242922045727,567.0963739130184L458.36492019511206,562.2041286699587L436.7173842245975,588.4423097229101L423.0563178354423,568.430592286888L414.2291672455176,567.5411148149033L413.3884862369523,567.5411148149033L407.71388942915655,577.1026950734158L412.3376349762548,597.1131476961837L389.0087369886096,588.6646457413626L365.2594984966854,604.2272727272739L362.3171149667105,598.0024334642676L339.6187277354911,593.5559470593198L343.1916220218991,566.8740029205692L333.9441309276881,542.6333984258545L325.53732084204967,533.2918346529696L305.5711468886657,527.731076532471L301.36774184585374,505.70824689207257L295.0626342816249,507.26553363660787L291.699910247371,498.1440292167172L258.28284015697136,485.906903889203L267.3201609990283,478.7866146855649L261.8557344433648,471.6659519908262L272.57441730254504,468.9956071266697L272.99475780683133,455.1979873108994L281.40156789246976,448.2986503357206L241.04887948140822,314.02510792450994L232.85223964791658,303.33088628313453L214.77759796379542,310.46046258987917L194.1809132539929,299.54314387845807L192.70972148900182,288.8477607957593L183.67240064694488,288.6249311851061L179.04865509983938,279.26575078082715L185.7741031683545,275.70017559560983L193.55040249756712,285.50527748742934L199.64533980964916,278.15151880025405L205.10976636531268,283.05406973355093L213.93691695523012,278.15151880025405L217.7199814937776,286.1737808608905L234.7437719171794,287.28794569199454L245.88279528065323,279.4885960573047L275.30663058037317,279.4885960573047L266.899820494742,270.5744938089483Z" class="sc-kAyceB dIJauC South Goa mapstate" fill="rgb(18, 108, 189)" stroke-width="0.9px" data-darkreader-inline-fill="" style="--darkreader-inline-fill: #0e5697;"></path></svg>