<svg xmlns="http://www.w3.org/2000/svg"  xmlns:xlink="http://www.w3.org/1999/xlink"  id="map" width="633" height="633"><defs><filter id="sofGlow" height="300%" width="300%" x="-75%" y="-75%"><feMorphology operator="dilate" radius="4" in="SourceAlpha" result="thicken"></feMorphology><feGaussianBlur in="thicken" stdDeviation="10" result="blurred"></feGaussianBlur><feFlood flood-color="rgb(0,186,255)" result="glowColor"></feFlood><feComposite in="glowColor" in2="blurred" operator="in" result="softGlow_colored"></feComposite><feMerge><feMergeNode in="softGlow_colored"></feMergeNode><feMergeNode in="SourceGraphic"></feMergeNode></feMerge></filter></defs><path d="M445.84176416128685,403.36592859325265L447.0586579076935,405.3041023048354L447.4330867527424,405.3041023048354L449.82007063992205,405.25683222771113L453.23673385098664,405.20956202798425L454.82805644244036,405.20956202798425L456.51298624515584,406.43854738037317L456.60659345641943,406.4858143930596L456.60659345641943,406.4858143930596L456.93421869583653,410.64483177379043L455.20248528748743,412.9602373369653L457.54266556903895,416.69261975555764L455.7641285550617,420.18808369734506L459.3680061886462,422.83285529317345L456.55978985078764,428.07404020246577L456.55978985078764,428.07404020246577L456.55978985078764,428.1212512610564L453.75157351292546,428.07404020246577L452.20705452710354,431.1425057725255L454.9216636537003,434.729598218657L455.0620744705957,434.9655665209202L454.07919875234256,436.19255271631755L453.7047699072973,436.6172595696635L453.6579663016655,436.6644486125988L451.45819683700756,434.3992374903619L449.30523097798323,435.7206446702712L446.5906218513828,434.30484761682237L442.8931370065329,442.373426652488L439.10204495041944,442.93950946426503L439.9913134574108,448.5522193331635L446.4034074288593,453.73891373700553L445.23331728808444,456.47312719504407L446.0289785838122,456.8030909908839L444.3440487810931,457.6515421518707L436.7618646688734,456.52026524248686L434.70250602110536,461.6575887160825L431.9410932888768,463.4482452881257L428.3840192609223,461.13920826465437L426.83950027509854,464.3435083004206L424.12489114849996,462.50581616226646L418.3680476558857,458.59421978448245L420.42740630364824,468.34809985365973L418.9296909234581,474.70654658094827L423.09521182461685,479.0855359710249L420.7082279374372,482.5691516992292L415.6534385292871,479.8858841766296L414.20252675472693,479.1326162369978L412.9388294026885,478.47348159461853L412.5175969520096,478.23807066535846L410.2242202760899,474.98909336622455L406.6203426425018,470.5620300001392L405.2162344735716,469.9025892384925L399.880623431638,468.3009920689292L396.37035300931166,473.9530673422596L395.10665565727504,473.43503252218034L396.6043710374688,469.66706896656797L389.1625977421372,468.3952075180323L380.03589464409197,471.5982464247918L377.836125179434,470.51492787046664L377.9765359963276,464.9560316125144L371.9388708699262,462.22307802103114L367.1649030955632,462.4115705974664L366.32243819420546,465.14449622749L358.8806648988757,463.11840057895824L357.05532427926664,462.6471836052324L355.3235908709212,462.74142796440356L355.136376448394,462.1288310093696L354.1535007301445,461.8460870804465L354.4811259695616,460.33804613291886L355.089572842764,457.5572717326186L360.5655947015912,458.0286189995386L362.9057749831427,446.7129487858474L361.6420776311061,442.93950946426503L362.9525785887745,443.3640601140496L365.15234805343243,436.9475803191799L365.15234805343243,436.9475803191799L367.63293915187387,439.9201992907283L371.9388708699262,440.6750734212219L371.98567447555797,440.6750734212219L373.2025682219646,448.41074352182477L374.98110523594187,448.41074352182477L376.75964224992094,440.1561007937289L376.75964224992094,439.9673798340482L379.1466261371006,440.1561007937289L381.76762805243743,437.4194567793311L377.5553035456469,432.70014535812334L381.9080388693328,430.67046761909114L384.10780833398894,425.85498304482826L376.94685667244266,422.8800798802895L375.1683196584654,422.26615073348785L375.12151605283543,422.1244718488424L374.09183672895233,418.29872677775256L380.2699126722455,416.0784826859017L382.610092953797,415.2281049527064L390.6135095166992,415.8422706212541L391.6899924462123,413.47998188519523L399.08496213591025,416.3146916952155L400.76989193862573,414.0942063626371L401.5655532343535,412.9602373369653L403.0164650089155,406.29674560696094L406.47993182561004,406.81668005041047L409.3349517691022,404.2168595103494L407.41600393822955,400.3400744975679L407.22878951570783,400.009091204226L408.632897684638,398.6378106020029L409.14773734657683,398.1176426622469L409.2413445578386,397.9757760988268L409.47536258599393,398.49594809255814L413.07924021958206,402.6095121907347L413.2196510364756,405.63498941205944L419.0701017403517,407.1948048776594L418.9764945290881,410.4085493783805L416.6363142475384,411.3064062014719L415.70024213491706,414.80290123412215L417.6191899657879,416.1729666562551L419.02329813471806,416.1257247321837L420.09978106423114,412.15696664841016L423.9376767259746,412.48772944911525L426.46507143004965,410.31403556332134L429.88173464111424,414.8973918051297L438.2595800490635,403.12955184113616L440.693367541875,403.602302278704L443.6887983022607,400.76561560642585Z" class="sc-kAyceB dIJauC Jhajjar mapstate" fill="rgb(18, 108, 189)" stroke-width="0.9px" data-darkreader-inline-fill="" style="--darkreader-inline-fill: #0e5697;"></path><path d="M412.9388294026885,478.47348159461853L414.20252675472693,479.1326162369978L415.6534385292871,479.8858841766296L420.7082279374372,482.5691516992292L423.09521182461685,479.0855359710249L418.9296909234581,474.70654658094827L420.42740630364824,468.34809985365973L418.3680476558857,458.59421978448245L424.12489114849996,462.50581616226646L426.83950027509854,464.3435083004206L428.3840192609223,461.13920826465437L431.9410932888768,463.4482452881257L434.70250602110536,461.6575887160825L436.7618646688734,456.52026524248686L444.3440487810931,457.6515421518707L446.0289785838122,456.8030909908839L449.58605261176854,454.91750386268086L455.9981465832152,456.52026524248686L460.3508819068993,453.59747784566844L465.26526049815584,454.77607703562444L466.15452900514174,453.5503323068051L463.7675451179621,451.71156198641256L464.7972244418452,450.15553572636145L464.7972244418452,450.15553572636145L470.83488956824476,454.39893351311457L476.0300897932884,454.1632148839126L477.6682159903721,455.20035425433525L478.55748449736166,455.7189020089472L482.20816573657976,457.98148481613043L481.92734410279263,459.3011963235431L480.663646750756,462.3173245503922L482.6762017928886,466.8405910352294L488.71386691929,470.0438999579883L489.1350993699689,470.27941541786004L490.4456003276373,473.9059738685446L490.4456003276373,473.9059738685446L488.2926344686093,475.7425303193804L487.26295514472804,476.5901101420959L487.63738398977694,489.0638715201176L494.98555007384493,493.20424212523176L497.6533555948099,494.66256132609305L498.26180246801414,495.03888313171683L498.0277844398588,498.04918250791343L496.6704798765604,499.50712055371696L493.62824551054473,501.7173241622513L492.9729950317105,503.50410480278606L494.4707104119025,506.7010724857437L492.9729950317105,508.06431775794863L489.9775642713266,509.70948054344717L484.9227748631765,505.1966856862982L484.6419532293912,505.29071343255146L482.11455852531617,506.41900924516904L479.4467530043494,504.773554934417L478.1362520466828,506.18395327168946L476.17050061018017,504.35041453733993L474.6727852299864,507.0771501420759L473.12826624416266,506.6540622431794L472.28580134280674,501.9054144378624L466.9501903008695,501.1530418933489L465.3120641037858,491.18122215821313L463.6271343010685,487.74628665012096L460.3976855125293,486.19329831210325L456.3725754282623,489.86378800239163L453.4239482735102,487.88746094478665L450.84974996380515,492.3103768315541L449.21162376671964,491.93399959048566L449.3520345836114,492.2162832384065L451.13057159759046,496.12076575319315L450.42851751312446,498.4724666535558L449.6328562173985,499.1308894513995L447.80751559778946,500.30658630414746L444.718477626142,498.61355922135135L441.9102612882816,504.39743061335776L440.9741891756603,503.4100680055899L440.2253314855643,502.610735989525L434.9365240492625,502.46967382411367L434.74930962673716,500.11847981617757L432.5027365564474,499.7892888714305L430.06894906363596,505.384740702576L425.90342816247903,501.10601759615656L419.39772697976696,498.2843415596535L414.3429375716187,498.42543555903194L415.5130277123935,489.76968197510996L413.5940798815227,489.2050357642511L412.5644005576396,491.604663229381L410.17741667045993,490.85187240789674L412.14316810696073,482.09843118618755L412.70481137453316,479.65049124448615Z" class="sc-kAyceB dIJauC Gurugram mapstate" fill="rgb(18, 108, 189)" stroke-width="0.9px" data-darkreader-inline-fill="" style="--darkreader-inline-fill: #0e5697;"></path><path d="M498.0277844398588,498.04918250791343L498.26180246801414,495.03888313171683L497.6533555948099,494.66256132609305L494.98555007384493,493.20424212523176L487.63738398977694,489.0638715201176L487.26295514472804,476.5901101420959L488.2926344686093,475.7425303193804L490.4456003276373,473.9059738685446L490.4456003276373,473.9059738685446L490.7264219614226,473.8588802746672L491.9433157078274,472.9169831604204L495.26637170763024,473.0111750351807L497.980980834227,472.4931137740341L499.0574637637419,471.97503796718047L501.8188764959723,469.5728600156226L501.4912512565552,465.8041072011247L501.3976440452916,465.5214196748857L499.385089003159,464.6733310756654L500.6487863551956,461.7518381394484L500.9764115946109,460.997829245116L502.56773418606645,460.33804613291886L508.184166861789,457.93435051199685L511.8348481010071,460.1966609612373L515.3451185233316,456.3788507378222L516.9364411147872,453.73891373700553L517.4980843823578,456.9916390744547L517.5916915936195,457.3215935715052L517.6852988048831,457.3215935715052L520.633925959637,457.6044070026128L521.9912305229354,462.50581616226646L526.250358635356,463.02415814861524L524.9866612833193,465.0502641609537L530.1350579027312,465.1916120800479L530.4158795365183,469.33733553271395L534.5814004376753,470.51492787046664L534.7218112545688,472.1163328117227L536.874777113595,471.4098477677935L537.7640456205845,473.24665261870996L536.2195266347608,475.2716358270227L541.0402980147555,479.980040509814L539.7297970570853,483.6046946405286L535.8919013953437,486.0991736168344L541.4147268598026,491.18122215821313L540.853083592232,495.60335151021536L538.8873321557294,497.1555509062773L539.1681537895147,500.4946908843849L548.0608388594064,502.187546275999L543.5676927188306,505.29071343255146L545.7206585778549,507.7822752216143L544.6441756483437,509.70948054344717L540.6658691697066,508.67539522878906L540.4318511415513,508.62838998317693L540.4318511415513,508.62838998317693L540.3850475359231,508.01731096597086L535.8450977897137,506.8421024993895L533.5985247194258,508.62838998317693L530.2286651139912,507.1241593136201L527.4204487761326,509.47446620777555L526.250358635356,507.0771501420759L521.8976233116737,505.8548699096373L520.8211403821606,503.31603073189945L516.5620122697383,503.4570864637535L513.0985454530437,499.0838600268926L513.0517418474119,499.0838600268926L510.9455795940157,499.93037142036883L503.22298466490247,497.0144472416432L503.0825738480071,496.9674124480698L502.84855581985175,499.46009208335636L499.7595178482079,497.4377550133031L499.61910703131434,497.3907212938102L499.29148179189724,497.62588869794854Z" class="sc-kAyceB dIJauC Faridabad mapstate" fill="rgb(18, 108, 189)" stroke-width="0.9px" data-darkreader-inline-fill="" style="--darkreader-inline-fill: #0e5697;"></path><path d="M294.0108674943003,476.5901101420959L294.8533323956581,473.10536642916304L295.55538648012407,470.27941541786004L295.8830117195412,469.05470218251685L307.91153836670856,466.9348139481799L312.54509532417796,468.81917108152174L313.1535421973822,477.20222693093456L323.0291029855234,476.025061249994L327.28823109794575,466.2752434424783L327.4286419148393,465.9925631429578L333.2322890130836,465.7569929145493L334.2151647313349,464.6733310756654L334.9172188158009,463.8723226645525L335.8064873227886,469.24312489729346L338.98913250569603,468.34809985365973L339.4103649563767,467.21747979726206L342.92063537870126,467.21747979726206L344.1375291251079,462.9299152360836L344.1375291251079,462.9299152360836L347.9286211812214,464.484861641351L348.34985363190026,468.1596679925642L354.1066971245127,469.52575535967935L354.5747331808234,469.61996455125336L353.35783943441675,473.7646927264177L356.68089543421775,474.6594550296095L357.10212788489844,478.47348159461853L359.34870095518454,479.980040509814L361.17404157479723,480.96865304325274L364.82472281401533,480.73327390383747L366.08842016605195,485.393223135462L366.7904742505161,486.0050484426347L366.7904742505161,488.0286341624269L366.74367064488433,488.07569166230223L366.74367064488433,488.21686344397403L363.70143627887046,490.8989227309112L364.4970975745964,494.66256132609305L362.99938219440264,496.8733425028695L364.1226687295475,498.9898008200462L362.8121677718809,505.33772712709015L360.5655947015912,505.4317541590026L359.5827189833417,508.44036781130126L358.36582523693505,508.7224003554611L357.4765567299455,510.03849561948937L358.2254144200415,513.3753194195215L355.2299836596576,513.1873452676318L353.4982502513085,515.536885601663L353.45144664568033,515.536885601663L357.1489314905266,516.6175744949369L356.0724485610135,518.402922973597L359.62952258897167,518.4968839382582L365.6203841097413,522.5837269388476L362.01650647615315,526.4818334138681L357.8509855749944,525.4956425714481L356.63409182858777,527.327098320663L356.68089543421775,527.327098320663L356.63409182858777,527.327098320663L364.82472281401533,532.3978832739676L362.7653641662491,539.1098588564573L359.34870095518454,541.5969016430081L355.2299836596576,539.8137724742628L355.41719808218113,535.7776410990391L350.4560158852946,532.5856636548324L347.69460315306424,533.1020499590204L346.94574546296826,535.6837671994663L338.00625678744655,534.8858199956212L340.4868478858898,539.0160017036587L343.66949306879724,538.124335233445L340.62725870278337,541.5969016430081L337.58502433676585,540.5645844397513L335.01082602706083,544.6935112645433L335.5256656890033,548.9153347223437L339.03593611132965,550.27549719729L336.2277197734693,561.0594966178396L341.28250918161757,562.9343418203516L340.1592226464727,568.6514634787318L342.8738317730731,571.1814373026136L342.4525993223924,572.0246862375961L344.97999402646565,573.1489593203578L344.97999402646565,573.1958025733393L343.763100280059,576.0530204059696L341.04849115346224,575.2567902045412L337.4914171255059,579.0971193541491L334.02795030881134,575.5378164765743L330.70489430901034,574.7415644683997L331.21973397094916,572.1652240494923L329.34758974571014,570.150748340152L324.0587823094065,568.5108993893018L324.0587823094065,568.5108993893018L323.59074625309586,571.2282854580399L322.1398344785357,571.7436074620364L321.95262005601217,571.3688292237739L319.7528505913542,570.6192503297834L317.8339027604834,572.9147413050441L308.473181634281,571.7436074620364L306.0861977470995,569.8696415402937L308.0519491836021,564.6684068982904L306.6946446203019,562.7468657291292L308.51998523991097,560.9188756752728L300.7973903107977,558.6219177090952L300.1421398319617,556.7466413816546L300.09533622633353,556.4184487378589L302.34190929661963,553.6989171498162L306.27341216962486,555.9964783235664L307.6775203385532,550.322397589076L310.4389330707836,548.2586691868846L305.1969292401118,547.1329032321737L305.33734005700353,544.2712765117121L308.89441408495986,545.2095630177L309.7836825919494,543.0983521740745L306.0393941414677,541.5030569805622L306.55423380341017,540.0014782937888L309.5028609581641,537.7019520495187L309.6900753806858,537.6080878226321L312.96632777485684,539.0160017036587L313.0599349861186,535.1674523148404L311.749434028452,534.1817206082324L314.32363233815704,534.8858199956212L316.7106162253367,531.4589530212888L313.9960070987381,529.3461871496684L311.60902321155845,534.0878386832319L308.0519491836021,536.1061960308989L306.60103740904196,535.4490803855988L308.66039605680635,532.7734421460445L307.91153836670856,530.1913222164549L301.0314083389512,529.0175131692022L302.1546948740943,525.6834924696504L306.88185904282545,522.630696931772L310.29852225389186,522.9594835656808L311.60902321155845,517.6982006163817L313.0599349861186,518.2149996210755L315.30650805640835,515.1609790950233L321.2973695771743,515.6308610412989L320.4549046758184,519.7183333148796L322.8418885629999,519.7183333148796L324.99485442202604,519.7183333148796L324.62042557697714,518.7787639860071L324.0587823094065,517.2283708839786L321.4845839997015,510.5555075403445L317.69349194358983,509.89748987171333L319.0507965068882,506.04291825928976L312.91952416922504,503.12795475497023L314.5108467606824,496.49705794777856L308.33277081738925,493.3453748073234L306.22660856399307,488.9227061993288L304.0268390993351,489.76968197510996L303.55880304302445,486.28742252845404L300.18894343759166,485.76973341171833L297.94237036730374,479.6034122981837L295.22776124070697,479.65049124448615L294.57251076187276,476.4959365275063Z" class="sc-kAyceB dIJauC Mahendragarh mapstate" fill="rgb(18, 108, 189)" stroke-width="0.9px" data-darkreader-inline-fill="" style="--darkreader-inline-fill: #0e5697;"></path><path d="M355.3235908709212,462.74142796440356L357.05532427926664,462.6471836052324L358.8806648988757,463.11840057895824L366.32243819420546,465.14449622749L367.1649030955632,462.4115705974664L371.9388708699262,462.22307802103114L377.9765359963276,464.9560316125144L377.836125179434,470.51492787046664L380.03589464409197,471.5982464247918L389.1625977421372,468.3952075180323L396.6043710374688,469.66706896656797L395.10665565727504,473.43503252218034L396.37035300931166,473.9530673422596L399.880623431638,468.3009920689292L405.2162344735716,469.9025892384925L406.6203426425018,470.5620300001392L410.2242202760899,474.98909336622455L412.5175969520096,478.23807066535846L412.9388294026885,478.47348159461853L412.70481137453316,479.65049124448615L412.14316810696073,482.09843118618755L410.17741667045993,490.85187240789674L412.5644005576396,491.604663229381L413.5940798815227,489.2050357642511L415.5130277123935,489.76968197510996L414.3429375716187,498.42543555903194L419.39772697976696,498.2843415596535L425.90342816247903,501.10601759615656L430.06894906363596,505.384740702576L432.5027365564474,499.7892888714305L434.74930962673716,500.11847981617757L434.9365240492625,502.46967382411367L440.2253314855643,502.610735989525L440.9741891756603,503.4100680055899L441.9102612882816,504.39743061335776L442.0506721051752,504.5384781268831L441.7230468657581,504.8205699386863L441.16140359818564,505.90188217560444L440.74017114750677,505.8548699096373L437.83834759838464,507.970304055033L434.3280771760601,507.64125234736275L434.9365240492625,511.1195041404171L431.8942896832468,512.2944420906006L433.15798703528526,516.1007311179883L432.2687185282939,518.5438642426943L427.3075363314092,519.5304232432145L424.40571278228526,523.2882643960602L420.14658466986293,522.1140204944868L415.79384934618065,529.0644669496514L411.16029238871124,528.7827424935031L410.73905993803055,538.2651275056542L412.8452221914249,541.8784328034762L400.6762847273658,544.64659676275L397.40003233319476,548.8684308052607L394.9662448403815,550.0878944552651L393.6089402770831,549.947191165078L393.00049340387886,548.727718348794L393.79615469960663,538.3589884309322L391.5495816293187,537.2795593137216L388.6009544745666,539.1567872560436L386.68200664369397,536.7632885521034L380.1295018553519,536.9510250257954L381.159181179235,534.134779704752L385.4651128972873,535.1205138900123L387.2904535168964,533.8531318048144L379.09982253147246,528.8296968651066L381.4868064186521,525.3547539051187L386.9628282774811,526.9983887448052L387.3372571225282,523.6640068108554L385.5119165029173,522.5367568274742L385.8395417423362,521.7382468093156L384.06100472835715,521.5973297224664L383.3121470382612,521.1745720634435L382.9845217988459,520.0471713760771L382.5164857425352,518.5908444285378L382.3760749256435,518.0270743708679L379.1466261371006,519.0136607646718L374.79389081341833,519.5304232432145L371.70485284177084,519.1076186460868L370.34754827847246,520.0941477677834L367.39892112372036,520.4229791907155L365.1055444477988,519.342511274599L365.2927588703242,516.3356617057507L363.3738110394497,514.8790442291674L360.2379694621759,514.2211795871253L358.2254144200415,513.3753194195215L357.4765567299455,510.03849561948937L358.36582523693505,508.7224003554611L359.5827189833417,508.44036781130126L360.5655947015912,505.4317541590026L362.8121677718809,505.33772712709015L364.1226687295475,498.9898008200462L362.99938219440264,496.8733425028695L364.4970975745964,494.66256132609305L363.70143627887046,490.8989227309112L366.74367064488433,488.21686344397403L366.74367064488433,488.07569166230223L366.7904742505161,488.0286341624269L366.7904742505161,486.0050484426347L366.08842016605195,485.393223135462L364.82472281401533,480.73327390383747L361.17404157479723,480.96865304325274L359.34870095518454,479.980040509814L357.10212788489844,478.47348159461853L356.68089543421775,474.6594550296095L353.35783943441675,473.7646927264177L354.5747331808234,469.61996455125336L354.1066971245127,469.52575535967935L355.1831800540276,463.68384503582547L355.3235908709212,462.74142796440356Z" class="sc-kAyceB dIJauC Rewari mapstate" fill="rgb(18, 108, 189)" stroke-width="0.9px" data-darkreader-inline-fill="" style="--darkreader-inline-fill: #0e5697;"></path><path d="M441.9102612882816,504.39743061335776L444.718477626142,498.61355922135135L447.80751559778946,500.30658630414746L449.6328562173985,499.1308894513995L450.42851751312446,498.4724666535558L451.13057159759046,496.12076575319315L449.3520345836114,492.2162832384065L449.21162376671964,491.93399959048566L450.84974996380515,492.3103768315541L453.4239482735102,487.88746094478665L456.3725754282623,489.86378800239163L460.3976855125293,486.19329831210325L463.6271343010685,487.74628665012096L465.3120641037858,491.18122215821313L466.9501903008695,501.1530418933489L472.28580134280674,501.9054144378624L473.12826624416266,506.6540622431794L474.6727852299864,507.0771501420759L476.17050061018017,504.35041453733993L478.1362520466828,506.18395327168946L479.4467530043494,504.773554934417L482.11455852531617,506.41900924516904L484.6419532293912,505.29071343255146L484.9227748631765,505.1966856862982L489.9775642713266,509.70948054344717L492.9729950317105,508.06431775794863L493.0197986373405,508.01731096597086L493.1134058486041,508.20533742011867L494.0962815668554,510.17950029724216L493.20701305986404,512.3884339183287L490.1179750882202,511.40149602216843L489.1819029756007,514.9260336702764L482.25496934220973,524.2276062235442L485.57802534201073,526.9514297607893L484.0803099618188,531.7406370584731L486.3736866377385,534.6511231506647L484.9695784688083,537.0918261425777L486.56090106026204,540.2361079167213L484.4079352012377,544.2712765117121L486.98213351094273,545.0688230425185L485.8120433701679,550.6037974726787L487.9650092291922,553.2299924973258L491.52208325715037,554.4960621241762L492.4113517641381,552.7141618217483L495.26637170763024,554.8242884331285L499.57230342568255,562.325037676158L504.4398784113073,565.3244978620942L507.0608803266441,566.5428916917717L508.5117921012061,563.5436261837622L511.50722286158816,564.4340831403324L515.0642968895481,570.853496945273L516.4684050584765,570.3850007948085L514.9238860726527,572.8210532820331L514.6898680444974,573.1958025733393L509.1202389744085,574.6010459092686L507.0608803266441,579.0971193541491L504.861110861988,576.3808701065918L501.25723322839985,581.0169901550344L500.50837553830206,581.2979304398632L499.3382853975272,579.4249160324898L495.96842579209624,578.6288284836919L494.7515320456878,574.9289209143371L494.6579248344242,574.6947250653266L493.0197986373405,577.2707190718675L494.14308517248537,579.0502907913142L490.8200291726844,581.3447534132265L489.6031354262759,580.4082718263635L492.7389770035552,577.2707190718675L488.19902725734755,576.0061842681016L488.15222365171576,576.0061842681016L488.1054200460876,577.645379732503L487.82459841229866,581.1106373823031L484.4079352012377,583.1239401578187L482.53579097599686,580.1273182685727L480.3360215113389,581.3447534132265L475.14082128629707,576.4745404003843L470.6476751457212,575.2567902045412L467.7458515965973,582.5621098663496L472.28580134280674,583.9666541824809L472.80064100474556,585.745593373792L475.3748393144524,584.8093305204793L476.82575108901256,589.6773897054882L472.84744461037735,591.6897778463426L469.290370582421,587.8520147901263L466.716172272716,588.3668820131716L465.45247492067756,590.8006095533956L463.7207415123321,589.9113993553974L460.3508819068993,604.2272727272721L459.4148097942798,603.6660701784449L454.9684672593339,600.8130330323693L454.9216636537003,600.9065820602273L453.37714466787656,603.8531395447635L450.47532111875626,604.0869736510022L448.08833723157477,600.1581768743472L449.2584273723496,598.6612775943559L447.3394795414788,596.7432020764973L447.9947300203112,596.6496324353584L452.1134473158436,596.3221350411231L447.47989035837236,593.1872297541004L447.19906872458523,590.7070104534823L451.2709824144822,578.2073567394355L449.91367785118564,576.3340347848216L450.42851751312446,573.4300170879296L453.84518072418723,573.945278752316L454.82805644244036,571.5562192768784L454.12600235797436,562.2312968211318L456.13855740010877,562.3719079280672L456.2789682170005,558.4812784902042L453.18993024535484,557.7311848405334L454.17280596360615,547.2736276803107L453.0963230340931,545.3972146706728L459.18079176612446,520.2350762316728L455.7641285550617,519.5774009389661L456.18536100573874,518.2619806371104L453.28353745661843,517.6982006163817L447.19906872458523,512.3884339183287L449.39883818924136,509.52146931272637L444.2036379641995,508.5343791351279L444.53126320362026,506.46602008280206L441.16140359818564,505.90188217560444L441.7230468657581,504.8205699386863L442.0506721051752,504.5384781268831Z" class="sc-kAyceB dIJauC Nuh mapstate" fill="rgb(18, 108, 189)" stroke-width="0.9px" data-darkreader-inline-fill="" style="--darkreader-inline-fill: #0e5697;"></path><path d="M492.9729950317105,508.06431775794863L494.4707104119025,506.7010724857437L492.9729950317105,503.50410480278606L493.62824551054473,501.7173241622513L496.6704798765604,499.50712055371696L498.0277844398588,498.04918250791343L499.29148179189724,497.62588869794854L499.61910703131434,497.3907212938102L499.7595178482079,497.4377550133031L502.84855581985175,499.46009208335636L503.0825738480071,496.9674124480698L503.22298466490247,497.0144472416432L510.9455795940157,499.93037142036883L513.0517418474119,499.0838600268926L513.0985454530437,499.0838600268926L516.5620122697383,503.4570864637535L520.8211403821606,503.31603073189945L521.8976233116737,505.8548699096373L526.250358635356,507.0771501420759L527.4204487761326,509.47446620777555L530.2286651139912,507.1241593136201L533.5985247194258,508.62838998317693L535.8450977897137,506.8421024993895L540.3850475359231,508.01731096597086L540.4318511415513,508.62838998317693L540.4318511415513,508.62838998317693L539.9170114796125,508.48737353268825L540.0574222965024,512.2474459985169L540.7594763809702,512.1064570093749L541.648744887958,511.96546695086L545.3930333384378,511.35449767232967L547.3119811693105,511.7304811434933L547.499195591834,512.2004497876196L546.6567306904744,514.6910852775109L546.1418910285356,515.3489332979898L540.6190655640767,516.2886758255481L540.946690803492,519.0136607646718L538.9809393669912,520.5639051654462L542.2103881555304,522.630696931772L540.197833113396,527.8436302297068L537.623634803691,525.7304546483383L537.576831198061,525.7304546483383L537.2024023530103,526.9044706584737L536.4535446629161,529.2053275816552L536.4067410572843,529.3461871496684L536.5471518741779,529.3461871496684L536.6875626910714,529.5339982520018L536.5939554798097,529.5339982520018L540.4786547471813,534.134779704752L537.8108492262163,537.2795593137216L542.2571917611604,538.7344274161233L541.6019412823262,540.3299589410271L546.797141507368,546.1478024586422L543.2868710850435,549.0091422039104L542.9124422399964,549.2905618279365L543.1932638737817,550.83829414511L547.1247667467851,551.4948692055104L547.1715703524151,551.963837297998L545.6270513665932,555.5276111653557L544.8781936764972,557.074828279663L542.8656386343646,555.8558194076923L540.5722619584449,557.215478048598L539.1213501838847,554.9649550912991L536.5003482685461,556.5591034316585L536.874777113595,562.793734927508L535.0962400996177,564.8558637988972L533.8793463532093,565.9805659011463L533.7857391419493,566.027427026831L528.9649677619545,563.9654268496779L528.0756992549668,563.3092883846821L527.9352884380733,563.4967588580021L526.4375730578813,566.1211489273865L528.1693064662268,569.5416782924613L527.607663198658,569.5416782924613L519.6510502413839,569.3542681523395L517.1704591429425,569.3074153252546L516.4684050584765,570.3850007948085L515.0642968895481,570.853496945273L511.50722286158816,564.4340831403324L508.5117921012061,563.5436261837622L507.0608803266441,566.5428916917717L504.4398784113073,565.3244978620942L499.57230342568255,562.325037676158L495.26637170763024,554.8242884331285L492.4113517641381,552.7141618217483L491.52208325715037,554.4960621241762L487.9650092291922,553.2299924973258L485.8120433701679,550.6037974726787L486.98213351094273,545.0688230425185L484.4079352012377,544.2712765117121L486.56090106026204,540.2361079167213L484.9695784688083,537.0918261425777L486.3736866377385,534.6511231506647L484.0803099618188,531.7406370584731L485.57802534201073,526.9514297607893L482.25496934220973,524.2276062235442L489.1819029756007,514.9260336702764L490.1179750882202,511.40149602216843L493.20701305986404,512.3884339183287L494.0962815668554,510.17950029724216L493.1134058486041,508.20533742011867L493.0197986373405,508.01731096597086Z" class="sc-kAyceB dIJauC Palwal mapstate" fill="rgb(18, 108, 189)" stroke-width="0.9px" data-darkreader-inline-fill="" style="--darkreader-inline-fill: #0e5697;"></path><path d="M375.12151605283543,422.1244718488424L375.1683196584654,422.26615073348785L376.94685667244266,422.8800798802895L384.10780833398894,425.85498304482826L381.9080388693328,430.67046761909114L377.5553035456469,432.70014535812334L381.76762805243743,437.4194567793311L379.1466261371006,440.1561007937289L376.75964224992094,439.9673798340482L376.75964224992094,440.1561007937289L374.98110523594187,448.41074352182477L373.2025682219646,448.41074352182477L371.98567447555797,440.6750734212219L371.9388708699262,440.6750734212219L367.63293915187387,439.9201992907283L365.15234805343243,436.9475803191799L365.15234805343243,436.9475803191799L362.9525785887745,443.3640601140496L361.6420776311061,442.93950946426503L362.9057749831427,446.7129487858474L360.5655947015912,458.0286189995386L355.089572842764,457.5572717326186L354.4811259695616,460.33804613291886L354.1535007301445,461.8460870804465L355.136376448394,462.1288310093696L355.3235908709212,462.74142796440356L355.3235908709212,462.74142796440356L355.1831800540276,463.68384503582547L354.1066971245127,469.52575535967935L348.34985363190026,468.1596679925642L347.9286211812214,464.484861641351L344.1375291251079,462.9299152360836L344.1375291251079,462.9299152360836L342.92063537870126,467.21747979726206L339.4103649563767,467.21747979726206L338.98913250569603,468.34809985365973L335.8064873227886,469.24312489729346L334.9172188158009,463.8723226645525L334.2151647313349,464.6733310756654L333.2322890130836,465.7569929145493L327.4286419148393,465.9925631429578L327.28823109794575,466.2752434424783L323.0291029855234,476.025061249994L313.1535421973822,477.20222693093456L312.54509532417796,468.81917108152174L307.91153836670856,466.9348139481799L295.8830117195412,469.05470218251685L296.8190838321625,465.2858434237569L296.58506580400535,465.00314794696897L292.0919196634277,459.25406539908454L300.28255064885525,460.95070266403036L300.7037830995341,458.1700208254297L294.94693960692166,457.18018522586317L295.0873504238134,454.6346491210197L294.61931436750274,454.6817918800625L292.18552687468946,454.87036170783085L291.7642944240106,458.9712773179872L282.4035732978118,455.2946367516124L282.82480574848887,453.4560408664174L284.32252112868264,448.83516768728896L287.4583627059601,445.6753302859843L287.1307374665412,442.137553660089L288.02000597353253,441.6186224032981L294.4320999449792,438.45754224220855L303.74601746555163,439.0709287558093L321.62499481659506,428.07404020246577L326.63298061911155,430.34003367100377L325.3692832670731,425.7605491105178L329.0199645062912,426.9409382565609L329.25398253444837,430.9064882168759L330.7985015202721,431.4257228239803L331.21973397094916,428.40451505519377L329.4880005626019,425.6188972950349L330.93891233716386,424.62730387198917L337.67863154802944,427.9324062959686L339.64438298453024,425.4300265014872L346.1032805616105,426.3743609705425L345.82245892782703,423.11620098631556L347.8818175755896,421.41606095498173L346.94574546296826,418.44043532382875L349.61355098393506,415.2281049527064L352.1409456880101,414.9918818871165L353.03021419499964,408.5181800234568L355.2299836596576,407.52565766863063L355.2299836596576,403.64957664781105L360.4719874903294,402.79861923574936L369.5518869827465,407.95103100720826L367.7733499687656,415.18086058408335L371.37722760235556,416.6453791756976L368.8966365039105,420.9910012405335L368.6158148701252,421.5105173270067L370.34754827847246,423.2106485749755L372.68772856002215,425.4772443826896L374.79389081341833,421.9827918662131Z" class="sc-kAyceB dIJauC Charkhi Dadri mapstate" fill="rgb(18, 108, 189)" stroke-width="0.9px" data-darkreader-inline-fill="" style="--darkreader-inline-fill: #0e5697;"></path><path d="M495.64080055267914,107.25790234968736L495.96842579209624,111.43952240796534L496.1088366089898,111.29534542497458L498.4022132849059,108.65188794463575L504.1122531718902,108.50768774474727L506.0312010027628,111.34340455268648L506.1248082140228,111.5356397297437L506.1716118196546,111.5356397297437L508.97982815751493,111.1031075803212L512.8645274248902,114.80331134049084L517.9661204386684,112.59289506238292L519.510639424494,117.15757507004946L523.0209098468167,115.81232067298424L526.1099478184642,118.11840714883692L524.6590360439004,120.03991157224755L525.6887153677853,121.38483799665119L533.6453283250557,113.02539000667639L534.0197571701028,117.1095320680497L528.4033244943821,121.19271203528115L531.6327732829213,123.73820835678907L538.700117733204,121.04861616766993L540.7126727753384,122.10529140008748L541.3211196485427,118.07036680969304L543.8485143526141,115.18770277612839L548.0608388594064,123.83425750987317L548.4820713100853,124.07437806670896L550.9158588028968,125.70710975211205L552.7411994225076,126.90754978364475L552.647592211244,126.61945174636912L556.1110590279404,128.4439919201768L556.2514698448322,128.58802640093836L552.319966971827,135.40429289029817L553.1156282675547,139.38721134272964L546.1886946341656,144.52047211771514L545.0186044933907,149.12472692644678L536.8279735079632,161.5405606228387L533.5517211137922,165.03840927322108L529.2925930013716,165.03840927322108L529.1521821844799,165.94869339469096L528.5905389169075,170.69098592990758L525.3610901283682,174.09123238568463L525.4546973396282,174.13911846229348L528.4501281000139,175.52775769434265L527.2332343536054,176.67689306681405L521.7572124947801,177.6823246511476L514.9238860726527,184.33586940814985L510.103114692658,184.0487182001807L506.26521903091816,186.44150124533007L505.98439739713103,194.47886256481706L501.53805486218516,197.97014099777607L498.4022132849059,204.47259149715774L494.51751401753427,204.7594089428285L493.3006202711276,204.0901609617449L492.17733373598276,202.51254710563626L489.83715345443306,199.11780704596913L489.83715345443306,199.06998912360268L489.462724609386,199.16562483822963L484.3611315956059,199.7394281982979L484.3611315956059,197.4919246883237L482.0677549196862,195.29196199191938L482.0677549196862,195.29196199191938L481.7869332859009,195.0049900219401L480.80405756764776,192.2306858410402L478.46387728609807,188.16410290312615L476.6853402721208,186.9200186763428L474.2515527793057,180.74614113273765L473.7367131173669,179.45365890684297L473.6899095117369,179.35791568907916L473.9239275398904,175.57563984091485L476.77894748338076,173.99545983937787L475.6556609482359,172.7982587824281L473.6431059061051,171.5051896239147L474.2983563849393,167.14636342890662L474.48557080746286,164.9904982690623L474.6727852299864,164.9904982690623L478.55748449736166,165.6612403736126L480.28921790570894,161.6843216300631L475.6556609482359,158.90473237006336L475.7960717651313,155.93295775573188L477.90223401852745,153.9674738910835L483.61227390550994,153.29628233027233L486.56090106026204,156.41231047437213L488.4330452855029,152.91273269701924L488.0586164404558,152.38533817601092L483.89309553929525,150.80305888844487L484.0335063561888,145.815541796047L484.7823640462848,144.0887608211233L485.0631856800719,143.3212476409526L485.2972037082254,142.69761826685408L488.90108134181173,141.35434064932997L489.27551018686063,139.05133777047195L492.8325842148188,138.18763309286078L490.96043998957794,136.46009506325663L490.3519931163737,133.7244754639314L488.52665249676465,130.4603659623026L488.2926344686093,130.55637793572623L488.4330452855029,130.3643534582343L488.71386691929,129.9802981352641L489.6499390319095,128.58802640093836L491.0072435952061,129.3081808870893L491.9433157078274,126.3313489281336L489.6967426375395,117.30170327709402L489.3691173981224,116.00450626574911L490.0711714825866,113.16955258835605L494.51751401753427,108.45962074448107Z" class="sc-kAyceB dIJauC Yamunanagar mapstate" fill="rgb(18, 108, 189)" stroke-width="0.9px" data-darkreader-inline-fill="" style="--darkreader-inline-fill: #0e5697;"></path><path d="M473.6431059061051,171.5051896239147L475.6556609482359,172.7982587824281L476.77894748338076,173.99545983937787L473.9239275398904,175.57563984091485L473.6899095117369,179.35791568907916L473.7367131173669,179.45365890684297L474.2515527793057,180.74614113273765L476.6853402721208,186.9200186763428L478.46387728609807,188.16410290312615L480.80405756764776,192.2306858410402L481.7869332859009,195.0049900219401L482.0677549196862,195.29196199191938L482.0677549196862,195.29196199191938L481.83373689153086,195.05281900921727L481.6933260746391,196.05719765713638L478.79150252551517,202.3213115669123L478.60428810299163,202.56035566538048L471.91137249775784,203.42088751730626L468.82233452611035,201.79540311167966L467.1374047233967,203.22966185555924L461.1465432026271,201.1738546571196L455.90453937195525,205.90663196883725L456.88741509020474,209.0611097158935L453.14312663972305,206.95818737241825L451.55180404826933,209.01331881606166L448.3691588653619,208.0096799484927L445.46733531623977,214.98617644138085L441.9102612882816,215.55946425987622L438.1659728377999,211.16378090000853L436.52784664071805,212.597276419403L434.56209520421544,211.21156596369747L432.3623257395575,215.08172570616625L426.13744619063255,217.42252090720012L423.42283706403396,215.79832868071662L423.14201543024683,215.6072374030191L422.7207829795698,216.37159008398976L422.2995505288891,216.7059839598969L417.2915647263708,212.54949511489303L415.27900968424,207.5317365648798L411.67513205065006,209.39564238237836L400.629481121734,207.96188619412442L397.2128179106694,210.97263934870716L396.46396022057525,209.87353516569783L390.42629509417566,212.2628045661213L381.8612352636992,209.2522720179486L385.04388044660664,201.65197080307917L382.04844968622456,198.54398339055024L380.41032348913905,200.26539815696833L377.74251796817043,198.7352600241329L376.75964224992094,194.7658431317086L378.2573576301129,192.61337454981458L375.0747124472018,188.4033397546591L382.1420568974863,176.43749608434155L382.09525329185453,176.34173637477488L384.43543357340604,176.7247720705027L387.80529317883884,177.44294141512455L388.8817761083519,181.1290805183271L394.1705835446537,180.41106230435707L398.8509441077549,175.86292996993234L402.2676073188177,179.02281030557242L401.5655532343535,181.1290805183271L404.79500202289273,180.65040497856262L409.14773734657683,175.67140374112932L407.79043278327663,174.04334617804216L409.2413445578386,171.2178279418522L408.3052724452209,167.96073218073707L408.8669157127915,167.33798301896604L408.8669157127915,167.29007831837498L408.9605229240533,167.24217348650382L409.5689697972575,166.85893010514974L414.6705628110358,161.87600113215922L415.1854024729764,160.77381526226418L415.79384934618065,160.72589255933872L427.44794714830095,159.86326141376412L430.72419954247016,155.78914937195077L435.6853817393585,155.2618418225893L436.5746502463462,149.36449853056638L436.621453851978,149.31654447365327L436.621453851978,149.2685902847852L436.7150610632398,149.31654447365327L439.6168846123637,150.32355196134358L440.83377835876854,148.69312972535135L443.40797666847357,150.7071585582662L442.14427931643513,152.7209547167913L446.87144348516813,156.268506041587L445.84176416128685,158.61716339317627L448.88399852730254,160.2466582957777L452.20705452710354,157.4668401035924L457.6830763859325,159.62363408687543L454.640842019915,163.1697827508351L454.640842019915,163.50519197262474L457.82348720282425,166.85893010514974L462.2698297377701,164.1280777284901Z" class="sc-kAyceB dIJauC Kurukshetra mapstate" fill="rgb(18, 108, 189)" stroke-width="0.9px" data-darkreader-inline-fill="" style="--darkreader-inline-fill: #0e5697;"></path><path d="M382.09525329185453,176.34173637477488L382.1420568974863,176.43749608434155L375.0747124472018,188.4033397546591L378.2573576301129,192.61337454981458L376.75964224992094,194.7658431317086L377.74251796817043,198.7352600241329L380.41032348913905,200.26539815696833L382.04844968622456,198.54398339055024L385.04388044660664,201.65197080307917L381.8612352636992,209.2522720179486L390.42629509417566,212.2628045661213L396.46396022057525,209.87353516569783L397.2128179106694,210.97263934870716L400.629481121734,207.96188619412442L411.67513205065006,209.39564238237836L415.27900968424,207.5317365648798L417.2915647263708,212.54949511489303L422.2995505288891,216.7059839598969L422.43996134578265,216.8015239022352L418.41485126151565,224.1087956512365L419.81895943044583,227.7374270772034L415.1854024729764,235.1356160483174L417.3383683320044,237.80774902022222L416.12147458559593,246.53708563786586L419.6317450079223,247.7292840145319L418.2276368389903,252.54494933105343L415.1854024729764,250.82862456875864L411.0198815718177,251.92518454860965L402.9228577976537,259.59920742174927L396.79158545999235,259.21796783159516L393.1877078264042,262.1247130472784L390.42629509417566,261.88647313691035L394.68542320659617,266.12666608191194L391.6899924462123,269.6038224139602L391.08154557300986,275.65150289135L388.1797220238859,278.5555642459767L387.5244715450499,279.2696051882722L386.8224174605857,278.74597796155376L384.9034696297167,274.98493019783837L384.76305881282315,274.69924854821875L384.76305881282315,274.69924854821875L384.10780833398894,274.4611770056672L381.2527883904986,273.60409309450006L380.9719667567115,273.50885900185676L377.74251796817043,276.98457344121107L376.38521340487205,274.1754869528395L368.1945824194463,277.1750039473618L367.7733499687656,277.2226112558237L363.935454307024,272.3660101496989L365.38636608158595,269.984839318794L364.2162759408111,268.03204141564584L356.0724485610135,266.2695763140564L354.99596563150226,268.36546111212374L356.587288222956,271.9850442260049L352.32816011053546,273.1755356656704L351.7665168429612,271.55644781445426L351.5793024204395,269.3656827046343L350.8304447303417,268.74650454092443L346.94574546296826,265.6979284932304L346.2904949841359,261.0764335443655L340.1124190408409,257.26398645349127L341.4697236041411,253.16469245975895L339.8784010126874,250.4471965071789L336.2277197734693,248.7783522511818L338.567900055019,243.38929641872346L338.0530603930765,240.3363603423013L340.76766951967693,238.47571920271457L340.5336514915216,235.5650932167473L343.71629667442903,230.0288102178929L343.99711830821434,225.97094966568147L343.2482606181202,225.49349300196354L343.0610461955948,223.2970260098964L343.34186782938195,222.2942001933052L343.38867143501193,222.1986900003676L343.38867143501193,222.24644516145872L344.2311363363697,222.53297341394955L344.465154364525,221.0047689636922L344.9331904208357,220.47941810982684L346.2904949841359,220.00181284710834L347.8818175755896,219.5241946517217L347.9286211812214,219.47643212081857L348.06903199811313,217.99572949839512L348.25624642063667,215.89387354266455L348.25624642063667,215.79832868071662L342.7802245618095,213.07508233679437L340.1124190408409,214.0784325862669L338.8955252944361,212.88396152492442L339.22315053385137,207.91409230998488L336.7893630410399,206.91039076266043L341.98456326608175,198.40052454910347L342.63981374491595,192.94822032708362L346.1500841672423,191.0347298506431L343.1078498012266,189.83869236080773L343.2014570124884,188.25979803524388L349.28592574451795,178.11320622974745L346.94574546296826,175.19257900095636L343.66949306879724,174.37854687996514L344.8863868152057,171.36150937297225L342.26538489986706,166.1403261154028L346.3841021953958,168.2002451823173L349.33272935015157,172.3193554227064L354.2003043357763,175.04892902472147L355.8852341384918,173.61236441270557L359.76993340586523,177.01204334314934L363.186596616928,176.00657326641158L365.66718771537126,172.55880874114337L361.5484704198443,169.39776097647882L364.1694723351775,167.8649260613165L365.94800934915656,172.60669901156598L371.75165644740264,173.18137203256447L370.39435188410243,169.92464194589866L373.29617543322456,168.15234284450344L369.7859050109,163.6489368105731L374.8406944190483,159.86326141376412L374.98110523594187,159.86326141376412L377.9765359963276,164.4634685526098L376.10439177108674,167.14636342890662L376.1511953767167,167.24217348650382L376.38521340487205,167.67331224733243L377.64891075690866,170.30781813534304L377.836125179434,170.30781813534304L380.92516315107787,170.9304615388928L381.34639560175856,175.3841104687799L381.39319920738853,176.05445410332595L381.9548424749628,176.15021538427936Z" class="sc-kAyceB dIJauC Kaithal mapstate" fill="rgb(18, 108, 189)" stroke-width="0.9px" data-darkreader-inline-fill="" style="--darkreader-inline-fill: #0e5697;"></path><path d="M203.6331050208264,271.6040701476695L203.77351583771997,273.36600690769137L202.41621127441977,276.17522107756577L203.53949780956464,277.84149468906617L199.18676248587872,280.45960985334204L201.2929247392767,283.22011477693377L200.2632454153918,286.74151804940175L203.35228338703928,292.7833884432339L200.9652994998596,295.684662713993L193.24270457074272,296.39801866402195L190.94932789482118,300.1070108289614L192.11941803559785,303.2447881754224L194.60000913403928,303.95784265995735L195.77009927481595,305.62152599843375L197.3146182606415,307.80784616380515L197.78265431695036,308.4256708834846L196.51895696491374,310.7066852855505L196.42534975365015,310.8017212507384L196.42534975365015,310.8492390443289L191.83859640181254,312.7498474866379L194.13197307772862,317.7854857010889L194.17877668336223,317.8329849912461L193.9447586552069,324.3866817553835L193.75754423268154,329.5614626304905L189.40480890899926,328.7544847717654L186.03494930356464,322.8671969829011L183.03951854318257,324.5291268627316L183.92878705017029,325.8585600690694L182.15025003619303,327.14042036712L176.252995726687,327.8525254712167L175.550941642221,330.84305890995165L169.79409814960854,329.94120438432765L164.879719558352,319.7328535038605L160.24616260088078,319.6853592422158L157.01671381234337,322.4398187265915L151.25987031972727,320.6827123469393L149.29411888322647,317.0254799557706L151.2130667140973,313.7475862532765L147.98361792555806,310.2790172047662L147.74959989740273,306.3820154633295L134.31696508130335,299.0609627256372L129.68340812383394,300.20210307743855L124.67542232131564,306.47707437538065L120.79072305394402,307.7127943153746L117.23364902598405,307.7603203026465L114.23821826560197,305.0036045217894L104.83069353376959,304.62333454996497L104.26905026619715,311.51447492541865L95.7975976469861,312.46476906791486L96.35924091455672,305.8591824260966L92.52134525281508,301.7235103081075L90.7896118444678,296.1126797005154L86.20285849262837,295.3993123615828L86.48368012641549,289.73892191793493L86.95171618272434,288.54953617728097L93.55102457669636,289.4059018980961L96.07841928077141,281.93510531258653L99.26106446368067,278.17473071026143L99.4482788862042,276.6513151568979L92.10011280213439,270.7944731511734L93.0829885203857,259.694516040553L94.58070390057765,257.5499483802978L93.69143539359175,254.88079122326417L98.37179595668931,237.66460927161734L93.97225702737524,235.0401752611442L92.24052361902795,238.33258485785245L90.18116497126357,237.0443236448009L85.82842964757947,239.7161683637969L77.54419145089196,238.90511529061132L76.93574457769137,236.23314808335454L76.74853015516419,234.03801589466002L78.29304914098793,226.59162402737093L81.80331956331247,223.39253025855123L86.57728733767726,222.05542374161269L89.94714694311006,216.89706332679543L87.27934142214144,211.30713570211992L82.13094480272957,210.11247669345903L84.6583395068028,204.28137726871591L85.45400080253057,202.84720429449317L95.42316880193539,209.39564238237836L104.22224666056536,210.54256327296935L103.09896012542231,209.5390115793407L103.84781781551828,206.86259402310043L103.84781781551828,206.86259402310043L108.48137477298769,203.8989425761347L112.03844880094584,198.30488467084615L112.27246682909936,197.97014099777607L116.06355888521102,200.69572550884914L123.41172496927902,198.83089756023764L128.32610356053374,195.19630518957638L128.41971077179733,195.24413365586497L130.29185499703817,196.39197777811296L129.7770153350957,199.02217107114302L132.44482085606433,198.97435288857196L135.06582277140114,201.6041597735366L140.07380857391763,199.69161196708683L142.41398885546914,202.3213115669123L141.61832755974137,204.23357338683945L145.97106288342547,202.6559723949531L149.48133330575,210.446989385302L153.97447944632768,212.597276419403L156.78269578418622,217.32698433017504L160.66739505156147,217.51805696653628L164.41168350204134,214.17398677307847L167.9219539243677,215.6072374030191L170.5429558397027,208.8221539193728L171.52583155795583,209.0611097158935L172.04067121989647,209.20448163702622L172.36829645931357,209.30006226914702L172.46190367057716,209.58680105223175L174.80208395212503,215.32059660176674L171.01099189601155,219.6674814683729L175.41053082532744,223.5835372054553L175.45733443095742,223.63128861918995L172.78952890999244,225.39800011978878L172.64911809309888,227.97612668961574L177.93792552940067,227.92838702520567L180.37171302221577,233.51305260475692L182.75869690939544,231.93806919625695L181.58860676861877,228.97862983846244L182.5714824868719,224.68178703873764L182.6182860925037,224.63403846683013L182.9459113319208,224.34754432308273L186.5029853598753,221.38683248580583L186.40937814861536,221.67337469776976L189.49841612026103,223.48803399039843L189.17079088084392,230.41067851643038L191.8854000074407,231.12665933428343L194.08516947209864,237.66460927161734L194.17877668336223,237.95088761079296L191.8854000074407,241.76748967447202L189.2643980921075,240.3363603423013L188.79636203579685,240.95653059124743L188.04750434570087,242.7215116307034L188.88996924705862,249.06445099506163L183.03951854318257,252.73564183063718L185.98814569793467,255.35745587088877L185.2860916134705,259.50389829146116L193.28950817637087,263.9352319877553L191.1833459229765,267.9844095202061L193.75754423268154,271.7469363827231L193.28950817637087,274.69924854821875L199.09315527461877,273.31838928823436L200.3100490210236,271.2707111390664L203.6331050208264,271.6040701476695Z" class="sc-kAyceB dIJauC Sirsa mapstate" fill="rgb(18, 108, 189)" stroke-width="0.9px" data-darkreader-inline-fill="" style="--darkreader-inline-fill: #0e5697;"></path><path d="M482.0677549196862,195.29196199191938L484.3611315956059,197.4919246883237L484.3611315956059,199.7394281982979L489.462724609386,199.16562483822963L489.83715345443306,199.06998912360268L489.83715345443306,199.11780704596913L492.17733373598276,202.51254710563626L493.3006202711276,204.0901609617449L494.51751401753427,204.7594089428285L498.4022132849059,204.47259149715774L498.3554096792759,204.56819783196624L498.1213916511206,205.04622171244955L492.17733373598276,210.20805239670608L494.6579248344242,217.0403714928343L491.0072435952061,221.10028561992385L490.21158229948196,228.35803935988224L489.462724609386,229.40825662976658L486.139668609585,234.18118499591128L482.3953801591033,235.0401752611442L482.20816573657976,236.18543071538443L482.20816573657976,236.424016267958L482.0677549196862,237.09203869592693L485.0163820744401,240.0978275377056L484.0335063561888,242.91230985400216L484.3611315956059,243.24620179826798L484.26752438434414,243.62778488353615L487.26295514472804,247.5385376638069L486.60770466589565,248.92140220029887L486.84172269404917,248.96908526014704L486.56090106026204,249.25518092583116L485.5312217363826,250.3041588687429L484.1271135674506,255.8817721964151L483.84629193366345,257.1210037627152L479.96159266629184,258.78906350952184L480.4764323282325,264.93570280549466L477.0597691171679,266.5077574818115L483.14423784919927,271.65169235344365L480.28921790570894,273.69932667771354L478.51068089172986,278.26993985729587L483.89309553929525,284.74296906622476L483.89309553929525,284.7905561677908L483.89309553929525,284.8381431424086L483.75268472239986,284.93331671080887L482.11455852531617,286.9794256368059L474.1111419624158,292.4979917518258L473.7835167229987,292.3552916961389L471.1157112020319,291.07093988697034L471.16251480766186,288.0261813443667L469.47758500494456,290.5952305904575L464.89083165310694,291.59420547711215L452.6282869777824,285.17124841033456L450.7561427525434,285.2188343694279L449.49244540050495,287.8358666912454L445.46733531623977,283.5056598609053L441.58263604886633,283.886379527863L435.82579255625205,279.60281450377533L435.82579255625205,279.60281450377533L431.84748607761503,287.78828771087683L431.70707526072147,288.12133790993994L429.27328776791,286.59877197444075L427.02671469762026,288.6446899528337L427.3075363314092,288.12133790993994L426.09064258500257,287.597970520992L425.0609632611213,287.12216866681683L423.42283706403396,288.3592271044272L418.83608371219634,284.45744379081043L418.46165486714744,284.1243251927599L415.46622410676355,285.88502446958955L410.78586354366234,283.6484306884313L407.46280754386135,287.5028111649799L403.6249118821179,285.5519325290643L403.5781082764879,285.5043474584627L399.9742306428998,288.31164951917435L391.830403263104,288.6446899528337L391.2219563899016,287.45523129670255L391.2219563899016,285.4567622609402L387.2436499112646,279.5076124779198L387.5244715450499,279.2696051882722L388.1797220238859,278.5555642459767L391.08154557300986,275.65150289135L391.6899924462123,269.6038224139602L394.68542320659617,266.12666608191194L390.42629509417566,261.88647313691035L393.1877078264042,262.1247130472784L396.79158545999235,259.21796783159516L402.9228577976537,259.59920742174927L411.0198815718177,251.92518454860965L415.1854024729764,250.82862456875864L418.2276368389903,252.54494933105343L419.6317450079223,247.7292840145319L416.12147458559593,246.53708563786586L417.3383683320044,237.80774902022222L415.1854024729764,235.1356160483174L419.81895943044583,227.7374270772034L418.41485126151565,224.1087956512365L422.43996134578265,216.8015239022352L422.2995505288891,216.7059839598969L422.7207829795698,216.37159008398976L423.14201543024683,215.6072374030191L423.42283706403396,215.79832868071662L426.13744619063255,217.42252090720012L432.3623257395575,215.08172570616625L434.56209520421544,211.21156596369747L436.52784664071805,212.597276419403L438.1659728377999,211.16378090000853L441.9102612882816,215.55946425987622L445.46733531623977,214.98617644138085L448.3691588653619,208.0096799484927L451.55180404826933,209.01331881606166L453.14312663972305,206.95818737241825L456.88741509020474,209.0611097158935L455.90453937195525,205.90663196883725L461.1465432026271,201.1738546571196L467.1374047233967,203.22966185555924L468.82233452611035,201.79540311167966L471.91137249775784,203.42088751730626L478.60428810299163,202.56035566538048L478.79150252551517,202.3213115669123L481.6933260746391,196.05719765713638L481.83373689153086,195.05281900921727Z" class="sc-kAyceB dIJauC Karnal mapstate" fill="rgb(18, 108, 189)" stroke-width="0.9px" data-darkreader-inline-fill="" style="--darkreader-inline-fill: #0e5697;"></path><path d="M343.38867143501193,222.1986900003676L343.34186782938195,222.2942001933052L343.0610461955948,223.2970260098964L343.2482606181202,225.49349300196354L343.99711830821434,225.97094966568147L343.71629667442903,230.0288102178929L340.5336514915216,235.5650932167473L340.76766951967693,238.47571920271457L338.0530603930765,240.3363603423013L338.567900055019,243.38929641872346L336.2277197734693,248.7783522511818L339.8784010126874,250.4471965071789L341.4697236041411,253.16469245975895L340.1124190408409,257.26398645349127L346.2904949841359,261.0764335443655L346.94574546296826,265.6979284932304L350.8304447303417,268.74650454092443L351.5793024204395,269.3656827046343L351.7665168429612,271.55644781445426L352.32816011053546,273.1755356656704L356.587288222956,271.9850442260049L354.99596563150226,268.36546111212374L356.0724485610135,266.2695763140564L364.2162759408111,268.03204141564584L365.38636608158595,269.984839318794L363.935454307024,272.3660101496989L367.7733499687656,277.2226112558237L368.1945824194463,277.1750039473618L376.38521340487205,274.1754869528395L377.74251796817043,276.98457344121107L380.9719667567115,273.50885900185676L381.2527883904986,273.60409309450006L384.10780833398894,274.4611770056672L384.76305881282315,274.69924854821875L384.76305881282315,274.69924854821875L384.9034696297167,274.98493019783837L386.8224174605857,278.74597796155376L387.5244715450499,279.2696051882722L387.2436499112646,279.5076124779198L391.2219563899016,285.4567622609402L391.2219563899016,287.45523129670255L391.830403263104,288.6446899528337L399.9742306428998,288.31164951917435L403.5781082764879,285.5043474584627L403.6249118821179,285.5519325290643L407.46280754386135,287.5028111649799L410.78586354366234,283.6484306884313L415.46622410676355,285.88502446958955L418.46165486714744,284.1243251927599L418.83608371219634,284.45744379081043L423.42283706403396,288.3592271044272L425.0609632611213,287.12216866681683L426.09064258500257,287.597970520992L427.3075363314092,288.12133790993994L427.02671469762026,288.6446899528337L422.48676495141444,297.49177583121036L423.9376767259746,298.53791572839145L423.00160461335327,301.771052199304L410.97307796618406,305.09867075258717L410.08380945919816,305.5264625440541L409.80298782541286,310.564130392725L407.275593121336,314.6977620331354L408.77330850152975,316.360448516014L408.2584688395873,317.2629852096743L408.5392904733744,317.97548210722834L414.20252675472693,320.7302039697288L414.48334838851224,323.48450317563857L410.78586354366234,323.199595261739L410.598649121137,323.199595261739L404.04614433279676,319.2104097130823L401.9867856850342,320.77769546687887L396.41715661494163,320.63522059850766L395.38747729106217,324.9089749603054L397.5404431500865,330.2260054367425L396.2299421924199,333.31106112622456L392.29843931941286,332.4093303440368L390.9411347561163,329.2766510516776L383.1717362213676,328.1848315316156L386.40118500990866,338.67305307263905L388.9285797139819,341.3297318035284L385.4651128972873,345.9305522772074L383.6397722776783,353.7539950078799L383.2653434326294,354.22803408354866L382.9845217988459,355.36567710091276L378.44457205263643,360.1998608852764L372.1728888980797,356.64543985468936L368.6158148701252,358.3990415981343L364.1226687295475,355.31827673916086L356.63409182858777,354.84426627986886L356.68089543421775,354.7494626951693L359.2082901382928,349.5344987838371L359.161486532661,349.48708310918937L359.2082901382928,349.3922513860889L357.2425387017902,347.68519512751936L356.4468774060624,336.91753245330983L353.45144664568033,333.31106112622456L345.02679763209926,331.5550173792799L345.40122647714634,328.04241540084786L342.8270281674413,326.3808104879017L339.0827397169596,319.7328535038605L342.5462065336542,313.8901158302242L337.67863154802944,310.1364589095383L342.1249740829753,305.95424411388285L341.5633308154029,300.43983148689586L339.7847938014238,297.91974955113255L339.7379901957938,297.87219742148864L334.54278997075016,296.16023651076193L334.44918275949203,296.30290618230265L330.65809070337855,301.4382563079171L327.7094635486246,298.63301632039474L327.66265994299465,298.58546608761117L327.4754455204711,298.63301632039474L324.4800147600872,298.20505967319514L322.420656112321,292.8785196604267L322.23344168979565,292.4504251932667L322.23344168979565,292.40285850803866L322.1398344785357,292.4504251932667L315.4937224789319,294.92371831578566L314.4172395494188,295.35175352655915L313.20034580301217,292.8785196604267L309.8304861975812,291.4039288546228L312.54509532417796,285.5043474584627L300.18894343759166,282.26826480675845L304.4480715500158,273.50885900185676L304.86930400069286,272.6041097113757L304.6820895781693,272.3660101496989L304.91610760632466,271.0802174733153L304.96291121195463,271.0325937382586L304.54167876127394,265.98375470109204L302.57592732477497,265.6026520694595L303.7928210711798,259.74217015815066L301.4526407896301,257.1686647875986L302.99715977545384,252.11588371129528L300.28255064885525,249.58895336714158L302.3887129022496,241.67208465153908L308.0519491836021,242.1014032063067L314.4640431550488,236.9966084649759L315.96175853524255,239.09595465188886L316.66381261970673,238.90511529061132L317.55308112669627,238.66656319482718L317.8807063661134,238.57114145605465L318.25513521116045,237.7123226498261L320.64211909834194,234.27663041939013L323.122710196787,232.5585339573945L323.35672822494234,230.41067851643038L325.22887245018137,227.68968676760323L325.5564976895985,227.40324220004004L328.27110681619706,229.79013834026864L328.7859464781377,230.55387700078427L328.97316090066306,230.3629454304364L332.7642529567729,225.82771402226444L337.0701846748252,226.06643944909138L337.63182794239947,225.30250672110287L340.76766951967693,221.29131738096748L340.95488394220047,221.38683248580583Z" class="sc-kAyceB dIJauC Jind mapstate" fill="rgb(18, 108, 189)" stroke-width="0.9px" data-darkreader-inline-fill="" style="--darkreader-inline-fill: #0e5697;"></path><path d="M193.9447586552069,324.3866817553835L194.17877668336223,317.8329849912461L194.13197307772862,317.7854857010889L191.83859640181254,312.7498474866379L196.42534975365015,310.8492390443289L196.42534975365015,310.8017212507384L196.51895696491374,310.7066852855505L197.78265431695036,308.4256708834846L197.3146182606415,307.80784616380515L195.77009927481595,305.62152599843375L194.60000913403928,303.95784265995735L192.11941803559785,303.2447881754224L190.94932789482118,300.1070108289614L193.24270457074272,296.39801866402195L200.9652994998596,295.684662713993L203.35228338703928,292.7833884432339L200.2632454153918,286.74151804940175L201.2929247392767,283.22011477693377L199.18676248587872,280.45960985334204L203.53949780956464,277.84149468906617L202.41621127441977,276.17522107756577L203.77351583771997,273.36600690769137L203.6331050208264,271.6040701476695L203.77351583771997,271.3659572072793L206.2541069361614,266.6983001189046L201.620549978692,263.02999557532166L201.57374637306202,262.98235027627834L202.41621127441977,260.4093143795926L202.5566220913115,260.07574540125734L202.5566220913115,260.07574540125734L205.9264816967443,258.59843604106754L207.70501871072156,253.45072044766584L208.26666197829582,251.59145608002837L208.31346558392397,251.63913196001158L212.38537927382276,253.45072044766584L210.18560980916482,247.58622444395132L214.35113071032538,244.53401176369243L217.3465614707111,244.53401176369243L216.73811459750505,241.57667911449607L216.73811459750505,241.5289761531776L219.26550930158191,240.00241351578006L220.52920665361853,234.94473395888326L220.6696174705121,234.51524172410336L221.09084992118915,234.3720753276648L226.80088980817345,232.36762404292313L227.78376552642476,228.35803935988224L227.92417634331832,227.83290730928093L236.48923617379114,233.36987809312086L236.67645059631468,233.51305260475692L236.7232542019483,233.51305260475692L237.37850468078068,236.5671660548296L239.6718813567004,233.94256918311748L243.3693662015521,234.46751972075344L246.08397532814888,239.90699897949617L249.96867459552413,237.7123226498261L252.9641053559044,238.4280078830734L253.15131977843157,238.33258485785245L254.55542794736175,234.08573905722096L255.58510727124303,233.75167421427068L256.0999469331837,233.60850163503437L256.2871613557072,233.5607771843088L258.90816327104403,233.46532789637513L261.0143255244384,233.36987809312086L261.061129130072,233.36987809312086L264.6650067636565,237.33061202114823L265.0394356087054,237.37832630012235L267.6604375240422,226.83033912674637L273.0896557772394,228.31030072768226L273.1364593828712,228.26256196646227L273.18326298850116,228.31030072768226L276.59992619956574,225.30250672110287L276.6467298051957,225.2547598280653L281.56110839645044,228.11934490866133L282.21635887528464,228.45351623723036L284.0416994948955,227.35550098710246L285.21178963567036,227.02130888288957L285.49261126945567,230.2197453987601L290.0325610156651,235.1356160483174L290.54740067760576,238.14173726358604L294.94693960692166,238.7142738712546L296.1170297476947,237.33061202114823L301.078211944583,241.43356984493676L302.20149847972607,241.5289761531776L302.3887129022496,241.67208465153908L300.28255064885525,249.58895336714158L302.99715977545384,252.11588371129528L301.4526407896301,257.1686647875986L303.7928210711798,259.74217015815066L302.57592732477497,265.6026520694595L304.54167876127394,265.98375470109204L304.96291121195463,271.0325937382586L304.91610760632466,271.0802174733153L301.1718191558448,268.4607227345823L300.7037830995341,267.93677749720155L300.61017588827235,268.0796731835253L297.66154873351843,272.6041097113757L294.29168912808564,271.9374229121877L294.2448855224575,275.699114271928L291.57708000148887,275.4610560962001L290.8282223113911,272.2707694332248L288.72206005799853,273.22315366722614L288.1604167904243,277.55585885289474L285.91384372013636,280.3644124039465L280.6250362838309,278.31754424003066L273.9789242842289,280.9355894742057L272.434405298407,285.5995174727441L276.88074783335105,293.1163454870057L275.4766396644209,297.0637918659677L270.3282430450108,300.3447405022589L268.17527718598467,298.8232159870877L269.20495650986595,296.63579765414124L266.0691149325885,294.3529887522509L253.90017746852573,296.77846353000587L251.60680079260783,299.1560605360464L251.51319358134424,304.7184028002457L248.47095921533037,306.61966179727733L249.92187098989052,309.47117186732703L247.6752979196026,310.8017212507384L246.41160056756598,307.1900001315098L246.22438614504244,307.1900001315098L238.40818400466196,306.2869560466306L236.3488253568994,300.0594645151368L233.54060901904086,300.58246701602457L233.3065909908837,300.72510140779104L231.57485758253642,301.7235103081075L230.17074941360625,302.5792450225945L229.70271335729558,303.53001337836395L229.46869532914207,304.1004501479247L228.86024845593784,305.57399433433966L229.84312417418914,306.95236136640506L226.14563932934107,307.9504229906297L224.46070952662194,305.0036045217894L222.77577972390827,305.24126915222496L220.9504391042974,309.1860412865308L218.6102588227459,309.9463794181929L218.2826335833306,314.17517158515966L211.9641468231457,315.79040194309255L211.68332518935676,315.8854109633676L210.2324134147966,320.255282087699L206.72214299247207,319.1154182989585L204.24155189403064,321.7274990278838L201.38653195053485,321.96494206728494L200.73128147170246,326.2858569952914L194.78722355656464,326.0484710685332Z" class="sc-kAyceB dIJauC Fatehabad mapstate" fill="rgb(18, 108, 189)" stroke-width="0.9px" data-darkreader-inline-fill="" style="--darkreader-inline-fill: #0e5697;"></path><path d="M304.91610760632466,271.0802174733153L304.6820895781693,272.3660101496989L304.86930400069286,272.6041097113757L304.4480715500158,273.50885900185676L300.18894343759166,282.26826480675845L312.54509532417796,285.5043474584627L309.8304861975812,291.4039288546228L313.20034580301217,292.8785196604267L314.4172395494188,295.35175352655915L315.4937224789319,294.92371831578566L322.1398344785357,292.4504251932667L322.23344168979565,292.40285850803866L322.23344168979565,292.4504251932667L322.420656112321,292.8785196604267L324.4800147600872,298.20505967319514L327.4754455204711,298.63301632039474L327.66265994299465,298.58546608761117L327.7094635486246,298.63301632039474L330.65809070337855,301.4382563079171L334.44918275949203,296.30290618230265L334.54278997075016,296.16023651076193L339.7379901957938,297.87219742148864L339.7847938014238,297.91974955113255L341.5633308154029,300.43983148689586L342.1249740829753,305.95424411388285L337.67863154802944,310.1364589095383L342.5462065336542,313.8901158302242L339.0827397169596,319.7328535038605L342.8270281674413,326.3808104879017L345.40122647714634,328.04241540084786L345.02679763209926,331.5550173792799L353.45144664568033,333.31106112622456L356.4468774060624,336.91753245330983L357.2425387017902,347.68519512751936L359.2082901382928,349.3922513860889L359.161486532661,349.48708310918937L359.2082901382928,349.5344987838371L356.68089543421775,354.7494626951693L356.63409182858777,354.7494626951693L353.8258754907274,358.6833934140468L347.97542478685136,359.2520836251124L348.2094428150067,369.15390458195543L348.2094428150067,369.15390458195543L347.9286211812214,369.4380873992559L345.5884408996699,371.80610414258626L345.35442287151636,371.6640318678392L342.59301013928416,369.9117155176564L342.2185812942371,369.3433602890391L340.5336514915216,366.5960584755576L342.1249740829753,364.70112457935556L339.69118659016203,361.00543249025486L331.4537519991063,361.95311784202295L330.61128709774675,363.75358320623764L324.71403278824073,362.28479598209105L322.1398344785357,364.3694907438721L320.548511887082,365.6486163312493L320.3612974645566,365.790735815046L318.25513521116045,363.99047320225145L317.4594739154345,363.2797939074626L317.36586670417273,363.23241429504105L317.225455887281,358.35164919384624L312.26427369039084,359.3468635873887L308.0051455779703,355.6974761503707L305.5245544795289,358.8729588059032L307.25628788787617,370.71685489267475L307.30309149350614,370.76421491777L304.49487515564397,369.5328140139436L296.7254766208989,366.3118310402506L294.478903550611,372.3743821002572L292.93438456478543,371.995532109092L287.97320236790074,378.24554450877713L288.81566726925666,381.0384141892109L288.7688636636267,381.18041302663914L288.3476312129478,381.8430595768459L287.0839338609112,383.7835281726466L286.24146895955164,384.3514309645252L285.16498603003856,385.108607057713L284.7437535793615,385.4398616707931L278.9869100867454,383.2156076158153L278.14444518538767,383.54689676640373L275.28942524189733,387.3326292817592L275.055407213742,387.6638433375347L275.055407213742,387.6638433375347L274.49376394616957,387.6165274135574L263.16729138346454,385.7237893872398L261.76318321453437,385.53450473615703L258.7209488485223,380.7544131807181L256.52117938386436,380.8490806774362L253.85337386289575,373.7949990212119L250.57712146872473,372.3743821002572L246.83283301824486,372.89528790356235L241.21640034252232,375.83102243124995L238.03375515961488,375.12080768086525L237.9869515539849,375.07345904147496L238.03375515961488,375.0261102784052L237.19129025825896,369.2486326832759L236.3956289625312,369.0591759850631L234.0086450753497,368.4907939959412L229.6559097516656,367.40134530444175L225.53719245613502,368.4907939959412L226.47326456875635,363.0428946042757L224.9287455829326,359.86814449670146L217.15934704818574,358.92034984320253L218.51665161148776,349.724160236452L219.40592011847366,348.87066799944387L218.70386603400948,348.3964881989177L214.81916676663604,345.6934252838455L214.11711268217186,345.2191619415544L214.16391628780002,345.1717349212058L215.24039921731674,344.982025592205L215.6616316679938,340.3335231947294L219.54633093536722,340.1437629279135L220.7164210761439,337.6292506308555L219.82715256915435,332.55171189352404L218.00181194954348,331.7923306063203L220.341992231095,327.33031782029866L219.87395617478433,325.9060380071187L219.639938146629,325.09889599728467L219.35911651284368,324.2442355184576L214.81916676663604,325.14637594281885L210.98127110489258,330.4158702990562L207.51780428819984,328.65954381865686L210.2324134147966,320.255282087699L211.68332518935676,315.8854109633676L211.9641468231457,315.79040194309255L218.2826335833306,314.17517158515966L218.6102588227459,309.9463794181929L220.9504391042974,309.1860412865308L222.77577972390827,305.24126915222496L224.46070952662194,305.0036045217894L226.14563932934107,307.9504229906297L229.84312417418914,306.95236136640506L228.86024845593784,305.57399433433966L229.46869532914207,304.1004501479247L229.70271335729558,303.53001337836395L230.17074941360625,302.5792450225945L231.57485758253642,301.7235103081075L233.3065909908837,300.72510140779104L233.54060901904086,300.58246701602457L236.3488253568994,300.0594645151368L238.40818400466196,306.2869560466306L246.22438614504244,307.1900001315098L246.41160056756598,307.1900001315098L247.6752979196026,310.8017212507384L249.92187098989052,309.47117186732703L248.47095921533037,306.61966179727733L251.51319358134424,304.7184028002457L251.60680079260783,299.1560605360464L253.90017746852573,296.77846353000587L266.0691149325885,294.3529887522509L269.20495650986595,296.63579765414124L268.17527718598467,298.8232159870877L270.3282430450108,300.3447405022589L275.4766396644209,297.0637918659677L276.88074783335105,293.1163454870057L272.434405298407,285.5995174727441L273.9789242842289,280.9355894742057L280.6250362838309,278.31754424003066L285.91384372013636,280.3644124039465L288.1604167904243,277.55585885289474L288.72206005799853,273.22315366722614L290.8282223113911,272.2707694332248L291.57708000148887,275.4610560962001L294.2448855224575,275.699114271928L294.29168912808564,271.9374229121877L297.66154873351843,272.6041097113757L300.61017588827235,268.0796731835253L300.7037830995341,267.93677749720155L301.1718191558448,268.4607227345823Z" class="sc-kAyceB dIJauC Hisar mapstate" fill="rgb(18, 108, 189)" stroke-width="0.9px" data-darkreader-inline-fill="" style="--darkreader-inline-fill: #0e5697;"></path><path d="M427.02671469762026,288.6446899528337L429.27328776791,286.59877197444075L431.70707526072147,288.12133790993994L431.84748607761503,287.78828771087683L435.82579255625205,279.60281450377533L435.82579255625205,279.60281450377533L441.58263604886633,283.886379527863L445.46733531623977,283.5056598609053L449.49244540050495,287.8358666912454L450.7561427525434,285.2188343694279L452.6282869777824,285.17124841033456L464.89083165310694,291.59420547711215L469.47758500494456,290.5952305904575L471.16251480766186,288.0261813443667L471.1157112020319,291.07093988697034L473.7835167229987,292.3552916961389L474.1111419624158,292.4979917518258L482.11455852531617,286.9794256368059L483.75268472239986,284.93331671080887L483.89309553929525,284.8381431424086L483.93989914492704,284.7905561677908L483.93989914492704,284.88572999008557L482.58259458162684,289.9767895576051L482.6762017928886,290.02436270525413L483.0506306379357,290.4525153302193L486.0928650039514,293.40173229963966L486.4204902433685,293.6871145534378L485.7652397645361,294.4956728521129L484.1271135674506,299.5364467208292L487.82459841229866,301.91367711491785L483.0974342435675,304.62333454996497L482.91021982104394,306.5721327827987L483.28464866609283,308.5682427925558L486.7949190884174,310.6591671139522L488.19902725734755,311.46695889566763L488.3862416798729,311.6095066070002L487.9650092291922,316.78797155747907L487.4501695672516,317.7854857010889L487.4501695672516,317.8329849912461L487.26295514472804,317.7854857010889L485.8120433701679,321.157622921196L485.0163820744401,323.05713960986577L484.9695784688083,323.199595261739L486.6545082715238,329.0867741591974L483.84629193366345,331.7923306063203L485.57802534201073,336.4430380367612L485.6248289476407,340.61815984703935L485.6248289476407,340.6655988518569L478.60428810299163,341.56691621063055L475.7024645538695,338.4358305577589L472.84744461037735,339.62191188642373L471.3965328358154,337.58180362762596L468.1202804416462,338.7679412036405L460.9593287801017,336.8700835744303L451.13057159759046,331.4600912117339L444.6248704148802,336.253236768217L434.74930962673716,331.7448682113991L431.9878968945086,325.95351581970954L432.45593295081926,322.1074063837641L429.88173464111424,320.44525234831417L420.09978106423114,325.9060380071187L419.0701017403517,324.14927073294257L417.946815205205,324.00682261328257L414.20252675472693,320.7302039697288L408.5392904733744,317.97548210722834L408.2584688395873,317.2629852096743L408.77330850152975,316.360448516014L407.275593121336,314.6977620331354L409.80298782541286,310.564130392725L410.08380945919816,305.5264625440541L410.97307796618406,305.09867075258717L423.00160461335327,301.771052199304L423.9376767259746,298.53791572839145L422.48676495141444,297.49177583121036Z" class="sc-kAyceB dIJauC Panipat mapstate" fill="rgb(18, 108, 189)" stroke-width="0.9px" data-darkreader-inline-fill="" style="--darkreader-inline-fill: #0e5697;"></path><path d="M454.82805644244036,405.20956202798425L453.23673385098664,405.20956202798425L449.82007063992205,405.25683222771113L447.4330867527424,405.3041023048354L447.0586579076935,405.3041023048354L445.84176416128685,403.36592859325265L440.2721350911961,394.2868572028401L434.46848799295185,393.10435308969863L436.9958826970269,387.237995585253L435.9662033731438,381.9850521183689L431.3794500213062,382.9789688066403L428.7116445003394,380.7544131807181L429.2264841622782,378.95563688553466L426.8863038807285,375.97306204251436L424.2184983597617,376.6832434072612L421.6911036556867,374.88406324709376L423.329229852774,368.63289116597844L420.2401918811265,365.7433627777973L410.45823830424524,360.2472484439131L397.35322872756296,359.63120049237295L393.04729700951066,352.7584724393573L388.6009544745666,356.40845359200284L383.6397722776783,353.7539950078799L385.4651128972873,345.9305522772074L388.9285797139819,341.3297318035284L386.40118500990866,338.67305307263905L383.1717362213676,328.1848315316156L390.9411347561163,329.2766510516776L392.29843931941286,332.4093303440368L396.2299421924199,333.31106112622456L397.5404431500865,330.2260054367425L395.38747729106217,324.9089749603054L396.41715661494163,320.63522059850766L401.9867856850342,320.77769546687887L404.04614433279676,319.2104097130823L410.598649121137,323.199595261739L410.78586354366234,323.199595261739L414.48334838851224,323.48450317563857L414.20252675472693,320.7302039697288L417.946815205205,324.00682261328257L419.0701017403517,324.14927073294257L420.09978106423114,325.9060380071187L429.88173464111424,320.44525234831417L432.45593295081926,322.1074063837641L431.9878968945086,325.95351581970954L434.74930962673716,331.7448682113991L444.6248704148802,336.253236768217L451.13057159759046,331.4600912117339L460.9593287801017,336.8700835744303L468.1202804416462,338.7679412036405L471.3965328358154,337.58180362762596L472.84744461037735,339.62191188642373L475.7024645538695,338.4358305577589L478.60428810299163,341.56691621063055L485.6248289476407,340.6655988518569L485.6716325532743,340.6655988518569L484.50154241249766,345.02945311159147L486.51409745463206,349.3448353376316L486.51409745463206,349.4396673099409L484.22072077871053,353.2325376509216L486.18647221521496,355.7922747593657L488.8074741305536,355.981870484884L489.27551018686063,363.99047320225145L492.6921733979252,365.08012723389584L494.7047284400578,372.18495809494925L493.86226353870006,380.47040772707714L495.54719334141555,381.55907116095386L498.26180246801414,383.31026227575603L499.29148179189724,383.9728310770115L499.19787458063365,384.8246697227487L498.63623131306304,390.7391141484368L493.95587074996,389.8875527920827L492.6921733979252,393.0570513259081L496.6236762709286,395.2801012518621L496.810890693454,395.7057606728995L490.58601114453086,394.71253986447937L487.7777948066687,398.49594809255814L487.7777948066687,398.49594809255814L487.4501695672516,398.4486603437308L485.7184361589043,398.16493127100966L485.5312217363826,398.1176426622469L485.20359649696366,394.09766171107003L482.20816573657976,394.71253986447937L476.3577150327037,390.3133384571802L475.14082128629707,393.10435308969863L472.56662297659204,393.0570513259081L469.80521024435984,399.3471065672902L463.25270545602143,398.0703539306305L462.7846693997126,398.16493127100966L460.6785071463164,401.19114677174L460.6317035406846,401.14386602214745L460.58489993505464,401.2384273985799L458.619148498552,400.1982252513917L458.47873768165846,400.4819226387681L458.7595593154456,402.75134265853103L456.2789682170005,401.80578534724555Z" class="sc-kAyceB dIJauC Sonipat mapstate" fill="rgb(18, 108, 189)" stroke-width="0.9px" data-darkreader-inline-fill="" style="--darkreader-inline-fill: #0e5697;"></path><path d="M295.8830117195412,469.05470218251685L295.55538648012407,470.27941541786004L294.8533323956581,473.10536642916304L294.0108674943003,476.5901101420959L290.96863312828464,477.108056437869L288.3476312129478,476.5430233948382L282.7311985372271,473.0111750351807L282.6843949315953,473.05827079226674L277.16156946713636,474.4239954708328L276.27230096014864,474.6594550296095L274.7277819743249,472.2576265742355L278.0508379741259,468.9133838829339L278.0040343684959,465.4271895358215L269.9538141999619,462.74142796440356L270.51545746753254,459.9610165954764L264.80541758055006,458.73561726477783L259.9846462005571,454.0689265862202L259.7038245667718,452.98457641109144L260.0314498061889,451.853012387096L259.3761993273547,451.57011049720586L254.27460631357644,449.5896753279758L252.54287290522916,439.589932089134L252.49606929959737,439.5427505748421L243.27575899028852,437.5610173489458L243.13534817339496,433.59690806484923L240.13991741300924,429.30148815025495L239.9527029904857,418.06254342491866L238.50179121592555,415.7477849398538L240.42073904679637,413.62172782982725L238.50179121592555,414.14145354332777L234.38307392039678,407.99829409895574L236.9572722301018,398.96881882486014L233.587412624669,396.3678777570476L233.3065909908837,388.08968110829755L229.88992777982276,382.88431241920716L230.3579638361316,381.3697430814318L234.71069915981388,381.13308020429304L235.17873521612455,380.1863978279198L235.59996766680342,380.09172687357204L235.55316406117163,379.4763536284772L237.37850468078068,375.73632873881434L237.84654073709135,375.21550458861293L237.9869515539849,375.07345904147496L238.03375515961488,375.12080768086525L241.21640034252232,375.83102243124995L246.83283301824486,372.89528790356235L250.57712146872473,372.3743821002572L253.85337386289575,373.7949990212119L256.52117938386436,380.8490806774362L258.7209488485223,380.7544131807181L261.76318321453437,385.53450473615703L263.16729138346454,385.7237893872398L274.49376394616957,387.6165274135574L275.055407213742,387.6638433375347L275.055407213742,387.6638433375347L275.28942524189733,387.3326292817592L278.14444518538767,383.54689676640373L278.9869100867454,383.2156076158153L284.7437535793615,385.4398616707931L285.16498603003856,385.108607057713L286.24146895955164,384.3514309645252L287.0839338609112,383.7835281726466L288.3476312129478,381.8430595768459L288.7688636636267,381.18041302663914L288.81566726925666,381.0384141892109L287.97320236790074,378.24554450877713L292.93438456478543,371.995532109092L294.478903550611,372.3743821002572L296.7254766208989,366.3118310402506L304.49487515564397,369.5328140139436L307.30309149350614,370.76421491777L307.25628788787617,370.71685489267475L305.5245544795289,358.8729588059032L308.0051455779703,355.6974761503707L312.26427369039084,359.3468635873887L317.225455887281,358.35164919384624L317.36586670417273,363.23241429504105L317.4594739154345,363.2797939074626L318.25513521116045,363.99047320225145L320.3612974645566,365.790735815046L320.548511887082,365.6486163312493L322.1398344785357,364.3694907438721L324.71403278824073,362.28479598209105L330.61128709774675,363.75358320623764L331.4537519991063,361.95311784202295L339.69118659016203,361.00543249025486L342.1249740829753,364.70112457935556L340.5336514915216,366.5960584755576L342.2185812942371,369.3433602890391L342.59301013928416,369.9117155176564L345.35442287151636,371.6640318678392L345.4948336884063,371.7587468414713L345.214012054621,372.51644880457116L343.01424258996485,377.77213414549624L347.8350139699578,380.1863978279198L346.57131661791936,385.4398616707931L364.4970975745964,388.278939136123L366.41604540546723,391.16487986709035L361.6420776311061,402.6095121907347L360.4719874903294,402.79861923574936L355.2299836596576,403.64957664781105L355.2299836596576,407.52565766863063L353.03021419499964,408.5181800234568L352.1409456880101,414.9918818871165L349.61355098393506,415.2281049527064L346.94574546296826,418.44043532382875L347.8818175755896,421.41606095498173L345.82245892782703,423.11620098631556L346.1032805616105,426.3743609705425L339.64438298453024,425.4300265014872L337.67863154802944,427.9324062959686L330.93891233716386,424.62730387198917L329.4880005626019,425.6188972950349L331.21973397094916,428.40451505519377L330.7985015202721,431.4257228239803L329.25398253444837,430.9064882168759L329.0199645062912,426.9409382565609L325.3692832670731,425.7605491105178L326.63298061911155,430.34003367100377L321.62499481659506,428.07404020246577L303.74601746555163,439.0709287558093L294.4320999449792,438.45754224220855L288.02000597353253,441.6186224032981L287.1307374665412,442.137553660089L287.4583627059601,445.6753302859843L284.32252112868264,448.83516768728896L282.82480574848887,453.4560408664174L282.4035732978118,455.2946367516124L291.7642944240106,458.9712773179872L292.18552687468946,454.87036170783085L294.61931436750274,454.6817918800625L295.0873504238134,454.6346491210197L294.94693960692166,457.18018522586317L300.7037830995341,458.1700208254297L300.28255064885525,460.95070266403036L292.0919196634277,459.25406539908454L296.58506580400535,465.00314794696897L296.8190838321625,465.2858434237569Z" class="sc-kAyceB dIJauC Bhiwani mapstate" fill="rgb(18, 108, 189)" stroke-width="0.9px" data-darkreader-inline-fill="" style="--darkreader-inline-fill: #0e5697;"></path><path d="M445.84176416128685,403.36592859325265L443.6887983022607,400.76561560642585L440.693367541875,403.602302278704L438.2595800490635,403.12955184113616L429.88173464111424,414.8973918051297L426.46507143004965,410.31403556332134L423.9376767259746,412.48772944911525L420.09978106423114,412.15696664841016L419.02329813471806,416.1257247321837L417.6191899657879,416.1729666562551L415.70024213491706,414.80290123412215L416.6363142475384,411.3064062014719L418.9764945290881,410.4085493783805L419.0701017403517,407.1948048776594L413.2196510364756,405.63498941205944L413.07924021958206,402.6095121907347L409.47536258599393,398.49594809255814L409.2413445578386,397.9757760988268L409.14773734657683,398.1176426622469L408.632897684638,398.6378106020029L407.22878951570783,400.009091204226L407.41600393822955,400.3400744975679L409.3349517691022,404.2168595103494L406.47993182561004,406.81668005041047L403.0164650089155,406.29674560696094L401.5655532343535,412.9602373369653L400.76989193862573,414.0942063626371L399.08496213591025,416.3146916952155L391.6899924462123,413.47998188519523L390.6135095166992,415.8422706212541L382.610092953797,415.2281049527064L380.2699126722455,416.0784826859017L374.09183672895233,418.29872677775256L375.12151605283543,422.1244718488424L374.79389081341833,421.9827918662131L372.68772856002215,425.4772443826896L370.34754827847246,423.2106485749755L368.6158148701252,421.5105173270067L368.8966365039105,420.9910012405335L371.37722760235556,416.6453791756976L367.7733499687656,415.18086058408335L369.5518869827465,407.95103100720826L360.4719874903294,402.79861923574936L361.6420776311061,402.6095121907347L366.41604540546723,391.16487986709035L364.4970975745964,388.278939136123L346.57131661791936,385.4398616707931L347.8350139699578,380.1863978279198L343.01424258996485,377.77213414549624L345.214012054621,372.51644880457116L345.4948336884063,371.7587468414713L345.35442287151636,371.6640318678392L345.5884408996699,371.80610414258626L347.9286211812214,369.4380873992559L348.2094428150067,369.15390458195543L348.2094428150067,369.15390458195543L347.97542478685136,359.2520836251124L353.8258754907274,358.6833934140468L356.63409182858777,354.7494626951693L356.68089543421775,354.7494626951693L356.63409182858777,354.84426627986886L364.1226687295475,355.31827673916086L368.6158148701252,358.3990415981343L372.1728888980797,356.64543985468936L378.44457205263643,360.1998608852764L382.9845217988459,355.36567710091276L383.2653434326294,354.22803408354866L383.6397722776783,353.7539950078799L388.6009544745666,356.40845359200284L393.04729700951066,352.7584724393573L397.35322872756296,359.63120049237295L410.45823830424524,360.2472484439131L420.2401918811265,365.7433627777973L423.329229852774,368.63289116597844L421.6911036556867,374.88406324709376L424.2184983597617,376.6832434072612L426.8863038807285,375.97306204251436L429.2264841622782,378.95563688553466L428.7116445003394,380.7544131807181L431.3794500213062,382.9789688066403L435.9662033731438,381.9850521183689L436.9958826970269,387.237995585253L434.46848799295185,393.10435308969863L440.2721350911961,394.2868572028401Z" class="sc-kAyceB dIJauC Rohtak mapstate" fill="rgb(18, 108, 189)" stroke-width="0.9px" data-darkreader-inline-fill="" style="--darkreader-inline-fill: #0e5697;"></path><path d="M450.10089227370736,118.4546857954665L449.53924900613674,118.4066463881536L448.13514083720656,118.35860684772797L449.3520345836114,116.58105025697841L446.3098002175975,117.6860393038778L448.0415336259448,114.85136073629656L449.21162376671964,115.18770277612839L450.80294635817154,115.9564600673666L449.9604814568156,117.58995609605881L449.866874245552,117.6860393038778L449.866874245552,117.73408070807636ZM482.53579097599686,93.88916335721115L482.3485765534715,93.6486236968185L481.17848641269484,95.52474419273767L477.0597691171679,94.61076223368218L477.0129655115379,94.7069731389065L475.3280357088206,97.448758661988L470.13283548377876,95.62095000630507L470.0860318781488,95.90956423174066L469.52438861057635,98.17020884676822L471.6773544696007,100.7671801456354L465.78010016009466,104.0849647140285L465.7332965544665,106.96947751745392L462.5974549771872,109.46899972046958L459.0871845548627,108.26735140852634L456.93421869583653,110.91086760146027L454.07919875234256,110.14188634163293L451.55180404826933,112.20844604538252L451.83262568205646,114.37086078183984L449.49244540050495,112.4967836081596L450.0072850624474,111.63175651803613L450.24130309060274,111.24728616389166L448.6499804991472,108.02701173493642L453.14312663972305,104.99844580747686L453.28353745661843,101.19997076177879L446.6842290626446,96.4386777866257L449.11801655545787,97.49685627822055L450.84974996380515,95.62095000630507L449.72646342865846,93.6486236968185L451.4113932313776,89.9920081315413L449.866874245552,88.78900469492783L451.45819683700756,88.5483939412552L452.3474653439971,85.56454170894085L450.42851751312446,85.32388596621604L449.91367785118564,82.7245898598685L447.6671047808959,82.19505555600063L446.07578218944036,79.30640012062304L443.969619936046,79.88416995675834L444.76528123177377,73.04598397584232L441.0209927812921,76.89881715446609L440.0381170630408,75.11698900421288L437.9787584152782,75.79121593966647L437.3235079364422,73.04598397584232L437.22990072518223,72.75698671384907L437.18309711955044,72.80515326126533L436.9022754857633,71.6491189044782L440.3189386968279,66.73510584746055L440.4125459080915,64.66309115174863L440.3189386968279,64.0848099009836L437.88515120401644,62.494436090636555L438.8680269222659,59.79528290676899L438.8680269222659,59.74707988683804L441.76985047138805,52.659762849386425L439.9913134574108,50.44136130075185L440.17852787993615,45.66600124226534L435.17054207741603,44.02567148927119L435.3109528943096,42.38518460098203L430.6305923312102,37.84890249708678L429.46050219043354,33.0700279018165L429.46050219043354,33.11830604043462L436.48104303508626,28.772727272726115L439.3360629785766,35.33895305612441L439.85090264051723,35.77339374183248L443.6887983022607,38.669383017358996L450.9433571750669,33.74590943559633L451.0369643863287,36.835313405594206L453.9387879354508,38.42806930171719L456.23216461137235,42.72294475044873L454.9216636537003,48.60855217059725L458.85316652670554,47.20969753227655L464.0951703573792,50.58604841240958L465.4056713150494,49.814369704954515L466.52895785019064,55.26360725302948L463.86115232922566,57.09570532902853L466.52895785019064,57.91526483187317L467.3246191459184,61.04851392974615L467.4182263571802,60.90391501801332L467.93306601912263,62.494436090636555L468.26069125853974,63.55470165594488L471.0221039907683,62.78360591670844L471.4433364414472,60.90391501801332L474.3451599905693,62.83180041445394L478.60428810299163,62.73541128374745L482.11455852531617,65.91596710449267L489.3223137924924,72.41981710639357L488.71386691929,78.29525627037128L490.7732255670526,80.8952205443411L490.1179750882202,87.15278538281927Z" class="sc-kAyceB dIJauC Panchkula mapstate" fill="rgb(18, 108, 189)" stroke-width="0.9px" data-darkreader-inline-fill="" style="--darkreader-inline-fill: #0e5697;"></path><path d="M408.3052724452209,167.96073218073707L409.2413445578386,171.2178279418522L407.79043278327663,174.04334617804216L409.14773734657683,175.67140374112932L404.79500202289273,180.65040497856262L401.5655532343535,181.1290805183271L402.2676073188177,179.02281030557242L398.8509441077549,175.86292996993234L393.1409042207724,174.71374116198604L394.07697633339376,171.74465408634205L398.75733689649314,174.37854687996514L402.3144109244513,173.94757336967632ZM495.64080055267914,107.25790234968736L494.51751401753427,108.45962074448107L490.0711714825866,113.16955258835605L489.3691173981224,116.00450626574911L489.6967426375395,117.30170327709402L491.9433157078274,126.3313489281336L491.0072435952061,129.3081808870893L489.6499390319095,128.58802640093836L488.71386691929,129.9802981352641L488.4330452855029,130.3643534582343L488.2926344686093,130.55637793572623L488.52665249676465,130.4603659623026L490.3519931163737,133.7244754639314L490.96043998957794,136.46009506325663L492.8325842148188,138.18763309286078L489.27551018686063,139.05133777047195L488.90108134181173,141.35434064932997L485.2972037082254,142.69761826685408L485.0631856800719,143.3212476409526L484.7823640462848,144.0887608211233L484.0335063561888,145.815541796047L483.89309553929525,150.80305888844487L488.0586164404558,152.38533817601092L488.4330452855029,152.91273269701924L486.56090106026204,156.41231047437213L483.61227390550994,153.29628233027233L477.90223401852745,153.9674738910835L475.7960717651313,155.93295775573188L475.6556609482359,158.90473237006336L480.28921790570894,161.6843216300631L478.55748449736166,165.6612403736126L474.6727852299864,164.9904982690623L474.48557080746286,164.9904982690623L474.2983563849393,167.14636342890662L473.6431059061051,171.5051896239147L462.2698297377701,164.1280777284901L457.82348720282425,166.85893010514974L454.640842019915,163.50519197262474L454.640842019915,163.1697827508351L457.6830763859325,159.62363408687543L452.20705452710354,157.4668401035924L448.88399852730254,160.2466582957777L445.84176416128685,158.61716339317627L446.87144348516813,156.268506041587L442.14427931643513,152.7209547167913L443.40797666847357,150.7071585582662L440.83377835876854,148.69312972535135L439.6168846123637,150.32355196134358L436.7150610632398,149.31654447365327L436.621453851978,149.2685902847852L436.621453851978,149.31654447365327L436.5746502463462,149.36449853056638L435.6853817393585,155.2618418225893L430.72419954247016,155.78914937195077L427.44794714830095,159.86326141376412L415.79384934618065,160.72589255933872L415.1854024729764,160.77381526226418L414.6705628110358,161.87600113215922L409.5689697972575,166.85893010514974L408.9605229240533,167.24217348650382L407.50961114949314,164.2718174414822L402.36121453008127,161.1571921509094L404.5609839947392,157.658565917146L407.9776472058038,159.0485150819486L409.2413445578386,160.67796972488577L406.80755706502714,162.2593538252122L408.72650489589614,163.840594754658L410.9262743605541,161.20511367017025L410.55184551550883,158.23373072065533L404.79500202289273,156.84371666173865L406.5735390368718,154.15923816417398L401.799571262507,151.80998050470134L402.9696614032837,149.70017323440788L402.73564337512835,149.5083599096024L402.45482174134486,149.220635963964L401.799571262507,148.54926161613457L401.2379279949364,148.98086238046017L400.1614450654233,149.84403184264465L395.10665565727504,153.91953249336348L394.77903041785794,153.91953249336348L396.557567431837,151.09075671348728L396.2299421924199,147.20643530996222L399.9274270372698,145.95943248252024L401.33153520619817,147.49419251694508L404.6077876003692,145.5757213435436L405.9650921636694,146.96663400659781L407.83723638891024,142.55370062322618L414.9513844448211,138.71545771365527L415.9810637687042,135.83621970972945L419.39772697976696,136.1241649619742L425.2013740780112,131.42046182014383L424.6865344160724,128.63603762905495L420.75503154306716,129.45220820113536L422.48676495141444,126.52341800486192L420.6146207261736,126.47540093489351L420.3337990923883,125.99522293041628L419.9125666417094,122.82571488439044L419.9125666417094,122.58557704692703L420.75503154306716,122.24937849028265L423.6100514865575,121.04861616766993L423.79726590908103,120.95255159086628L423.6568550921911,120.66435466798339L424.0312839372382,118.26252736752758L425.10776686675126,117.73408070807636L429.55410940169713,115.62013294885128L431.14543199315085,116.9654022630748L429.55410940169713,118.55076421076319L431.47305723256613,120.28008465449966L436.621453851978,120.9045191029436L440.2253314855643,116.14864406167999L441.6294396544963,119.79973516370592L445.79496055565687,121.38483799665119L445.42053171060616,124.02635422114963L448.0415336259448,126.0912595938753L446.87144348516813,128.34796826933052L449.21162376671964,129.69225107060993L449.30523097798323,129.64424276209957L454.17280596360615,124.12240177936928L450.10089227370736,122.96979599149381L450.47532111875626,119.7036636688772L450.10089227370736,118.4546857954665L449.866874245552,117.73408070807636L449.866874245552,117.6860393038778L449.9604814568156,117.58995609605881L450.80294635817154,115.9564600673666L449.21162376671964,115.18770277612839L448.0415336259448,114.85136073629656L448.9308021329325,113.3617674976058L449.445641794875,112.4967836081596L449.49244540050495,112.4967836081596L451.83262568205646,114.37086078183984L451.55180404826933,112.20844604538252L454.07919875234256,110.14188634163293L456.93421869583653,110.91086760146027L459.0871845548627,108.26735140852634L462.5974549771872,109.46899972046958L465.7332965544665,106.96947751745392L465.78010016009466,104.0849647140285L471.6773544696007,100.7671801456354L469.52438861057635,98.17020884676822L470.0860318781488,95.90956423174066L470.13283548377876,95.62095000630507L475.3280357088206,97.448758661988L477.0129655115379,94.7069731389065L477.0597691171679,94.61076223368218L481.17848641269484,95.52474419273767L482.3485765534715,93.6486236968185L482.53579097599686,93.88916335721115L482.4889873703669,93.88916335721115L482.7230053985204,94.2740198439833L484.4079352012377,97.06397291142912L485.25040010259363,97.40066091184326L493.25381666549583,100.62291419899157L495.4067825245238,104.13304386907748Z" class="sc-kAyceB dIJauC Ambala mapstate" fill="rgb(18, 108, 189)" stroke-width="0.9px" data-darkreader-inline-fill="" style="--darkreader-inline-fill: #0e5697;"></path></svg>