<svg xmlns="http://www.w3.org/2000/svg"  xmlns:xlink="http://www.w3.org/1999/xlink"  id="map" width="633" height="633"><defs><filter id="sofGlow" height="300%" width="300%" x="-75%" y="-75%"><feMorphology operator="dilate" radius="4" in="SourceAlpha" result="thicken"></feMorphology><feGaussianBlur in="thicken" stdDeviation="10" result="blurred"></feGaussianBlur><feFlood flood-color="rgb(0,186,255)" result="glowColor"></feFlood><feComposite in="glowColor" in2="blurred" operator="in" result="softGlow_colored"></feComposite><feMerge><feMergeNode in="softGlow_colored"></feMergeNode><feMergeNode in="SourceGraphic"></feMergeNode></feMerge></filter></defs><path d="M549.3322437024308,266.4380826454526L549.5245875633991,267.02331807510564L549.1398998414625,267.0883430800468L546.5112004082239,267.3484407921551L546.3829711675808,267.3484407921551L544.5877617985407,270.0142295134856L541.6384892636888,268.7138932134703L539.2021336914204,272.2895961029799L535.6758295736618,268.5838545091001L521.3141546213446,272.61462542211484L511.312273850981,270.14425806977124L508.42711593645254,286.58544210185664L512.9151393590528,290.5473203761994L512.2739931558226,294.5732726706947L506.3113334657992,295.2225372804505L502.9773732090107,291.4564834344492L496.8864842783405,290.2226083866717L492.91137781832185,295.8717789740622L469.1889682988676,295.6770088719559L465.79089342175575,298.9878202274558L467.07318582821426,307.61909674094295L467.07318582821426,307.6839782394154L466.9449565875675,307.8137405510133L465.6626641811108,308.9815602389035L464.76505949659077,309.30594146397925L463.29042322916393,309.88981328276077L462.52104778529247,310.14930593223653L456.3019296139755,308.5274169318045L450.2110406833053,310.7331510376598L449.0569775174936,312.93862125334545L451.42921846943864,315.07897247306664L451.42921846943864,315.14382772372574L451.2368746084703,315.7923676894079L448.86463365652526,324.48060503760644L448.7364044158803,324.80471388776095L444.6330687152167,325.45291452753827L440.01681605197155,330.05448527203134L439.69624295035646,330.3784963698117L434.5670733245279,325.90664144229777L426.8733188857841,324.5454272626157L426.6809750248176,324.48060503760644L424.62930717448944,331.48009162535163L424.4369633135175,331.9984666814016L423.3470147680291,331.93367059418597L420.39774223317727,331.86887427989495L419.50013754865904,331.8040777385286L419.1795644470458,331.54488930217576L417.96138666090883,331.15609983463946L411.87049773024046,325.84182399390465L412.83221703508207,325.64737028416494L409.1776836766803,321.69303409999156L409.4982567782954,315.5978080937766L407.57481816861036,311.31697765251556L412.7681024147605,304.89386746391574L401.868616959875,302.03843282800153L395.45715492759155,293.5344016202798L400.77866841438845,284.7665889270893L396.41887423243134,280.86843974478506L399.49637600793176,278.39918375654815L394.94423796500814,273.5896788135342L393.277257836613,267.0883430800468L391.61027770821784,264.227024502894L391.41793384725133,263.96688246750637L382.1213139004376,261.82056966028995L376.0304249697674,253.4930953951225L362.3740108410002,245.16182744955404L361.41229153615495,241.19012053512415L358.0783312793701,238.12936349462052L355.5137464664567,243.01330636911553L344.9348341131845,237.21754940118353L344.1654586693112,243.27374662875718L336.7281627118591,244.12015182292544L333.84300479733247,239.95285502252955L329.9961275779606,239.62724489650282L325.3798749147154,236.11028531313514L323.841124026967,232.65779522772118L324.3540409895486,229.92139538811898L323.5846655456753,225.62050832275145L321.66122693599027,220.66671355018934L319.22487136372,217.47210475484735L306.46606191947467,206.84110181794858L303.8373624862379,207.8849110453084L299.22110982299273,204.7533034546068L298.38761975879424,202.20847472023343L291.07855304199074,198.94535197649475L291.01443842166736,198.94535197649475L279.9867237261369,202.66526511000302L279.15323366194207,202.99153692543496L277.80682663515836,202.20847472023343L277.7427120148386,202.20847472023343L278.38385821806514,198.3579275853599L278.4479728383885,198.16211523002858L276.2680757474118,198.16211523002858L274.60109561901845,195.094112447131L261.90640079509467,201.0990787894043L256.32842882700425,201.22959947590243L256.26431420668087,196.4649863098839L249.72462293375065,198.3579275853599L251.07102996053254,194.8329818713928L248.05764280535732,192.1561767029425L250.17342527601068,188.89124530843674L250.04519603536573,188.89124530843674L242.47967083727053,189.08715777433645L242.47967083727053,189.08715777433645L241.4538369121019,183.60080798524086L244.7877971688922,179.2235993034692L242.67201469823885,174.97604183598378L238.44044975693032,176.87122911071674L236.0040941846637,174.061052785617L231.19549766044838,175.43351900831294L230.3620075962499,172.36166460694585L225.74575493300472,172.68848242626882L223.05294087944458,170.40063365022706L216.83382270812945,174.061052785617L214.26923789521607,172.68848242626882L212.98694548875756,168.70090142821755L210.03767295390753,168.9624090952484L206.0625664938907,165.10478726220754L202.2798038948422,166.80485768598464L203.24152319968744,160.59228607792284L198.17646819418042,160.72309908142415L196.4453734454637,154.24671724679683L189.072192108335,150.18961725980807L185.61000261090157,150.2550615985583L184.19948096379812,147.83346284051095L174.7105171560179,151.10581638896474L170.863639936646,149.92783752945525L170.73541069600105,149.86239200301407L171.31244227890602,146.65527013595693L167.72202354082583,143.84038684292955L168.68374284566744,139.7154610725147L163.81103170113056,135.78608161061857L163.74691708081082,135.72058468489195L161.63113461015564,124.5826393818752L159.51535213950228,121.76430050852014L159.83592524111555,117.2409253850692L170.6071814553543,109.96179875342932L175.92869494214938,117.04423104898524L175.22343411859947,119.99441984849909L178.87796747700122,120.84660638214064L193.36787166996692,116.38856769586073L199.07407287870046,110.81446178625356L210.74293377745926,111.86383756996747L216.12856188457954,104.2544714566211L217.09028118942115,97.42953317254523L219.9754391039478,95.00080268383499L224.5275771468696,95.98546286793953L228.88737132882306,90.47066788838401L226.25867189558812,82.6551297723754L227.98976664430484,77.33335398118015L225.42518183139146,77.00479733433531L221.45007537137462,61.161189280271174L221.12950226976136,59.6484075092676L221.96299233395803,56.88560491219596L222.86059701847807,48.2655369158565L222.41179467621623,44.381851724417174L222.41179467621623,44.18435354271605L222.34768005589285,43.46017477142777L223.62997246235136,41.55083476254367L227.02804733946323,34.04316412879052L226.70747423784633,31.671661214470078L226.51513037687982,29.82693986410777L226.51513037687982,29.82693986410777L230.04143449463663,28.772727272727934L230.3620075962499,29.03628629265495L234.72180177820337,32.92332723149866L236.51701114724347,30.28813817889204L238.56867899757526,30.815207290934268L238.63279361789864,30.815207290934268L235.61940646272706,37.13881629432126L237.09404273015025,39.24618567379184L234.27299943594335,41.48499179341434L234.14477019530023,48.46298977846618L238.82513747886696,52.938000335659126L240.68446146823044,57.67502081436123L245.74951647373382,56.16194292623641L249.8528521743974,61.75311240311203L249.21170597116907,64.84394711525783L253.89207325473762,75.0333304748765L260.43176452766784,80.74998483347372L263.95806864542465,80.42149103395968L266.97145580059987,83.04927233044054L273.57526169385164,81.01277552408555L279.858494485492,86.39913317637638L284.0900594268005,85.80802687821324L284.98766411132056,83.90321805202166L290.6938653200541,85.21690103386481L290.56563607940734,89.68270125122581L292.55318930941576,90.33934252606014L293.06610627199916,93.55653641743902L291.9120431061856,98.67659107426334L294.1560548174857,98.87348701459996L297.2335565929825,95.19773905406873L299.0287659620244,99.20164210440635L306.5942911601178,102.54848064158523L305.50434261463306,104.91057852623362L308.45361514948127,108.38754509973205L311.78757540627157,106.35392953991322L312.10814850788483,106.68194765301814L316.40382806951675,111.20798489940626L320.0583614279167,111.07681148765005L322.0459146579269,116.06072703793325L322.75117548147864,117.83099546292488L322.75117548147864,117.83099546292488L324.22581174890365,117.50318114743095L328.5856059308553,116.51970228243408L328.5856059308553,116.4541351088983L328.84206441215065,110.22416092725962L334.09946327862235,104.45130609967055L340.7673837921993,105.17301462870364L342.0496761986542,108.2563510565169L344.8707194928611,109.43706289094189L350.3845768406263,103.92640891368683L352.3080154503132,105.6322685616633L356.7960388729116,103.72956850505398L366.4132319213386,95.52596152270416L367.50318046682696,92.37477731226045L379.6208437078476,88.69769413486938L381.15959459559235,83.11496191160404L386.35287884174613,84.36301807884229L387.4428273872327,87.12156988962397L391.03324612531287,87.05589503102601L402.9585655053652,99.66104912837727L399.3040321469616,102.94218524660664L397.89351049985817,107.9939600902062L405.52315031827857,113.96240500574368L407.7671620295787,112.78199102736107L412.83221703508207,115.79845020010453L416.03794805122743,121.50210697103557L415.39680184799545,123.73063006792472L418.73076210478575,126.94183899280142L422.44941008350906,126.94183899280142L423.9240463509359,136.24455341654811L421.23123229737575,143.31663910308635L425.9115995809443,149.20792367283957L430.07904990192947,150.51683657836566L430.0149352816079,152.21828132912015L437.7728043406696,157.64874289621184L443.03020320714677,152.54546384133118L445.4665587794134,156.34034739188974L449.89046758169025,156.7328760029377L451.87802081169866,155.48983944302017L450.7880722662085,152.02196897290105L453.8655740417071,149.01157854102894L460.084692213024,150.71316531934735L459.3153167691471,145.14968958475765L472.33058469468597,148.55343158402138L476.8186081172862,147.11346533932374L478.03678590342133,143.25116956496186L488.10278129410835,139.58449557392578L486.6922596470049,134.541599255831L495.6041918718838,129.82488475580612L500.9257053586807,129.95592130685327L502.01565390416727,138.27478819011048L499.51518371157727,147.83346284051095L500.86159073835734,154.70471959976112L503.87497789353074,157.7141601816911L494.1295556044588,165.431736304693L488.16689591443173,166.93562570943868L488.61569825669176,176.67518445928L485.08939413893495,180.92234323646153L490.47502224605523,187.38917938148188L502.7209147277208,176.6098357701676L504.77258257804897,176.80588112955047L506.63190656741244,179.6809691196795L513.363941701311,183.01288624174322L512.2098785355029,191.37264678582687L516.9543604393912,193.59256030003326L519.006028289723,197.50939212036246L525.8662926642683,199.01062017977438L521.2500400010213,208.08061860097405L516.5696727174545,212.32043164306833L516.8902458190696,226.07671113835386L512.2739931558226,233.56983725754708L529.3284821617017,232.9183833192801L538.4327582475471,239.17138096149665L538.4968728678705,246.46383845517084L535.2911418517251,251.41063437224147L539.4585921727121,258.95842779455415L547.729378194359,261.62543783840283Z" class="sc-kAyceB dIJauC Lahaul and Spiti mapstate" fill="rgb(18, 108, 189)" stroke-width="0.9px" data-darkreader-inline-fill="" style="--darkreader-inline-fill: #0e5697;"></path><path d="M222.41179467621623,44.381851724417174L222.86059701847807,48.2655369158565L221.96299233395803,56.88560491219596L221.12950226976136,59.6484075092676L221.45007537137462,61.161189280271174L225.42518183139146,77.00479733433531L227.98976664430484,77.33335398118015L226.25867189558812,82.6551297723754L228.88737132882306,90.47066788838401L224.5275771468696,95.98546286793953L219.9754391039478,95.00080268383499L217.09028118942115,97.42953317254523L216.12856188457954,104.2544714566211L210.74293377745926,111.86383756996747L199.07407287870046,110.81446178625356L193.36787166996692,116.38856769586073L178.87796747700122,120.84660638214064L175.22343411859947,119.99441984849909L175.92869494214938,117.04423104898524L170.6071814553543,109.96179875342932L159.83592524111555,117.2409253850692L159.51535213950228,121.76430050852014L161.63113461015564,124.5826393818752L163.74691708081082,135.72058468489195L163.81103170113056,135.78608161061857L168.68374284566744,139.7154610725147L167.72202354082583,143.84038684292955L171.31244227890602,146.65527013595693L170.73541069600105,149.86239200301407L170.863639936646,149.92783752945525L174.7105171560179,151.10581638896474L184.19948096379812,147.83346284051095L185.61000261090157,150.2550615985583L189.072192108335,150.18961725980807L196.4453734454637,154.24671724679683L198.17646819418042,160.72309908142415L203.24152319968744,160.59228607792284L202.2798038948422,166.80485768598464L206.0625664938907,165.10478726220754L210.03767295390753,168.9624090952484L212.98694548875756,168.70090142821755L214.26923789521607,172.68848242626882L216.83382270812945,174.061052785617L223.05294087944458,170.40063365022706L225.74575493300472,172.68848242626882L230.3620075962499,172.36166460694585L231.19549766044838,175.43351900831294L236.0040941846637,174.061052785617L238.44044975693032,176.87122911071674L242.67201469823885,174.97604183598378L244.7877971688922,179.2235993034692L241.4538369121019,183.60080798524086L242.47967083727053,189.08715777433645L242.47967083727053,189.08715777433645L242.5437854575921,189.28306812285882L234.6576871578818,196.0080398643604L228.43856898656668,201.4253787464495L228.43856898656668,201.55589708739808L228.95148594914644,207.49348961114447L227.5409643020448,209.3200508507225L227.3486204410783,209.6462031856272L223.05294087944458,210.29849030038167L228.75914208818176,219.1672731239878L226.0663280346198,220.5363323290121L227.73330816301313,229.53044759372824L225.55341107203822,232.00630870610712L227.0921619597848,232.8532366454956L225.1046087297782,240.34357950704816L225.1046087297782,240.34357950704816L220.2960122055647,244.83631019767745L215.7438741626429,242.10173620793557L208.6271513068059,246.91952038619274L208.56303668648252,246.9846168771801L199.39464598031373,242.75286239508205L195.03485179836025,237.47807236280642L180.28848912410467,235.58919660637002L177.72390431118947,232.00630870610712L174.06937095278954,232.59264762298062L170.92775455696938,229.2698110723295L168.1067112627643,229.856238004666L168.1067112627643,229.856238004666L162.721083155644,224.25183132432085L156.50196498432706,217.66770916381392L155.73258954045195,216.8852789119701L145.4742502887966,214.47257379843722L143.35846781814325,207.75443817066116L139.96039294102957,207.1672986422609L137.71638122972945,203.05679058513124L133.1001285664861,202.92628303128004L129.12502210647108,208.341558730237L123.86762323999574,211.08120394568323L125.21403026677581,213.9508657514525L122.90590393515595,222.03566000331466L127.77861507969101,229.6607644568512L126.56043729355406,235.06809301468638L126.17574957161924,237.02215473890283L126.0475203309743,237.54320252203888L125.47048874806751,237.47807236280642L125.14991564645243,237.4129419711153L124.31642558225576,237.34781134694822L124.31642558225576,234.67725555153902L119.8925167799789,237.34781134694822L116.36621266222392,235.9148787923068L116.49444190286886,230.83357430330398L111.10881379574857,227.9014081824389L100.78635992377167,228.29239092105945L100.72224530344829,228.2272277138045L98.22177511085465,223.8607618632177L99.24760903602146,215.12468781587268L90.52802067211451,203.31780287940637L84.11655863982924,203.57881142263977L83.9883293991843,203.18729720116335L83.92421477886091,203.05679058513124L78.73093053270895,191.30735109779926L68.92139362331363,180.98767635867262L67.63910121685694,179.6156312819685L67.57498659653356,179.55029320844733L67.12618425427354,179.0929200906421L68.08790355911879,178.11279592212486L74.37113635075548,171.57727774354498L73.21707318494555,168.9624090952484L75.20462641495396,167.52407010607112L75.20462641495396,164.3854785420699L78.79504515303415,163.07757112463514L81.61608844723742,154.96643001010307L83.53952705692427,155.29356268492575L84.69359022273602,151.95653104598568L81.55197382691586,152.6108996315843L80.01322293916746,149.66605399839136L76.74337730270236,150.8440499591734L76.61514806205741,150.90949192284825L82.57780775208084,131.85584401106462L76.8716065433473,124.71371415223257L75.71754337753737,118.81440249765092L65.45920412587839,110.35534057492987L61.676441526833514,103.99202190274264L61.676441526833514,103.92640891368683L61.804670767478456,103.86079568439254L69.94722754847862,95.00080268383499L82.6419223724024,99.79230611358253L87.57874813726448,106.41953364272376L100.85047454409505,97.69207889603604L102.90214239442503,93.622187412745L110.40355297219685,89.68270125122581L114.37865943221368,83.24634034952669L114.50688867286044,79.50167625707581L124.82934254483916,78.12186526971891L126.49632267323614,76.61052137765182L133.0360139461627,76.54480787173725L137.45992274843957,76.41338013432505L142.7173216149149,73.12737219209521L145.7307087700883,68.52594430907084L144.9613333262132,59.91150921850476L165.09332410758725,42.999318374735594L178.10859203312793,44.447683964108364L192.14969388382997,38.32424233094753L197.79178047224377,38.98277817203325L200.4845945258021,45.500966650168266L205.16496180937065,47.93644394074454L216.89793732845283,44.05268686936506L222.2835654355713,44.51351596004042L222.34768005589285,44.381851724417174Z" class="sc-kAyceB dIJauC Chamba mapstate" fill="rgb(18, 108, 189)" stroke-width="0.9px" data-darkreader-inline-fill="" style="--darkreader-inline-fill: #0e5697;"></path><path d="M242.47967083727053,189.08715777433645L250.04519603536573,188.89124530843674L250.17342527601068,188.89124530843674L248.05764280535732,192.1561767029425L251.07102996053254,194.8329818713928L249.72462293375065,198.3579275853599L256.26431420668087,196.4649863098839L256.32842882700425,201.22959947590243L261.90640079509467,201.0990787894043L274.60109561901845,195.094112447131L276.2680757474118,198.16211523002858L278.4479728383885,198.16211523002858L278.38385821806514,198.3579275853599L277.7427120148386,202.20847472023343L277.80682663515836,202.20847472023343L275.37047106289174,205.79723262619882L272.2929692873968,213.49435893460304L277.10156581160845,215.05947746609763L274.02406403611167,220.4059501740512L270.8824476402933,225.75085315005344L269.98484295577146,228.9440101793889L270.04895757609484,230.2471788119019L273.51114707352826,238.5201270167936L264.8556733299429,243.33885611332062L261.64994231379933,255.64038499128128L262.67577623896614,260.0643083844543L255.43082414248602,259.4137984825502L255.43082414248602,259.6089538806391L254.27676097667427,269.6891540871766L241.06914919016526,272.0295684992261L238.44044975693032,274.3696842018553L231.6443000027084,269.49410606399306L231.58018538238503,268.0636904640114L229.20794443043997,268.3887947224139L226.38690113623306,269.42908959500437L219.59075138201115,276.77449203000197L215.23095720005767,274.8246720262332L215.1668425797343,273.45967469010884L214.1410086545693,272.6796305945645L211.51230922133436,272.6796305945645L209.14006826938567,274.10968609169686L208.6271513068059,274.88966936552606L207.98600510357574,279.50389197370896L212.1534554245627,287.6896579672775L213.6280916919859,295.4173121945578L209.71709985229427,301.12979257691495L210.93527763842576,308.00838230508725L206.76782731744242,308.5274169318045L205.48553491098573,307.8137405510133L203.88266940291396,307.8137405510133L203.94678402323734,307.4893330586201L196.63771730643202,303.72578862563114L191.1238599586668,304.63430079060254L190.03391141317843,304.89386746391574L183.68656400121654,313.6520992599344L174.7105171560179,316.3760341651623L176.12103880311952,320.33150927978386L173.04353702762273,318.64567273434295L174.19760019343266,321.2392036500996L170.863639936646,322.21168381199004L170.28660835374103,319.8776453568353L169.3248890488976,323.2489395334951L169.3248890488976,323.37859240214857L165.5421264498491,323.37859240214857L165.4780118295257,324.93435583544033L165.5421264498491,325.58255192605975L165.4780118295257,325.51773334051813L162.721083155644,323.2489395334951L158.36128897369053,327.6566265973097L155.6684749201322,323.767545546767L150.603419914627,326.55480341893144L146.3077403529951,326.16590896175785L146.37185497331484,326.2955413570553L147.46180351880503,329.53605570190393L149.5775859894602,335.8858165040883L148.93643978623004,337.0518621646188L148.55175206429158,337.6996335579188L147.33357427816009,339.83711829693675L144.64076022459994,344.56461699136435L144.44841636363344,344.95312486086914L144.32018712298668,344.7588719446903L130.279085272281,328.62876896244416L130.279085272281,328.62876896244416L126.2398641919408,329.406446037332L126.68866653420082,326.36035721360895L120.46954836288569,322.1468533947227L114.1222009509238,323.1192857545675L113.80162784931053,317.6730046740031L110.66001145349037,318.3214557439105L109.50594828767862,314.0412574476477L107.00547809508862,314.23583346222495L106.94136347476342,314.23583346222495L102.64568391313514,309.824939549585L98.47823359214635,308.9815602389035L97.83708738891801,308.91668330876655L94.43901251180978,311.8359191227173L94.05432478987314,312.16025012445243L88.60458206242947,310.79802157459926L80.20556680013578,292.17079429763453L73.08884394429879,287.6247059297457L63.34342165522503,284.5717011189199L61.612326906510134,283.46729780899295L61.22763918457167,283.2723962127984L58.021908168429945,281.1933171212204L53.085082403569686,274.6296786263838L48.46882974032269,275.53963009134986L37.954032007377464,267.0883430800468L36.864083461889095,266.6981895887466L36.09470801801581,266.76321574759095L27.63157813539874,267.9986689202069L26.605744210231933,268.1287117771035L27.118661172817156,265.7227695092024L27.63157813539874,263.511625013969L28.59329744023853,263.2514728163278L30.0038190873438,262.86123759014845L31.799028456383894,258.50304577607676L37.8899173870559,254.7294444347026L39.87747061706068,250.36931490819552L38.33871972931411,249.65337336611265L38.91575131222089,246.59403445230873L37.50522966511926,246.59403445230873L36.992312702534036,242.6226390150896L31.606684595415572,243.98993819235875L31.991372317352216,238.97600721814615L34.10715478800557,237.6734621430969L33.72246706606893,235.7846066156335L30.516736049925385,234.74239571028193L30.516736049925385,234.74239571028193L34.04304016768219,231.61540561977927L56.483157280679734,224.25183132432085L61.09940994392491,217.01568629032317L64.04868247877857,215.90719378119593L63.34342165522503,212.25521123817543L68.98550824363701,210.7550773553503L69.4984252062186,207.1672986422609L73.98644862881702,202.79577453957882L74.0505632491404,202.7305199420307L83.92421477886091,203.05679058513124L83.9883293991843,203.18729720116335L84.11655863982924,203.57881142263977L90.52802067211451,203.31780287940637L99.24760903602146,215.12468781587268L98.22177511085465,223.8607618632177L100.72224530344829,228.2272277138045L100.78635992377167,228.29239092105945L111.10881379574857,227.9014081824389L116.49444190286886,230.83357430330398L116.36621266222392,235.9148787923068L119.8925167799789,237.34781134694822L124.31642558225576,234.67725555153902L124.31642558225576,237.34781134694822L125.14991564645243,237.4129419711153L125.47048874806751,237.47807236280642L126.0475203309743,237.54320252203888L126.17574957161924,237.02215473890283L126.56043729355406,235.06809301468638L127.77861507969101,229.6607644568512L122.90590393515595,222.03566000331466L125.21403026677581,213.9508657514525L123.86762323999574,211.08120394568323L129.12502210647108,208.341558730237L133.1001285664861,202.92628303128004L137.71638122972945,203.05679058513124L139.96039294102957,207.1672986422609L143.35846781814325,207.75443817066116L145.4742502887966,214.47257379843722L155.73258954045195,216.8852789119701L156.50196498432706,217.66770916381392L162.721083155644,224.25183132432085L168.1067112627643,229.856238004666L168.1067112627643,229.856238004666L170.92775455696938,229.2698110723295L174.06937095278954,232.59264762298062L177.72390431118947,232.00630870610712L180.28848912410467,235.58919660637002L195.03485179836025,237.47807236280642L199.39464598031373,242.75286239508205L208.56303668648252,246.9846168771801L208.6271513068059,246.91952038619274L215.7438741626429,242.10173620793557L220.2960122055647,244.83631019767745L225.1046087297782,240.34357950704816L225.1046087297782,240.34357950704816L227.0921619597848,232.8532366454956L225.55341107203822,232.00630870610712L227.73330816301313,229.53044759372824L226.0663280346198,220.5363323290121L228.75914208818176,219.1672731239878L223.05294087944458,210.29849030038167L227.3486204410783,209.6462031856272L227.5409643020448,209.3200508507225L228.95148594914644,207.49348961114447L228.43856898656668,201.55589708739808L228.43856898656668,201.4253787464495L234.6576871578818,196.0080398643604L242.5437854575921,189.28306812285882Z" class="sc-kAyceB dIJauC Kangra mapstate" fill="rgb(18, 108, 189)" stroke-width="0.9px" data-darkreader-inline-fill="" style="--darkreader-inline-fill: #0e5697;"></path><path d="M277.80682663515836,202.20847472023343L279.15323366194207,202.99153692543496L279.9867237261369,202.66526511000302L291.01443842166736,198.94535197649475L291.07855304199074,198.94535197649475L298.38761975879424,202.20847472023343L299.22110982299273,204.7533034546068L303.8373624862379,207.8849110453084L306.46606191947467,206.84110181794858L319.22487136372,217.47210475484735L321.66122693599027,220.66671355018934L323.5846655456753,225.62050832275145L324.3540409895486,229.92139538811898L323.841124026967,232.65779522772118L325.3798749147154,236.11028531313514L329.9961275779606,239.62724489650282L333.84300479733247,239.95285502252955L336.7281627118591,244.12015182292544L344.1654586693112,243.27374662875718L344.9348341131845,237.21754940118353L355.5137464664567,243.01330636911553L358.0783312793701,238.12936349462052L361.41229153615495,241.19012053512415L362.3740108410002,245.16182744955404L376.0304249697674,253.4930953951225L382.1213139004376,261.82056966028995L391.41793384725133,263.96688246750637L391.61027770821784,264.227024502894L393.277257836613,267.0883430800468L394.94423796500814,273.5896788135342L399.49637600793176,278.39918375654815L396.41887423243134,280.86843974478506L400.77866841438845,284.7665889270893L395.45715492759155,293.5344016202798L401.868616959875,302.03843282800153L412.7681024147605,304.89386746391574L407.57481816861036,311.31697765251556L409.4982567782954,315.5978080937766L409.1776836766803,321.69303409999156L412.83221703508207,325.64737028416494L411.87049773024046,325.84182399390465L411.4216953879786,325.45291452753827L411.35758076765705,325.97145866328447L410.33174684249025,330.8969023139325L410.2676322221705,331.22089864700774L402.3815339224566,329.92487924266607L398.72700056405665,331.67448397453427L395.0083525853315,329.79527230454096L392.5719970130631,332.45203293408576L392.2514239114498,339.3837330708584L391.35381922692795,339.57804238474637L380.3902191517209,341.5210233514945L374.94047642427904,349.6145839597675L377.7615197184841,355.37504577160234L374.87636180395566,359.06339079052213L375.38927876653725,365.4677224686038L383.9165232694777,373.6154985644325L385.3270449165793,381.6950843966724L378.91558288429405,389.4481899408529L371.86297464878044,391.70890496127686L370.7089114829705,396.6169427574023L372.8246939536257,401.71735094215273L372.0553185097506,403.9120345554784L366.477346541662,402.10466679071305L359.2965090655016,403.8474887180373L353.07739089418646,412.23657881678355L348.1405651293262,410.8171512634144L338.13868435896256,413.78492238738545L332.88128549248904,409.59119529654436L330.2525860592523,409.84929796994857L330.2525860592523,409.7847726356449L330.76550302183387,400.29712409549757L330.7013884015123,399.5224093706174L321.14830997340687,390.80465184685727L318.90429826210675,375.49027503332036L316.01914034757647,371.6758757495072L316.66028655080845,348.51406741383107L308.9024174917413,340.16095808806404L301.5292361546162,337.0518621646188L297.16944197266093,318.38629959767877L294.66897178007093,317.4784649094554L295.4383472239424,313.84667938024904L281.8460477155004,314.43040742409084L279.15323366194207,316.7651348907157L278.38385821806514,314.75469279920344L275.0498979612785,314.6249793333327L275.2422418222468,310.2790508870812L260.9446814902494,285.9358723553805L260.5599937683128,278.9840375664944L254.85379255957923,273.6546805296575L254.85379255957923,273.5896788135342L254.78967793925585,273.5896788135342L254.78967793925585,273.39467228278863L254.27676097667427,269.6891540871766L255.43082414248602,259.6089538806391L255.43082414248602,259.4137984825502L262.67577623896614,260.0643083844543L261.64994231379933,255.64038499128128L264.8556733299429,243.33885611332062L273.51114707352826,238.5201270167936L270.04895757609484,230.2471788119019L269.98484295577146,228.9440101793889L270.8824476402933,225.75085315005344L274.02406403611167,220.4059501740512L277.10156581160845,215.05947746609763L272.2929692873968,213.49435893460304L275.37047106289174,205.79723262619882Z" class="sc-kAyceB dIJauC Kullu mapstate" fill="rgb(18, 108, 189)" stroke-width="0.9px" data-darkreader-inline-fill="" style="--darkreader-inline-fill: #0e5697;"></path><path d="M203.88266940291396,307.8137405510133L205.48553491098573,307.8137405510133L206.76782731744242,308.5274169318045L210.93527763842576,308.00838230508725L209.71709985229427,301.12979257691495L213.6280916919859,295.4173121945578L212.1534554245627,287.6896579672775L207.98600510357574,279.50389197370896L208.6271513068059,274.88966936552606L209.14006826938567,274.10968609169686L211.51230922133436,272.6796305945645L214.1410086545693,272.6796305945645L215.1668425797343,273.45967469010884L215.23095720005767,274.8246720262332L219.59075138201115,276.77449203000197L226.38690113623306,269.42908959500437L229.20794443043997,268.3887947224139L231.58018538238503,268.0636904640114L231.6443000027084,269.49410606399306L238.44044975693032,274.3696842018553L241.06914919016526,272.0295684992261L254.27676097667427,269.6891540871766L254.78967793925585,273.39467228278863L254.78967793925585,273.5896788135342L254.85379255957923,273.5896788135342L254.85379255957923,273.6546805296575L260.5599937683128,278.9840375664944L260.9446814902494,285.9358723553805L275.2422418222468,310.2790508870812L275.0498979612785,314.6249793333327L278.38385821806514,314.75469279920344L279.15323366194207,316.7651348907157L281.8460477155004,314.43040742409084L295.4383472239424,313.84667938024904L294.66897178007093,317.4784649094554L297.16944197266093,318.38629959767877L301.5292361546162,337.0518621646188L308.9024174917413,340.16095808806404L316.66028655080845,348.51406741383107L316.01914034757647,371.6758757495072L318.90429826210675,375.49027503332036L321.14830997340687,390.80465184685727L330.7013884015123,399.5224093706174L330.76550302183387,400.29712409549757L330.2525860592523,409.7847726356449L328.2009182089205,409.9783479704811L327.3674281447238,410.7526292691182L325.1234164334237,413.0752808273164L323.77700940664363,414.4300277186094L321.91768541728015,422.9433347883123L317.10908889306666,428.1010320688638L313.0057531924049,429.0034831795301L310.82585610142814,427.2630028482563L306.9148642617365,431.5172251135891L302.5550700797794,429.5191500249666L299.09288058234597,433.32175514843675L297.5541296945994,431.0016132134342L291.52735538424895,435.57717362632593L289.02688519165895,435.77048259628464L287.1034465819739,435.706046494216L286.52641499906713,432.1617200554647L286.26995651777725,432.1617200554647L286.26995651777725,431.9683738982685L279.92260910581535,431.9039247362898L277.80682663515836,430.1637136384461L274.21640789707817,428.74564443795407L270.4336452980333,427.1985375101167L255.36670952216446,415.26863139549005L255.55905338313096,413.01076662321975L251.77629078408427,408.8813945706861L244.21076558598725,411.72043580815534L244.0825363453423,411.72043580815534L242.0949831153339,406.30007378506616L245.10837027050547,405.0738214957328L244.14665096566205,399.26416398465335L231.6443000027084,397.7791836784063L231.6443000027084,397.71461663716946L231.58018538238503,397.6500493725671L231.13138304012318,393.194368466181L229.97731987431325,391.83808039806445L230.9390391791585,391.3859624543502L230.55435145722004,386.9933888835949L228.24622512559654,386.024299448306L228.50268360688642,381.7597069448848L226.13044265494318,379.1099985283545L225.48929645171484,378.4636709666256L219.52663676168777,378.72220468452815L220.61658530717796,377.23558676001176L218.11611511458432,373.9387493676095L218.2443443552329,373.9387493676095L218.11611511458432,373.8740996564011L219.65486600233453,373.68014917450637L219.59075138201115,369.736050585022L218.88549055846124,369.54205693556924L219.52663676168777,365.98514779506604L219.52663676168777,365.79111498639395L219.52663676168777,365.79111498639395L216.76970808780607,356.3457339658362L216.76970808780607,356.2163118075896L217.4108542910344,353.4335169888536L218.37257359587784,349.16143800159807L217.85965663329443,348.8377555342149L213.05106010908094,345.535871387463L212.08934080423933,344.88837411515306L212.60225776682273,343.1400184111908L212.4099139058526,342.2333986174481L209.33241213035762,338.1530600414162L209.5888706116475,335.2379816014154L203.81855478259058,332.84079515295707L201.18985534935382,324.02684309235246L200.80516762741718,322.4710032048215L203.7544401622672,307.8137405510133Z" class="sc-kAyceB dIJauC Mandi mapstate" fill="rgb(18, 108, 189)" stroke-width="0.9px" data-darkreader-inline-fill="" style="--darkreader-inline-fill: #0e5697;"></path><path d="M411.87049773024046,325.84182399390465L417.96138666090883,331.15609983463946L419.1795644470458,331.54488930217576L419.50013754865904,331.8040777385286L420.39774223317727,331.86887427989495L423.3470147680291,331.93367059418597L424.4369633135175,331.9984666814016L424.62930717448944,331.48009162535163L426.6809750248176,324.48060503760644L426.8733188857841,324.5454272626157L434.5670733245279,325.90664144229777L439.69624295035646,330.3784963698117L440.01681605197155,330.05448527203134L444.6330687152167,325.45291452753827L448.7364044158803,324.80471388776095L448.86463365652526,324.48060503760644L451.2368746084703,315.7923676894079L451.42921846943864,315.14382772372574L451.42921846943864,315.07897247306664L449.0569775174936,312.93862125334545L450.2110406833053,310.7331510376598L456.3019296139755,308.5274169318045L462.52104778529247,310.14930593223653L463.29042322916393,309.88981328276077L464.76505949659077,309.30594146397925L465.6626641811108,308.9815602389035L466.9449565875675,307.8137405510133L467.07318582821426,307.6839782394154L467.07318582821426,307.61909674094295L465.79089342175575,298.9878202274558L469.1889682988676,295.6770088719559L492.91137781832185,295.8717789740622L496.8864842783405,290.2226083866717L502.9773732090107,291.4564834344492L506.3113334657992,295.2225372804505L512.2739931558226,294.5732726706947L512.9151393590528,290.5473203761994L508.42711593645254,286.58544210185664L511.312273850981,270.14425806977124L521.3141546213446,272.61462542211484L535.6758295736618,268.5838545091001L539.2021336914204,272.2895961029799L541.6384892636888,268.7138932134703L544.5877617985407,270.0142295134856L546.3829711675808,267.3484407921551L546.5112004082239,267.3484407921551L549.1398998414625,267.0883430800468L549.5245875633991,267.02331807510564L549.3322437024308,266.4380826454526L549.9733899056591,264.6172306280778L554.9102156705176,268.84393099513454L559.7829268150563,281.3232664620373L567.7331397350881,283.5322645480546L566.4508473286332,287.29994229809836L567.7331397350881,289.1185447130174L565.1044403018532,291.2616665641617L566.0661596066966,296.39115583181956L561.0011046011896,301.90862982335966L562.411626248293,307.424450874767L561.5781361840964,314.3006916775885L554.397298707936,320.72052661779344L554.9102156705176,327.39737999569024L558.3082905476313,330.50809921875225L558.9494367508578,335.56190188863366L563.1168870718429,343.0752613264867L562.4757408686164,345.85961153689277L564.7838672002381,347.2192583931437L570.68241226994,345.66536812612594L571.1953292325234,352.5274006645104L577.8632497460985,357.5104927681932L578.8890836712635,360.42206998923757L566.7714204302465,373.2922421431649L564.3350648579781,372.2577838362222L559.8470414353778,374.84382173210724L557.7312589647245,379.43315389343934L558.1800613069845,385.24899160833866L563.8862625157162,385.5074311398066L567.2843373928299,391.70890496127686L570.554183029295,393.2589511521419L564.2709502376565,401.7819041414268L562.3475116279697,408.6878078770633L565.6814718847563,411.7849544632545L565.6814718847563,416.94572600558695L569.4642344838066,420.87985822432984L579.9149175964321,422.74989351758813L579.6584591151386,419.6545614259576L581.3895538638535,418.5581752623448L583.8259094361256,421.2022914246227L584.7235141206438,424.9421109631912L584.7235141206438,424.9421109631912L584.8517433612906,425.58683198681865L585.4928895645171,427.9721069350726L585.5570041848423,428.03656961280194L590.6220591903475,432.03282283878434L592.6096124203541,437.70346279463774L592.8019562813242,438.28331803979654L596.007687297466,438.3477452947891L595.3665410942376,440.34488054994745L597.6746674258593,444.3385140459377L602.4832639500728,446.8502034804678L602.7397224313645,452.9026402869522L606.3942557897681,459.53233083086343L596.5206042600494,461.9133003377483L591.3914346342208,459.4036212009041L589.339766783889,461.7202599680877L585.4287749441937,461.7846069777761L576.1962696177052,453.41765136967206L575.1704356925402,448.91082621652095L572.7340801202718,447.2365874491543L573.8881432860817,443.69443703374145L572.6058508796268,442.01973345579427L564.9762110612064,444.46732679902016L549.1398998414625,442.27738987808334L546.831773509839,444.59613866904965L544.9724495204791,438.734304181683L538.560987488192,435.834918477105L533.239474001397,436.67256479593743L528.7514505787985,441.69765795767216L517.2108189206829,441.89090391926584L512.5945662574377,433.7728605346392L512.4663370167927,433.51508735646166L511.18404461033424,432.54840639087706L509.0041475193575,431.0016132134342L508.8118036583892,430.808255096028L504.195550995144,433.25731063633157L502.33622700578235,426.7472739346267L502.33622700578235,426.68280682258774L500.669246877389,427.4563975323799L498.6175790270572,425.2644742479015L497.97643282382705,424.49079304679344L492.71903395735535,425.90918418037927L490.92382458831526,426.10259283493815L487.91043743314185,425.13552959954086L487.91043743314185,425.2000020346359L486.7563742673283,424.6197421322295L485.02527951861157,423.71707989566494L485.02527951861157,423.5881245971259L486.37168654539164,418.75165983939496L484.57647717635155,416.62321948383305L478.8061613472946,416.4942153189568L475.40808647018457,413.5268740258625L470.9841776679077,417.0102266430349L462.6492770259374,413.01076662321975L460.5976091756056,409.7202470786451L462.77750626658417,405.2674456286477L452.3268231539587,398.1020155341457L444.31249561360346,398.4248418061361L438.7986382658364,402.10466679071305L430.143164522251,401.5236900054397L429.2455598377328,401.45913591355566L428.4120697735343,400.29712409549757L423.9240463509359,397.26264109392105L422.6417539444792,397.32720969883303L417.70492817961895,393.0652024233723L417.64081355929557,393.00061906652263L417.5125843186488,392.8714516819118L414.88388488541386,388.027028736401L414.88388488541386,384.02135487055057L412.7039877944371,381.7597069448848L411.10112228636535,380.1440759503357L407.83127664990025,380.85497086006035L407.57481816861036,365.98514779506604L403.1509093663317,360.16328161827914L405.07434797601854,355.1809020378696L403.27913860697845,349.6145839597675L399.8810637298666,347.28400099294504L396.35475961210796,341.0676793654966L392.2514239114498,339.4485030688038L392.2514239114498,339.3837330708584L392.5719970130631,332.45203293408576L395.0083525853315,329.79527230454096L398.72700056405665,331.67448397453427L402.3815339224566,329.92487924266607L410.2676322221705,331.22089864700774L410.33174684249025,330.8969023139325L411.35758076765705,325.97145866328447L411.4216953879786,325.45291452753827Z" class="sc-kAyceB dIJauC Kinnaur mapstate" fill="rgb(18, 108, 189)" stroke-width="0.9px" data-darkreader-inline-fill="" style="--darkreader-inline-fill: #0e5697;"></path><path d="M88.60458206242947,310.79802157459926L94.05432478987314,312.16025012445243L94.43901251180978,311.8359191227173L97.83708738891801,308.91668330876655L98.47823359214635,308.9815602389035L102.64568391313514,309.824939549585L106.94136347476342,314.23583346222495L107.00547809508862,314.23583346222495L109.50594828767862,314.0412574476477L110.66001145349037,318.3214557439105L113.80162784931053,317.6730046740031L114.1222009509238,323.1192857545675L120.46954836288569,322.1468533947227L126.68866653420082,326.36035721360895L126.2398641919408,329.406446037332L130.279085272281,328.62876896244416L130.279085272281,328.62876896244416L144.32018712298668,344.7588719446903L144.44841636363344,344.95312486086914L144.64076022459994,344.56461699136435L147.33357427816009,339.83711829693675L148.55175206429158,337.6996335579188L149.51347136913682,339.4485030688038L157.33545504852555,353.692399235817L163.2340001182274,360.0985839618461L163.4904585995173,360.42206998923757L164.70863638565243,363.7213055822831L171.88947386181098,381.5012154064043L174.06937095278954,384.47365150225596L173.81291247149602,384.6028770942394L171.95358848213255,385.63664956119374L175.54400722021273,390.93383354806883L173.94114171214278,393.194368466181L176.82629962667124,393.5818612277262L175.22343411859947,394.4214012638322L175.6722364608595,397.90831709077975L167.65790892050245,400.36168220484524L162.721083155644,397.06893393879636L162.59285391499725,397.520914173223L162.01582233209228,399.39328712419046L161.7593638508024,400.2325657629244L159.06654979724044,394.80886853733773L157.9124866314287,401.1363621066357L151.629253839792,401.65279751973685L151.3727953585003,406.17099838628656L153.4244632088321,406.30007378506616L153.55269244947522,410.9461945840885L155.60436029980883,412.88173754747095L147.65414737977335,413.3333354186261L150.21873219268855,417.52622374039584L144.70487484492332,420.42844241660896L144.57664560427656,420.42844241660896L144.57664560427656,420.42844241660896L142.20440465233332,421.58920393708104L141.11445610684314,419.20311607584335L129.44559520808434,421.3312631503022L126.11163495129585,420.55741947212846L125.98340571065091,420.42844241660896L125.79106184968259,413.78492238738545L121.30303842708236,411.46235896184953L120.72600684417739,410.6235846125992L120.46954836288569,406.9454374060779L120.53366298320907,406.17099838628656L124.05996710096406,402.6856255028106L124.05996710096406,399.97433020029166L118.03319279061543,391.5797286296547L117.64850506867879,387.76862414772677L115.27626411673555,385.3782118221952L115.91741031996389,382.4705401744477L104.95381024475319,364.9502827304759L104.82558100411188,360.93963590898784L103.28683011636167,361.45718740075336L98.41411897182661,355.69861414617935L98.54234821247155,352.3332271203126L96.93948270439978,351.4270570276767L88.66869668275285,325.90664144229777L84.69359022273602,319.099566952229L89.95098908920954,317.4784649094554L91.81031307857302,319.5534500077365L92.38734466147616,319.099566952229L92.70791776309125,318.9050422257451L93.15672010535127,318.5808297919293L92.19500080050966,317.80269671094356Z" class="sc-kAyceB dIJauC Una mapstate" fill="rgb(18, 108, 189)" stroke-width="0.9px" data-darkreader-inline-fill="" style="--darkreader-inline-fill: #0e5697;"></path><path d="M330.2525860592523,409.7847726356449L330.2525860592523,409.84929796994857L332.88128549248904,409.59119529654436L338.13868435896256,413.78492238738545L348.1405651293262,410.8171512634144L353.07739089418646,412.23657881678355L359.2965090655016,403.8474887180373L366.477346541662,402.10466679071305L372.0553185097506,403.9120345554784L372.8246939536257,401.71735094215273L370.7089114829705,396.6169427574023L371.86297464878044,391.70890496127686L378.91558288429405,389.4481899408529L385.3270449165793,381.6950843966724L383.9165232694777,373.6154985644325L375.38927876653725,365.4677224686038L374.87636180395566,359.06339079052213L377.7615197184841,355.37504577160234L374.94047642427904,349.6145839597675L380.3902191517209,341.5210233514945L391.35381922692795,339.57804238474637L392.2514239114498,339.3837330708584L392.2514239114498,339.4485030688038L396.35475961210796,341.0676793654966L399.8810637298666,347.28400099294504L403.27913860697845,349.6145839597675L405.07434797601854,355.1809020378696L403.1509093663317,360.16328161827914L407.57481816861036,365.98514779506604L407.83127664990025,380.85497086006035L411.10112228636535,380.1440759503357L412.7039877944371,381.7597069448848L414.88388488541386,384.02135487055057L414.88388488541386,388.027028736401L417.5125843186488,392.8714516819118L417.64081355929557,393.00061906652263L417.70492817961895,393.0652024233723L422.6417539444792,397.32720969883303L423.9240463509359,397.26264109392105L428.4120697735343,400.29712409549757L429.2455598377328,401.45913591355566L430.143164522251,401.5236900054397L438.7986382658364,402.10466679071305L444.31249561360346,398.4248418061361L452.3268231539587,398.1020155341457L462.77750626658417,405.2674456286477L460.5976091756056,409.7202470786451L462.6492770259374,413.01076662321975L470.9841776679077,417.0102266430349L475.40808647018457,413.5268740258625L478.8061613472946,416.4942153189568L484.57647717635155,416.62321948383305L486.37168654539164,418.75165983939496L485.02527951861157,423.5881245971259L485.02527951861157,423.71707989566494L486.7563742673283,424.6197421322295L487.91043743314185,425.2000020346359L487.84632281281847,425.2644742479015L487.07694736894155,429.77697812929637L483.1018409089247,428.4878021501754L476.8827227376114,435.57717362632593L472.45881393533455,434.9327960108549L469.83011450209597,437.5746036410501L468.16313437370445,437.38131325206086L462.26458930400076,436.6081317909984L452.64739625557195,444.53173284441345L442.32494238359504,445.9486099972246L440.20915991293987,451.42190488265805L435.2082195277562,449.2327781182821L432.4512908538745,450.1986007505848L429.5020183190245,446.9146013601385L422.3211808428641,451.486287106678L417.8331574202675,451.5506691103237L416.48675039348564,457.21542286844306L411.93461235056384,459.7897474516949L409.8188298799105,466.8029968041237L407.57481816861036,466.93165589715954L405.2025772166653,470.34080200443987L403.02268012568857,469.63329406085995L406.10018190118353,475.48551626295284L406.1642965215069,475.6141161502119L403.8561701898834,475.228313859865L402.3815339224566,478.121638866789L405.3308064573066,479.4074187888564L406.4848696231202,482.4929335295574L403.53559708826833,488.91947163247096L407.510703548287,490.5900138167135L403.9843994305302,490.4615158096094L403.47148246794677,490.4615158096094L398.72700056405665,487.76285598399954L396.35475961210796,486.4776445056614L394.1748625211312,488.7267072700897L392.5078823927397,490.7185109509701L394.7518941040398,497.52761077461946L403.34325322730183,496.82111996314325L403.6638263289151,500.2890947286951L401.3556999972916,502.4723087175071L402.0609608208433,510.3683067852744L397.5729373982449,508.9562558594207L396.6112180934033,505.5540650550711L393.9825186601647,505.7466581920762L391.61027770821784,511.71607554724596L394.4954356227481,515.7588076562415L384.75001333367254,528.0100887951148L384.75001333367254,528.0100887951148L377.1203735152558,519.5440779899682L371.2218284455521,518.9667126281865L367.1826073652119,524.9961080422863L358.0783312793701,526.0221976719486L358.39890438098337,520.8270493119071L355.19317336484164,520.9553416795989L353.71853709741663,523.7134181288329L348.84582595287793,521.8533640025034L348.7175967122348,512.4861861480322L346.53769962125807,508.12181272012003L341.92144695800926,508.44275673355787L339.16451828412755,506.06764240628127L339.6133206263876,503.2427947786691L336.2152457492757,495.40805924981305L340.5109253109076,492.2604084908253L339.86977910767746,485.44941241447214L329.6755544763455,477.2215408252059L328.00857434795216,480.2431287979389L322.3664877595402,481.6573230481699L316.40382806951675,487.76285598399954L315.89091110693516,490.65426249294796L310.5052829998149,493.0313101441734L307.2354373633498,497.65606081753504L307.1713227430246,497.39915986039796L305.8890303365679,493.28827038323016L307.6201250852864,491.68221163898943L299.92637064654264,487.76285598399954L301.1445484326796,483.8426877884631L298.7723074807327,480.75739350233016L294.2842840581343,479.0216940042774L293.1302208923207,481.4002046952728L285.4364664535806,475.09971134398893L282.5513085390503,475.48551626295284L276.58864884902505,471.82005104363L280.17906758710524,468.218198538445L278.9608898009701,465.1303486773386L274.60109561901845,464.55132050848624L271.3312499825515,468.0252227388264L269.3436967525431,464.48698294708083L274.4087517580483,461.5272176201761L273.4470324532067,458.6957025100364L264.8556733299429,460.88372883852117L263.95806864542465,459.8541010571116L263.89395402509945,459.7897474516949L263.38103706251786,459.21055510644237L267.22791428188975,458.6957025100364L266.97145580059987,454.64074619618987L271.26713536222996,451.1643737827717L270.8824476402933,445.9486099972246L265.49681953317304,442.47062987549907L268.8307797899597,437.44574360288243L265.8173926347863,432.67730006456077L270.4336452980333,427.1985375101167L270.4336452980333,427.1985375101167L274.21640789707817,428.74564443795407L277.80682663515836,430.1637136384461L279.92260910581535,431.9039247362898L286.26995651777725,431.9683738982685L286.26995651777725,432.1617200554647L286.52641499906713,432.1617200554647L287.1034465819739,435.706046494216L289.02688519165895,435.77048259628464L291.52735538424895,435.57717362632593L297.5541296945994,431.0016132134342L299.09288058234597,433.32175514843675L302.5550700797794,429.5191500249666L306.9148642617365,431.5172251135891L310.82585610142814,427.2630028482563L313.0057531924049,429.0034831795301L317.10908889306666,428.1010320688638L321.91768541728015,422.9433347883123L323.77700940664363,414.4300277186094L325.1234164334237,413.0752808273164L327.3674281447238,410.7526292691182L328.2009182089205,409.9783479704811Z" class="sc-kAyceB dIJauC Shimla mapstate" fill="rgb(18, 108, 189)" stroke-width="0.9px" data-darkreader-inline-fill="" style="--darkreader-inline-fill: #0e5697;"></path><path d="M244.21076558598725,411.72043580815534L251.77629078408427,408.8813945706861L255.55905338313096,413.01076662321975L255.36670952216446,415.26863139549005L270.4336452980333,427.1985375101167L270.4336452980333,427.1985375101167L265.8173926347863,432.67730006456077L268.8307797899597,437.44574360288243L265.49681953317304,442.47062987549907L270.8824476402933,445.9486099972246L271.26713536222996,451.1643737827717L266.97145580059987,454.64074619618987L267.22791428188975,458.6957025100364L263.38103706251786,459.21055510644237L263.89395402509945,459.7897474516949L263.95806864542465,459.8541010571116L264.8556733299429,460.88372883852117L273.4470324532067,458.6957025100364L274.4087517580483,461.5272176201761L269.3436967525431,464.48698294708083L271.3312499825515,468.0252227388264L274.60109561901845,464.55132050848624L278.9608898009701,465.1303486773386L280.17906758710524,468.218198538445L276.58864884902505,471.82005104363L282.5513085390503,475.48551626295284L285.4364664535806,475.09971134398893L293.1302208923207,481.4002046952728L294.2842840581343,479.0216940042774L298.7723074807327,480.75739350233016L301.1445484326796,483.8426877884631L299.92637064654264,487.76285598399954L307.6201250852864,491.68221163898943L305.8890303365679,493.28827038323016L307.1713227430246,497.39915986039796L306.9148642617365,497.65606081753504L304.6067379301112,500.80281477097196L304.47850868946443,500.9312426049901L301.8498092562295,500.73860052749114L301.7856946359061,500.80281477097196L300.18282912783434,503.37120607684665L301.5292361546162,505.36146996158914L296.33595190846245,508.9562558594207L297.041212732016,510.88175379266704L293.963710956521,512.614534876594L291.3350115232806,509.72647848489123L284.73120563002703,510.8175736766052L283.0642255016337,514.3471577689197L280.17906758710524,514.9246635913341L279.40969214323195,522.4947825393901L269.8566137151265,530.0618875569426L269.21546751189817,530.5748026763458L269.3436967525431,531.0877039709276L269.27958213221973,531.2800383925514L268.3819774477033,527.753598389204L265.43270491284966,526.8558547299417L268.3819774477033,524.8678429451384L267.1637996615664,518.7742536080295L265.68916339413954,519.6723790208152L259.85473294476105,515.8871342598095L255.49493876280758,517.491143637305L256.9695750302326,510.9459336916334L254.46910483764077,506.1318385970344L251.19925920117748,504.3984651437304L251.13514458085592,500.99545619554465L243.12081704049888,506.45281629055535L238.82513747886696,503.2427947786691L238.248105895962,502.79334838319846L235.10648950014183,495.4722915703733L227.3486204410783,500.2890947286951L227.28450582075493,500.2248787439057L226.25867189558812,499.13317369465585L222.2835654355713,494.5730192482979L220.68069992750134,493.28827038323016L219.84720986330285,493.6737042000432L220.2960122055647,492.2604084908253L216.00033264393278,487.37730171316707L215.93621802360758,487.31304190369156L209.78121447261583,487.50582067695814L201.51042845096708,481.5930437880079L202.2798038948422,476.7071798203415L199.20230211934722,472.27023425004063L201.18985534935382,470.40511959235846L200.35636528515715,465.8380256149876L203.88266940291396,459.91845444261344L203.43386706065394,458.2451949396336L197.663551231597,456.82924381886096L199.39464598031373,451.9369565045581L197.59943661127363,450.9712231437661L198.88172901773214,446.978999019183L197.34297812998375,445.9486099972246L205.03673256872753,439.8939330917601L205.03673256872753,439.8939330917601L212.73048700746585,438.5410257331496L219.84720986330285,433.5795309830546L227.66919354269157,438.6054521037495L230.10554911496,436.47926511751757L237.86341817402172,435.5127368605008L237.9916474146703,435.5127368605008L243.50550476243552,437.70346279463774L244.0825363453423,437.6390333284162L242.47967083727053,432.61285333842716L243.5696193827589,429.32577661998766L247.3523819818056,428.6811841984736L246.8394650192222,426.94067394026024L250.49399837762394,425.13552959954086L252.99446857021758,421.00883217065166L244.40310944695557,416.36521026480114L244.5954533079257,416.04269373858824L245.364828751799,414.7525720426329L243.7619632437254,412.10754440005167L244.27488020631063,411.91399110570273Z" class="sc-kAyceB dIJauC Solan mapstate" fill="rgb(18, 108, 189)" stroke-width="0.9px" data-darkreader-inline-fill="" style="--darkreader-inline-fill: #0e5697;"></path><path d="M307.1713227430246,497.39915986039796L307.2354373633498,497.65606081753504L310.5052829998149,493.0313101441734L315.89091110693516,490.65426249294796L316.40382806951675,487.76285598399954L322.3664877595402,481.6573230481699L328.00857434795216,480.2431287979389L329.6755544763455,477.2215408252059L339.86977910767746,485.44941241447214L340.5109253109076,492.2604084908253L336.2152457492757,495.40805924981305L339.6133206263876,503.2427947786691L339.16451828412755,506.06764240628127L341.92144695800926,508.44275673355787L346.53769962125807,508.12181272012003L348.7175967122348,512.4861861480322L348.84582595287793,521.8533640025034L353.71853709741663,523.7134181288329L355.19317336484164,520.9553416795989L358.39890438098337,520.8270493119071L358.0783312793701,526.0221976719486L367.1826073652119,524.9961080422863L371.2218284455521,518.9667126281865L377.1203735152558,519.5440779899682L384.75001333367254,528.0100887951148L384.55766947270604,531.6005914424804L385.26293029625594,531.8570299951807L387.05813966529604,532.6263249236972L388.59689055304625,533.2032757171455L391.41793384725133,536.1518623086495L393.34137245693637,538.9718223775199L393.59783093822807,539.356330047256L392.18730929112644,544.6745570757284L399.6246052485749,548.7102936122183L397.89351049985817,551.2081789736467L400.39398069245,557.5474974911376L396.16241575114145,557.163356259307L396.2906449917864,561.0044211151426L391.93085080983474,559.6601362306728L391.4820484675729,561.7085326126235L391.41793384725133,561.7725414628167L396.67533271372486,568.7482221064174L404.1126286711751,568.1083573682727L405.6513795589235,574.5700085461976L405.1384625963419,575.8492848487458L403.8561701898834,578.9831508532907L387.6992858685262,585.4411363717581L382.4418870020527,590.363091047625L376.0304249697674,590.363091047625L374.4916740820172,593.5584899181367L366.477346541662,594.4531063468949L366.28500268069547,594.5809052931154L365.25916875552866,595.3476811192522L362.5663547019685,597.3922670829725L362.5663547019685,597.5200464838344L362.75869856293684,598.9255638346158L362.8228131832584,599.6921663527264L362.8869278035818,599.6921663527264L363.84864710842703,603.9079340339313L363.9127617287486,604.227272727273L361.9252084987402,602.886014593646L359.16827982485665,601.0975249258217L358.71947748259663,600.8420128245616L354.1032248193533,591.2578563268471L351.28218152514637,594.3892065549917L350.5769207015928,598.9255638346158L348.33290899029817,597.7756027371834L340.5109253109076,600.7142555008231L336.9846211931508,597.9033795897303L343.20373936446776,593.366780977195L342.75493702220774,588.8930289860464L333.9712340379756,598.1589307466938L332.81717087216566,596.6255728374827L334.4200363802356,594.5170059262755L330.9578468828022,591.9608569415614L327.11096966343393,593.4306841700973L325.3798749147154,588.3816766623004L319.7377883263034,590.8104788991241L315.4421087646733,586.7196875159862L312.300492368855,587.1671602910774L312.2363777485316,587.1671602910774L312.1722631282082,586.9753875222423L310.05648065755486,583.8428276136647L303.70913324559297,583.9706972150825L301.2086630529993,586.9114628400939L301.0163191920328,587.1032362477308L300.6316314700962,582.5001453278464L300.37517298880266,578.9831508532907L298.0029320368576,575.0817293190394L289.0909998119805,571.5633728538514L288.1933951274623,571.179513038036L286.3340711381006,568.0443697177143L286.0776126568071,567.6604393209482L286.1417272771305,567.6604393209482L294.4766279191008,560.1722559063674L295.2460033629759,553.2574818185794L293.0019916516758,550.3755868455901L293.6431378549023,543.8416797438977L285.6929249348723,536.664613374307L281.781933095177,533.1391709369509L277.10156581160845,533.2673802814716L273.8317201751415,531.0877039709276L273.3829178328833,533.1391709369509L270.3054160573847,534.0366182168791L269.9207283354481,532.8827496574158L269.3436967525431,531.0877039709276L269.21546751189817,530.5748026763458L269.8566137151265,530.0618875569426L279.40969214323195,522.4947825393901L280.17906758710524,514.9246635913341L283.0642255016337,514.3471577689197L284.73120563002703,510.8175736766052L291.3350115232806,509.72647848489123L293.963710956521,512.614534876594L297.041212732016,510.88175379266704L296.33595190846245,508.9562558594207L301.5292361546162,505.36146996158914L300.18282912783434,503.37120607684665L301.7856946359061,500.80281477097196L301.8498092562295,500.73860052749114L304.47850868946443,500.9312426049901L304.6067379301112,500.80281477097196L306.9148642617365,497.65606081753504Z" class="sc-kAyceB dIJauC Sirmaur mapstate" fill="rgb(18, 108, 189)" stroke-width="0.9px" data-darkreader-inline-fill="" style="--darkreader-inline-fill: #0e5697;"></path><path d="M148.55175206429158,337.6996335579188L148.93643978623004,337.0518621646188L149.5775859894602,335.8858165040883L147.46180351880503,329.53605570190393L146.37185497331484,326.2955413570553L146.3077403529951,326.16590896175785L150.603419914627,326.55480341893144L155.6684749201322,323.767545546767L158.36128897369053,327.6566265973097L162.721083155644,323.2489395334951L165.4780118295257,325.51773334051813L165.5421264498491,325.58255192605975L165.4780118295257,324.93435583544033L165.5421264498491,323.37859240214857L169.3248890488976,323.37859240214857L169.3248890488976,323.2489395334951L170.28660835374103,319.8776453568353L170.863639936646,322.21168381199004L174.19760019343266,321.2392036500996L173.04353702762273,318.64567273434295L176.12103880311952,320.33150927978386L174.7105171560179,316.3760341651623L183.68656400121654,313.6520992599344L190.03391141317843,304.89386746391574L191.1238599586668,304.63430079060254L196.63771730643202,303.72578862563114L203.94678402323734,307.4893330586201L203.88266940291396,307.8137405510133L203.7544401622672,307.8137405510133L200.80516762741718,322.4710032048215L201.18985534935382,324.02684309235246L203.81855478259058,332.84079515295707L209.5888706116475,335.2379816014154L209.33241213035762,338.1530600414162L212.4099139058526,342.2333986174481L212.60225776682273,343.1400184111908L212.08934080423933,344.88837411515306L213.05106010908094,345.535871387463L217.85965663329443,348.8377555342149L218.37257359587784,349.16143800159807L217.4108542910344,353.4335169888536L216.76970808780607,356.2163118075896L216.76970808780607,356.3457339658362L219.52663676168777,365.79111498639395L217.53908353168117,364.4328285788206L215.423301061026,363.00975532678694L215.35918644070443,363.0744428401804L207.7936612426074,366.56723406321817L205.2931910500174,365.2736842557697L200.67693838677224,367.1493020966236L198.56115591611888,386.4765474567821L201.70277231193722,393.45269786832614L199.39464598031373,395.9712220775973L199.65110446160543,397.58548188458553L199.20230211934722,398.4894063905267L190.8674014773751,396.22951303094123L185.61000261090157,389.3189979449917L184.32771020444488,389.1252082723786L182.85307393701805,388.9314165850892L176.89041424699462,388.15622968724165L173.81291247149602,384.6028770942394L174.06937095278954,384.47365150225596L171.88947386181098,381.5012154064043L164.70863638565243,363.7213055822831L163.4904585995173,360.42206998923757L163.2340001182274,360.0985839618461L157.33545504852555,353.692399235817L149.51347136913682,339.4485030688038Z" class="sc-kAyceB dIJauC Hamirpur mapstate" fill="rgb(18, 108, 189)" stroke-width="0.9px" data-darkreader-inline-fill="" style="--darkreader-inline-fill: #0e5697;"></path><path d="M219.52663676168777,365.79111498639395L219.52663676168777,365.79111498639395L219.52663676168777,365.98514779506604L218.88549055846124,369.54205693556924L219.59075138201115,369.736050585022L219.65486600233453,373.68014917450637L218.11611511458432,373.8740996564011L218.2443443552329,373.9387493676095L218.11611511458432,373.9387493676095L220.61658530717796,377.23558676001176L219.52663676168777,378.72220468452815L225.48929645171484,378.4636709666256L226.13044265494318,379.1099985283545L228.50268360688642,381.7597069448848L228.24622512559654,386.024299448306L230.55435145722004,386.9933888835949L230.9390391791585,391.3859624543502L229.97731987431325,391.83808039806445L231.13138304012318,393.194368466181L231.58018538238503,397.6500493725671L231.6443000027084,397.71461663716946L231.6443000027084,397.7791836784063L244.14665096566205,399.26416398465335L245.10837027050547,405.0738214957328L242.0949831153339,406.30007378506616L244.0825363453423,411.72043580815534L244.21076558598725,411.72043580815534L244.27488020631063,411.91399110570273L243.7619632437254,412.10754440005167L245.364828751799,414.7525720426329L244.5954533079257,416.04269373858824L244.40310944695557,416.36521026480114L252.99446857021758,421.00883217065166L250.49399837762394,425.13552959954086L246.8394650192222,426.94067394026024L247.3523819818056,428.6811841984736L243.5696193827589,429.32577661998766L242.47967083727053,432.61285333842716L244.0825363453423,437.6390333284162L243.50550476243552,437.70346279463774L237.9916474146703,435.5127368605008L237.86341817402172,435.5127368605008L230.10554911496,436.47926511751757L227.66919354269157,438.6054521037495L219.84720986330285,433.5795309830546L212.73048700746585,438.5410257331496L205.03673256872753,439.8939330917601L203.17740857936406,438.1544628664906L204.39558636549555,437.1880208726634L202.0233454135505,436.414831448973L196.18891496417018,439.37855130700154L195.3554248999735,437.12358963719635L199.39464598031373,432.1617200554647L195.22719565932857,426.94067394026024L194.97073717803687,427.06960616865126L188.68750438639836,431.1949693372353L189.072192108335,426.0381235052082L187.59755584090817,425.2644742479015L187.02052425800503,429.5191500249666L184.39182482476826,430.0992582741719L184.9688564076714,426.3604679360342L179.90380140216803,427.64979022111675L176.89041424699462,420.17048564032757L170.0942644927709,425.9736539536907L174.19760019343266,421.5247190734499L168.74785746599082,416.4942153189568L162.07993695241566,403.976580169895L163.93926094177914,402.5565251285343L162.01582233209228,399.39328712419046L162.59285391499725,397.520914173223L162.721083155644,397.06893393879636L167.65790892050245,400.36168220484524L175.6722364608595,397.90831709077975L175.22343411859947,394.4214012638322L176.82629962667124,393.5818612277262L173.94114171214278,393.194368466181L175.54400722021273,390.93383354806883L171.95358848213255,385.63664956119374L173.81291247149602,384.6028770942394L176.89041424699462,388.15622968724165L182.85307393701805,388.9314165850892L184.32771020444488,389.1252082723786L185.61000261090157,389.3189979449917L190.8674014773751,396.22951303094123L199.20230211934722,398.4894063905267L199.65110446160543,397.58548188458553L199.39464598031373,395.9712220775973L201.70277231193722,393.45269786832614L198.56115591611888,386.4765474567821L200.67693838677224,367.1493020966236L205.2931910500174,365.2736842557697L207.7936612426074,366.56723406321817L215.35918644070443,363.0744428401804L215.423301061026,363.00975532678694L217.53908353168117,364.4328285788206Z" class="sc-kAyceB dIJauC Bilaspur mapstate" fill="rgb(18, 108, 189)" stroke-width="0.9px" data-darkreader-inline-fill="" style="--darkreader-inline-fill: #0e5697;"></path></svg>