<svg xmlns="http://www.w3.org/2000/svg"  xmlns:xlink="http://www.w3.org/1999/xlink"  id="map" width="633" height="633"><defs><filter id="sofGlow" height="300%" width="300%" x="-75%" y="-75%"><feMorphology operator="dilate" radius="4" in="SourceAlpha" result="thicken"></feMorphology><feGaussianBlur in="thicken" stdDeviation="10" result="blurred"></feGaussianBlur><feFlood flood-color="rgb(0,186,255)" result="glowColor"></feFlood><feComposite in="glowColor" in2="blurred" operator="in" result="softGlow_colored"></feComposite><feMerge><feMergeNode in="softGlow_colored"></feMergeNode><feMergeNode in="SourceGraphic"></feMergeNode></feMerge></filter></defs><path d="M234.00636230941745,114.5870161830353L226.20122698690466,130.95775795450118L225.95212692342102,144.10873965376777L214.74262406662456,152.1587025912213L215.4899242570773,154.8685488719857L213.91229052167546,158.0705393952976L209.3454560244627,157.66006138021385L211.67038995031544,162.58514591580933L208.59815583400996,165.12921618421933L207.6847889345663,168.8215470609166L200.3778537390226,168.65746041548573L197.88685310417895,172.43105460004426L196.5583194322644,180.05773374230466L192.1575516440389,186.5336405372209L185.26578322096975,189.81164663209893L184.02028290354792,187.92686980477265L177.54368125295514,187.35320089529614L164.5074445972714,192.02394610859665L161.35217712646772,198.57723104185425L158.9442098461186,199.3962155294921L157.3665761107186,207.5839104194365L153.1318750314822,208.156902780368L144.4133728095294,203.57242816428516L137.43857103196387,207.33833640944067L131.70926957182382,204.3093013344096L130.87893602687654,201.60727829404823L124.6514344397674,201.36161872980847L124.07020095830194,194.80939839162147L121.16403355098373,195.2189855416027L120.49976671502736,193.41672885159187L123.1568340588583,189.40193018461014L117.92573272568734,185.9599249416906L110.45273082115455,191.28654469617868L101.15299511773628,186.5336405372209L98.16379435592535,188.74636347972591L93.26482644073076,185.30422643042948L92.60055960477257,179.56579255994166L101.48512853571629,170.38029158985955L106.96532993237452,170.70843021187102L115.60079879983277,165.37539641495187L114.85349860938004,158.89146579641056L116.34809899028551,154.12954259841808L127.88973526506379,139.26049793844777L127.14243507461106,135.39735077262503L124.40233437628194,135.15073712705362L123.3229007678492,132.60218672910105L123.3229007678492,128.0796248134311L129.88253577293835,117.13827025827777L134.44937027015294,117.8788850973333L138.85013805837661,115.9038403728282L144.82853958200212,118.45489652150991L151.6372746505749,116.89139146379239L152.135474777544,121.74601552759941L156.7023092747586,124.70747741105606L160.27274351803499,117.71430681459515L181.4462489142079,104.54286865131053L187.50768379232977,96.47030554410776L190.4968845541407,97.37660129521464L226.78246046837012,99.35380548437479L233.67422889143927,102.56627008323085L234.9197292088611,107.09563398218233Z" class="sc-kAyceB dIJauC Kupwara mapstate" fill="rgb(18, 108, 189)" stroke-width="0.9px" data-darkreader-inline-fill="" style="--darkreader-inline-fill: #0e5697;"></path><path d="M354.9029264538458,182.43525005322772L348.50935815774574,183.00908380727014L345.6862241049239,180.13972256391207L342.19882321614205,181.6974355198081L335.6391882110529,178.3358776996347L334.55975460262016,183.91078368801482L327.3358527615728,186.94342562025577L316.5415166772473,179.64778373950867L313.05411578846724,174.39955559333066L306.57751413787264,171.61077893021866L304.9998804024708,168.32928239586818L295.617111344558,166.27802689602868L292.21274381027433,162.58514591580933L285.3209753872052,165.7856889121931L283.90940836079244,168.90358979256416L284.07547506978153,173.16926904140837L286.8986091226052,175.38372108472595L284.1585084242779,180.7136333125527L279.84077399054695,181.94337723269382L275.1909061388378,186.61559833851425L266.6384706258741,187.59906135288747L262.9019696736068,193.17095188856L259.08243536684677,193.08902545076853L255.01380099660128,186.69755574745705L244.21946491227573,183.00908380727014L245.9631653566703,191.45041441987087L244.9667651027321,200.4608368892741L242.6418311768757,199.88758744689858L242.30969775889753,202.58988136941844L244.9667651027321,204.2274281005284L243.8042981398048,207.09275888595766L244.8006983937412,210.93973653580906L252.27370029827216,219.4491362215631L247.95596586454303,221.5758279820766L245.13283181171937,219.28553365058815L240.8981307324866,221.1668692262947L240.8981307324866,217.2403701185185L230.26986135715197,218.9583238374671L229.6886278756865,215.84951988969442L234.089395663912,210.0394573235135L230.0207612936665,208.97543012027927L226.9485271773592,211.83996855240184L227.36369394983376,209.54837603890428L220.72102559025006,196.61150864031333L225.03876002397737,175.2196974373719L217.31665805596276,166.27802689602868L213.1649903312209,170.46232683618382L207.6847889345663,170.70843021187102L208.59815583400996,165.12921618421933L211.67038995031544,162.58514591580933L209.17938931547178,157.9063493745216L213.91229052167546,158.0705393952976L215.4899242570773,154.8685488719857L214.74262406662456,152.1587025912213L225.95212692342102,144.10873965376777L226.20122698690466,130.95775795450118L234.00636230941745,114.5870161830353L234.9197292088611,106.27220330114778L243.4721647218248,114.75162479533356L257.2557015679595,120.10053576486735L274.1114725304051,121.74601552759941L276.76853987423965,119.44229920874113L279.34257386357604,121.91055473487177L289.6387098209325,121.74601552759941L305.7471805929217,129.39540328664225L312.55591566149633,129.31317011597366L315.3790497143218,126.84598997534249L324.4296853542546,125.20100420101335L342.53095663412023,128.98423345504762L345.3540906869439,133.50655477697092L352.9931593004676,136.95915418135792L362.45896171287313,149.03773981626455L356.1484267712676,168.57541650168878L364.9499623477168,174.31753924474197L357.72606050666946,184.32063156524146Z" class="sc-kAyceB dIJauC Bandipora mapstate" fill="rgb(18, 108, 189)" stroke-width="0.9px" data-darkreader-inline-fill="" style="--darkreader-inline-fill: #0e5697;"></path><path d="M226.9485271773592,211.83996855240184L230.0207612936665,208.97543012027927L234.17242901840837,210.44868099864743L229.93772793917014,215.35860469434465L230.10379464816288,218.79471659519913L240.8981307324866,217.2403701185185L240.8981307324866,221.1668692262947L245.13283181171937,219.28553365058815L252.02460023478852,222.3937163163755L252.93796713423035,225.8284226596843L251.02819998085033,227.9543258478525L252.52280036175762,230.0799664495371L249.9487663724194,228.7719109933496L237.6598299071884,233.84007236374964L228.94132768523377,243.15505977379325L226.61639375938103,243.40012305108667L224.8726933149901,247.4023303738595L216.98452463798458,245.68721238071703L216.65239122000276,248.38232124473143L219.89069204530279,250.34213602298587L213.74622381268637,256.1386188943734L215.4899242570773,265.44158070332105L211.08915646885362,270.58054432496556L205.69198842668993,273.0271334478457L205.2768216542172,275.63644737948107L202.78582101937354,276.2071823817769L198.6341532946317,268.45988722002676L186.84341695636977,266.2573911695408L184.60151638500975,258.75048226656145L179.28738169734424,260.30108932987696L175.05268061810784,252.79159157584672L170.56887947538962,250.99535815946365L163.51104434333138,252.13843741432265L155.0416421848622,247.8106666683434L149.89357420618398,253.19980037809182L141.09203862973482,253.2814409803059L138.26890457691297,256.8732453865041L133.95117014318203,253.2814409803059L125.89693475718923,253.77127648658734L117.09539918074006,247.15732395788382L115.84989886331823,242.41984904248056L117.92573272568734,235.5563695312194L121.41313361446919,235.31119469183704L122.24346715941647,228.44488159595676L127.88973526506379,225.8284226596843L134.94757039712022,218.30388552482236L133.95117014318203,215.9313377253311L135.36273716959477,211.92180548671058L131.70926957182382,204.3093013344096L138.10283786792206,207.42019480314957L144.4133728095294,203.57242816428516L153.1318750314822,208.156902780368L157.3665761107186,207.5839104194365L158.9442098461186,199.3962155294921L161.35217712646772,198.57723104185425L164.5074445972714,192.02394610859665L177.54368125295514,187.35320089529614L184.02028290354792,187.92686980477265L185.26578322096975,189.81164663209893L192.1575516440389,186.5336405372209L196.5583194322644,180.05773374230466L197.88685310417895,172.43105460004426L200.62695380250807,168.41132749188728L205.52592171770084,168.08314474324197L208.34905577052632,171.11859462752818L213.1649903312209,170.46232683618382L216.32025780202457,166.11391581197313L219.3924919183337,167.18060966865687L221.21922571721734,170.46232683618382L225.61999350544284,177.18787735699152L220.88709229923916,197.02105272871086L226.36729369589557,207.1746184508529Z" class="sc-kAyceB dIJauC Baramulla mapstate" fill="rgb(18, 108, 189)" stroke-width="0.9px" data-darkreader-inline-fill="" style="--darkreader-inline-fill: #0e5697;"></path><path d="M295.617111344558,166.27802689602868L304.9998804024708,168.32928239586818L306.57751413787264,171.61077893021866L313.05411578846724,174.39955559333066L316.5415166772473,179.64778373950867L327.3358527615728,186.94342562025577L334.55975460262016,183.91078368801482L335.6391882110529,178.3358776996347L341.9497231526584,181.6974355198081L346.26745758638754,180.30369902823622L348.50935815774574,183.00908380727014L354.9029264538458,182.43525005322772L357.39392708868945,184.40259996294844L363.1232285488313,177.51588531888137L365.78029589266407,178.00788546542026L365.3651291201895,180.9595891681438L367.2748962735732,182.35327223172135L365.78029589266407,186.12384564522108L369.1846634269514,191.86008187112293L368.520396590995,197.02105272871086L371.92476412527867,199.5600077331028L382.2209000826351,199.9694813975957L386.040434389397,209.63022389507387L380.8093330562242,214.70402928099702L371.4265639983096,208.81172777440406L370.098030326395,213.0674816253486L365.614229183675,215.19496317894118L358.72246076060765,213.5584622927663L347.34689119481664,204.88240303313432L341.7836564436675,209.54837603890428L337.13378859195836,210.44868099864743L334.3106545391365,217.076746522348L328.1661863065219,215.03132010495574L323.3502517458219,217.3221813324226L325.426085608191,219.77633669265288L323.848451872791,222.80264589682793L314.3826494603836,223.62047588915902L311.1443486350854,221.5758279820766L304.086513503029,224.4382669964907L290.55207672037614,215.84951988969442L288.5592762125016,221.41224564694767L280.8371742444833,220.1853285242887L277.10067329221783,232.04186328784635L271.6204718955614,229.91646495353962L272.28473873152143,226.72787529440848L265.808137080925,222.47550301036608L263.0680363825977,228.6901542265723L266.6384706258741,233.43140497101376L263.48320315507044,233.59487309183078L256.50840137750674,222.47550301036608L255.59503447806674,223.86581730393573L253.93436738817036,222.3937163163755L244.8006983937412,210.93973653580906L243.8042981398048,207.09275888595766L244.9667651027321,204.2274281005284L242.30969775889753,202.58988136941844L242.6418311768757,199.88758744689858L244.9667651027321,200.4608368892741L245.9631653566703,191.45041441987087L244.21946491227573,183.00908380727014L255.01380099660128,186.69755574745705L259.08243536684677,193.08902545076853L262.9019696736068,193.17095188856L266.6384706258741,187.59906135288747L275.1909061388378,186.61559833851425L279.84077399054695,181.94337723269382L284.1585084242779,180.7136333125527L286.8986091226052,175.7117636584817L283.90940836079244,172.67712962350743L285.3209753872052,165.7856889121931L292.3788105192598,162.58514591580933Z" class="sc-kAyceB dIJauC Ganderbal mapstate" fill="rgb(18, 108, 189)" stroke-width="0.9px" data-darkreader-inline-fill="" style="--darkreader-inline-fill: #0e5697;"></path><path d="M358.72246076060765,213.5584622927663L365.614229183675,215.19496317894118L370.098030326395,213.0674816253486L371.4265639983096,208.81172777440406L380.8093330562242,214.70402928099702L386.7877345798479,209.38467915602087L395.83837021978434,214.04942892739382L399.99003794452074,213.47663315607133L402.56407193386076,216.8313082070672L398.6615042726062,225.33779231157223L395.34017009281524,225.50133731561345L393.18130287594977,229.58945730240157L391.105469013577,237.8444997869674L391.8527692040316,244.62538719829809L390.10906875964065,247.7290001826259L377.48799887642963,249.11727787100062L375.2460983050714,253.11815938981L376.1594652045151,256.7099977551816L374.6648648236078,260.30108932987696L368.6864632999823,264.7889046163973L368.6864632999823,277.0224854672697L371.34353064381685,279.06057526847053L374.24969805113506,288.67712428326195L379.9789995112733,298.9397593890708L383.5494337545533,300.893859333657L380.4771996382442,306.429282505198L390.10906875964065,314.89181609366915L388.1162682517661,318.3082112183838L389.3617685691879,327.4153226523176L388.2823349607552,332.37344457417294L391.437602431557,337.98011364610466L385.4592009079315,347.9701467973082L389.02963515120973,352.3542112984387L383.2173003365715,353.40947007214163L383.46640040005695,355.43863492544915L379.480799384306,358.76595584836105L382.6360668551097,367.8520005034552L382.13786672813876,378.87872462908854L380.22809957475874,377.74394073748044L376.82373204047144,383.0929939033731L372.92116437921686,382.4447106382522L368.9355633634659,385.68588762794025L366.5275960831168,386.0099724260617L365.94636260165316,383.0119598043875L357.8921272156567,379.36503811694365L340.0399559992766,358.44136702427204L331.7366205497965,353.57181192411826L325.92428573515826,353.57181192411826L330.5741535868674,340.4172341171843L331.9026872587874,340.4172341171843L329.8268533964165,339.11747887581714L329.24561991495284,340.82338778632675L324.7618187722346,340.579696718637L325.50911896268735,336.59892764478536L321.8556513649146,335.86766726742826L319.9458842115346,331.7232793957837L320.7762177564837,326.03329966474666L323.68238516380006,326.03329966474666L319.2816173755764,323.6754780392357L319.7798175025473,322.2118420315146L321.1083511744637,320.7480830224713L322.8520516188528,323.6754780392357L324.18058529076916,321.64261703520424L323.0181183278437,319.8535030576395L325.01091883571826,318.7962129323678L323.0181183278437,316.68144003042835L324.18058529076916,314.97316662892354L320.8592511109782,312.5324851047144L323.59935180930734,311.06791181364133L322.6859849098637,304.8827976518587L317.62095028568183,304.96419502223216L316.79061674073273,301.70800276368846L314.0505160424036,301.70800276368846L316.45848332275455,306.75484073153075L317.87005034916547,320.34146146287094L315.96028319578363,316.76278220071526L315.2129830053327,304.6386032532537L312.05771553452905,303.9059994683257L311.89164882553814,302.1150601705822L307.07571426484174,301.70800276368846L307.1587476193363,299.34688167596596L310.48008179912904,297.7997662040307L309.5667148996854,294.7865666938187L311.9746821800345,293.64630073141234L311.6425487620527,291.2026213325953L313.38624920644725,289.8177168715647L309.98188167215994,287.37349803527104L315.7111831323,287.4549775469877L319.1155506665873,283.70652361995326L322.5199182008746,284.847443229748L326.1733857986437,283.21753508126403L329.909886750911,277.83775016895197L334.72582131160925,276.7778985722689L340.3720894172566,265.8494907474678L339.45872251781293,254.09782577038368L341.70062308917295,250.66875018166957L339.0435557453402,249.60723156452877L336.8016551739802,243.15505977379325L328.3322530155092,241.43951929431114L325.5921523171801,235.71981748549842L327.00371934359464,232.45056365819255L325.2600188992019,228.60839707141713L318.61735053962,225.66488076496353L320.19498427502003,224.76537255334642L319.86285085704185,222.3119292334195L323.848451872791,222.80264589682793L325.426085608191,219.77633669265288L323.3502517458219,217.3221813324226L328.1661863065219,215.03132010495574L334.3106545391365,217.076746522348L337.13378859195836,210.44868099864743L341.7836564436675,209.54837603890428L347.67902461279846,205.04614285993102Z" class="sc-kAyceB dIJauC Anantnag mapstate" fill="rgb(18, 108, 189)" stroke-width="0.9px" data-darkreader-inline-fill="" style="--darkreader-inline-fill: #0e5697;"></path><path d="M508.1824988512453,455.0659135550886L506.6878984703417,441.09862344815974L503.200497581558,439.80629401216083L496.7238959309634,428.09024944198427L491.4097612432961,424.29096703371397L489.666060798907,424.04843188469295L490.49639434385244,426.79696848380263L487.3411268730506,434.95921740938593L470.4853559106068,441.74475276617795L467.9113219212704,436.49426876259076L465.66942134990677,437.786840222745L463.92572090551766,434.23204129384794L461.434720270674,438.99854016638255L455.4563187470503,434.71682869472716L447.0699499430757,434.15124210100566L441.8388486099029,430.91897143282404L437.85324759415016,431.7270945297578L437.68718088516107,427.2819599423992L419.08770947832454,411.2701996035321L411.3656075103099,410.7847677094951L404.05867231476805,407.71005508331837L393.3473695849352,393.46227324468055L388.0332348972697,382.6878196680773L381.97180001914967,380.7428531497535L382.6360668551097,367.8520005034552L379.480799384306,358.76595584836105L383.46640040005695,355.43863492544915L383.2173003365715,353.40947007214163L389.02963515120973,352.3542112984387L385.4592009079315,347.9701467973082L391.437602431557,337.98011364610466L388.2823349607552,332.37344457417294L389.3617685691879,327.4153226523176L388.1162682517661,318.3082112183838L390.10906875964065,314.89181609366915L380.4771996382442,306.429282505198L383.5494337545533,300.893859333657L379.9789995112733,298.9397593890708L374.24969805113506,288.67712428326195L371.34353064381685,279.06057526847053L368.6864632999823,277.0224854672697L369.1846634269514,271.1514460601711L367.93916310952955,269.8465001282002L368.8525300089732,264.46255733360704L374.6648648236078,260.30108932987696L376.1594652045151,256.7099977551816L375.2460983050714,253.11815938981L377.48799887642963,249.11727787100062L390.10906875964065,247.7290001826259L391.8527692040316,244.62538719829809L392.01883591302067,233.10446407420932L394.7589366113498,226.2372705953885L398.6615042726062,225.33779231157223L403.06227206082986,216.17678889482886L413.1923413091936,208.72987601610384L419.6689429597882,211.26709909287L418.00827586989544,224.76537255334642L422.32601030362275,233.758339661008L428.3044118272501,237.5176426405851L432.4560795519865,245.85056429906763L437.1059474036956,248.46398463807418L440.4272815834902,247.97399848006626L447.568150070043,253.60799952863363L446.65478317059933,263.3202933290395L447.90028348802116,261.4435528719396L461.2686535616831,259.7298292330788L467.5791885032904,261.4435528719396L467.33008843980497,256.79162176370755L474.5539902808505,257.68946040092305L478.87172471458143,271.55922148213267L487.25809351855605,282.2395166101842L494.3159286506161,287.86236936276055L499.4639966292925,298.7769078018018L514.2439337293672,306.34789199588886L516.4858343007272,311.8002138734555L515.7385341102745,322.2931583695354L518.8107682265818,325.7894018778379L516.4028009462327,329.5287929354072L509.42799916866716,332.292175252378L511.3377663220472,337.33015737966434L508.5976656237217,338.22384100593536L509.8431659411435,340.9046173863899L508.76373233270897,342.8540144338767L505.4423981529162,344.55955837217516L508.76373233270897,348.86328615520233L512.2511332214908,349.35043384140045L514.5760671473454,345.3716636252011L521.8830023428873,344.8844050037669L523.1285026603091,343.58498222906746L521.3017688614254,338.63004570937755L522.4642358243509,336.3551775906517L525.2873698771746,337.81762684869136L527.4462370940382,336.1926756629564L531.3488047552946,337.655138538521L535.0022723530674,342.9352345885818L534.919238998571,347.888950046864L542.7243743210856,350.97416141871327L546.7930086913293,345.8589086569291L549.117942617182,349.35043384140045L548.2045757177402,351.6236102250832L555.5115109132821,355.2763103996931L556.5079111672185,358.684809206743L563.3996795902876,365.7431602415327L566.8040471245749,365.3375849312024L568.8798809869459,373.44730802914637L574.6091824470859,370.69042319482105L576.7680496639514,371.6634908777105L581.9161176426296,387.46828002109396L588.060585875246,393.2193132718294L591.7140534730152,393.05733809113735L595.0353876528061,406.7389816896921L602.1762561393589,411.18929521651353L596.6960547427025,423.23995731863033L591.3819200550352,422.8357061477973L579.7572504257641,426.6353017041092L575.107382574055,424.21012235430953L572.3672818757259,417.82222203773836L566.4719137065949,417.0134621093548L552.8544435694494,423.23995731863033L539.9012402682583,421.7846097656411L519.9732351895072,438.5946494094169L520.7205353799618,447.15515987919116L517.731334618149,451.7567423050132L512.5002332849763,454.9852094125117Z" class="sc-kAyceB dIJauC Kishtwar mapstate" fill="rgb(18, 108, 189)" stroke-width="0.9px" data-darkreader-inline-fill="" style="--darkreader-inline-fill: #0e5697;"></path><path d="M304.086513503029,224.4382669964907L311.1443486350854,221.5758279820766L314.3826494603836,223.62047588915902L319.6967841480491,222.8844306461051L320.19498427502003,224.76537255334642L318.61735053962,225.66488076496353L325.34305225369644,228.8536673717672L327.00371934359464,232.45056365819255L325.5921523171801,235.71981748549842L327.91708624303647,239.9689201313504L314.7147828783618,233.43140497101376L309.81581496316903,237.02734529462214L311.39344869857086,238.82503402707516L310.39704844463085,239.64210327726596L306.3284140743872,239.39698656964538L306.24538071989446,242.01138508874192L301.7615795771744,242.33815702592346L302.34281305863806,244.5437056302153L300.59911261424895,245.85056429906763L289.55567646643794,252.0567914064568L287.39680924957247,250.99535815946365L287.9780427310361,252.87323410847785L285.15490867821427,253.9345519004828L285.15490867821427,250.26048151749364L279.50864057256877,248.5456476449026L275.0248394298487,242.5832319143583L269.3785713242014,243.07337124068363L260.90916916573224,236.53703399550886L259.2485020758377,232.9409912980982L258.00300175841585,234.41219042253033L254.84773428761218,233.26793529849238L251.02819998085033,227.9543258478525L252.93796713423035,225.8284226596843L252.02460023478852,222.3937163163755L248.45416599151395,221.41224564694767L252.27370029827216,219.4491362215631L255.51200112357037,223.86581730393573L256.50840137750674,222.47550301036608L262.5698362556268,232.53230256817824L266.05723714441046,234.24873005930385L266.55543727137774,232.61404109015075L263.0680363825977,228.6901542265723L265.808137080925,222.47550301036608L272.28473873152143,226.72787529440848L271.6204718955614,229.91646495353962L277.10067329221783,232.04186328784635L280.8371742444833,220.1853285242887L288.5592762125016,221.41224564694767L290.7181434293652,218.3856916765526L289.4726431119434,216.34042106004745L291.5484769743143,215.84951988969442L294.703744445118,219.5309369231809Z" class="sc-kAyceB dIJauC Srinagar mapstate" fill="rgb(18, 108, 189)" stroke-width="0.9px" data-darkreader-inline-fill="" style="--darkreader-inline-fill: #0e5697;"></path><path d="M259.2485020758377,232.9409912980982L260.90916916573224,236.53703399550886L269.3785713242014,243.07337124068363L275.0248394298487,242.5832319143583L279.50864057256877,248.5456476449026L285.15490867821427,250.26048151749364L285.15490867821427,253.9345519004828L287.72894266755065,253.0365180154513L285.0718753237179,255.2406996329164L285.5700754506852,258.4240209408499L275.1078727843433,271.1514460601711L271.7865386045505,278.9790562809894L271.45440518657233,284.76595146235286L266.72150398036865,291.0396971344535L267.6348708798123,292.8317791706777L264.230503345525,293.8092004558639L263.48320315507044,296.17107465965546L258.8333353033613,293.72775078477844L255.51200112357037,296.74113408046924L249.69966630893578,296.65969816641064L239.15443028809568,307.89424651229365L239.07139693360114,310.0100877347968L231.59839502906834,314.240998119757L229.19042774871923,319.7721753273263L224.62359325150464,321.9678907396201L225.2048267329683,319.9348304080977L218.64519172788096,317.2508272397881L218.2300249554064,314.240998119757L209.92668950592633,307.3245529567839L209.3454560244627,305.4525712388222L212.74982355875,301.30093581836536L207.5187222255754,295.84531801420235L207.93388899804995,293.23904473011225L202.78582101937354,289.2474299535006L201.37425399295898,281.2614429365567L203.45008785533173,280.3648268972629L202.45368760139536,278.6529764944298L205.35985500871175,273.35331920002045L211.08915646885362,270.58054432496556L215.4899242570773,265.44158070332105L213.74622381268637,256.1386188943734L219.89069204530279,250.34213602298587L216.65239122000276,248.38232124473143L216.98452463798458,245.68721238071703L224.8726933149901,247.4023303738595L226.61639375938103,243.40012305108667L228.94132768523377,243.15505977379325L237.6598299071884,233.84007236374964L250.19786643590305,228.7719109933496L255.34593441458128,233.51313922538066Z" class="sc-kAyceB dIJauC Budgam mapstate" fill="rgb(18, 108, 189)" stroke-width="0.9px" data-darkreader-inline-fill="" style="--darkreader-inline-fill: #0e5697;"></path><path d="M328.3322530155092,241.43951929431114L336.8016551739802,243.15505977379325L339.0435557453402,249.60723156452877L341.70062308917295,250.66875018166957L339.45872251781293,254.09782577038368L340.28905606276203,266.2573911695408L334.72582131160925,276.7778985722689L330.3250535233856,277.59317478829144L326.422485862131,283.0545358357058L322.5199182008746,284.847443229748L319.1155506665873,283.70652361995326L315.7111831323,287.4549775469877L310.8122152171072,286.80313073240177L313.38624920644725,289.8177168715647L311.6425487620527,291.2026213325953L311.9746821800345,293.64630073141234L308.5703146457472,295.7638778976525L302.4258464131326,295.2752291741808L301.67854622267805,297.962626955642L298.93844552435075,295.84531801420235L296.4474448895071,298.8583337863374L292.12971045577797,299.50972791837376L289.4726431119434,295.1937863828389L281.4184077259488,300.0796777423311L277.8479734826724,298.2883438763138L281.5014410804415,294.7051216095015L276.93460658322874,293.89064974467874L272.53383879500325,301.30093581836536L268.9634045517287,298.45120004548426L264.6456701179977,300.1610976189395L261.65646935618497,296.65969816641064L253.76830067917945,299.6725726338145L254.43256751513763,296.4153881321672L258.5012018853813,293.89064974467874L263.48320315507044,296.17107465965546L264.230503345525,293.8092004558639L267.6348708798123,292.8317791706777L266.72150398036865,291.0396971344535L271.45440518657233,284.76595146235286L271.7865386045505,278.9790562809894L275.1078727843433,271.1514460601711L285.5700754506852,258.4240209408499L285.0718753237179,255.2406996329164L287.9780427310361,252.87323410847785L287.31377589507974,251.07700918820592L289.55567646643794,252.0567914064568L300.59911261424895,245.85056429906763L302.34281305863806,244.5437056302153L301.7615795771744,242.33815702592346L306.24538071989446,242.01138508874192L306.3284140743872,239.39698656964538L310.14794838114904,239.80551247896074L311.39344869857086,238.82503402707516L309.81581496316903,237.02734529462214L314.96388294184726,233.43140497101376Z" class="sc-kAyceB dIJauC Pulwama mapstate" fill="rgb(18, 108, 189)" stroke-width="0.9px" data-darkreader-inline-fill="" style="--darkreader-inline-fill: #0e5697;"></path><path d="M70.18155389117783,238.90674269534975L72.83862123501058,243.40012305108667L77.9866892136888,244.70706837950638L82.63655706539794,241.0310321118386L105.96892967843633,240.29573078846352L109.62239727620909,243.56349663432866L115.93293221781096,243.89023915720463L117.09539918074006,247.15732395788382L125.89693475718923,253.77127648658734L133.95117014318203,253.2814409803059L138.26890457691297,256.8732453865041L141.09203862973482,253.2814409803059L149.89357420618398,253.19980037809182L155.0416421848622,247.8106666683434L163.51104434333138,252.13843741432265L170.56887947538962,250.99535815946365L175.05268061810784,252.79159157584672L179.28738169734424,260.30108932987696L184.60151638500975,258.75048226656145L186.84341695636977,266.2573911695408L198.8002200036226,268.6230239192555L204.03132133679537,276.2071823817769L201.20818728397353,282.8915350570451L203.28402114634082,286.23274466619205L202.78582101937354,289.2474299535006L207.93388899804995,293.23904473011225L207.5187222255754,295.84531801420235L212.74982355875,301.30093581836536L209.3454560244627,305.4525712388222L209.92668950592633,307.3245529567839L218.2300249554064,314.240998119757L218.64519172788096,317.2508272397881L225.2048267329683,319.9348304080977L225.12179337847374,323.838096671544L221.21922571721734,329.9352001551297L222.46472603463917,335.05511979167204L220.3058588177737,338.46756496239686L222.63079274363008,344.9656157178042L220.55495888125915,347.5641592724187L224.374493188021,352.9224354739572L230.1868280026556,355.1951475719525L230.1868280026556,360.38880967667956L224.7066266059992,361.1190448137995L224.62359325150464,365.41870074454255L222.63079274363008,364.8508821621972L216.15419109303548,355.11398436762465L204.7786215272463,344.8844050037669L193.48608531595528,341.9605678006519L189.66655100919525,344.55955837217516L185.3488165754643,344.315919434056L181.6123156231988,349.35043384140045L178.12491473441696,348.538513487777L176.29818093552967,350.4058739220827L174.8035805546242,347.72655541419044L168.9912457399896,349.5128133863891L171.89741314730782,360.7944996246961L164.75654466075503,374.74451561758997L161.85037725343682,376.6090834414208L158.03084294667497,366.6353928714534L160.18971016354044,356.8183325853961L158.52904307364406,350.4870589811944L159.69151003657134,349.5128133863891L144.57943951851848,348.3761248908968L141.17507198423118,344.8844050037669L140.09563837579844,340.25477000393494L136.19307071454205,337.0051701690554L130.6298359633911,337.33015737966434L125.64783469370377,333.8362276172793L120.16763329704736,337.33015737966434L107.96173018631089,339.6861337012906L102.31546208066538,333.8362276172793L94.51032675815259,335.05511979167204L90.19259232442528,332.6985180744987L90.60775909689801,338.95500266603267L88.36585852553799,341.06707545281097L82.55352371090521,331.96709417812144L73.4198547164724,327.82177914660224L69.93245382769237,323.18761303409246L66.36201958441598,317.6575209863704L64.61831914002687,307.1617799404721L59.38721780685228,302.5221080399897L64.36921907654141,280.7723853946791L62.54248527765412,275.39184090485014L57.56048400796681,271.1514460601711L52.99364951075222,260.21948190088824L47.34738140510672,227.79080415770022L51.831182547828575,225.5831092346216L55.06948337312315,226.3190390166892L65.3656193304796,240.45913379331068L67.6075199018378,242.25646462227996Z" class="sc-kAyceB dIJauC Punch mapstate" fill="rgb(18, 108, 189)" stroke-width="0.9px" data-darkreader-inline-fill="" style="--darkreader-inline-fill: #0e5697;"></path><path d="M276.93460658322874,293.89064974467874L281.5014410804415,294.7051216095015L277.8479734826724,298.2883438763138L281.4184077259488,300.0796777423311L289.4726431119434,295.1937863828389L292.12971045577797,299.50972791837376L296.4474448895071,298.8583337863374L298.93844552435075,295.84531801420235L301.67854622267805,297.962626955642L302.4258464131326,295.2752291741808L308.5703146457472,295.7638778976525L308.7363813547381,294.21644307736005L310.6461485081163,296.74113408046924L307.1587476193363,299.34688167596596L308.5703146457472,303.6617913429636L305.24898046595445,310.25420669464074L302.17674634964897,307.81286286159684L302.01067964065624,310.0100877347968L293.95644425466344,310.09146110216716L296.4474448895071,319.2842009681399L295.1189112175889,321.64261703520424L296.4474448895071,321.88657288301874L291.3824102653234,326.9275623470867L290.2199433023943,324.5698617334201L286.4834423501288,325.1389910895632L287.39680924957247,327.4153226523176L280.50504082650514,333.51117531996624L273.19810563096325,327.2527374005949L266.3063372078941,327.0088566792392L264.89477018148136,329.20366033846494L264.230503345525,325.3828979801783L266.05723714441046,322.45578990670674L257.7539016949286,324.9763845990183L256.50840137750674,320.9107289878666L248.28809928252304,317.4948446279577L242.72486453137026,320.178810180435L236.4973629442611,319.2028705786515L235.00276256335565,321.9678907396201L229.10739439422468,319.6095187271176L231.43232832007743,314.3223516977214L239.07139693360114,310.0100877347968L239.15443028809568,307.89424651229365L249.69966630893578,296.65969816641064L253.93436738817036,297.2297415430903L254.01740074266309,299.75399441894115L261.65646935618497,296.65969816641064L264.6456701179977,300.1610976189395L268.9634045517287,298.45120004548426L272.367772086016,301.3823499705504Z" class="sc-kAyceB dIJauC Shopiyan mapstate" fill="rgb(18, 108, 189)" stroke-width="0.9px" data-darkreader-inline-fill="" style="--darkreader-inline-fill: #0e5697;"></path><path d="M317.62095028568183,304.96419502223216L322.1877847828928,303.6617913429636L323.59935180930734,311.06791181364133L320.8592511109782,312.5324851047144L324.18058529076916,314.97316662892354L323.0181183278437,316.68144003042835L325.01091883571826,318.55221378525493L323.0181183278437,319.8535030576395L324.18058529076916,321.64261703520424L322.8520516188528,323.6754780392357L321.1083511744637,320.7480830224713L319.7798175025473,322.2118420315146L319.2816173755764,323.6754780392357L323.68238516380006,326.03329966474666L320.7762177564837,326.03329966474666L319.9458842115346,331.7232793957837L321.8556513649146,335.86766726742826L325.50911896268735,336.59892764478536L324.7618187722346,340.579696718637L329.24561991495284,340.82338778632675L329.8268533964165,339.11747887581714L331.9026872587874,340.4172341171843L327.8340528885419,347.0769617919141L327.1697860525801,345.2904547987355L324.01451858178007,345.77770209530263L323.1841850368328,343.90984698530065L325.50911896268735,342.04179211073733L320.7762177564837,339.5236627842105L319.53071743906185,344.07227709763356L313.38624920644725,349.26924350322315L318.70038389411275,357.46756442654714L316.12634990477636,359.6585440748413L295.0358778630962,355.9255994654286L292.0466771012816,360.38880967667956L288.0610760855325,359.17168341274464L283.8263750062961,362.41716540852576L267.71790423430684,365.41870074454255L266.3063372078941,361.2813151520777L261.40736929270133,360.7944996246961L253.1870671977158,353.32829858103105L248.37113263701758,357.54871671291676L244.21946491227573,357.3864117637995L243.05699794935026,355.6009579449501L241.39633085945388,358.1167721795928L235.75006275380838,359.6585440748413L232.92692870098654,356.6560208608953L230.43592806614106,357.0617973488952L228.94132768523377,353.73415226915404L224.2084264790319,352.8412617221866L220.55495888125915,347.5641592724187L222.63079274363008,344.9656157178042L220.3058588177737,338.46756496239686L222.46472603463917,335.05511979167204L221.21922571721734,329.9352001551297L222.87989280711554,329.5287929354072L224.62359325150464,321.9678907396201L228.1109941402865,320.0161573787118L235.00276256335565,321.9678907396201L236.4973629442611,319.2028705786515L242.72486453137026,320.178810180435L248.28809928252304,317.4948446279577L256.50840137750674,320.9107289878666L257.7539016949286,324.9763845990183L266.05723714441046,322.45578990670674L264.230503345525,325.3828979801783L264.89477018148136,329.20366033846494L266.3063372078941,327.0088566792392L273.19810563096325,327.2527374005949L280.50504082650514,333.51117531996624L287.39680924957247,327.4153226523176L286.4834423501288,325.1389910895632L290.2199433023943,324.5698617334201L291.3824102653234,326.9275623470867L296.4474448895071,321.88657288301874L295.1189112175889,321.64261703520424L296.4474448895071,319.2842009681399L293.95644425466344,310.09146110216716L302.01067964065624,310.0100877347968L302.17674634964897,307.81286286159684L304.9998804024708,310.4169507641436L308.5703146457472,303.6617913429636L307.4908810373163,301.70800276368846L315.2129830053327,304.6386032532537L315.96028319578363,316.76278220071526L317.87005034916547,320.34146146287094L316.45848332275455,306.75484073153075L314.0505160424036,301.70800276368846L315.5451164233109,301.13810636926246Z" class="sc-kAyceB dIJauC Kulgam mapstate" fill="rgb(18, 108, 189)" stroke-width="0.9px" data-darkreader-inline-fill="" style="--darkreader-inline-fill: #0e5697;"></path><path d="M204.7786215272463,344.8844050037669L216.15419109303548,355.11398436762465L222.71382609812463,364.8508821621972L224.62359325150464,365.41870074454255L224.7066266059992,361.1190448137995L230.10379464816288,360.46994841846936L230.43592806614106,357.0617973488952L239.2374636425884,359.3339718049119L240.7320640234957,361.6058513163889L239.81869712405387,365.1753521775563L235.00276256335565,367.0409381358704L237.90892997067385,370.52823999577686L246.12923206565756,372.4743393551171L245.71406529318483,379.36503811694365L249.20146618196486,386.90117478758566L246.5443988381321,389.25049158177626L242.89093124036117,389.0884798193247L242.80789788586662,394.2721155722984L246.46136548363756,398.9684657545249L243.4721647218248,404.87760800139586L250.2808997903976,410.6229541063167L248.86933276398486,419.43963064771106L244.9667651027321,422.35059251982784L238.24106338865204,418.38833192175935L235.99916281729202,420.81431137877644L229.27346110321378,418.87355450408086L230.26986135715197,421.62289707303717L226.9485271773592,423.40165519444145L223.710226352061,420.7334507713067L221.38529242620825,421.94632097630074L221.6343924896919,424.29096703371397L225.3708934419592,426.47363344423684L231.18322825659197,428.7368544076089L234.7536624998702,427.8477664765187L239.65263041506478,430.8381570901447L237.16162978022112,434.39363857147873L239.15443028809568,438.3523105278L240.3999306055175,437.786840222745L238.40713009764113,439.0793172109825L240.5659973145066,440.8563188700564L235.33489598133383,441.4216910567775L233.17602876447017,445.8632726601081L228.2770608492774,446.02476371804823L227.36369394983376,449.3350058479873L231.0171615476047,455.46942875615423L230.10379464816288,459.4233917617039L226.28426034140102,462.56979360825426L221.3022590717119,456.43782776284024L208.93028925198814,456.59922245418875L209.17938931547178,459.3427074517349L195.22978576034438,469.1834860806139L189.91565107267888,468.61899875780455L186.76038360187522,458.1323987488677L187.67375050131886,453.2096252926285L161.18611041747863,444.0867737791914L163.3449776343441,440.3716997573383L160.18971016354044,437.62527395727466L158.3629763646568,431.3230376015199L147.56864028033124,424.21012235430953L144.82853958200212,420.24827934403856L136.94037090499842,418.0648427843971L133.78510343419475,415.55760076122897L133.2038699527311,411.43200726324176L134.44937027015294,406.9817550576845L156.8683759837495,396.5394756784344L157.86477623768587,390.22253078813173L160.85397699950045,387.7113195167085L157.28354275622223,384.06537391962684L156.3701758567786,379.36503811694365L164.75654466075503,374.74451561758997L171.89741314730782,360.7944996246961L168.9912457399896,349.5128133863891L174.8035805546242,347.72655541419044L176.29818093552967,350.4058739220827L178.12491473441696,348.538513487777L181.6123156231988,349.35043384140045L185.3488165754643,344.315919434056L195.97708595079894,342.6103517033798Z" class="sc-kAyceB dIJauC Rajouri mapstate" fill="rgb(18, 108, 189)" stroke-width="0.9px" data-darkreader-inline-fill="" style="--darkreader-inline-fill: #0e5697;"></path><path d="M327.1697860525801,345.2904547987355L327.8340528885419,347.0769617919141L325.92428573515826,353.57181192411826L331.7366205497965,353.57181192411826L340.0399559992766,358.44136702427204L357.8921272156567,379.36503811694365L365.94636260165316,383.0119598043875L364.03659544827315,397.3491763062948L361.0473946864604,399.45422352597234L365.6972625381695,418.63094488140086L361.46256145893494,428.8985019503325L358.72246076060765,430.9997854058438L361.0473946864604,438.6754282986949L362.7910951308513,439.5639717316599L362.3759283583786,445.62103331094295L352.3288924645076,439.0793172109825L343.4443235335639,441.17939090339223L341.2024229622057,438.8369849704104L341.4515230256893,429.0601480137002L338.5453556183711,427.76693808150594L332.73302080373287,429.3026143350935L326.8376526346019,422.67400308678134L322.76901826435824,423.23995731863033L318.61735053962,420.24827934403856L317.87005034916547,422.18888501377387L316.12634990477636,419.27789646028396L308.48728129125266,417.74134771383433L310.48008179912904,411.18929521651353L305.3320138204508,409.8138637990196L306.57751413787264,403.2588622165267L305.1659471114617,396.4585035654236L307.6569477463054,390.46553218842564L312.3068155980127,387.2252371628929L303.754380085049,375.3930834302728L308.32121458226356,370.28496238338084L304.91684704797626,359.8208279527271L308.0721145187799,357.62986862291837L316.12634990477636,359.6585440748413L318.70038389411275,357.46756442654714L313.38624920644725,349.26924350322315L322.10475142840005,339.7673685928021L325.67518567167826,342.69157299128165L323.5163184548128,345.20924559477135Z" class="sc-kAyceB dIJauC Ramban mapstate" fill="rgb(18, 108, 189)" stroke-width="0.9px" data-darkreader-inline-fill="" style="--darkreader-inline-fill: #0e5697;"></path><path d="M261.40736929270133,360.7944996246961L266.3063372078941,361.2813151520777L267.71790423430684,365.41870074454255L283.8263750062961,362.41716540852576L288.0610760855325,359.17168341274464L292.0466771012816,360.38880967667956L295.0358778630962,355.9255994654286L302.84101318560715,357.71102015655833L304.5016802754999,356.4125504507383L306.41144742888355,358.36021887755214L304.9998804024708,362.49829475005026L308.32121458226356,370.28496238338084L303.754380085049,375.3930834302728L312.3068155980127,387.2252371628929L307.6569477463054,390.46553218842564L305.1659471114617,396.4585035654236L306.57751413787264,403.2588622165267L305.3320138204508,409.8138637990196L310.48008179912904,411.18929521651353L308.32121458226356,417.57959795345414L316.12634990477636,419.27789646028396L317.87005034916547,422.18888501377387L315.29601635982544,426.5544677591997L310.7291818626127,429.0601480137002L307.1587476193363,439.16009388667044L316.2924166137618,446.02476371804823L313.88444933341634,449.17354497757424L310.39704844463085,448.12401343747933L306.07931401090354,450.0615615505212L308.7363813547381,454.9045049024644L302.17674634964897,458.2937780154689L303.17314660358534,462.0857681082671L300.5160792597526,467.89320297325685L303.33921331257625,472.65065750604754L296.03227811703255,473.45687946427915L295.617111344558,480.46946778894835L293.6243108366816,479.50237866091175L294.12251096365253,480.95299263305424L291.05027684734523,481.758838163978L287.31377589507974,474.82737284571795L284.7397419057397,474.90798681199885L283.41120823382334,468.13513819791297L280.9202075989797,468.9415651395393L276.93460658322874,461.52105500079233L272.53383879500325,461.4403802322631L267.55183752531593,452.8060586348256L257.83693504942494,447.3973782387111L253.35313390670672,449.17354497757424L247.5407990920703,447.15515987919116L247.45776573757576,449.90010730334507L243.6382314308139,454.4202701248714L240.8981307324866,455.14661733020057L239.15443028809568,453.128912696362L238.24106338865204,459.3427074517349L242.9739645948539,463.4571393982924L235.91612946279747,468.29642651626L235.58399604481747,470.3124068991747L236.24826288077747,462.00509590774345L232.17962851053016,458.7779070033812L235.8330961083011,456.51852529218195L233.5911955369429,455.14661733020057L233.5911955369429,452.4831986905883L229.77166123018287,453.6131827596273L227.36369394983376,449.3350058479873L228.2770608492774,446.02476371804823L234.421529081892,445.1365446677746L235.33489598133383,441.4216910567775L240.5659973145066,440.8563188700564L238.40713009764113,439.0793172109825L240.3999306055175,437.786840222745L239.15443028809568,438.3523105278L237.16162978022112,434.39363857147873L239.65263041506478,430.8381570901447L234.7536624998702,427.8477664765187L231.18322825659197,428.7368544076089L225.3708934419592,426.47363344423684L221.6343924896919,424.29096703371397L221.38529242620825,421.94632097630074L223.710226352061,420.7334507713067L226.9485271773592,423.40165519444145L230.26986135715197,421.62289707303717L229.27346110321378,418.87355450408086L235.99916281729202,420.81431137877644L238.24106338865204,418.38833192175935L244.9667651027321,422.35059251982784L248.86933276398486,419.43963064771106L250.2808997903976,410.7847677094951L243.4721647218248,404.87760800139586L246.46136548363756,398.9684657545249L242.80789788586662,394.2721155722984L242.89093124036117,389.0884798193247L246.5443988381321,389.25049158177626L249.20146618196486,386.90117478758566L245.71406529318483,379.36503811694365L246.12923206565756,372.4743393551171L237.90892997067385,370.52823999577686L235.25186262683928,365.8242741767235L239.48656370607387,365.66204593072507L240.7320640234957,361.6058513163889L239.2374636425884,359.3339718049119L243.05699794935026,355.6009579449501L244.21946491227573,357.3864117637995L248.2050659280285,357.54871671291676L253.519200615694,353.6529822849998Z" class="sc-kAyceB dIJauC Reasi mapstate" fill="rgb(18, 108, 189)" stroke-width="0.9px" data-darkreader-inline-fill="" style="--darkreader-inline-fill: #0e5697;"></path><path d="M381.97180001914967,380.7428531497535L388.0332348972697,382.6878196680773L393.3473695849352,393.46227324468055L404.05867231476805,407.71005508331837L411.3656075103099,410.7847677094951L419.08770947832454,411.2701996035321L437.68718088516107,427.2819599423992L437.85324759415016,431.7270945297578L441.8388486099029,430.91897143282404L447.0699499430757,434.15124210100566L455.4563187470503,434.71682869472716L461.434720270674,438.99854016638255L463.92572090551766,434.23204129384794L465.66942134990677,437.786840222745L467.9113219212704,436.49426876259076L470.817489328585,441.8255172718309L487.3411268730506,434.95921740938593L490.49639434385244,426.79696848380263L489.666060798907,423.9675860944699L494.8141287775834,426.1502924837214L503.200497581558,439.80629401216083L506.9369985338235,441.66398789185223L508.1824988512453,455.0659135550886L501.6228638461562,455.14661733020057L498.63366308434524,457.97101801352073L489.7490941533997,458.0517085647907L489.5830274444088,461.763077105129L485.68045978315604,468.13513819791297L478.20745787862325,472.0056535968597L476.21465737074686,476.0365439478319L463.01235400607584,484.7401492717818L458.11338609088307,478.1322456908847L445.4923162076702,473.3762589146836L437.68718088516107,482.24232795952867L430.96147917108283,481.5170883380815L427.22497821881734,484.4178694505399L419.0046761238318,484.09558379228656L417.1779423249445,486.9959446231669L413.6905414361645,475.1498265168484L402.48103857936803,469.7479554602369L400.15610465350983,470.3124068991747L397.08387053720435,466.2802172161473L392.1018692675134,469.8285924784359L390.0260354051461,467.731910991979L378.4013657758733,467.4093226335426L370.84533051684775,457.1640923035475L370.098030326395,447.4781169555563L362.7910951308513,445.0557952713498L362.7910951308513,439.5639717316599L361.0473946864604,438.6754282986949L358.72246076060765,430.9997854058438L361.46256145893494,428.8985019503325L365.6972625381695,418.63094488140086L361.0473946864604,399.45422352597234L364.03659544827315,397.3491763062948L366.27849601963135,386.1720125825668L372.92116437921686,382.4447106382522L376.82373204047144,383.0929939033731L378.3183324213787,379.28398680492046L380.9753997652133,378.068172195869Z" class="sc-kAyceB dIJauC Doda mapstate" fill="rgb(18, 108, 189)" stroke-width="0.9px" data-darkreader-inline-fill="" style="--darkreader-inline-fill: #0e5697;"></path><path d="M189.91565107267888,468.61899875780455L195.22978576034438,469.1834860806139L201.95548747442444,465.231697874211L209.17938931547178,459.3427074517349L208.93028925198814,456.59922245418875L221.3022590717119,456.43782776284024L227.1145938863483,462.4084532421439L230.60199477513015,458.61653214267426L229.85469458467742,453.6938931502109L233.25906211896472,452.4831986905883L235.8330961083011,456.6799192488734L232.17962851053016,458.7779070033812L236.24826288077747,462.00509590774345L235.75006275380838,470.3124068991747L235.91612946279747,468.29642651626L242.9739645948539,463.4571393982924L238.24106338865204,459.3427074517349L239.15443028809568,453.128912696362L240.8981307324866,455.14661733020057L243.6382314308139,454.4202701248714L247.45776573757576,449.90010730334507L247.5407990920703,447.15515987919116L253.35313390670672,449.17354497757424L257.83693504942494,447.3973782387111L267.55183752531593,452.8060586348256L272.53383879500325,461.4403802322631L276.93460658322874,461.52105500079233L280.9202075989797,468.9415651395393L283.41120823382334,468.13513819791297L284.7397419057397,474.90798681199885L287.31377589507974,474.82737284571795L291.2993769108307,482.00058470439217L294.12251096365253,480.8724060718923L293.6243108366816,479.50237866091175L295.617111344558,480.46946778894835L296.03227811703255,473.45687946427915L297.859011915918,472.32815847868187L303.8374134395435,481.35591996213316L320.6931844019873,494.0031999331113L324.18058529076916,497.4655384672433L323.848451872791,500.76621180478014L328.4983197245001,502.0541137369846L330.1589868143965,506.3196248899567L323.848451872791,509.860029604979L323.848451872791,512.0322031593751L320.94228446547095,511.54952075695564L317.53791693118364,515.8127641504088L311.2273819895818,511.4690724216143L309.4006481906945,514.3649842491786L304.5016802754999,513.6410503033094L302.7579798311108,510.7450210954912L295.20194457208527,517.582113645979L295.617111344558,522.8891116726654L285.4040087416997,529.1589891997073L282.24874127089606,538.8006695341846L284.32457513326335,540.1661548145084L287.9780427310361,534.4625555332505L291.05027684734523,538.2383806566204L288.89140963047976,540.4874303551496L295.0358778630962,541.5315361081657L292.46184387375797,542.4952720796264L294.703744445118,545.8679402657981L290.2199433023943,545.6270564210981L289.9708432389125,547.5540366441473L291.96364374678706,547.9554648151334L289.4726431119434,550.042746598685L286.15130893215064,548.91885579686L285.5700754506852,552.3705823430264L288.39320950351066,554.5376064894081L283.57727494281244,555.2598897819435L280.17290740852695,562.320686158756L271.86957195904506,559.8336765663589L270.5410382871287,563.6041694506439L254.183467451654,564.3260885559912L253.43616726120126,561.037111259142L248.37113263701758,561.1975631323894L250.1148330814067,553.2534755923716L245.21586516621392,550.3638453338281L245.13283181171937,548.7582942239242L247.0425989651012,548.9991360447721L247.0425989651012,545.8679402657981L243.55519807631936,546.9117328940474L242.89093124036117,542.4149627266852L244.71766503924846,540.1661548145084L241.72846427743207,539.603908765218L241.14723079597024,536.8727485116378L244.136431557783,536.3103991459402L243.88733149429754,532.0520382627537L246.5443988381321,531.810968692178L250.86213327186124,527.3907846042903L245.9631653566703,524.4165919432926L243.72126478530845,520.1554003081965L245.46496522969755,514.3649842491786L244.05339820328845,513.8823648780271L252.43976700726307,495.2915905283526L252.43976700726307,491.1039803909798L245.9631653566703,494.5668822812204L244.21946491227573,492.95631397117995L240.48296396001024,497.54604996574653L244.71766503924846,501.97362259073L240.15083054203205,504.3881990039754L241.14723079597024,509.21637187860506L237.6598299071884,507.28525945240926L231.26626161109016,509.9404851893314L228.52616091276104,507.44619346721083L225.95212692342102,510.34275767344934L225.03876002397737,508.97499424877697L220.22282546328097,510.6645691360054L219.80765869080642,506.6415088823269L215.40689090258093,506.48056761180123L211.08915646885362,501.81263920851325L208.34905577052632,501.65165437330234L206.77142203512267,494.96950161273253L203.36705450083537,491.58721641788543L202.95188772836264,480.22770043721175L195.47888582382802,475.7141063641284L188.2549839827825,475.31105115849095L185.3488165754643,472.4087837843599Z" class="sc-kAyceB dIJauC Jammu mapstate" fill="rgb(18, 108, 189)" stroke-width="0.9px" data-darkreader-inline-fill="" style="--darkreader-inline-fill: #0e5697;"></path><path d="M340.7042228352366,569.2985221170229L345.93532416840753,562.2404654116526L346.59959100436754,556.3031366112291L350.08699189314757,556.1426410415788L345.43712404143844,551.166567049233L349.25665834819847,544.4225886843869L355.567193289804,545.3058729308659L360.0509944325222,542.7361979808347L357.72606050666946,536.6317438014248L350.8342920836021,533.5787368649007L350.08699189314757,531.2484604075162L357.9751605701549,526.7477578042926L360.3831278505004,526.6673778298045L360.30009449600766,528.1945356186343L362.2098616493877,525.7831742814615L363.70446203029496,527.4711613299096L365.282095765695,526.0243250365365L363.53839532130405,524.2558106880224L365.1160290567077,525.4616348859254L365.94636260165316,524.0146360958233L365.282095765695,519.9141704170352L368.4373632364968,526.1047078993943L371.92476412527867,523.6126712168934L374.24969805113506,527.3907846042903L376.9067653949696,525.0597025160487L379.72989944779147,526.5869974942916L382.47000014611694,523.0499052118221L382.3039334371315,517.7429549149456L385.62526761692243,506.5610384284746L395.2571367383189,505.19298519528456L396.3365703467516,508.33130461404926L400.239138008008,510.986374799294L400.9034048439644,507.6875917688585L405.96843946814806,504.7905966368944L412.6941411822263,505.19298519528456L418.50647599686454,500.6052175236946L417.0949089704518,495.53315339478013L419.25377618731727,492.0704393347505L417.1779423249445,486.9959446231669L419.0046761238318,484.09558379228656L426.72677809184825,484.57901009075704L431.8748460705265,481.43650433265066L437.35504746718107,482.3229083145443L441.0085150649538,488.68760355105314L451.2216176678139,497.06297551999796L452.3840846307412,502.93949237438756L458.3624861543667,510.4232110827961L452.2180179217521,529.0786200525145L455.4563187470503,527.7122893411024L457.03395248245033,530.6055721596313L460.10618659875763,529.9626608289182L459.0267529903249,533.2573374466247L457.1169858369449,532.9359322614346L454.2938517841212,540.9693328726498L450.7234175408448,542.2543429419502L450.7234175408448,545.3861693424424L448.73061703297026,546.8314433088954L449.89308399589754,549.4808099929105L444.0807491812611,554.8586248711308L442.58614880035566,558.8708708069516L432.9542796789574,566.7322763692819L425.06611100195187,568.9777614078221L425.23217771094096,571.7842238546682L427.6401449912919,573.1472049435488L425.06611100195187,573.0670324407729L423.98667739351913,578.4378014027561L422.15994359463366,577.3156834720139L418.00827586989544,581.403062567575L402.8131719973462,583.9672195620533L396.58567041023707,588.0530915572845L393.18130287594977,592.2181265042373L393.67950300291886,598.3838183287935L392.43400268549703,603.6670233315017L390.85636895009156,604.2272727272721L387.1198679978261,601.1857102185886L388.53143502424064,597.9034503915909L383.46640040005695,595.4213459342727L383.13426698207877,592.6185600030303L385.62526761692243,591.3371415487236L384.7119007174788,590.2959220874855L381.2244998286951,591.7375945842632L381.05843311970966,594.3803619280179L374.91396488709324,596.3021317063103L359.80189436903856,590.2959220874855L358.1412272791422,594.1401263301896L356.5635935437422,590.6163037021315L350.8342920836021,588.3735129820288L351.0003587925894,585.4093976914601L345.6862241049239,585.1690426763917L345.43712404143844,581.6434677747084L343.5273568880584,582.6050565536225L338.047155491402,579.078980283367L337.46592200993837,580.6016887263377L334.72582131160925,579.3194164835368L334.55975460262016,577.2355295176403L341.4515230256893,573.3075488784662Z" class="sc-kAyceB dIJauC Kathua mapstate" fill="rgb(18, 108, 189)" stroke-width="0.9px" data-darkreader-inline-fill="" style="--darkreader-inline-fill: #0e5697;"></path><path d="M336.22042169251654,525.6224053059232L336.8846885284747,528.0337883030725L328.4983197245001,524.9793149586076L326.00731908965645,520.9594764422445L327.91708624303647,520.3966269449238ZM322.76901826435824,423.23995731863033L327.1697860525801,422.8357061477973L332.73302080373287,429.3026143350935L338.5453556183711,427.76693808150594L341.7836564436675,429.3026143350935L341.2024229622057,438.8369849704104L343.4443235335639,441.17939090339223L352.3288924645076,439.0793172109825L358.3072939881331,444.40978683796584L370.01499697189865,447.3973782387111L370.84533051684775,457.1640923035475L378.4013657758733,467.4093226335426L390.0260354051461,467.731910991979L392.1018692675134,469.8285924784359L396.8347704737207,466.1189105795065L400.15610465350983,470.3124068991747L412.6941411822263,474.182447950453L419.08770947832454,491.1039803909798L417.0949089704518,495.53315339478013L418.42344264236635,500.6857148459121L412.6941411822263,505.19298519528456L403.22833876981895,506.15868071673594L400.239138008008,510.986374799294L396.3365703467516,508.33130461404926L395.2571367383189,505.19298519528456L385.62526761692243,506.5610384284746L382.3039334371315,517.7429549149456L382.47000014611694,523.0499052118221L379.72989944779147,526.5869974942916L376.9067653949696,525.0597025160487L374.24969805113506,527.3907846042903L371.92476412527867,523.6126712168934L368.4373632364968,526.1047078993943L365.282095765695,519.9141704170352L365.614229183675,525.2204765474444L363.53839532130405,524.2558106880224L365.19906241120043,526.1850904011808L362.87412848534586,528.0337883030725L362.2098616493877,525.7831742814615L360.30009449600766,528.1945356186343L360.3831278505004,526.6673778298045L357.9751605701549,526.7477578042926L350.336091956633,531.2484604075162L342.53095663412023,528.6767689043172L340.87028954422385,532.9359322614346L334.39368789363107,532.8555800640024L334.9749213750929,530.1233908258155L338.79445568185474,528.0337883030725L338.5453556183711,522.3263229024205L332.73302080373287,519.5121133658286L329.8268533964165,514.7671571000428L322.93508497334733,518.6275560256927L317.62095028568183,516.3757579908715L320.44408433850367,511.95175699817537L323.848451872791,512.0322031593751L323.848451872791,509.860029604979L329.9929201054056,506.6415088823269L328.4983197245001,502.0541137369846L324.0975519362746,501.00770050135634L324.18058529076916,497.4655384672433L307.82301445529447,485.2235580602637L298.4402453973835,473.85997672538724L303.33921331257625,472.65065750604754L300.5160792597526,467.89320297325685L303.17314660358534,462.0857681082671L302.17674634964897,458.2937780154689L308.7363813547381,454.9045049024644L306.07931401090354,450.0615615505212L310.39704844463085,448.12401343747933L313.88444933341634,449.17354497757424L316.2093832592691,446.1862533028634L307.1587476193363,439.240870193451L310.7291818626127,429.0601480137002L315.29601635982544,426.5544677591997L318.61735053962,420.24827934403856Z" class="sc-kAyceB dIJauC Udhampur mapstate" fill="rgb(18, 108, 189)" stroke-width="0.9px" data-darkreader-inline-fill="" style="--darkreader-inline-fill: #0e5697;"></path><path d="M309.4006481906945,514.3649842491786L311.2273819895818,511.4690724216143L315.7111831323,513.0779702854115L317.7870169946691,516.6170356360763L322.93508497334733,518.6275560256927L327.58495282505646,514.8475905839205L330.98932035934376,515.0888888631298L332.64998744924014,519.3512880137605L339.0435557453402,523.1303014393807L338.79445568185474,528.0337883030725L334.9749213750929,530.1233908258155L334.39368789363107,532.8555800640024L340.6211894807402,533.0162840984058L342.53095663412023,528.6767689043172L344.5237571419948,528.8375104460711L349.0905916392112,530.3644831158308L350.8342920836021,533.5787368649007L356.3144934802567,535.3463306023341L359.80189436903856,539.2022936484691L358.88852746959674,544.1816854330509L349.33969170269484,544.3422879600539L345.60319075042753,550.765210677414L350.08699189314757,556.1426410415788L346.59959100436754,556.3031366112291L345.93532416840753,562.2404654116526L340.7042228352366,569.2985221170229L340.6211894807402,574.3497496634227L335.9713216290311,576.27365425465L333.8124544121674,574.1894150060343L328.08315295202374,575.231564771193L324.4296853542546,577.7965997117626L323.59935180930734,574.7505800634608L324.84485212672917,573.9489103440173L320.44408433850367,567.5342674740677L320.44408433850367,564.8073518643332L316.62455003174364,565.7698398594184L306.74358084686355,560.2348304143534L305.24898046595445,566.331267412932L299.60271236031076,569.5390888980601L297.0286783709689,567.6144646188413L293.3752107731998,570.1003988854218L291.96364374678706,565.3688094523923L288.5592762125016,566.8124770881705L281.5014410804415,564.0052391972349L283.57727494281244,555.2598897819435L288.39320950351066,554.5376064894081L285.5700754506852,552.3705823430264L286.15130893215064,548.91885579686L289.6387098209325,549.9624710175794L291.96364374678706,547.9554648151334L289.9708432389125,547.5540366441473L290.2199433023943,545.6270564210981L292.5448772282525,546.7511533645256L294.95284450860163,544.7437879874378L292.46184387375797,542.4952720796264L295.0358778630962,541.5315361081657L288.89140963047976,540.4874303551496L291.05027684734523,538.2383806566204L287.9780427310361,534.4625555332505L284.32457513326335,540.1661548145084L282.24874127089606,538.8006695341846L284.40760848776154,535.5873526010673L284.9058086147288,530.2841193798604L295.617111344558,522.8891116726654L295.20194457208527,517.582113645979L303.25617995807806,510.986374799294L304.5847136299981,513.6410503033094ZM326.00731908965645,520.9594764422445L328.4983197245001,524.9793149586076L336.8846885284747,528.0337883030725L336.22042169251654,525.6224053059232L327.41888611606737,520.316218427607Z" class="sc-kAyceB dIJauC Samba mapstate" fill="rgb(18, 108, 189)" stroke-width="0.9px" data-darkreader-inline-fill="" style="--darkreader-inline-fill: #0e5697;"></path><path d="M187.50768379232977,96.47030554410776L181.4462489142079,104.54286865131053L160.27274351803499,117.71430681459515L156.7023092747586,124.70747741105606L152.135474777544,121.74601552759941L151.6372746505749,116.89139146379239L144.82853958200212,118.45489652150991L138.85013805837661,115.9038403728282L134.44937027015294,117.8788850973333L129.88253577293835,117.13827025827777L123.3229007678492,128.0796248134311L123.3229007678492,132.60218672910105L124.40233437628194,135.15073712705362L127.14243507461106,135.39735077262503L127.88973526506379,139.26049793844777L116.34809899028551,154.12954259841808L114.85349860938004,158.89146579641056L115.60079879983277,165.37539641495187L106.96532993237452,170.70843021187102L101.48512853571629,170.38029158985955L92.60055960477257,179.56579255994166L93.26482644073076,185.30422643042948L98.16379435592535,188.74636347972591L101.15299511773628,186.5336405372209L110.45273082115455,191.28654469617868L111.61519778408365,188.91025750868448L114.1061984189273,189.81164663209893L117.92573272568734,185.9599249416906L119.66943317007645,186.77951276405656L123.1568340588583,189.40193018461014L120.49976671502736,193.41672885159187L121.16403355098373,195.2189855416027L124.07020095830194,194.80939839162147L123.40593412234193,199.47811182686291L124.6514344397674,201.36161872980847L131.62623621732928,202.26235326501137L135.36273716959477,211.92180548671058L134.20027020666748,219.61273723556405L122.24346715941647,228.44488159595676L121.41313361446919,235.31119469183704L117.92573272568734,235.5563695312194L115.93293221781096,243.89023915720463L98.4128944194108,239.88721649881427L82.63655706539794,241.0310321118386L79.81342301257428,244.135291986433L75.16355516086696,244.135291986433L70.18155389117783,238.90674269534975L67.6075199018378,242.25646462227996L65.3656193304796,240.45913379331068L55.06948337312315,226.3190390166892L51.831182547828575,225.5831092346216L47.34738140510672,227.79080415770022L48.09468159556309,212.41281890379287L44.19211393430487,205.9466839807692L45.60368096071579,198.0858215713588L43.77694716183214,196.9391446937907L41.452013235975755,200.54272810254042L41.36897988148121,196.69341824076855L36.47001196628844,188.00882093715973L36.553045320782985,185.22226235045764L32.650477659528406,184.2386627749638L30.823743860641116,180.87760427584544L33.895977976950235,178.4178747753258L35.80574513033025,172.10294905693718L36.137878548308436,161.27192902151455L38.71191253764664,154.3758815816509L37.383378865732084,150.9268118714208L40.455612982037565,140.08233100989855L53.076682865250405,140.0001494884209L58.88901767988318,136.13717025953338L69.18515363723964,137.69890576002217L72.75558788051603,141.725878124892L74.66535503389423,141.3150062221739L76.24298876929788,132.68440399353403L82.30442364741975,123.72038081743358L77.32242237773062,121.2523883404865L77.48848908671971,117.46743639848773L91.35505928735074,96.47030554410776L95.34066030310169,94.49276457191354L103.39489568909812,94.65756847707962L108.21083024979635,90.20729961353481L111.11699765711455,91.44360281766603L116.8462991172546,89.30061983937321L119.66943317007645,90.86667256494366L122.65863393189284,86.91004925792004L127.47456849258924,85.26118297272569L129.21826893698017,80.39609019362342L138.60103799489116,77.83929358126716L140.92597192074754,68.76366431567294L145.9910065449294,65.04949974694046L143.66607261907484,53.984694830259286L151.72030800507127,48.69744642607657L144.66247287301303,42.747306033031236L149.5614407882058,32.6603153501228L156.12107579329677,30.427130060030322L161.10307706298408,34.89320381662856L171.15011295685508,34.89320381662856L171.89741314730782,38.779376151350334L175.71694745406785,38.779376151350334L176.29818093552967,44.89621058145622L178.95524827936424,45.392072652536626L183.77118284006428,43.40853667110241L185.59791663894794,40.267459582711126L197.72078639518804,40.76345812833097L206.10715519916448,29.35178678826196L213.33105704021364,28.772727272726115L220.55495888125915,33.073835603655425L224.54055989701192,40.432794056860075L223.8762930610519,46.13583835976715L232.67782863750108,50.597742453363026L230.0207612936665,59.60057826760203L230.8510948386138,70.99177065782806L229.35649445770832,78.74658828515021L223.0459595161028,82.04543109072802L218.81125843686823,80.64350159110381L210.7570230508718,82.95249997615338L203.36705450083537,93.83353290394552L200.3778537390226,92.9270474310988Z" class="sc-kAyceB dIJauC Muzaffarabad mapstate" fill="rgb(18, 108, 189)" stroke-width="0.9px" data-darkreader-inline-fill="" style="--darkreader-inline-fill: #0e5697;"></path><path d="M88.36585852553799,341.06707545281097L90.60775909689801,338.95500266603267L90.19259232442528,332.6985180744987L94.51032675815259,335.05511979167204L102.31546208066538,333.8362276172793L107.96173018631089,339.6861337012906L120.16763329704736,337.33015737966434L125.64783469370377,333.8362276172793L130.6298359633911,337.33015737966434L136.19307071454205,337.0051701690554L140.09563837579844,340.25477000393494L141.17507198423118,344.8844050037669L144.57943951851848,348.3761248908968L159.69151003657134,349.5128133863891L158.52904307364406,350.4870589811944L160.18971016354044,356.8183325853961L158.03084294667497,366.6353928714534L161.43521048096227,375.5552216360102L156.3701758567786,379.36503811694365L157.28354275622223,384.06537391962684L160.85397699950045,387.7113195167085L157.86477623768587,390.22253078813173L157.78174288319133,394.6770227482266L155.7059090208204,397.4301443190179L134.44937027015294,406.9817550576845L133.78510343419475,415.55760076122897L138.35193793140752,419.0352923987639L144.82853958200212,420.24827934403856L147.56864028033124,424.21012235430953L158.3629763646568,431.3230376015199L160.18971016354044,437.62527395727466L163.3449776343441,440.3716997573383L161.18611041747863,444.0867737791914L187.67375050131886,453.2096252926285L186.76038360187522,458.1323987488677L189.91565107267888,468.61899875780455L185.3488165754643,472.4087837843599L188.2549839827825,475.31105115849095L195.47888582382802,475.7141063641284L202.95188772836264,480.22770043721175L203.36705450083537,491.58721641788543L206.77142203512267,494.96950161273253L209.42848937895542,502.7785177089236L202.038520828919,503.01997916239543L198.21898652215896,508.009451092993L193.23698525246982,506.88291806702546L185.59791663894794,501.0881960068964L184.3524163215261,494.888978474185L170.1537127029187,490.4596452923379L167.66271206807141,485.38469140508914L163.51104434333138,482.8869605800155L143.58303926457847,477.6486441391571L141.67327211120028,472.9731506794242L131.54320286283473,472.32815847868187L133.0378032437402,467.4093226335426L128.22186868304198,465.55432580724573L126.47816823865105,462.00509590774345L104.80646271550904,457.89032709504863L101.23602847223265,464.90906407646435L97.49952751996716,466.2802172161473L96.33706055703988,464.50576358132L97.91469429243989,459.7461253309557L90.275625678918,451.5145835570029L88.86405865250708,446.02476371804823L80.97588997550156,441.5832226488501L70.76278737264329,441.34092470769247L70.51368730915783,431.2422251070475L75.57872193333787,425.3419141751856L75.82782199682333,417.49872251696434L73.00468794400149,413.7780514011529L70.92885408162874,415.96201874867256L70.34762060016692,411.75561812556225L67.02628642037416,408.76199084758446L65.78078610295233,402.44943350137237L66.77718635689052,399.9399678865648L63.04068540462504,393.62424469454163L64.5352857855305,391.51849943092657L60.30058470629592,390.38453209501677L61.21395160573957,387.63030672511286L59.05508438887409,385.199749217084L60.13451799730501,379.9323868193378L64.61831914002687,374.3391485542952L63.12371875911958,372.8797495309909L64.03708565856141,370.04168139420744L70.26458724567237,367.2031536131144L68.27178673779963,362.5794237156606L66.36201958441598,362.9850629052762L65.5316860394687,358.5225147947067L67.69055325633417,358.44136702427204L67.2753864838578,354.5458313922927L71.6761542720833,351.8671473081731L69.268186991736,349.67519142293804L69.60032040971419,343.58498222906746L66.19595287542688,339.7673685928021L66.69415300239598,336.8426742941947L64.28618572204687,337.4926487155317L59.55328451584319,334.08001286538183L60.88181818775956,330.09776039053577L59.88541793382137,323.0249883294473L65.69775274845779,314.8104651781032L73.4198547164724,327.82177914660224L83.88205738281977,333.8362276172793Z" class="sc-kAyceB dIJauC Mirpur mapstate" fill="rgb(18, 108, 189)" stroke-width="0.9px" data-darkreader-inline-fill="" style="--darkreader-inline-fill: #0e5697;"></path></svg>