<svg xmlns="http://www.w3.org/2000/svg"  xmlns:xlink="http://www.w3.org/1999/xlink"  id="map" width="695" height="695"><defs><filter id="sofGlow" height="300%" width="300%" x="-75%" y="-75%"><feMorphology operator="dilate" radius="4" in="SourceAlpha" result="thicken"></feMorphology><feGaussianBlur in="thicken" stdDeviation="10" result="blurred"></feGaussianBlur><feFlood flood-color="rgb(0,186,255)" result="glowColor"></feFlood><feComposite in="glowColor" in2="blurred" operator="in" result="softGlow_colored"></feComposite><feMerge><feMergeNode in="softGlow_colored"></feMergeNode><feMergeNode in="SourceGraphic"></feMergeNode></feMerge></filter></defs><path d="M247.4370806867555,102.96791592963655L244.33947191836887,102.91517365356435L237.89035202352898,106.2377907973937L231.49201260030168,105.86862578322507L229.91781798030206,107.13431914939656L230.17172033836687,110.9838719959464L225.04289270546178,113.04031951886873L222.35152770997774,112.671221897544L218.28908998094448,116.99470808032743L214.22665225191122,117.1528749249785L217.37504149191227,124.11155524711671L216.20709064481707,125.69289359988079L216.66411488933227,127.85394850030275L216.20709064481707,130.27839906228314L216.10552970159006,130.38380641868525L214.63289602481746,129.48783449576104L213.10948187642862,131.22705466460798L207.77753235707132,115.30755345986836L196.04724341448855,89.04134609712582L192.34026898674892,84.87290359546114L186.7036366377124,73.15651678663858L184.266174000295,65.50189267498399L184.0122716422302,66.34661985229445L181.77793089126135,60.38031353985184L183.9614911706176,58.42653093187619L182.23495513577654,58.1096913883589L181.93027230610096,59.79947025646561L180.91466287384173,57.264772380600334L183.40290598287538,54.04333758326561L180.35607768610134,57.52881168940712L174.82100628029184,43.95468902368111L177.3092493893255,45.803605844130516L175.37959146803587,43.37358122934393L174.46554297900184,43.6905502827251L172.0280803415826,37.77333279536742L172.23120222803482,36.71658398141153L174.05929920609924,37.40347425961295L181.01622381706875,33.65183584582337L185.332563904165,33.704678557485295L185.9419295635198,34.23310137508906L187.26222182545644,33.75752119097592L187.92236795642384,33.546150187975854L188.53173361578047,33.28193467518395L188.73485550223086,31.74944614294509L188.83641644545605,31.59090909090901L190.05514776416567,32.85918578864448L190.6645134235223,32.172208171646616L190.76607436674567,32.172208171646616L191.5785619125545,35.50128425824482L187.87158748481124,39.622568175424476L191.8324642706175,41.10188777198937L190.41061106545567,42.84529325600306L197.21519426158557,42.31699750838061L197.8245599209422,45.803605844130516L195.74256058481296,46.912910298346105L196.70738954545777,49.76525047818768L199.855778785457,50.134981742126L202.03933906481143,48.761675065506324L202.03933906481143,44.27165294906058L204.8322650035243,45.328179174237675L205.6955330209439,47.75807168773463L208.64080037449276,48.65603392189769L211.3321653699768,47.546783201086555L210.97670206868497,48.761675065506324L212.3985552738468,49.07859663723525L209.25016603384756,52.88143816896127L212.5001162170738,56.2085958753878L218.08596809449227,55.099577345693206L217.6289438499789,57.31758039648821L219.1523579983641,58.954590676940825L217.93362667965448,60.74993623754176L219.0507970551389,60.27470636253656L220.67577214675293,63.65398352170655L223.06245431255775,63.65398352170655L227.98816005901244,56.789496769282096L228.69908666159245,56.73668798260701L233.21854863514272,60.433117013124956L235.14820655643234,60.27470636253656L233.67557287965792,62.861993673921006L230.22250080997946,61.43636839345254L229.41001326417427,63.28439040943658L227.78503817255842,63.3899888254075L227.48035534288283,66.29382497863844L228.90220854804465,69.8837019185712L232.0505977880439,70.09486012999355L232.2537196744961,72.83980559906831L236.11303551707715,73.36765605182586L236.67162070481936,78.3818550817216L239.9215708880456,78.2235224646895L241.59732645127406,76.58737864487648L240.98796079191743,74.47611716511778L242.96839918481965,72.99816153634902L247.64020257320954,73.36765605182586L248.24956823256252,75.10950841404156L248.55425106224175,77.16795418102652L244.54259380482108,80.17624356944157L240.78483890546522,79.27906031316957L240.7340584338508,79.27906031316957L240.7340584338508,85.71718326740915L242.56215541191705,88.51372124892532L248.40190964740032,91.2572879514205L246.87849549901512,94.89747488968078L249.82376285256214,100.33071028046174L249.62064096611357,100.54169363356846Z" class="sc-kAyceB dIJauC Kasaragod mapstate" fill="rgb(18, 108, 189)" stroke-width="0.9px"></path><path d="M319.44378943386437,152.19681517810864L319.4945699054788,152.09146839443383L328.6350547958027,153.51362546190694L337.87710062935184,148.50950470937755L343.86919627967654,146.71839664804475L343.71685486483693,146.87643898313968L343.76763533644953,163.83584902410257L344.73246429709616,164.94163692577763L349.70895051516163,162.1507777327804L354.4315343751605,161.9927985106724L356.81821654096893,163.3619301900767L357.12289937064634,168.20615874669807L359.0525572919378,170.89128398912794L362.0486051170992,171.62834451850654L366.8219694487125,170.31215513208417L370.63050481968276,174.20794567243524L372.10313849645536,178.89290401521544L375.8608933958094,180.4193412061013L376.77494188484343,180.73514830451313L385.25528064419996,177.8927919162013L384.79825639968294,180.10353153940036L384.79825639968294,180.15616666222581L384.79825639968294,180.15616666222581L387.134158093877,182.4720414610381L383.83342743903813,184.5772624875176L383.93498838226515,184.94566445868622L385.66152441710256,190.05030477833748L385.66152441710256,190.1029264585286L385.71230488871515,190.1029264585286L389.4192793164566,193.57580072040628L387.7943042248444,195.83826511279312L381.7006476312963,196.04872027459578L380.3295748977471,199.94193712264791L375.3023082080708,201.99361234624735L375.2515277364564,201.99361234624735L374.489820662262,200.83627025576016L369.8687977454865,204.25559178430058L369.0055297280687,201.62537083001416L366.66962803387287,200.09976209563297L360.5251909687104,204.62380869782442L360.3728495538726,204.7290128982031L360.9314347416148,205.72843879575908L362.7087512480666,210.51481190458662L360.4744104970996,210.4096231236963L360.4744104970996,210.4096231236963L360.4744104970996,210.4096231236963L359.10333776354855,213.0918496776951L354.8885586196775,214.51177841521417L354.5330953183875,214.61695629781866L354.4823148467749,215.037665037868L353.8221687158075,218.1402542270141L347.8808535370972,221.24260113266268L345.18948854161135,218.1402542270141L340.1622218519333,216.1945910610384L340.6700265680611,212.98666774660842L338.94349053322367,211.35631208011569L338.94349053322367,211.35631208011569L333.2560777125782,213.98588481568345L324.47105612354244,207.88500838850496L321.475008298381,202.8878988225315L315.63525406289773,200.25758643471931L313.9594984996711,194.31243138382456L314.4165227441881,189.62932878433003L316.49852208031734,187.57700579597258L307.5611590764438,185.84034045075373L302.0260876706361,180.208801713698L299.5378445616043,180.15616666222581L300.5534539938617,178.78763027171658L298.3191132428947,177.73487712182282L299.7917469196691,173.5235784656652L296.79569909450584,171.7862842307179L300.0964297493465,169.5750694743556L300.2995516357987,169.5224199600616L300.2487711641843,169.5224199600616L299.2331617319287,166.31066363674927L301.8229657841839,164.20444852352125L318.12349717192956,166.100047311553L318.68208235967177,163.94116352729793L315.93993689257513,161.62417779886732L319.3930089622536,159.35971576839938L318.42818000160696,155.88376967491763L318.07271670031696,154.6197110395342L319.08832613257437,152.88156218976314L319.8500332067688,152.24948846097482Z" class="sc-kAyceB dIJauC Wayanad mapstate" fill="rgb(18, 108, 189)" stroke-width="0.9px"></path><path d="M299.7917469196691,173.5235784656652L298.3191132428947,177.73487712182282L300.5534539938617,178.78763027171658L299.5378445616043,180.15616666222581L302.0260876706361,180.208801713698L307.5611590764438,185.84034045075373L316.49852208031734,187.57700579597258L314.4165227441881,189.62932878433003L313.9594984996711,194.31243138382456L315.63525406289773,200.25758643471931L321.475008298381,202.8878988225315L324.47105612354244,207.88500838850496L333.2560777125782,213.98588481568345L338.94349053322367,211.35631208011569L338.94349053322367,211.35631208011569L340.6700265680611,212.98666774660842L340.1622218519333,216.1945910610384L345.18948854161135,218.1402542270141L347.8808535370972,221.24260113266268L347.8808535370972,221.24260113266268L347.8300730654828,225.71165900272604L346.3066589170976,224.66016104412347L344.42778146741693,227.28885400673175L342.7012454325777,227.07856493835288L341.9903188299995,230.23278481085663L340.8731484545133,235.17389639265275L340.9239289261277,235.17389639265275L344.37700099580434,237.32887151017098L343.91997675128914,240.42973058594384L339.70519760741627,241.48081505533514L334.4240285596734,247.52401939602555L330.05690800096454,247.1036518260396L327.3147625338661,248.68000769441414L324.67417800999465,246.94601286090187L316.90476585321994,251.51729362859737L314.4673032158007,250.67663702441837L314.0102789712837,252.41047217780147L308.3736466222508,255.87792032825337L309.1353536964434,258.1893881463486L312.2837429364463,258.7147034383893L312.7407671809615,260.5007247781441L309.54159746934783,260.605782420429L307.8150614345086,263.1796101739933L308.7291099235408,264.8603897382743L306.8502324738638,264.65029607187466L304.20964794999236,267.38142959443576L301.2136001248309,262.6018262312705L301.8737462557983,261.7088713304595L293.4949684396688,239.8516224366922L291.8699933480548,238.90560937645932L291.2098472170874,234.54315009126162L286.5380438286993,224.81788750463193L281.86624044031123,219.56000234043472L277.70224176805095,219.6125846300929L275.51868148869835,217.50923878153185L264.29619726224337,186.99812594418722L266.5813184848248,185.78771302006658L268.81565923579365,189.73457320827833L273.0812188512755,188.10325275046512L271.35468281643807,184.47200414116082L282.12014279837604,177.9980680884919L285.6239953396671,172.26009949363333L289.07706740934555,172.5759731081314L290.80360344418295,174.94494297285473L294.1551145706344,174.365874847025L293.1902856099914,172.3127452753322L295.8816506054736,171.68099116098915Z" class="sc-kAyceB dIJauC Kozhikode mapstate" fill="rgb(18, 108, 189)" stroke-width="0.9px"></path><path d="M347.8808535370972,221.24260113266268L353.8221687158075,218.1402542270141L354.4823148467749,215.037665037868L354.5330953183875,214.61695629781866L354.8885586196775,214.51177841521417L359.10333776354855,213.0918496776951L360.4744104970996,210.4096231236963L360.4744104970996,210.4096231236963L360.4744104970996,210.4096231236963L362.86109266290623,213.98588481568345L362.3025074751622,218.82384298281045L367.4313351080691,216.72045537396116L368.85318831323093,219.1393415196635L373.16952840032536,220.7693774147665L375.4038691512942,218.87642624619866L383.0717203648437,223.24059482454163L385.91542677516736,222.50450354612076L385.50918300226476,225.08076355295884L391.70440053903985,229.91737401756404L399.57537363903975,232.38802540036386L398.25508137710494,234.8059622547612L403.73937231130003,234.17521017071613L404.0440551409756,238.06469020701547L402.2667386345256,240.4822854607305L403.4346894816208,242.3742153013809L400.8448854293638,244.0558561975538L400.13395882678196,246.57818621909428L390.6887911067806,250.9393440856802L390.1302059190384,255.72031546740823L389.216157430008,256.2981969711807L383.98576885387774,255.14242575078606L383.6810860241967,258.24191998044057L385.25528064419996,260.605782420429L384.54435404161995,267.95914603329425L381.3959648016171,268.95700069966233L381.7514281029071,270.74257476820185L375.6577715093572,272.21298920875597L373.6265526448442,274.2084675068504L373.8804550029072,276.93896520209023L368.8024078416165,277.51654729070606L367.3805546364547,279.6167776049558L367.3805546364547,279.66928199318545L367.9899202958095,281.6118974333913L371.1890900074213,280.4568398046756L373.423430758392,281.19188021339846L372.9156260422624,283.92191588464084L374.2866987758098,284.81438847911886L379.36474593710227,285.12937421457264L377.94289273194227,288.33159333249546L373.4742112300046,287.54418532433874L372.40782132613276,293.68557210699123L374.134357360972,295.5750472605971L374.0327964177468,298.04173323107125L368.9547492564561,295.8899514608747L365.19699435709845,296.5722357400996L363.013434077744,300.6657073500792L360.32206908226,300.71818515311725L357.93538691645335,296.67720156208816L356.5643141829023,298.98638288820393L354.8377781480649,299.14382242168176L354.1268515454849,297.3069909507319L352.1971936241953,297.93677083956777L351.58782796483865,296.62471868409625L348.9980239125798,300.0884471721902L346.2050979738724,299.2487817812305L346.2558784454832,301.7677273958959L344.12309863773953,301.24295956405786L343.61529392161174,303.44694027410446L342.4981235461273,302.6598176177572L341.5332945854843,306.7526941236538L339.2481733629029,307.172453764583L337.47085685644925,307.32986254877983L334.2716871448356,305.9656334903882L334.2209066732248,306.0705757604612L331.93578545064156,309.69092359380943L335.0841746906426,312.6814108120361L333.5607605422538,317.2978871018604L333.8146629003186,318.13719225102204L334.4240285596734,320.2353823229648L334.6271504461256,320.7599136038916L334.7794918609634,320.7599136038916L334.9318332758048,320.96972429891616L337.31851544161145,321.3893425743606L337.62319827128886,322.1236645668839L337.72475921451405,322.4908207971257L337.67397874289964,322.4908207971257L337.52163732806184,322.70062293114074L337.42007638483665,323.4349222348869L337.16617402677184,323.2775734531524L335.2872965770948,326.10976237713476L331.58032214935156,326.8964480468469L329.85378611451233,328.05022739740957L325.8421288570935,328.57466222432913L325.4866655558035,328.1026711706186L322.287495844188,328.78443434772475L315.78759547773734,313.6257311192451L304.20964794999236,267.38142959443576L306.8502324738638,264.65029607187466L308.7291099235408,264.8603897382743L307.8150614345086,263.1796101739933L309.54159746934783,260.605782420429L312.7407671809615,260.5007247781441L312.2837429364463,258.7147034383893L309.1353536964434,258.1893881463486L308.3736466222508,255.87792032825337L314.0102789712837,252.41047217780147L314.4673032158007,250.67663702441837L316.90476585321994,251.51729362859737L324.67417800999465,246.94601286090187L327.3147625338661,248.68000769441414L330.05690800096454,247.1036518260396L334.4240285596734,247.52401939602555L339.70519760741627,241.48081505533514L343.91997675128914,240.42973058594384L344.37700099580434,237.32887151017098L340.9239289261277,235.17389639265275L340.8731484545133,235.17389639265275L341.9903188299995,230.23278481085663L342.7012454325777,227.07856493835288L344.42778146741693,227.28885400673175L346.3066589170976,224.66016104412347L347.8300730654828,225.71165900272604L347.8808535370972,221.24260113266268Z" class="sc-kAyceB dIJauC Malappuram mapstate" fill="rgb(18, 108, 189)" stroke-width="0.9px"></path><path d="M337.72475921451405,322.4908207971257L337.62319827128886,322.1236645668839L337.31851544161145,321.3893425743606L334.9318332758048,320.96972429891616L334.7794918609634,320.7599136038916L334.6271504461256,320.7599136038916L334.4240285596734,320.2353823229648L333.8146629003186,318.13719225102204L333.5607605422538,317.2978871018604L335.0841746906426,312.6814108120361L331.93578545064156,309.69092359380943L334.2209066732248,306.0705757604612L334.2716871448356,305.9656334903882L337.47085685644925,307.32986254877983L339.2481733629029,307.172453764583L341.5332945854843,306.7526941236538L342.4981235461273,302.6598176177572L343.61529392161174,303.44694027410446L344.12309863773953,301.24295956405786L346.2558784454832,301.7677273958959L346.2050979738724,299.2487817812305L348.9980239125798,300.0884471721902L351.58782796483865,296.62471868409625L352.1971936241953,297.93677083956777L354.1268515454849,297.3069909507319L354.8377781480649,299.14382242168176L356.5643141829023,298.98638288820393L357.93538691645335,296.67720156208816L360.32206908226,300.71818515311725L363.013434077744,300.6657073500792L365.19699435709845,296.5722357400996L368.9547492564561,295.8899514608747L374.0327964177468,298.04173323107125L374.134357360972,295.5750472605971L372.40782132613276,293.68557210699123L373.4742112300046,287.54418532433874L377.94289273194227,288.33159333249546L379.36474593710227,285.12937421457264L374.2866987758098,284.81438847911886L372.9156260422624,283.92191588464084L373.423430758392,281.19188021339846L371.1890900074213,280.4568398046756L367.9899202958095,281.6118974333913L367.3805546364547,279.66928199318545L367.3805546364547,279.6167776049558L368.8024078416165,277.51654729070606L373.8804550029072,276.93896520209023L373.6265526448442,274.2084675068504L375.6577715093572,272.21298920875597L381.7514281029071,270.74257476820185L381.3959648016171,268.95700069966233L384.54435404161995,267.95914603329425L385.25528064419996,260.605782420429L383.6810860241967,258.24191998044057L383.98576885387774,255.14242575078606L389.216157430008,256.2981969711807L390.4856692203284,256.560867667863L391.39971770936063,258.24191998044057L393.4817170454917,257.1912704211843L393.32937563065207,255.24749721937224L396.63010628549273,254.93228199878217L397.0363500583953,254.8797458910101L401.8097143900086,258.5045781345573L414.9110760661406,257.29633659732303L423.4929757687223,251.56983408768178L424.35624378614193,250.99188529364142L424.91482897388596,251.25459031211517L425.67653604807674,251.09696750528906L425.67653604807674,250.9393440856802L429.6374128338848,254.30184422270668L428.6725838732382,257.7165985899719L424.0515609564627,261.183594616489L425.52419463323895,264.7028195896655L426.38746265065856,263.38971139974296L429.0788276461408,266.1209290769532L431.3639488687222,265.59570907226635L430.7038027377548,270.21741399108714L432.27799735775443,273.52581477715853L430.7545832093674,274.3134899981849L431.16082698227365,276.62391701466527L435.5279475409825,278.6716871951526L438.62555630937095,277.0439807293226L437.40682499066133,279.3542546620672L433.9029724493703,280.5093431247535L427.09838925323857,278.9342144801403L426.89526736678636,278.9342144801403L424.71170708743193,280.8768644967445L419.78600134097906,290.79870841136176L418.61805049388204,293.1607026910758L419.22741615323685,293.73805868479485L420.4969279435609,295.0502016425469L421.5125373758183,296.09988627364737L430.3483394364648,299.9310111956356L435.9849717854977,299.87853240508457L442.4340916803376,302.50239131213607L445.93794422162864,307.11998403881285L445.43013950550085,310.00572172136776L445.43013950550085,310.1631199023366L452.43784458808113,311.57967705837586L452.59018600292075,312.20924272913544L453.25033213388815,315.19955134225756L450.8636499680815,321.80895669801725L450.7113085532437,322.17611565141556L450.7113085532437,322.17611565141556L450.6605280816293,322.28101762596975L451.2191132693715,324.0643115324144L450.8636499680815,324.48389921719627L448.01994355775787,328.3124456178216L447.61369978485527,328.88932002220554L448.3246263874353,329.4137445231968L449.8480405358241,335.2868587842779L440.50443375904797,335.8636389946223L439.94584857130576,337.43663645070797L440.91067753195057,340.3727439679499L443.8559448854994,341.3164501640081L443.3989206409842,348.550843518934L444.4653105448542,349.6516230705531L440.7583361171128,365.58358754499454L443.0942378113068,367.7842559584424L441.7231650777576,369.5656683407133L445.22701761904864,373.3902208382956L443.195798754532,377.3715928281356L442.9926768680798,377.7906636569701L440.65677517388576,376.06197077307866L439.03180008227173,377.7906636569701L432.12565594291664,377.84304723016885L433.49672867646404,374.2808221986795L426.69214548033415,372.6043811073773L422.9343905809801,374.0188824966001L419.37975756807464,370.8754841547154L418.41492860742983,372.080480136166L414.1493689919462,371.7661365504289L409.3252241887203,363.90681338358536L405.16122551646185,364.01161365597295L400.33708071323235,359.1905402779844L393.5324975171043,356.72739445066736L389.0130355435558,351.48619335435797L387.6927432816192,349.6516230705531L388.7083527138766,346.92583193232804L383.5287446093589,341.4213051284805L385.10293922936035,341.5261598371169L387.2864995087166,338.799854215966L385.76308536032957,337.0696088766433L386.62635337774736,333.8710925798259L390.3333278054906,331.77357498599144L388.9114746003288,327.3684524691241L391.0950348796832,326.8964480468469L394.04030223323207,322.5432714278563L392.87235138613505,319.55348195121724L382.8178180067789,320.34028909846757L380.7358186706497,317.2454299771455L378.45069744807006,317.97982380373855L376.9272832996812,320.81236637499205L367.9391398241969,318.9240257110257L362.86109266290623,320.28783574317663L361.7947027590344,316.6683973107363L354.4315343751605,315.304470604814L356.51353371129153,317.1929727873678L356.2088508816123,319.55348195121724L354.6346562616127,319.7108445496051L351.89251079451606,324.85103504297876L350.97846230548566,325.58529718242335L350.77534041903345,325.7426374198719L350.62299900419566,325.8999770752612L349.8612919299994,324.27410589272677L349.8612919299994,324.22165739976435L349.40426768548423,325.1132729770743L346.509780803548,323.59227043361784L345.08792759838616,325.2706149610881L341.4825141138699,322.7530733026076L337.77553968612665,322.5957219937675Z" class="sc-kAyceB dIJauC Palakkad mapstate" fill="rgb(18, 108, 189)" stroke-width="0.9px"></path><path d="M322.287495844188,328.78443434772475L325.4866655558035,328.1026711706186L325.8421288570935,328.57466222432913L329.85378611451233,328.05022739740957L331.58032214935156,326.8964480468469L335.2872965770948,326.10976237713476L337.16617402677184,323.2775734531524L337.42007638483665,323.4349222348869L337.52163732806184,322.70062293114074L337.67397874289964,322.4908207971257L337.72475921451405,322.4908207971257L337.77553968612665,322.5957219937675L341.4825141138699,322.7530733026076L345.08792759838616,325.2706149610881L346.509780803548,323.59227043361784L349.40426768548423,325.1132729770743L349.8612919299994,324.22165739976435L349.8612919299994,324.27410589272677L350.62299900419566,325.8999770752612L350.77534041903345,325.7426374198719L350.97846230548566,325.58529718242335L351.89251079451606,324.85103504297876L354.6346562616127,319.7108445496051L356.2088508816123,319.55348195121724L356.51353371129153,317.1929727873678L354.4315343751605,315.304470604814L361.7947027590344,316.6683973107363L362.86109266290623,320.28783574317663L367.9391398241969,318.9240257110257L376.9272832996812,320.81236637499205L378.45069744807006,317.97982380373855L380.7358186706497,317.2454299771455L382.8178180067789,320.34028909846757L392.87235138613505,319.55348195121724L394.04030223323207,322.5432714278563L391.0950348796832,326.8964480468469L388.9114746003288,327.3684524691241L390.3333278054906,331.77357498599144L386.62635337774736,333.8710925798259L385.76308536032957,337.0696088766433L387.2864995087166,338.799854215966L385.10293922936035,341.5261598371169L383.5287446093589,341.4213051284805L388.7083527138766,346.92583193232804L387.6927432816192,349.6516230705531L389.0130355435558,351.48619335435797L393.5324975171043,356.72739445066736L400.33708071323235,359.1905402779844L405.16122551646185,364.01161365597295L409.3252241887203,363.90681338358536L414.1493689919462,371.7661365504289L418.41492860742983,372.080480136166L419.37975756807464,370.8754841547154L422.9343905809801,374.0188824966001L426.69214548033415,372.6043811073773L433.49672867646404,374.2808221986795L432.12565594291664,377.84304723016885L439.03180008227173,377.7906636569701L440.65677517388576,376.06197077307866L442.9926768680798,377.7906636569701L443.195798754532,377.3715928281356L443.6528229990472,377.6335125635237L443.3989206409842,378.99547008173477L442.4340916803376,381.82401666436476L442.6879940384024,382.1382884288528L445.22701761904864,385.0190088128661L448.6293092171145,383.18584483153154L448.6293092171145,386.2759916556222L451.1683327977589,388.5279967385427L449.0355529900171,387.53293883129163L446.80121223904825,386.53785859075947L444.0590667719498,385.2808831813504L443.3989206409842,385.7522531408972L439.79350715646615,384.91425863163386L439.23492196872394,385.1237587461801L438.98101961066095,385.0190088128661L434.1568748074351,387.3234501108359L431.2116074538844,385.9617492900038L424.1023414280771,387.8995417103795L419.43053803968905,385.6475046946812L413.84468616226695,386.5902317920479L407.7510295687189,382.5049359948066L407.7510295687189,382.55731397012187L406.27839589194446,383.76199027020016L407.2940053242037,385.0190088128661L404.6534208003304,385.2808831813504L385.45840253065217,383.76199027020016L382.1576718758115,389.20881297343954L374.9468449067808,392.61273761681787L373.778894059682,395.64986588879947L371.03674859258354,396.1734877723286L371.1890900074213,399.4198063329204L369.7164563306487,399.0009397771414L369.3102125577461,399.78631134954026L365.9587014312947,400.4145986748599L364.1306044532266,396.8018259182604L364.02904351000143,396.6447422114477L358.49397210419556,395.96403975673206L357.6814845583867,397.79667655536105L350.67377947580644,399.1580151955841L342.0410993016121,371.39939951963606ZM452.13316175840555,389.3659229291327L452.38706411647036,389.62777161968165L452.28550317324334,389.5754020051211Z" class="sc-kAyceB dIJauC Thrissur mapstate" fill="rgb(18, 108, 189)" stroke-width="0.9px"></path><path d="M472.85159417647264,388.3185127184777L473.10549653453563,387.53293883129163L473.41017936421486,386.7473510244729L472.14066757389264,385.07138381051027L479.09759218486033,381.30022542005327L479.30071407131254,381.6145009122604L484.4803221758302,378.3668795358069L491.0310030138935,374.7523097272631L498.5465128126052,375.4333383394212L497.4801229087352,380.5145269001664L502.4566091268007,387.8995417103795L501.84724346744406,392.61273761681787L505.35109600873693,392.3509065131698L505.8589007248647,392.3509065131698L506.82372968551135,394.2884202049647L503.9800232751895,398.94858118163756L503.0151943145411,407.5869211766858L502.9644138429285,407.74396651048255L499.25743941518704,406.6446376508011L494.687196970026,408.2674469950946L494.6364164984134,408.3197947084245L494.23017272550715,412.50741458369066L502.5073895984133,420.7768230667857L501.23787780809107,423.13175824001246L502.6597310132511,424.28301545963086L503.7261209171229,429.88189691449134L500.12070743260483,431.6085161291071L496.210611118413,438.20046322475696L496.566074419703,440.97298350795495L495.398123572606,442.0191741606825L498.8511956422826,445.57604476402184L496.8707572493786,446.5175234525775L496.7184158345408,449.655647300591L499.35900035841223,450.59704297381904L500.12070743260483,453.107337994059L496.8199767777678,454.5193192885722L498.1910495113152,457.1862780762874L496.4645134764778,460.58512187400834L496.9723181926056,462.6243093424707L494.17939225389455,463.7745809780222L494.6364164984134,467.5911889695767L491.0310030138935,472.76664103526196L490.5739787693801,474.073483360208L489.2029060358291,479.0914215953087L489.4568083938939,479.1959563102921L494.89031885647637,478.9868866493955L498.3941713977674,483.42941842637447L503.3198771442185,484.63144373947944L509.921338453898,480.5026207708713L511.5970940171246,480.9730111515414L510.987728357768,483.6384684924981L512.9173862790594,484.5791824018586L515.9134341042227,480.5548865993651L516.5735802351901,481.3911320143127L515.4056293880913,481.6001910625471L515.7103122177705,484.0043038935123L514.3900199558338,485.46761732539494L516.4720192919649,487.45347067115995L516.4720192919649,488.3418519254535L519.2141647590615,492.1564774086885L521.3469445668015,491.00689634902506L521.651627396479,491.4771828543412L522.9719196584156,493.5672890926228L521.1438226803511,495.3438075814363L520.2297741913189,500.51623648413965L518.0969943835753,501.4566182584813L517.0813849513179,500.72521180081867L516.2688974055127,500.7774554880823L515.5071903313183,501.6655894896603L513.2220691087387,505.47915520627043L512.968166750672,506.05377594837887L512.968166750672,506.00153798174415L512.968166750672,506.05377594837887L512.968166750672,506.05377594837887L512.9173862790594,507.67312489156984L512.7650448642216,512.5308465230726L512.5111425061568,513.7321434560324L510.9369478861572,517.5969842897002L507.48387581647876,517.6492097662995L507.38231487325174,521.2526325392009L504.9956327074451,522.9759146241258L505.0971936506721,526.5267287412203L500.42539026228224,524.2291725402245L498.8004151706682,525.2213122999112L497.0738791358308,523.3414514993569L500.01914648937964,511.381752058199L498.698854227443,508.9267771368977L496.6676353629264,505.2179616981998L494.94109932808897,502.0835292297336L494.89031885647637,502.0312869606937L491.43724678679973,501.2476461196777L491.0817834855079,498.73990960451215L489.35524745066687,500.20277180600715L487.42558952937725,498.8966469713032L484.7342245338932,500.6207242560072L480.16398208873215,499.31461078188227L477.9296413377633,500.35950440056376L474.47656926808486,502.2402556966704L475.1874958706667,506.41944013237867L467.51964465711717,507.6208886759757L467.41808371389016,507.6208886759757L467.4688641855046,507.568652403932L468.48447361776016,503.02388037927267L461.7814513648573,499.88930508368867L462.4415974958247,499.6280812531925L463.6603288145343,499.1578747791518L463.0001826835669,495.1870586019677L460.76584193259987,493.6195405777962L459.19164731259843,496.336539207432L452.79330788937114,491.9474647284958L452.38706411647036,489.5960090289925L450.3050647803393,489.33472901998516L449.7972600642097,483.6384684924981L451.62535704227594,482.8545259973191L451.2191132693715,476.6870593769304L452.64096647453334,476.16435575093215L456.3479409022748,478.8823514725382L457.1096479764692,477.9415244851973L454.77374628227517,474.8052992374826L455.9924776009848,473.3939298742282L452.59018600292075,470.10057021769217L450.60974761001853,464.50655729519394L447.7152607280823,461.9968765235344L446.85199271066267,462.7811662314125L439.59038527001394,454.46702445024766L435.5787280125969,451.8522074638315L432.17643641452923,450.54474371594506L430.551461322917,452.3751826432808L422.7312686945279,447.7204960888373L421.9695616203353,447.40668015776737L417.2977582319472,447.30207437416766L414.758734651301,445.7852639086284L414.9110760661406,445.31451950032283L415.0126370093658,444.9483816424645L415.3681003106558,444.00687095616104L415.3173198390432,439.08978039620683L414.9618565377532,437.10187118299746L415.2665393674306,436.9449273168202L415.7235636119476,436.7879829139697L417.60244106162645,436.00325284738983L422.1219030351731,437.2588145125683L424.4070242577527,437.41575730559066L424.5085852009797,437.31112883652054L422.6297077513027,435.5847246558217L428.0632182138852,430.9806621447567L426.43824312227116,428.6784570414984L426.99682831001337,426.9517269905823L431.0084855674322,426.1145009949487L433.80141150614327,427.57963639308355L433.59828961969106,423.4980705174844L436.1880936719499,419.93948333820117L441.9262869642098,423.0794276736608L443.9575058287264,421.45715021785827L437.9654101784017,418.9974576611671L434.3092162222729,415.59553513249807L441.6216041345324,416.11892447649575L440.55521423066057,413.39723369071567L442.2309697938854,412.4550717367822L447.41057789840124,414.6534190418454L447.7152607280823,411.6175779244372L455.9924776009848,399.89102651675057L464.52359683195573,402.4041170070832L469.3985221067942,399.7339536739735L469.5000830500212,399.7339536739735L476.3046662461493,400.10045611552346L478.38666558228033,399.0009397771414L474.9843739842163,395.1262378555384L470.7188143687308,395.7022283538495L468.2305712596972,393.7124114292758L474.07032549518226,391.25119904483313L473.05471606292303,388.21377033747694Z" class="sc-kAyceB dIJauC Idukki mapstate" fill="rgb(18, 108, 189)" stroke-width="0.9px"></path><path d="M357.6814845583867,397.79667655536105L358.49397210419556,395.96403975673206L364.02904351000143,396.6447422114477L364.1306044532266,396.8018259182604L365.9587014312947,400.4145986748599L369.3102125577461,399.78631134954026L369.7164563306487,399.0009397771414L371.1890900074213,399.4198063329204L371.03674859258354,396.1734877723286L373.778894059682,395.64986588879947L374.9468449067808,392.61273761681787L382.1576718758115,389.20881297343954L385.45840253065217,383.76199027020016L404.6534208003304,385.2808831813504L407.2940053242037,385.0190088128661L406.27839589194446,383.76199027020016L407.7510295687189,382.55731397012187L407.7510295687189,382.5049359948066L413.84468616226695,386.5902317920479L419.43053803968905,385.6475046946812L424.1023414280771,387.8995417103795L431.2116074538844,385.9617492900038L434.1568748074351,387.3234501108359L438.98101961066095,385.0190088128661L439.23492196872394,385.1237587461801L439.79350715646615,384.91425863163386L443.3989206409842,385.7522531408972L444.0590667719498,385.2808831813504L446.80121223904825,386.53785859075947L449.0355529900171,387.53293883129163L451.1683327977589,388.5279967385427L451.7269179854993,388.73747976948925L452.13316175840555,389.3659229291327L452.28550317324334,389.5754020051211L453.70735637840517,391.5654039540286L453.96125873647,392.03670715442445L454.01203920808075,392.03670715442445L457.7697941074366,391.5130366233818L463.6095483429235,394.13132764134343L472.80081370485823,388.5279967385427L472.85159417647264,388.3185127184777L473.05471606292303,388.21377033747694L474.07032549518226,391.25119904483313L468.2305712596972,393.7124114292758L470.7188143687308,395.7022283538495L474.9843739842163,395.1262378555384L478.38666558228033,399.0009397771414L476.3046662461493,400.10045611552346L469.5000830500212,399.7339536739735L469.3985221067942,399.7339536739735L464.52359683195573,402.4041170070832L455.9924776009848,399.89102651675057L447.7152607280823,411.6175779244372L447.41057789840124,414.6534190418454L442.2309697938854,412.4550717367822L440.55521423066057,413.39723369071567L441.6216041345324,416.11892447649575L434.3092162222729,415.59553513249807L437.9654101784017,418.9974576611671L443.9575058287264,421.45715021785827L441.9262869642098,423.0794276736608L436.1880936719499,419.93948333820117L433.59828961969106,423.4980705174844L433.80141150614327,427.57963639308355L431.0084855674322,426.1145009949487L426.99682831001337,426.9517269905823L426.43824312227116,428.6784570414984L428.0632182138852,430.9806621447567L422.6297077513027,435.5847246558217L424.5085852009797,437.31112883652054L424.4070242577527,437.41575730559066L422.1219030351731,437.2588145125683L417.60244106162645,436.00325284738983L415.7235636119476,436.7879829139697L415.2665393674306,436.9449273168202L414.9618565377532,437.10187118299746L415.3173198390432,439.08978039620683L415.3681003106558,444.00687095616104L415.0126370093658,444.9483816424645L414.9110760661406,445.31451950032283L414.5556127648506,445.0529927553064L413.94624710549397,445.15760363109075L412.57517437194656,445.6283496390297L413.23532050291396,447.7204960888373L408.1572733416233,446.8836488730592L408.2080538132359,449.8648479921969L405.56746928936445,450.0740477390434L404.80576221517003,452.74126176215714L403.73937231130003,452.845855265826L403.5362504248478,452.845855265826L403.4854699532352,452.845855265826L402.571421464203,449.9694479837051L399.93083694032975,449.655647300591L398.00117901904014,445.8898731255331L393.5324975171043,447.0405588797746L391.29815676613543,446.2036993548836L385.30606111581073,449.76024776449776L381.7514281029071,446.6744347022143L379.77098971000487,447.6158910150832L379.6186482951671,447.7204960888373L376.9272832996812,441.12991362134085L374.0327964177468,441.966865192516L369.20865161452093,440.3975685141834L369.20865161452093,445.47143483627974L367.6344569945195,445.94217764514565L366.9235303919377,448.81883508353826L368.2438226538743,451.48612133035954L366.7204085054873,454.3624345970791L367.3297741648421,459.6962174167161L360.9822152132274,430.92834059010534L361.38845898613,427.3703342199681L358.6463135190352,425.01561851778706L351.33392560677567,399.4198063329204Z" class="sc-kAyceB dIJauC Ernakulam mapstate" fill="rgb(18, 108, 189)" stroke-width="0.9px"></path><path d="M366.7204085054873,454.3624345970791L368.2438226538743,451.48612133035954L366.9235303919377,448.81883508353826L367.6344569945195,445.94217764514565L369.20865161452093,445.47143483627974L369.20865161452093,440.3975685141834L374.0327964177468,441.966865192516L376.9272832996812,441.12991362134085L379.6186482951671,447.7204960888373L380.7358186706497,450.0740477390434L378.55225839129525,453.83948180016137L380.7358186706497,459.6962174167161L380.0248920680697,467.2252263308185L383.7318664958111,468.84589635308544L382.2592328190385,488.185079966888L385.30606111581073,485.9902183481461L386.9818166790392,487.87153450198593L392.46610761323245,486.19925714931605L392.36454667000726,488.91667802735606L394.2942045912969,489.5960090289925L394.4465460061365,493.7762946908506L398.40742279194274,495.2915579786179L396.4777648706531,502.71043203639465L396.4777648706531,502.71043203639465L398.71210562162014,503.75525191497377L398.05195949065273,508.19548394326944L398.00117901904014,508.352190558398L398.05195949065273,508.352190558398L399.11834939452456,508.71783735254166L398.40742279194274,512.0607657146631L398.40742279194274,512.0607657146631L398.40742279194274,512.0607657146631L398.40742279194274,512.1129971405708L400.28630024161976,513.6276840332703L400.235519770009,513.6799137727398L399.42303222420196,515.4034636732881L394.8020093074265,516.5524629940548L393.4817170454917,518.3803605597307L393.68483893194207,518.4325851965705L394.7512288358157,518.8503802767523L397.1379110016205,519.6859596966085L404.0440551409756,519.4770661838354L405.36434740291224,516.813595419087L404.0440551409756,515.7168298162017L406.32917636355705,515.0378672872591L416.6376121009798,517.179178460615L415.7743440835602,519.111500383533L418.31336766420645,523.9680797881144L421.2586350177535,524.020298449961L422.1219030351731,525.743483048954L418.66883096549464,527.8321104310296L419.02429426678464,530.7038280034435L416.4344902145276,532.1657288960098L417.450099646785,535.8202913897837L423.3406343538827,540.1010064489146L421.2078545461409,541.1972276067581L421.1570740745283,543.2852008919085L416.3329292713024,543.9637733057875L416.0790269132376,543.9637733057875L415.9774659700124,544.5901396182976L415.6220026687206,545.2164980405119L415.6220026687206,545.0077127762254L409.8330289048499,546.364801335103L408.8174194725907,548.4003648358162L405.26278645968887,549.3920195122L402.9776652371056,545.738457367956L398.61054467839494,545.6340659404814L397.4425938312961,545.8950440986059L398.00117901904014,547.3043025142128L394.1418631764591,547.5130781479531L394.1418631764591,547.6174656368373L394.04030223323207,547.6174656368373L395.3098140235561,552.5756198539943L376.2163566970994,510.59826294287564L372.35704085452016,497.2770028336872Z" class="sc-kAyceB dIJauC Alappuzha mapstate" fill="rgb(18, 108, 189)" stroke-width="0.9px"></path><path d="M414.9110760661406,445.31451950032283L414.758734651301,445.7852639086284L417.2977582319472,447.30207437416766L421.9695616203353,447.40668015776737L422.7312686945279,447.7204960888373L430.551461322917,452.3751826432808L432.17643641452923,450.54474371594506L435.5787280125969,451.8522074638315L439.59038527001394,454.46702445024766L446.85199271066267,462.7811662314125L447.7152607280823,461.9968765235344L450.60974761001853,464.50655729519394L452.59018600292075,470.10057021769217L455.9924776009848,473.3939298742282L454.77374628227517,474.8052992374826L457.1096479764692,477.9415244851973L456.3479409022748,478.8823514725382L452.64096647453334,476.16435575093215L451.2191132693715,476.6870593769304L451.62535704227594,482.8545259973191L449.7972600642097,483.6384684924981L450.3050647803393,489.33472901998516L452.38706411647036,489.5960090289925L452.79330788937114,491.9474647284958L459.19164731259843,496.336539207432L460.76584193259987,493.6195405777962L463.0001826835669,495.1870586019677L463.6603288145343,499.1578747791518L462.4415974958247,499.6280812531925L460.9689638190521,499.83706043119287L458.42994023840583,502.1357714420733L457.8205745790492,502.5537070999392L457.8205745790492,502.65819044758246L458.176037880341,504.695570439927L459.59789108550285,503.911972942793L463.9142311725991,505.5313937382359L455.6877947713074,506.73286437212187L455.6370142996948,506.6806271400694L445.93794422162864,500.88194269234486L445.22701761904864,502.5537070999392L442.9926768680798,501.61334676694764L441.7231650777576,502.50146534110013L438.52399536614394,500.67296805679325L433.69985056291625,503.75525191497377L431.41472934033663,501.61334676694764L431.05926603904663,498.53092565290285L425.87965793452895,501.35213230254385L424.76248755904453,498.165201548459L421.41097643259127,497.0680125108245L416.7899535158176,497.8517215265788L415.7743440835602,500.1505274942574L414.6571737080758,498.8966469713032L414.504832293238,500.2550160609733L409.7822484332355,502.0835292297336L409.9853703196877,507.0985234149043L408.00493192678186,505.7925855499575L405.31356693129965,507.30747019688215L404.50107938549263,505.42691661775825L399.32147128097677,507.8298331996725L399.11834939452456,508.71783735254166L398.05195949065273,508.352190558398L398.00117901904014,508.352190558398L398.05195949065273,508.19548394326944L398.71210562162014,503.75525191497377L396.4777648706531,502.71043203639465L396.4777648706531,502.71043203639465L398.40742279194274,495.2915579786179L394.4465460061365,493.7762946908506L394.2942045912969,489.5960090289925L392.36454667000726,488.91667802735606L392.46610761323245,486.19925714931605L386.9818166790392,487.87153450198593L385.30606111581073,485.9902183481461L382.2592328190385,488.185079966888L383.7318664958111,468.84589635308544L380.0248920680697,467.2252263308185L380.7358186706497,459.6962174167161L378.55225839129525,453.83948180016137L380.7358186706497,450.0740477390434L379.6186482951671,447.7204960888373L379.77098971000487,447.6158910150832L381.7514281029071,446.6744347022143L385.30606111581073,449.76024776449776L391.29815676613543,446.2036993548836L393.5324975171043,447.0405588797746L398.00117901904014,445.8898731255331L399.93083694032975,449.655647300591L402.571421464203,449.9694479837051L403.4854699532352,452.845855265826L403.5362504248478,452.845855265826L403.73937231130003,452.845855265826L404.80576221517003,452.74126176215714L405.56746928936445,450.0740477390434L408.2080538132359,449.8648479921969L408.1572733416233,446.8836488730592L413.23532050291396,447.7204960888373L412.57517437194656,445.6283496390297L413.94624710549397,445.15760363109075L414.5556127648506,445.0529927553064Z" class="sc-kAyceB dIJauC Kottayam mapstate" fill="rgb(18, 108, 189)" stroke-width="0.9px"></path><path d="M462.4415974958247,499.6280812531925L461.7814513648573,499.88930508368867L468.48447361776016,503.02388037927267L467.4688641855046,507.568652403932L467.41808371389016,507.6208886759757L467.51964465711717,507.6208886759757L475.1874958706667,506.41944013237867L474.47656926808486,502.2402556966704L477.9296413377633,500.35950440056376L480.16398208873215,499.31461078188227L484.7342245338932,500.6207242560072L487.42558952937725,498.8966469713032L489.35524745066687,500.20277180600715L491.0817834855079,498.73990960451215L491.43724678679973,501.2476461196777L494.89031885647637,502.0312869606937L494.94109932808897,502.0835292297336L496.6676353629264,505.2179616981998L498.698854227443,508.9267771368977L500.01914648937964,511.381752058199L497.0738791358308,523.3414514993569L498.8004151706682,525.2213122999112L500.42539026228224,524.2291725402245L505.0971936506721,526.5267287412203L504.9956327074451,522.9759146241258L505.90968119647914,526.4222967052535L504.0815842184129,531.9046783492886L505.0464131790577,534.410706507359L500.93319497841367,538.2217137418882L502.5581700700259,538.6915436064467L503.0659747861555,543.2852008919085L500.17148790421925,547.4086904404189L495.34734310099157,550.7489887228064L494.28095319712156,554.610930281221L494.23017272550715,554.7674891962397L480.874908691314,551.5840283778111L474.01954502356784,548.4003648358162L473.56252077905447,546.9911374233866L468.6875955042142,546.5735809064267L456.5002823171126,540.4142149678235L455.941697129374,545.2686942196624L460.6135005177621,546.5213860956599L458.93774495453545,548.3481719383351L452.03160081517854,546.4691912301848L450.2035038371141,547.6174656368373L448.9339920467901,546.364801335103L444.3129691300164,551.8449754093022L436.2388741435625,548.7657135888655L433.75063103452885,551.4796491838654L434.5123381087251,554.2456242439737L434.5123381087251,554.2978109837882L434.10609433582067,554.3499976692467L432.88736301711106,554.558743867527L432.78580207388404,554.558743867527L432.17643641452923,552.3668653873808L431.11004651065923,553.5671916785661L423.4929757687223,552.1059210790618L421.1570740745283,553.8803155429885L421.00473265968867,548.66132850392L419.83678181259165,548.4525576786741L418.161026249365,548.8179060494274L415.8759050267854,547.7218529070883L415.571222197108,547.565271919726L415.5204417254936,547.565271919726L415.571222197108,547.095526005716L415.6220026687206,545.2164980405119L415.9774659700124,544.5901396182976L416.0790269132376,543.9637733057875L416.3329292713024,543.9637733057875L421.1570740745283,543.2852008919085L421.2078545461409,541.1972276067581L423.3406343538827,540.1010064489146L417.450099646785,535.8202913897837L416.4344902145276,532.1657288960098L419.02429426678464,530.7038280034435L418.66883096549464,527.8321104310296L422.1219030351731,525.743483048954L421.2586350177535,524.020298449961L418.31336766420645,523.9680797881144L415.7743440835602,519.111500383533L416.6376121009798,517.179178460615L406.32917636355705,515.0378672872591L404.0440551409756,515.7168298162017L405.36434740291224,516.813595419087L404.0440551409756,519.4770661838354L397.1379110016205,519.6859596966085L394.7512288358157,518.8503802767523L393.68483893194207,518.4325851965705L393.4817170454917,518.3803605597307L394.8020093074265,516.5524629940548L399.42303222420196,515.4034636732881L400.235519770009,513.6799137727398L400.28630024161976,513.6276840332703L398.40742279194274,512.1129971405708L398.40742279194274,512.0607657146631L398.40742279194274,512.0607657146631L398.40742279194274,512.0607657146631L399.11834939452456,508.71783735254166L399.32147128097677,507.8298331996725L404.50107938549263,505.42691661775825L405.31356693129965,507.30747019688215L408.00493192678186,505.7925855499575L409.9853703196877,507.0985234149043L409.7822484332355,502.0835292297336L414.504832293238,500.2550160609733L414.6571737080758,498.8966469713032L415.7743440835602,500.1505274942574L416.7899535158176,497.8517215265788L421.41097643259127,497.0680125108245L424.76248755904453,498.165201548459L425.87965793452895,501.35213230254385L431.05926603904663,498.53092565290285L431.41472934033663,501.61334676694764L433.69985056291625,503.75525191497377L438.52399536614394,500.67296805679325L441.7231650777576,502.50146534110013L442.9926768680798,501.61334676694764L445.22701761904864,502.5537070999392L445.93794422162864,500.88194269234486L455.6370142996948,506.6806271400694L455.6877947713074,506.73286437212187L463.9142311725991,505.5313937382359L459.59789108550285,503.911972942793L458.176037880341,504.695570439927L457.8205745790492,502.65819044758246L457.8205745790492,502.5537070999392L458.42994023840583,502.1357714420733L460.9689638190521,499.83706043119287Z" class="sc-kAyceB dIJauC Pathanamthitta mapstate" fill="rgb(18, 108, 189)" stroke-width="0.9px"></path><path d="M394.1418631764591,547.6174656368373L394.1418631764591,547.5130781479531L398.00117901904014,547.3043025142128L397.4425938312961,545.8950440986059L398.61054467839494,545.6340659404814L402.9776652371056,545.738457367956L405.26278645968887,549.3920195122L408.8174194725907,548.4003648358162L409.8330289048499,546.364801335103L415.6220026687206,545.0077127762254L415.6220026687206,545.2164980405119L415.571222197108,547.095526005716L415.5204417254936,547.565271919726L415.571222197108,547.565271919726L415.8759050267854,547.7218529070883L418.161026249365,548.8179060494274L419.83678181259165,548.4525576786741L421.00473265968867,548.66132850392L421.1570740745283,553.8803155429885L423.4929757687223,552.1059210790618L431.11004651065923,553.5671916785661L432.17643641452923,552.3668653873808L432.78580207388404,554.558743867527L432.88736301711106,554.558743867527L434.10609433582067,554.3499976692467L434.5123381087251,554.2978109837882L434.5123381087251,554.2456242439737L433.75063103452885,551.4796491838654L436.2388741435625,548.7657135888655L444.3129691300164,551.8449754093022L448.9339920467901,546.364801335103L450.2035038371141,547.6174656368373L452.03160081517854,546.4691912301848L458.93774495453545,548.3481719383351L460.6135005177621,546.5213860956599L455.941697129374,545.2686942196624L456.5002823171126,540.4142149678235L468.6875955042142,546.5735809064267L473.56252077905447,546.9911374233866L474.01954502356784,548.4003648358162L480.874908691314,551.5840283778111L494.23017272550715,554.7674891962397L493.31612423647493,558.2116617091679L489.1521255642183,558.4203918446228L486.3591996255054,561.7077772377313L493.16378282163714,571.0469579611972L492.7067585771201,575.0116764348929L496.6168548913156,574.8551802476588L496.6168548913156,578.0893371318234L501.5933411093811,582.0535080731772L502.5073895984133,586.7475243032707L498.0894885680882,591.6497059307001L497.7340252667982,594.8828048302098L495.4996845158312,595.6128314450002L496.0582697035734,597.0728538017472L495.5504649874438,597.0207108545362L493.62080706615416,596.707852069673L492.4528562190553,596.4992784971234L480.874908691314,588.4685561153972L473.05471606292303,586.2259881397215L470.5156924822786,586.7475243032707L468.941497862279,590.3459797479131L467.21496182743977,590.9717724279462L469.5000830500212,596.1342727247436L466.55481569647054,596.603565388343L463.5079873996965,594.1006220278189L462.3400365525995,596.1342727247436L457.0588675048566,598.1678435806828L454.31672203776,596.1342727247436L455.1799900551796,594.8306596779757L452.28550317324334,591.3889633299198L450.1019428938871,592.1190392926858L446.03950516485565,590.7631757116956L440.7583361171128,584.4005698664259L438.6763367809817,585.9130639009029L436.1373132003373,583.9833222888931L435.1217037680781,586.5910640098759L437.7115078203369,588.7814648062881L436.1373132003373,589.9809305102508L437.4576054622721,590.8153249698485L434.5123381087251,591.1282194115413L433.03970443194885,593.8920379493493L427.7077549125934,592.2233350159031L425.9812188777523,593.9441840478487L423.64531718356193,593.8920379493493L422.3250249216253,595.8214085869552L422.2234639784001,595.9778408920954L422.1726835067875,596.0299848888085L412.37205248549435,584.2962582901823L408.4111756996881,581.427606769958L406.22761542033186,581.4797655041527L403.73937231130003,578.2979853735219L402.0636167480734,573.9161930216305L403.2315675951704,573.6031934294956L402.0636167480734,573.6031934294956Z" class="sc-kAyceB dIJauC Kollam mapstate" fill="rgb(18, 108, 189)" stroke-width="0.9px"></path><path d="M422.2234639784001,595.9778408920954L422.3250249216253,595.8214085869552L423.64531718356193,593.8920379493493L425.9812188777523,593.9441840478487L427.7077549125934,592.2233350159031L433.03970443194885,593.8920379493493L434.5123381087251,591.1282194115413L437.4576054622721,590.8153249698485L436.1373132003373,589.9809305102508L437.7115078203369,588.7814648062881L435.1217037680781,586.5910640098759L436.1373132003373,583.9833222888931L438.6763367809817,585.9130639009029L440.7583361171128,584.4005698664259L446.03950516485565,590.7631757116956L450.1019428938871,592.1190392926858L452.28550317324334,591.3889633299198L455.1799900551796,594.8306596779757L454.31672203776,596.1342727247436L457.0588675048566,598.1678435806828L462.3400365525995,596.1342727247436L463.5079873996965,594.1006220278189L466.55481569647054,596.603565388343L469.5000830500212,596.1342727247436L467.21496182743977,590.9717724279462L468.941497862279,590.3459797479131L470.5156924822786,586.7475243032707L473.05471606292303,586.2259881397215L480.874908691314,588.4685561153972L492.4528562190553,596.4992784971234L493.62080706615416,596.707852069673L493.51924612292714,596.916424802751L493.41768517970195,596.916424802751L492.50363669066974,600.7227298995854L489.9138326384109,599.6799343361902L489.5583693371191,600.7227298995854L494.6364164984134,608.7515565726583L493.82392895260455,610.8888933946719L498.4449518693782,616.7791516619891L500.37460979066964,617.5609947693163L500.06992696099223,620.010694783475L503.0151943145411,623.3983906291517L503.2690966726077,623.5026239854617L503.3198771442185,623.5547405867053L505.2495350655099,627.9323522795114L502.2027067687359,633.5601807937653L502.2027067687359,633.612287542469L499.0543175287348,635.0191505532605L495.5504649874438,632.7785734626802L493.87470942421714,634.3417766887576L497.4293424371208,641.8966156459085L494.53485555518637,642.3134034027792L489.2536865074435,650.7005724274009L486.86700434163686,650.5963919727692L488.28885754679686,652.10698897166L487.12090669970166,654.7113678309806L490.0661740532487,654.1905020459503L489.0505646209913,656.4301895386482L490.8786615990557,659.1385258143748L490.8786615990557,659.1906078864263L489.9646131100253,659.7635074000002L489.35524745066687,657.8364578573432L483.8709565164754,658.9301970292327L479.60539690098994,663.4090909090908L464.2189140022783,651.7944551136497L460.56272004614766,645.3871134962121L424.6609266158175,601.1919810784188Z" class="sc-kAyceB dIJauC Thiruvananthapuram mapstate" fill="rgb(18, 108, 189)" stroke-width="0.9px"></path><path d="M213.10948187642862,131.22705466460798L214.63289602481746,129.48783449576104L216.10552970159006,130.38380641868525L216.20709064481707,130.27839906228314L216.66411488933227,127.85394850030275L216.20709064481707,125.69289359988079L217.37504149191227,124.11155524711671L214.22665225191122,117.1528749249785L218.28908998094448,116.99470808032743L222.35152770997774,112.671221897544L225.04289270546178,113.04031951886873L230.17172033836687,110.9838719959464L229.91781798030206,107.13431914939656L231.49201260030168,105.86862578322507L237.89035202352898,106.2377907973937L244.33947191836887,102.91517365356435L247.4370806867555,102.96791592963655L247.3863002151429,103.02065813077797L257.13615076482347,102.96791592963655L264.70244103514597,113.46214090394187L263.73761207450116,115.57117638656405L266.4797575415978,116.83654056714363L269.88204913966365,121.73942290574428L271.9640484757929,123.16272029305401L275.7218033751469,121.89756972519649L278.006924597732,122.95186482577901L279.784241104182,128.5391351260687L281.51077713902123,129.96217522506754L287.2489704312811,128.59184127330786L287.0966290164415,130.8581358766387L289.28018929579594,131.80677690050152L288.87394552289334,133.91478271745132L294.2058950422488,131.80677690050152L301.0104782383787,132.649993348389L299.7917469196691,136.0226709420199L299.7917469196691,136.07536664233567L299.8425273912817,136.18075782278538L300.7565758803139,138.65736609693022L303.75262370547534,142.02950862915282L304.66667219450756,146.03353894672205L307.1041348319286,146.40231000945596L310.25252407192966,150.6165829001534L319.44378943386437,152.19681517810864L319.8500332067688,152.24948846097482L319.08832613257437,152.88156218976314L318.07271670031696,154.6197110395342L318.42818000160696,155.88376967491763L319.3930089622536,159.35971576839938L315.93993689257513,161.62417779886732L318.68208235967177,163.94116352729793L318.12349717192956,166.100047311553L301.8229657841839,164.20444852352125L299.2331617319287,166.31066363674927L300.2487711641843,169.5224199600616L300.2995516357987,169.5224199600616L300.0964297493465,169.5750694743556L296.79569909450584,171.7862842307179L299.7917469196691,173.5235784656652L295.8816506054736,171.68099116098915L293.1902856099914,172.3127452753322L294.1551145706344,174.365874847025L290.80360344418295,174.94494297285473L289.07706740934555,172.5759731081314L285.6239953396671,172.26009949363333L282.12014279837604,177.9980680884919L271.35468281643807,184.47200414116082L273.0812188512755,188.10325275046512L268.81565923579365,189.73457320827833L266.5813184848248,185.78771302006658L264.3469777338578,185.3666910149875L263.73761207450116,185.20880658978876L262.62044169901674,184.99829302716216L255.96819991772645,176.73473515176352L252.870591149338,176.05041261461452L253.93698105321164,174.89230077398338L252.00732313191838,174.47116060530857L250.68703086998357,171.25981601205467L243.52698437256367,164.0991347413228L239.413766171916,163.5725615041738L234.33571901062533,157.25311942123926L232.1521587312709,150.72193375413212L230.52718363965687,150.30052859285115L224.992112233851,142.6617519925037L221.69138157900852,140.55423316089946L218.0351876228815,142.97786972709105Z" class="sc-kAyceB dIJauC Kannur mapstate" fill="rgb(18, 108, 189)" stroke-width="0.9px"></path></svg>