<svg xmlns="http://www.w3.org/2000/svg"  xmlns:xlink="http://www.w3.org/1999/xlink"  id="map" width="633" height="633"><defs><filter id="sofGlow" height="300%" width="300%" x="-75%" y="-75%"><feMorphology operator="dilate" radius="4" in="SourceAlpha" result="thicken"></feMorphology><feGaussianBlur in="thicken" stdDeviation="10" result="blurred"></feGaussianBlur><feFlood flood-color="rgb(0,186,255)" result="glowColor"></feFlood><feComposite in="glowColor" in2="blurred" operator="in" result="softGlow_colored"></feComposite><feMerge><feMergeNode in="softGlow_colored"></feMergeNode><feMergeNode in="SourceGraphic"></feMergeNode></feMerge></filter></defs><path d="M462.15947128921107,394.7978257903551L457.916962416708,392.88051864414956L457.8285768151982,392.88051864414956L461.09884407108257,383.8981869181471L449.34355907019926,383.4944377650054L449.9622582807715,378.54816931667483L443.59849497201867,376.7310141735343L435.5554052345651,367.5429799848089L430.6941971514898,369.1586165383933L430.5174259484702,368.95666565787997L426.00976027144134,362.3926881463249L415.84541609773805,362.89764904132426L404.70883030742334,357.84774328948697L412.57514884185,359.9687840509778L411.69129282674476,350.7767664263156L407.62555515726854,345.6242393118182L409.03972478143623,331.9818740608707L404.70883030742334,326.4224885593658L406.65331354065347,316.0091153493595L401.43856305153895,307.5145674527066L393.6606301186148,305.0872087654161L397.54959658507505,296.6914098933821L395.4283421488253,284.1448637346357L400.2011646303872,279.8942954802533L403.2062750817422,266.5322921563793L410.2771232025807,261.57096579228164L418.67375534607345,261.97599617760534L436.174104445141,256.001362330916L449.78548707774826,248.20255181279026L467.4626073798354,248.20255181279026L483.9023292607817,238.4771249889409L505.38003042781565,233.41081507325998L528.0951300160013,212.12494248006988L540.115571821425,208.06913820025147L563.3609850186695,208.7789352330028L565.4822394549192,232.39747218531556L560.7094169733573,243.84667788654224L552.0476280253315,253.77329340756933L556.9972217099166,264.1023352487109L553.6385688525188,265.7223236886721L549.5728311830389,278.1736932049371L540.9994278365266,283.7400680370538L533.8401941141819,293.8586777260325L529.9512276477217,311.8632015392568L532.9563380990767,319.54795639813983L523.2339219329297,334.003269872931L518.9914130604266,334.20540362191605L518.1959426468311,329.0506617226529L516.781773022667,335.01392801567636L509.6225393003224,333.5989991940569L506.6174288489674,354.5144440205604L495.9227710662017,370.6732145549604L484.0791004638013,378.3462673984259L476.03601072634774,404.38294197123287L461.62915768014864,400.4482856818058L461.62915768014864,400.4482856818058Z" class="sc-kAyceB dIJauC Kamjong mapstate" fill="rgb(18, 108, 189)" stroke-width="0.9px" data-darkreader-inline-fill="" style="--darkreader-inline-fill: #0e5697;"></path><path d="M487.7029101257285,62.888848325610525L485.67004129099223,73.06671547764836L472.58897226744375,96.0584881957302L474.7986123052033,99.00773752095574L471.8818874553617,100.12635756108466L466.93229377077296,112.32731726628663L464.01556892092776,112.42897525569515L465.8716665526481,113.34388476701679L462.95494170280654,117.20659016560967L462.42462809374047,132.9582487344178L450.5809574913401,147.586138837637L447.6642326414949,157.13183719818971L437.5882740693087,168.80680100507743L427.3355442940956,172.86681202850195L425.4794466623789,180.68110568370412L418.4969841430502,183.72519865946288L416.4641153083139,189.508300823838L410.63066560862353,185.9573778774893L376.7789802301195,191.03002300747448L355.5664358676149,184.2325236792285L361.1347287627759,165.25393336082743L348.05365973922744,153.07013330845984L353.97549504042763,136.00619468133846L352.82648222078933,127.47132348150899L345.13693488938225,122.28849187970809L334.17712030208713,121.06889818099353L333.73519229453086,120.66235814804713L333.11649308396227,118.83287353879223L326.0456449631274,112.53063296968412L309.4291518791615,111.1073999087248L305.8053422172343,100.73649987009321L301.474447743225,99.82128268061933L302.8886173673927,93.51584545413061L300.3254349235867,89.65069771375511L296.3480828556203,87.41279812983612L290.6030187574397,90.46444619830436L288.39337871967655,87.20934607541858L290.2494763513969,76.42480290763251L304.6563293975996,76.0177780835802L309.78269428520434,69.60655199716984L317.29547041359547,71.84551791896229L324.98501774500255,68.18168558853449L345.13693488938225,72.65965406166379L351.50069819813143,67.16389056732532L358.3947751159503,67.57101190627327L356.8922198902692,61.56552168133385L359.8973303416242,59.63134443147737L366.9681784624627,66.75676478740479L369.79651771079807,64.92464381244918L375.1880394029322,72.25258820887484L380.0492474860039,71.4384431916269L382.7892011328295,76.83182329773354L380.0492474860039,79.07035620001443L386.6781675992934,81.71572224224474L395.78188455486816,82.42790419443645L400.2011646303872,72.55788801443123L402.58757587117,75.61074882525281L406.38815673612044,72.65965406166379L410.2771232025807,73.27024452193291L408.7745679769032,81.00352672331519L417.7898993309718,91.07474595033182L436.2624900466508,85.98861051214317L446.69199102488346,87.51452374213386L464.63426813150363,78.45986052469289L473.472828282549,77.0353318301386L475.77085392181834,61.463725379436255L491.2383341861496,52.606383047902455L493.7131310284385,55.864500781587594Z" class="sc-kAyceB dIJauC Senapati mapstate" fill="rgb(18, 108, 189)" stroke-width="0.9px" data-darkreader-inline-fill="" style="--darkreader-inline-fill: #0e5697;"></path><path d="M324.7198609404659,139.76498802182596L333.55842109151126,142.101346065896L343.45760846068515,154.59332353344507L343.81115086672435,154.99949720219684L343.2808372576619,155.3041245828599L340.18734120480076,157.13183719818971L335.50290432474503,159.8732400897552L328.962369812969,159.36558791576863L315.1742159773421,172.86681202850195L307.3962830444216,174.89665397413683L297.9390236828076,191.94302697011972L292.3707307876466,196.10198881998622L299.1764221039484,212.53049907794048L299.08803650244226,218.30921009475423L303.9492445855176,234.72812050130779L304.8331006006192,236.65333106884646L304.5679437960862,236.75465524459742L297.40871007374153,238.781082151997L299.9718925175439,257.11534802172537L288.48176432118635,272.6065086975268L292.193959584627,290.5198318530647L292.193959584627,290.62101327328946L291.9288027800976,291.0257362833727L284.23925544868325,303.3677368545041L284.23925544868325,303.5700316644743L286.0953530804072,305.89634537501024L288.0398363136337,308.32365292561553L288.0398363136337,308.32365292561553L287.7746795091043,308.32365292561553L257.6351893940446,305.79520423116537L253.56945172456108,305.4917792013557L248.17793003242332,301.9516433354893L237.21811544513184,294.87039180439933L232.7988353696055,302.45739701772254L227.93762728653383,303.0642926408391L215.03332946600494,298.7146619422683L189.6666618325071,298.2088589330442L187.28025059172796,303.87347188084277L179.67908886183068,303.0642926408391L177.20429201953812,318.7391071515076L170.7521431092755,321.16560387136633L167.9238038609401,328.7474201275263L170.4869863047461,332.9925852228871L160.4994133340624,339.8647182667228L155.10789164192465,347.44285682866666L153.60533641624716,349.5644689738856L146.18094588936947,349.5644689738856L135.92821611416366,337.03516479797054L135.92821611416366,337.03516479797054L134.0721184824397,336.4288048921635L131.50893603864097,335.6203101797719L131.59732164015077,335.5192471482742L137.60754254285712,330.06144979582314L140.43588179119615,320.55899403994226L125.14517272988451,308.2225181734693L124.52647351931591,307.71684041863955L124.79163032384531,307.5145674527066L130.44830882051247,302.3562468143655L129.91799521145367,289.2044490835324L132.5695632567622,290.11510350127173L138.75655536249178,283.2340673984945L137.43077133984116,280.60275629194894L140.52426739270595,279.59066540447475L138.66816976098562,277.36397125183066L142.82229303197164,273.82123623176085L141.23135220478798,271.3917425828067L145.12031867124824,270.27817307881105L141.67328021234061,263.39356870796655L145.73901788182047,262.27976614822364L144.05969145312338,259.14069327618927L149.09767073921466,255.90008929241958L145.20870427275804,250.93738115918677L148.12542912260324,243.3401486144694L143.88292025010014,244.45450412753144L143.61776344557074,238.1731654002897L146.53448829541594,237.5652389457473L149.3628275437477,228.54652311962673L159.43878611593755,229.66131161286194L163.68129498844064,217.59959117612289L168.54250307151233,214.86236546614327L172.254698334953,205.63544757790623L172.3430839364628,191.13146897906154L182.50742811016607,174.693674684896L182.33065690714648,169.51733443036392L195.32334032918152,155.9133719624342L207.25539653308806,149.41422565754692L202.74773085605557,143.01553366400276L207.87409574366393,149.71889817253123L207.87409574366393,159.67018003975772L217.50812630830114,160.27935691152834L216.09395668413345,168.60378900014348L231.38466574543781,167.58871260802516L239.33936988138157,175.09963217344284L240.48838270101623,181.49288775991954L245.34959078409156,182.10171288564197L262.7615542816493,147.3830126050625L262.05446946956727,142.71080693063413L266.73890634961936,141.79661193427637L268.24146157529685,132.04381678954087L274.51683928253624,132.9582487344178L283.79732744113426,118.42630929913503L292.81265879519924,113.54719496246526L301.5628333447348,100.02466621026724L305.8053422172343,100.73649987009321L309.4291518791615,111.1073999087248L326.0456449631274,112.53063296968412L333.11649308396227,118.83287353879223L333.73519229453086,120.66235814804713L334.17712030208713,121.06889818099353L334.00034909906753,121.37380031803878L334.53066270812633,122.99990325214185L331.96748026432397,124.42268558497744L329.13914101598857,128.69070940536676Z" class="sc-kAyceB dIJauC Tamenglong mapstate" fill="rgb(18, 108, 189)" stroke-width="0.9px" data-darkreader-inline-fill="" style="--darkreader-inline-fill: #0e5697;"></path><path d="M333.73519229453086,255.49499445139918L337.18223075344577,253.87457208970955L332.67456507640964,270.6831111959664L332.49779387339004,271.594206281472L327.2830433842719,272.5052796616328L329.75784022656444,280.60275629194894L333.55842109151126,281.10879170233056L327.90174259484775,287.68664363215703L334.70743391114956,287.78783253260644L333.55842109151126,289.91273772275235L341.15958282140855,296.2867466783473L337.44738755797516,303.16544097855785L337.62415876099476,303.2665890497756L340.71765481385955,305.89634537501024L337.5357731594813,321.0645028969866L337.44738755797516,321.16560387136633L337.80092996401436,322.4798923642429L339.74541319724085,330.6679099071671L339.6570275957347,330.76898566406726L329.40429782052524,337.03516479797054L329.49268342203504,344.6138592136276L337.3590019564617,347.74595141717964L337.97770116703396,352.595141247074L337.97770116703396,352.6961595601633L335.50290432474503,351.3829008799503L324.98501774500255,362.89764904132426L331.4371666552652,364.10952828911377L331.34878105375174,364.41249216788674L329.49268342203504,370.4712715770329L331.4371666552652,375.9233623046057L328.34367060239674,381.98034099082906L331.70232345979457,381.67751453930214L320.30058086495046,382.88880615152175L319.41672484984156,390.55944116668434L319.41672484984156,390.55944116668434L316.32322879697676,389.5502337428061L315.79291518791433,384.7056726117389L322.7753777072394,380.6680759467772L317.0303136090588,378.2453160447649L320.2121952634334,368.45178384598694L314.64390236827967,375.7214467060894L314.2019743607234,372.7935522240732L308.1917534580134,369.46154088329695L309.8710798867178,364.5134796001412L301.7396045477544,362.2916951760608L304.03763018702375,354.71647034427133L299.88350691603773,349.0593338007957L301.1209053371822,344.2096997663002L308.8988382701027,341.2794171429132L311.1084783078586,346.8366605113288L318.2677120302069,349.5644689738856L321.2728224815619,347.44285682866666L324.6314753389597,337.43939943646274L321.2728224815619,336.12562136235374L319.32833924833176,324.9061531988191L319.32833924833176,324.7039706376954L309.6059230821811,330.16252714415623L299.5299645099949,324.4006948047163L291.57526037405114,326.018138303195L298.02740928431376,316.6157969431042L294.9339132314526,304.48034511904734L302.44668935983645,294.76922159762944L302.0047613522838,285.76400374654895L312.9645759395826,265.823570685925L313.494889548645,258.0267666816935L317.91416962416406,256.2039076018409L321.97990729364756,247.9999640597207L324.3663185344267,248.60772409028687L330.73008184317587,251.74766331134015L331.87909466281417,252.76049180164227L332.14425146734357,252.9630542734276L324.4547041359365,262.58353370323675L324.3663185344267,262.6847890181334L324.4547041359365,262.6847890181334L330.55331064015627,265.9248174149416Z" class="sc-kAyceB dIJauC Imphal West mapstate" fill="rgb(18, 108, 189)" stroke-width="0.9px" data-darkreader-inline-fill="" style="--darkreader-inline-fill: #0e5697;"></path><path d="M319.41672484984156,390.55944116668434L319.41672484984156,390.55944116668434L320.30058086495046,382.88880615152175L331.70232345979457,381.67751453930214L334.26550590359693,374.9137737857536L343.5459940621913,374.61089209820966L343.5459940621913,374.61089209820966L345.13693488938225,381.5765718630564L359.4554023340752,385.51314149039354L360.9579575597527,385.91686962486074L362.4605127854302,391.3667882081545L362.814055191473,392.57777727987923L362.1069703793837,392.88051864414956L362.2837415824106,395.30236456507646L359.9857159431376,396.10961296808273L361.4882711688115,400.0447086624563L362.01858477787755,401.35631864828156L362.01858477787755,402.26433039538824L360.33925834918045,404.7864739405668L362.1069703793837,411.8476055808087L362.19535598089715,412.35192307921534L362.2837415824106,412.6545104406796L363.8746824095979,412.04933336459726L369.708132109281,410.6372169120277L368.4707336881402,412.35192307921534L366.9681784624627,414.46998520009674L360.7811863567331,418.8066099514617L360.692800755216,418.6049171852983L359.6321735370948,415.7811087486498L355.0361222585525,415.27683568739394L358.6599319204797,415.47854569584524L354.5058086494864,408.7206911594658L350.08652857396373,410.03200845492483L351.50069819813143,403.27320745382895L347.08141812260874,402.36521927982176L347.08141812260874,398.32945955464584L347.08141812260874,397.92586052164825L346.90464691958914,398.32945955464584L345.04854928787245,403.27320745382895L343.63437966370475,407.20757779889027L345.31370609240184,407.51020518107725L345.5788628969349,413.8648363574257L338.949942783649,416.3862277991466L343.72276526521455,417.7981356732753L343.63437966370475,417.8989842764704L337.3590019564617,419.6133705698476L341.955053235004,422.23522717295236L337.0938451519323,423.5460893037816L335.41451872323523,427.5792346837152L334.88420511416916,422.9410814931607L334.35389150510673,424.45358340601615L334.17712030208713,425.1593975412525L333.73519229453086,426.47016130851716L333.02810748245247,426.77263899489935L331.34878105375174,426.1676812748092L331.52555225677133,427.37758732618295L332.49779387339004,436.85388618941033L332.49779387339004,436.75308661189865L329.93461142958404,434.13220620283846L331.17200985073214,437.45867818753413L328.6972130084396,436.1482836794785L328.6972130084396,436.1482836794785L328.6972130084396,436.24908481911643L327.0178865797425,440.4824976305108L327.4598145872915,443.8084285740033L326.0456449631274,444.71545149884605L328.34367060239674,450.9632596158317L325.33856015104175,456.5048344490069L325.2501745495356,456.8070795891017L327.6365857903147,456.90782745027536L328.34367060239674,462.14635885887583L322.51022090271,462.34782683625144L326.222416166147,468.3913842650654L323.48246251932505,469.3985531965245L325.4269457525552,473.42697011969176L328.6972130084396,474.6354144798761L325.2501745495356,487.72450975285665L327.6365857903147,489.93915574198945L321.3612080830717,491.54972896275376L317.73739842114446,488.7311824984199L322.33344969968675,483.6975607127879L321.6263648876047,483.294843092418L316.5,480.7777643508407L318.3560976317167,473.93049312927633L319.6818816543746,468.89497196669254L322.2450640981806,466.0747974645892L319.2399536468256,463.7580736527889L319.15156804531216,463.7580736527889L318.6212544362461,462.75075968098736L318.6212544362461,462.65002685854324L318.1793264286971,456.40408555010436L315.0858303758323,456.30333639176297L315.0858303758323,451.66859457045575L317.91416962416406,449.955616177891L314.37874556374663,447.134076356313L317.73739842114446,443.7076469489839L313.936817556194,443.7076469489839L314.55551676676987,435.9466806190949L311.0200927063488,426.5709874647846L313.40650394713157,424.8569073343442L310.6665503003096,421.32768139700056L322.952148910259,402.16344124903117L320.74250887249946,399.1366450398227L323.57084812083485,396.00870783549L319.32833924833176,391.1649530224422Z" class="sc-kAyceB dIJauC Kakching mapstate" fill="rgb(18, 108, 189)" stroke-width="0.9px" data-darkreader-inline-fill="" style="--darkreader-inline-fill: #0e5697;"></path><path d="M291.57526037405114,326.018138303195L299.5299645099949,324.4006948047163L309.6059230821811,330.16252714415623L319.32833924833176,324.7039706376954L319.32833924833176,324.9061531988191L321.2728224815619,336.12562136235374L324.6314753389597,337.43939943646274L321.2728224815619,347.44285682866666L318.2677120302069,349.5644689738856L311.1084783078586,346.8366605113288L308.8988382701027,341.2794171429132L301.1209053371822,344.2096997663002L299.88350691603773,349.0593338007957L304.03763018702375,354.71647034427133L301.7396045477544,362.2916951760608L309.8710798867178,364.5134796001412L308.1917534580134,369.46154088329695L314.2019743607234,372.7935522240732L314.64390236827967,375.7214467060894L320.2121952634334,368.45178384598694L317.0303136090588,378.2453160447649L322.7753777072394,380.6680759467772L315.79291518791433,384.7056726117389L316.32322879697676,389.5502337428061L319.41672484984156,390.55944116668434L319.32833924833176,391.1649530224422L323.57084812083485,396.00870783549L320.74250887249946,399.1366450398227L322.952148910259,402.16344124903117L310.6665503003096,421.32768139700056L313.40650394713157,424.8569073343442L311.0200927063488,426.5709874647846L314.55551676676987,435.9466806190949L313.936817556194,443.7076469489839L317.73739842114446,443.7076469489839L314.37874556374663,447.134076356313L317.91416962416406,449.955616177891L315.0858303758323,451.66859457045575L315.0858303758323,456.30333639176297L318.1793264286971,456.40408555010436L318.6212544362461,462.65002685854324L317.29547041359547,460.0308824973599L317.2070848120784,459.93014267605486L315.96968639093757,457.6130552150107L314.46713116526007,458.4190142401176L313.494889548645,457.814546527522L314.37874556374663,456.30333639176297L310.48977909729,456.20258697397094L310.224622292757,452.6761938635327L312.9645759395826,452.3739168017628L309.9594654882276,449.5525515303025L313.40650394713157,448.44410231866095L310.931707104839,447.3356216703414L310.6665503003096,441.0872334165624L305.8937278187477,441.8935332300707L305.8053422172343,445.32012174952615L303.68408778098456,442.29667689410417L302.7118461643695,447.23484914325945L302.1815325553034,441.18802180370676L294.31521402087674,442.29667689410417L296.87839646468274,437.7610706723417L290.9565611634789,435.9466806190949L292.193959584627,432.6200797258916L294.31521402087674,436.1482836794785L294.9339132314526,433.8297855962801L296.17131165259343,436.75308661189865L301.7396045477544,436.85388618941033L303.5073165779613,432.01521272246373L295.28745563749544,428.78909692607976L300.3254349235867,419.8150581130594L295.0222988329624,420.520956289296L296.5248540586399,424.1510877202645L292.54750199066984,424.55441477944623L292.54750199066984,428.99073698301527L285.0347258622787,426.9742894818137L282.47154341847636,430.40218818540234L279.20127616259197,425.0585677331637L276.54970811727617,428.58745582630854L271.51172883118124,429.59565089720763L271.42334322967145,425.7643709115782L271.33495762816165,421.9327142635466L277.69872093691083,408.9224351595085L280.35028898222663,403.3740937192615L281.05737379430866,379.45671492998554L279.02450495956873,376.63005861081456L281.67607300488453,368.6537373611609L282.8250858245192,365.01841280650933L281.58768740337473,364.00853980215743L281.58768740337473,362.2916951760608L282.2947722154531,360.06978308904854L283.70894183962446,359.9687840509778L283.97409864415386,357.3427164278446L285.8301962758742,342.4919748802495L291.13333236650215,339.0562956071517ZM319.2399536468256,463.7580736527889L322.2450640981806,466.0747974645892L319.6818816543746,468.89497196669254L320.47735206797006,466.27624523326995Z" class="sc-kAyceB dIJauC Bishnupur mapstate" fill="rgb(18, 108, 189)" stroke-width="0.9px" data-darkreader-inline-fill="" style="--darkreader-inline-fill: #0e5697;"></path><path d="M317.73739842114446,488.7311824984199L321.3612080830717,491.54972896275376L327.6365857903147,489.93915574198945L325.2501745495356,487.72450975285665L328.6972130084396,474.6354144798761L325.4269457525552,473.42697011969176L323.48246251932505,469.3985531965245L326.222416166147,468.3913842650654L322.51022090271,462.34782683625144L328.34367060239674,462.14635885887583L327.6365857903147,456.90782745027536L325.2501745495356,456.8070795891017L325.33856015104175,456.5048344490069L328.34367060239674,450.9632596158317L326.0456449631274,444.71545149884605L327.4598145872915,443.8084285740033L327.0178865797425,440.4824976305108L328.6972130084396,436.24908481911643L328.6972130084396,436.1482836794785L328.6972130084396,436.1482836794785L331.17200985073214,437.45867818753413L329.93461142958404,434.13220620283846L332.49779387339004,436.75308661189865L332.49779387339004,436.85388618941033L331.52555225677133,427.37758732618295L331.34878105375174,426.1676812748092L333.02810748245247,426.77263899489935L333.73519229453086,426.47016130851716L334.17712030208713,425.1593975412525L334.35389150510673,424.45358340601615L334.88420511416916,422.9410814931607L335.41451872323523,427.5792346837152L337.0938451519323,423.5460893037816L341.955053235004,422.23522717295236L337.3590019564617,419.6133705698476L343.63437966370475,417.8989842764704L343.72276526521455,417.7981356732753L338.949942783649,416.3862277991466L345.5788628969349,413.8648363574257L345.31370609240184,407.51020518107725L343.63437966370475,407.20757779889027L345.04854928787245,403.27320745382895L346.90464691958914,398.32945955464584L347.08141812260874,397.92586052164825L347.08141812260874,398.32945955464584L347.08141812260874,402.36521927982176L351.50069819813143,403.27320745382895L350.08652857396373,410.03200845492483L354.5058086494864,408.7206911594658L358.6599319204797,415.47854569584524L355.0361222585525,415.27683568739394L359.6321735370948,415.7811087486498L360.692800755216,418.6049171852983L360.7811863567331,418.8066099514617L366.9681784624627,414.46998520009674L372.8900137636665,421.9327142635466L384.1149851554874,423.44525532107673L387.65040921590116,430.40218818540234L397.81475338960445,434.9386496936422L399.40569421679174,460.1316220593899L413.2822336539357,470.7078341102333L415.66864489471845,477.3542781445385L411.51452162372516,511.6763310135866L427.2471586925858,517.7123059827782L427.86585790315803,527.4685117191548L423.62334903065494,536.6190491844227L420.3530817747669,535.4125062201065L423.00464982008634,542.0480368275539L409.21649598445583,565.2636366721244L409.65842399200847,573.3005025912489L404.00174549533403,574.9076805348986L400.28955023190065,599.5094813046126L397.0192829760126,599.0075557266064L396.7541261714832,603.4242838377895L393.9257869231478,604.227272727273L389.06457884006886,602.5209020009124L383.31951474189555,586.8590270952009L370.06167451532747,587.461520867636L367.6752632745447,580.3314260507595L360.9579575597527,575.3094648581227L349.2910581603719,576.1130213113674L340.62926921234975,569.4831942117662L326.39918736917025,567.2730057524623L316.6767712030196,573.802752686117L302.2699181568205,575.3094648581227L292.193959584627,562.3498706836253L288.57014992269615,551.7982362613375L283.4437850350914,550.89367966399L283.3553994335816,550.5921562058993L292.81265879519924,523.4456264039345L292.90104439670904,523.043315315399L293.2545868027519,522.138100366169L293.2545868027519,520.2270228107272L294.58037082540613,510.670245290029L296.9667820661889,508.35615059971406L304.3027869915568,501.4130503610877L310.224622292757,495.5758732779268L314.37874556374663,487.0198234795289L317.29547041359547,489.23450919718925L317.47224161661507,489.0331792915413Z" class="sc-kAyceB dIJauC Chandel mapstate" fill="rgb(18, 108, 189)" stroke-width="0.9px" data-darkreader-inline-fill="" style="--darkreader-inline-fill: #0e5697;"></path><path d="M317.73739842114446,488.7311824984199L317.47224161661507,489.0331792915413L317.29547041359547,489.23450919718925L314.37874556374663,487.0198234795289L310.224622292757,495.5758732779268L304.3027869915568,501.4130503610877L296.9667820661889,508.35615059971406L294.58037082540613,510.670245290029L293.2545868027519,520.2270228107272L293.2545868027519,522.138100366169L292.90104439670904,523.043315315399L292.81265879519924,523.4456264039345L283.3553994335816,550.5921562058993L283.4437850350914,550.89367966399L283.70894183962446,553.7077878929649L250.56434127320608,549.386039408665L246.321832400703,561.5460354907973L241.4606243176313,564.9622225311978L232.44529296356632,558.4310201588405L229.88211051976396,565.3641075434525L217.1545839022583,570.588242283884L204.95737089381873,560.1392846851577L205.48768450288117,554.8132757063122L196.91428115636882,545.365384625974L192.2298442763131,530.7870834964488L181.27002968901797,525.6582640727429L186.2196233736031,495.8778174792442L209.64180777387082,476.0452191670711L213.26561743579805,440.1801262252284L177.91137683162015,434.6362353379109L173.5804823576109,429.3940139685419L176.76236401198912,414.9742687147409L183.2145129222481,409.42679058134763L185.42415296001127,399.33843879033066L190.02020423855356,395.30236456507646L183.2145129222481,389.9539198622251L184.27514014037297,377.63960239898734L186.57316577964593,375.9233623046057L187.10347938870837,375.51953005498126L201.3335612318915,386.1187321160096L207.5205533376211,375.82240463691596L212.82368942824542,381.67751453930214L219.09906713548844,378.3462673984259L224.578974429136,381.17279852924185L226.78861446689552,375.115693594852L234.83170420434908,369.96640952281905L242.6096371372696,378.2453160447649L251.71335409284438,365.7253082226616L257.6351893940446,370.0673824604655L261.25899905596816,365.32136956661634L271.33495762816165,363.7055727591651L276.10778010972354,366.028259446799L278.31742014749034,361.281750965476L281.58768740337473,362.3926881463249L281.58768740337473,362.2916951760608L281.58768740337473,364.00853980215743L282.8250858245192,365.01841280650933L281.67607300488453,368.6537373611609L279.02450495956873,376.63005861081456L281.05737379430866,379.45671492998554L280.35028898222663,403.3740937192615L277.69872093691083,408.9224351595085L271.33495762816165,421.9327142635466L271.42334322967145,425.7643709115782L271.51172883118124,429.59565089720763L276.54970811727617,428.58745582630854L279.20127616259197,425.0585677331637L282.47154341847636,430.40218818540234L285.0347258622787,426.9742894818137L292.54750199066984,428.99073698301527L292.54750199066984,424.55441477944623L296.5248540586399,424.1510877202645L295.0222988329624,420.520956289296L300.3254349235867,419.8150581130594L295.28745563749544,428.78909692607976L303.5073165779613,432.01521272246373L301.7396045477544,436.85388618941033L296.17131165259343,436.75308661189865L294.9339132314526,433.8297855962801L294.31521402087674,436.1482836794785L292.193959584627,432.6200797258916L290.9565611634789,435.9466806190949L296.87839646468274,437.7610706723417L294.31521402087674,442.29667689410417L302.1815325553034,441.18802180370676L302.7118461643695,447.23484914325945L303.68408778098456,442.29667689410417L305.8053422172343,445.32012174952615L305.8937278187477,441.8935332300707L310.6665503003096,441.0872334165624L310.931707104839,447.3356216703414L313.40650394713157,448.44410231866095L309.9594654882276,449.5525515303025L312.9645759395826,452.3739168017628L310.224622292757,452.6761938635327L310.48977909729,456.20258697397094L314.37874556374663,456.30333639176297L313.494889548645,457.814546527522L314.46713116526007,458.4190142401176L315.96968639093757,457.6130552150107L317.2070848120784,459.93014267605486L317.29547041359547,460.0308824973599L318.6212544362461,462.65002685854324L318.6212544362461,462.75075968098736L319.15156804531216,463.7580736527889L319.2399536468256,463.7580736527889L320.47735206797006,466.27624523326995L319.6818816543746,468.89497196669254L318.3560976317167,473.93049312927633L316.5,480.7777643508407L321.6263648876047,483.294843092418L322.33344969968675,483.6975607127879Z" class="sc-kAyceB dIJauC Churachandpur mapstate" fill="rgb(18, 108, 189)" stroke-width="0.9px" data-darkreader-inline-fill="" style="--darkreader-inline-fill: #0e5697;"></path><path d="M339.6570275957347,330.76898566406726L339.74541319724085,330.6679099071671L337.80092996401436,322.4798923642429L337.44738755797516,321.16560387136633L337.5357731594813,321.0645028969866L340.71765481385955,305.89634537501024L337.62415876099476,303.2665890497756L337.44738755797516,303.16544097855785L341.15958282140855,296.2867466783473L333.55842109151126,289.91273772275235L334.70743391114956,287.78783253260644L327.90174259484775,287.68664363215703L333.55842109151126,281.10879170233056L329.75784022656444,280.60275629194894L327.2830433842719,272.5052796616328L332.49779387339004,271.594206281472L331.52555225677133,274.9347025865327L337.71254436250456,275.2383696044317L342.22021003953705,275.5420342121506L345.31370609240184,270.3794080101343L341.4247396259452,269.0633329954326L345.9324053029777,266.73478159119077L342.7505236485995,263.19106156697126L342.7505236485995,263.19106156697126L345.13693488938225,263.089807593934L347.4349605286552,263.2923152716421L349.82137176943434,270.27817307881105L351.8542406041779,267.6459707728045L352.1193974087073,267.24100048491164L351.05877019058244,260.254587376543L343.2808372576619,259.03942856496724L343.19245165615575,254.78606813386705L353.8871094389142,258.12803407864067L351.23554139360203,253.4694557483681L354.9477366570427,253.6720144566416L356.6270630857398,259.2419577188566L359.808944740118,257.6216944079006L360.1624871461572,257.41915665931447L362.1069703793837,244.35320042714102L355.6548214691247,245.6701275336245L361.75342797334815,242.52968777621118L360.8695719582429,229.96533916968565L363.7862968080881,227.33035296147045L364.1398392141309,236.65333106884646L369.708132109281,239.6929390889336L364.7585384246995,240.30083158798334L364.4933816201665,244.04928771051982L367.6752632745447,242.42837895953198L370.3268313198605,245.4675263245681L365.6423944398048,246.1766258457983L365.02369522923254,248.3038452857354L369.4429753047516,249.51934597645868L364.7585384246995,251.34252438653766L364.1398392141309,255.0898953109272L368.0288056805839,253.36817599102233L367.49849207152147,258.63436703454227L372.0061577485576,259.3432218929911L368.9126616956928,261.57096579228164L372.8900137636665,263.4948218759382L372.0945433500674,280.80517125871665L380.1376330875173,279.0846099262053L381.4634171101716,274.52980947994274L390.03682045668756,268.7596169429962L390.39036286272676,263.89983186442987L394.10255812617106,268.962094579374L386.23623959174074,281.6148204245892L384.64529876454617,289.50800296027955L380.40278989205035,290.8233753124732L384.2033707569972,298.7146619422683L380.40278989205035,299.9285619613638L375.3648106059554,322.8842797925072L371.65261534251476,324.4006948047163L373.06678496668246,328.1409297736009L371.12230173345233,329.6571377498767L370.3268313198605,330.2636042272443L373.3319417712155,330.76898566406726L371.12230173345233,338.75313274009386L374.65772579386976,335.01392801567636L378.6350778618398,339.9657699075169L365.4656232367852,346.53355878224465L363.34436880053545,344.6138592136276L359.2786311310556,351.98902581986204L356.803834288763,340.97627175232265L348.9375157543327,347.34182477026843L344.4298500773002,346.0283839438325L343.1040660546423,341.683607290749L345.7556340999581,339.0562956071517L340.9828116183926,333.80113506365524L340.18734120480076,330.8700611557524L340.0105700017775,330.5668338850428Z" class="sc-kAyceB dIJauC Imphal East mapstate" fill="rgb(18, 108, 189)" stroke-width="0.9px" data-darkreader-inline-fill="" style="--darkreader-inline-fill: #0e5697;"></path><path d="M124.79163032384531,307.5145674527066L124.52647351931591,307.71684041863955L125.14517272988451,308.2225181734693L140.43588179119615,320.55899403994226L137.60754254285712,330.06144979582314L131.59732164015077,335.5192471482742L131.50893603864097,335.6203101797719L134.0721184824397,336.4288048921635L135.92821611416366,337.03516479797054L135.92821611416366,337.03516479797054L135.66305930963063,337.7425726337151L133.8953472794201,340.36997382273876L132.5695632567622,344.7148984139958L136.63530092624205,345.6242393118182L135.1327457005682,347.0387270083147L133.63019047488706,348.5541920182777L133.54180487337726,348.5541920182777L137.51915694135096,355.7265861165997L134.0721184824397,359.3627842810329L136.19337291869306,369.7644628572789L132.1276352492132,372.08678590398904L132.92310566280867,377.3367420248651L128.76898239181537,377.03387928308985L128.68059679030557,377.03387928308985L130.44830882051247,379.0529195095787L124.96840152686491,387.5317401372731L109.6776924655569,381.98034099082906L99.77850509639029,376.3271903440227L104.37455637493258,372.3896873352478L95.18245381784436,367.84591697675205L98.80626347977523,363.60458321744045L96.41985223899246,360.1707818632567L99.60173389336705,358.65577254184336L98.45272107373239,352.29208472248956L101.89975953264002,351.3829008799503L104.37455637493258,344.41178001914614L100.48558990847232,343.8055360853605L95.80115302842023,334.4075363106467L99.51334829185362,333.90220260083606L105.34679799154765,324.0974165820908L102.69522994623185,322.37879484317L103.31392915680772,312.2677006214062L105.87711160061008,302.3562468143655L109.2357644580079,299.9285619613638L108.35190844290264,303.3677368545041L114.0085869395698,302.76084602861556L116.92531178941499,309.73951150031826L123.81938870723025,305.2894945161861Z" class="sc-kAyceB dIJauC Jiribam mapstate" fill="rgb(18, 108, 189)" stroke-width="0.9px" data-darkreader-inline-fill="" style="--darkreader-inline-fill: #0e5697;"></path><path d="M403.2062750817422,266.5322921563793L400.2011646303872,279.8942954802533L395.4283421488253,284.1448637346357L397.54959658507505,296.6914098933821L393.6606301186148,305.0872087654161L401.43856305153895,307.5145674527066L406.65331354065347,316.0091153493595L404.70883030742334,326.4224885593658L409.03972478143623,331.9818740608707L407.62555515726854,345.6242393118182L411.69129282674476,350.7767664263156L412.57514884185,359.9687840509778L404.70883030742334,357.84774328948697L404.17851669835727,357.7467384451229L403.55981748778504,357.544727964455L394.27932932919066,362.89764904132426L390.03682045668756,359.7667851832075L387.12009560684237,357.64573333677527L383.4962859449188,347.8469824177955L383.0543579373589,346.6345929564259L382.9659723358527,346.53355878224465L388.62265083251987,344.0076184550535L389.41812124611533,340.2689232411167L396.13542696090735,340.0668212835053L389.24135004309574,336.93410547603344L392.1580748929373,327.53442986729715L388.9761932385627,333.90220260083606L383.84982835095434,332.0829463702503L385.4407691781453,333.80113506365524L381.7285739147046,339.35945609066584L378.81184906486305,340.2689232411167L378.6350778618398,339.9657699075169L374.65772579386976,335.01392801567636L371.12230173345233,338.75313274009386L373.3319417712155,330.76898566406726L370.3268313198605,330.2636042272443L371.12230173345233,329.6571377498767L373.06678496668246,328.1409297736009L371.65261534251476,324.4006948047163L375.3648106059554,322.8842797925072L380.40278989205035,299.9285619613638L384.2033707569972,298.7146619422683L380.40278989205035,290.8233753124732L384.64529876454617,289.50800296027955L386.23623959174074,281.6148204245892L394.10255812617106,268.962094579374L390.39036286272676,263.89983186442987L390.03682045668756,268.7596169429962L381.4634171101716,274.52980947994274L380.1376330875173,279.0846099262053L372.0945433500674,280.80517125871665L372.8900137636665,263.4948218759382L368.9126616956928,261.57096579228164L372.0061577485576,259.3432218929911L367.49849207152147,258.63436703454227L368.0288056805839,253.36817599102233L364.1398392141309,255.0898953109272L364.7585384246995,251.34252438653766L369.4429753047516,249.51934597645868L365.02369522923254,248.3038452857354L365.6423944398048,246.1766258457983L370.3268313198605,245.4675263245681L367.6752632745447,242.42837895953198L364.4933816201665,244.04928771051982L364.7585384246995,240.30083158798334L369.708132109281,239.6929390889336L364.1398392141309,236.65333106884646L363.7862968080881,227.33035296147045L360.8695719582429,229.96533916968565L361.75342797334815,242.52968777621118L355.6548214691247,245.6701275336245L362.1069703793837,244.35320042714102L360.1624871461572,257.41915665931447L359.808944740118,257.6216944079006L356.6270630857398,259.2419577188566L354.9477366570427,253.6720144566416L351.23554139360203,253.4694557483681L353.8871094389142,258.12803407864067L343.19245165615575,254.78606813386705L343.2808372576619,259.03942856496724L351.05877019058244,260.254587376543L352.1193974087073,267.24100048491164L351.8542406041779,267.6459707728045L349.82137176943434,270.27817307881105L347.4349605286552,263.2923152716421L345.13693488938225,263.089807593934L342.7505236485995,263.19106156697126L342.7505236485995,263.19106156697126L345.9324053029777,266.73478159119077L341.4247396259452,269.0633329954326L345.31370609240184,270.3794080101343L342.22021003953705,275.5420342121506L337.71254436250456,275.2383696044317L331.52555225677133,274.9347025865327L332.49779387339004,271.594206281472L332.67456507640964,270.6831111959664L337.18223075344577,253.87457208970955L333.73519229453086,255.49499445139918L330.55331064015627,265.9248174149416L324.4547041359365,262.6847890181334L324.3663185344267,262.6847890181334L324.4547041359365,262.58353370323675L332.14425146734357,252.9630542734276L331.87909466281417,252.76049180164227L330.73008184317587,251.74766331134015L324.3663185344267,248.60772409028687L321.97990729364756,247.9999640597207L317.91416962416406,256.2039076018409L313.494889548645,258.0267666816935L312.9645759395826,265.823570685925L302.0047613522838,285.76400374654895L302.44668935983645,294.76922159762944L294.9339132314526,304.48034511904734L298.02740928431376,316.6157969431042L291.57526037405114,326.018138303195L291.13333236650215,339.0562956071517L285.8301962758742,342.4919748802495L283.97409864415386,357.3427164278446L283.70894183962446,359.9687840509778L282.2947722154531,360.06978308904854L282.2947722154531,360.06978308904854L280.17351777920703,360.27178037359135L274.25168247800684,353.90835871028503L281.14575939581846,348.0490436257469L278.67096255352953,339.35945609066584L282.8250858245192,335.5192471482742L279.37804736561156,322.2776970564928L284.23925544868325,316.8180220139484L285.7418106743644,308.62705558450307L288.12822191514715,308.42478741150535L288.12822191514715,308.32365292561553L288.0398363136337,308.32365292561553L286.0953530804072,305.89634537501024L284.23925544868325,303.5700316644743L284.23925544868325,303.3677368545041L291.9288027800976,291.0257362833727L292.193959584627,290.62101327328946L292.193959584627,290.5198318530647L288.48176432118635,272.6065086975268L299.9718925175439,257.11534802172537L297.40871007374153,238.781082151997L304.5679437960862,236.75465524459742L304.8331006006192,236.65333106884646L303.9492445855176,234.72812050130779L299.08803650244226,218.30921009475423L299.1764221039484,212.53049907794048L292.3707307876466,196.10198881998622L297.9390236828076,191.94302697011972L307.3962830444216,174.89665397413683L315.1742159773421,172.86681202850195L328.962369812969,159.36558791576863L335.50290432474503,159.8732400897552L340.18734120480076,157.13183719818971L343.2808372576619,155.3041245828599L343.81115086672435,154.99949720219684L343.45760846068515,154.59332353344507L333.55842109151126,142.101346065896L324.7198609404659,139.76498802182596L329.13914101598857,128.69070940536676L331.96748026432397,124.42268558497744L334.53066270812633,122.99990325214185L334.00034909906753,121.37380031803878L334.17712030208713,121.06889818099353L345.13693488938225,122.28849187970809L352.82648222078933,127.47132348150899L353.97549504042763,136.00619468133846L348.05365973922744,153.07013330845984L361.1347287627759,165.25393336082743L355.5664358676149,184.2325236792285L376.7789802301195,191.03002300747448L410.63066560862353,185.9573778774893L416.4641153083139,189.508300823838L406.74169914215963,191.8415831721768L401.43856305153895,199.65196101282163L402.58757587117,202.59311474718652L398.2566813971607,202.18745193192353L393.4838589155952,207.05511940977158L393.39547331408176,207.15652250814128L390.65551966725616,217.3968404793668L389.32973564460553,222.16119588800848L389.32973564460553,222.26255866378324L398.0799101941375,233.00548115529364L397.10766857752606,244.25189645750652L397.10766857752606,244.25189645750652L397.10766857752606,244.35320042714102L404.5320591044001,263.2923152716421L404.17851669835727,264.30483755973Z" class="sc-kAyceB dIJauC Kangpokpi mapstate" fill="rgb(18, 108, 189)" stroke-width="0.9px" data-darkreader-inline-fill="" style="--darkreader-inline-fill: #0e5697;"></path><path d="M331.70232345979457,381.67751453930214L328.34367060239674,381.98034099082906L331.4371666552652,375.9233623046057L329.49268342203504,370.4712715770329L331.34878105375174,364.41249216788674L331.4371666552652,364.10952828911377L324.98501774500255,362.89764904132426L335.50290432474503,351.3829008799503L337.97770116703396,352.6961595601633L337.97770116703396,352.595141247074L337.3590019564617,347.74595141717964L329.49268342203504,344.6138592136276L329.40429782052524,337.03516479797054L339.6570275957347,330.76898566406726L340.0105700017775,330.5668338850428L340.18734120480076,330.8700611557524L340.9828116183926,333.80113506365524L345.7556340999581,339.0562956071517L343.1040660546423,341.683607290749L344.4298500773002,346.0283839438325L348.9375157543327,347.34182477026843L356.803834288763,340.97627175232265L359.2786311310556,351.98902581986204L363.34436880053545,344.6138592136276L365.4656232367852,346.53355878224465L378.6350778618398,339.9657699075169L378.81184906486305,340.2689232411167L381.7285739147046,339.35945609066584L385.4407691781453,333.80113506365524L383.84982835095434,332.0829463702503L388.9761932385627,333.90220260083606L392.1580748929373,327.53442986729715L389.24135004309574,336.93410547603344L396.13542696090735,340.0668212835053L389.41812124611533,340.2689232411167L388.62265083251987,344.0076184550535L382.9659723358527,346.53355878224465L383.0543579373589,346.6345929564259L383.4962859449188,347.8469824177955L387.12009560684237,357.64573333677527L390.03682045668756,359.7667851832075L391.1858332763222,361.88772065728244L387.82718041892804,363.9075510515231L383.31951474189555,364.41249216788674L381.0214891026226,367.84591697675205L384.2033707569972,367.84591697675205L381.1982603056422,369.25959158346814L382.25888752376704,372.89451778806233L385.3523835766355,374.71185292392056L384.1149851554874,377.7405553309027L387.65040921590116,375.7214467060894L386.23623959174074,377.8415079997667L388.35749402799047,378.75007018285214L385.79431158418447,378.8510202214302L391.36260447934546,386.3205935564829L380.66794669657975,377.1348337934305L378.1931498542872,385.3112758469997L375.276425004442,378.8510202214302L375.3648106059554,386.3205935564829L377.66283624522475,391.77045543049735L380.9331035011128,392.47686296705797L377.2209082376721,393.8896394725243L376.3370522225705,393.38508233751054L375.09965380142603,390.6603604654438L372.35970015460043,391.26587074651434L374.2157977863171,389.85299872611995L372.0945433500674,386.72431328556104L368.824276094183,390.0548407358365L365.9959368458476,383.09068440723513L365.7307800413182,382.5859867968138L365.819165642828,383.5953754474631L366.1727080488672,391.56862234416076L365.9075512443342,391.56862234416076L363.4327544020416,392.3759483918557L362.814055191473,392.57777727987923L362.4605127854302,391.3667882081545L360.9579575597527,385.91686962486074L359.4554023340752,385.51314149039354L345.13693488938225,381.5765718630564L343.5459940621913,374.61089209820966L343.5459940621913,374.61089209820966L334.26550590359693,374.9137737857536Z" class="sc-kAyceB dIJauC Thoubal mapstate" fill="rgb(18, 108, 189)" stroke-width="0.9px" data-darkreader-inline-fill="" style="--darkreader-inline-fill: #0e5697;"></path><path d="M404.70883030742334,357.84774328948697L415.84541609773805,362.89764904132426L426.00976027144134,362.3926881463249L430.5174259484702,368.95666565787997L430.6941971514898,369.1586165383933L435.5554052345651,367.5429799848089L443.59849497201867,376.7310141735343L449.9622582807715,378.54816931667483L449.34355907019926,383.4944377650054L461.09884407108257,383.8981869181471L457.8285768151982,392.88051864414956L457.916962416708,392.88051864414956L462.15947128921107,394.7978257903551L461.62915768014864,400.4482856818058L461.62915768014864,400.4482856818058L461.62915768014864,400.54917928161194L470.467717831194,403.7776361622855L468.2580777934272,404.08029024504685L467.8161497858782,412.6545104406796L470.7328746357234,418.1006806992482L467.28583617681943,426.67181336024623L457.7401912136884,431.3095226962487L462.68978489826986,435.84587869833285L454.8234663638432,449.65331808182236L446.78037662639326,451.5678332130956L446.78037662639326,467.78707047953685L442.5378677538938,478.4619093127085L438.2069732798809,481.18050779744044L433.9644644073778,499.50096706719705L429.28002752732573,502.01684683253825L427.2471586925858,517.7123059827782L411.51452162372516,511.6763310135866L415.66864489471845,477.3542781445385L413.2822336539357,470.7078341102333L399.40569421679174,460.1316220593899L397.81475338960445,434.9386496936422L387.65040921590116,430.40218818540234L384.1149851554874,423.44525532107673L372.8900137636665,421.9327142635466L366.9681784624627,414.46998520009674L368.4707336881402,412.35192307921534L369.708132109281,410.6372169120277L363.8746824095979,412.04933336459726L362.2837415824106,412.6545104406796L362.19535598089715,412.35192307921534L362.1069703793837,411.8476055808087L360.33925834918045,404.7864739405668L362.01858477787755,402.26433039538824L362.01858477787755,401.35631864828156L361.4882711688115,400.0447086624563L359.9857159431376,396.10961296808273L362.2837415824106,395.30236456507646L362.1069703793837,392.88051864414956L362.814055191473,392.57777727987923L363.4327544020416,392.3759483918557L365.9075512443342,391.56862234416076L366.1727080488672,391.56862234416076L365.819165642828,383.5953754474631L365.7307800413182,382.5859867968138L365.9959368458476,383.09068440723513L368.824276094183,390.0548407358365L372.0945433500674,386.72431328556104L374.2157977863171,389.85299872611995L372.35970015460043,391.26587074651434L375.09965380142603,390.6603604654438L376.3370522225705,393.38508233751054L377.2209082376721,393.8896394725243L380.9331035011128,392.47686296705797L377.66283624522475,391.77045543049735L375.3648106059554,386.3205935564829L375.276425004442,378.8510202214302L378.1931498542872,385.3112758469997L380.66794669657975,377.1348337934305L391.36260447934546,386.3205935564829L385.79431158418447,378.8510202214302L388.35749402799047,378.75007018285214L386.23623959174074,377.8415079997667L387.65040921590116,375.7214467060894L384.1149851554874,377.7405553309027L385.3523835766355,374.71185292392056L382.25888752376704,372.89451778806233L381.1982603056422,369.25959158346814L384.2033707569972,367.84591697675205L381.0214891026226,367.84591697675205L383.31951474189555,364.41249216788674L387.82718041892804,363.9075510515231L391.1858332763222,361.88772065728244L390.03682045668756,359.7667851832075L394.27932932919066,362.89764904132426L403.55981748778504,357.544727964455L404.17851669835727,357.7467384451229Z" class="sc-kAyceB dIJauC Tengnoupal mapstate" fill="rgb(18, 108, 189)" stroke-width="0.9px" data-darkreader-inline-fill="" style="--darkreader-inline-fill: #0e5697;"></path><path d="M540.115571821425,208.06913820025147L528.0951300160013,212.12494248006988L505.38003042781565,233.41081507325998L483.9023292607817,238.4771249889409L467.4626073798354,248.20255181279026L449.78548707774826,248.20255181279026L436.174104445141,256.001362330916L418.67375534607345,261.97599617760534L410.2771232025807,261.57096579228164L403.2062750817422,266.5322921563793L404.17851669835727,264.30483755973L404.5320591044001,263.2923152716421L397.10766857752606,244.35320042714102L397.10766857752606,244.25189645750652L397.10766857752606,244.25189645750652L398.0799101941375,233.00548115529364L389.32973564460553,222.26255866378324L389.32973564460553,222.16119588800848L390.65551966725616,217.3968404793668L393.39547331408176,207.15652250814128L393.4838589155952,207.05511940977158L398.2566813971607,202.18745193192353L402.58757587117,202.59311474718652L401.43856305153895,199.65196101282163L406.74169914215963,191.8415831721768L416.4641153083139,189.508300823838L418.4969841430502,183.72519865946288L425.4794466623789,180.68110568370412L427.3355442940956,172.86681202850195L437.5882740693087,168.80680100507743L447.6642326414949,157.13183719818971L450.5809574913401,147.586138837637L462.42462809374047,132.9582487344178L462.95494170280654,117.20659016560967L465.8716665526481,113.34388476701679L464.01556892092776,112.42897525569515L466.93229377077296,112.32731726628663L471.8818874553617,100.12635756108466L474.7986123052033,99.00773752095574L472.58897226744375,96.0584881957302L485.67004129099223,73.06671547764836L487.7029101257285,62.888848325610525L493.7131310284385,55.864500781587594L502.6400767809937,45.274576134980634L509.0922256912563,41.70998176575176L517.4004722332393,28.772727272727934L523.941006745008,31.72730014013905L519.4333410679792,35.80218773136403L521.1126674966727,37.43201773686087L517.3120866317258,45.478256931677606L523.1455363314199,46.19113094482236L520.4055826845943,46.59848139544374L511.12509452599625,63.70317985082602L514.9256753909431,68.69057269211135L512.6276497516774,71.4384431916269L515.6327602030324,73.57553600882966L512.0089505411015,87.71797413694821L518.4610994513641,89.75241724200987L529.4209140386592,100.22804863589317L546.125792724135,105.51560431438975L541.8832838516282,117.91809780890162L534.7240501292799,121.06889818099353L534.6356645277738,133.36465579612468L520.8475106921433,161.09157744325057L521.0242818951665,172.76531706946753L518.1075570453177,177.5352855642177L526.5925747903239,187.58069826502197L530.5699268582975,185.9573778774893L536.2266053549647,192.34879944507156L547.539962348299,197.72487450513108L550.279915995121,194.98621459644255L557.1739929129362,201.071856814664L563.2725994171633,201.98461889708415L564.1564554322613,207.76493540808406Z" class="sc-kAyceB dIJauC Ukhrul mapstate" fill="rgb(18, 108, 189)" stroke-width="0.9px" data-darkreader-inline-fill="" style="--darkreader-inline-fill: #0e5697;"></path><path d="M135.92821611416366,337.03516479797054L146.18094588936947,349.5644689738856L153.60533641624716,349.5644689738856L155.10789164192465,347.44285682866666L160.4994133340624,339.8647182667228L170.4869863047461,332.9925852228871L167.9238038609401,328.7474201275263L170.7521431092755,321.16560387136633L177.20429201953812,318.7391071515076L179.67908886183068,303.0642926408391L187.28025059172796,303.87347188084277L189.6666618325071,298.2088589330442L215.03332946600494,298.7146619422683L227.93762728653383,303.0642926408391L232.7988353696055,302.45739701772254L237.21811544513184,294.87039180439933L248.17793003242332,301.9516433354893L253.56945172456108,305.4917792013557L257.6351893940446,305.79520423116537L287.7746795091043,308.32365292561553L288.0398363136337,308.32365292561553L288.0398363136337,308.32365292561553L288.12822191514715,308.32365292561553L288.12822191514715,308.42478741150535L285.7418106743644,308.62705558450307L284.23925544868325,316.8180220139484L279.37804736561156,322.2776970564928L282.8250858245192,335.5192471482742L278.67096255352953,339.35945609066584L281.14575939581846,348.0490436257469L274.25168247800684,353.90835871028503L280.17351777920703,360.27178037359135L282.2947722154531,360.06978308904854L282.2947722154531,360.06978308904854L281.58768740337473,362.2916951760608L281.58768740337473,362.3926881463249L278.31742014749034,361.281750965476L276.10778010972354,366.028259446799L271.33495762816165,363.7055727591651L261.25899905596816,365.32136956661634L257.6351893940446,370.0673824604655L251.71335409284438,365.7253082226616L242.6096371372696,378.2453160447649L234.83170420434908,369.96640952281905L226.78861446689552,375.115693594852L224.578974429136,381.17279852924185L219.09906713548844,378.3462673984259L212.82368942824542,381.67751453930214L207.5205533376211,375.82240463691596L201.3335612318915,386.1187321160096L187.10347938870837,375.51953005498126L186.57316577964593,375.9233623046057L184.27514014037297,377.63960239898734L184.18675453886317,377.63960239898734L171.9895415304236,374.5099310093092L171.9895415304236,374.5099310093092L168.8960454775588,377.53864920401156L154.40080682984626,377.7405553309027L154.13565002531323,377.7405553309027L148.03704352109344,390.55944116668434L149.45121314526114,394.9996420870202L141.23135220478798,394.09146049032006L136.9888433322849,400.24649769616735L128.94575359483497,391.1649530224422L126.11741434650321,394.19237060576506L123.37746069967761,392.7796051184232L124.96840152686491,387.5317401372731L130.44830882051247,379.0529195095787L128.68059679030557,377.03387928308985L128.76898239181537,377.03387928308985L132.92310566280867,377.3367420248651L132.1276352492132,372.08678590398904L136.19337291869306,369.7644628572789L134.0721184824397,359.3627842810329L137.51915694135096,355.7265861165997L133.54180487337726,348.5541920182777L133.63019047488706,348.5541920182777L135.1327457005682,347.0387270083147L136.63530092624205,345.6242393118182L132.5695632567622,344.7148984139958L133.8953472794201,340.36997382273876L135.66305930963063,337.7425726337151Z" class="sc-kAyceB dIJauC Noney mapstate" fill="rgb(18, 108, 189)" stroke-width="0.9px" data-darkreader-inline-fill="" style="--darkreader-inline-fill: #0e5697;"></path><path d="M184.27514014037297,377.63960239898734L183.2145129222481,389.9539198622251L190.02020423855356,395.30236456507646L185.42415296001127,399.33843879033066L183.2145129222481,409.42679058134763L176.76236401198912,414.9742687147409L173.5804823576109,429.3940139685419L177.91137683162015,434.6362353379109L213.26561743579805,440.1801262252284L209.64180777387082,476.0452191670711L186.2196233736031,495.8778174792442L181.27002968901797,525.6582640727429L171.45922792135752,521.1322816158035L174.72949517724192,524.8536829112772L168.18896066547313,526.5633982737827L168.54250307151233,536.3174168967562L155.72659085250052,536.7195927687344L146.3577170923927,546.3705866185228L149.18605634072446,534.9097691122006L145.29708987426784,528.172474495871L137.0772289337947,527.1668095433452L137.0772289337947,534.1053764344142L134.0721184824397,538.0266360903379L122.22844788003931,537.0212219869936L121.69813427098052,530.1837275545968L114.71567175165546,525.8594068001803L110.64993408217197,533.703173954068L103.04877235227468,539.6352454674488L102.60684434472205,530.2842875184078L97.21532265258793,521.5346121935754L88.28837690003274,525.1554027691054L72.6441254326819,517.3099364067311L67.51776054507718,518.1146714524994L72.4673542296623,510.670245290029L71.84865501909007,506.9475046450707L76.88663430518136,503.12378296773295L75.03053667346467,492.25433398982295L79.18465994445796,491.54972896275376L81.30591438070405,485.7110868535765L79.71497355351676,483.6975607127879L81.83622798977012,480.7777643508407L76.35632069611893,473.52767523892L78.56596073387846,469.3985531965245L77.0634055082046,465.7726238690466L86.52066486982221,447.43639393757167L80.06851595955959,445.0177877940214L82.18977039581296,432.21683609912816L77.59371911727067,425.7643709115782L82.10138479429952,427.37758732618295L87.22774968190424,424.3527517716775L84.31102483205905,420.62179784151704L88.19999129852295,406.9049480614185L84.22263923054925,400.14560331032044L89.26061851664417,392.57777727987923L89.26061851664417,385.00847541161056L95.00568261482476,380.76902098908977L91.64702975742694,375.7214467060894L99.77850509639029,376.3271903440227L109.6776924655569,381.98034099082906L124.96840152686491,387.5317401372731L123.37746069967761,392.7796051184232L126.11741434650321,394.19237060576506L128.94575359483497,391.1649530224422L136.9888433322849,400.24649769616735L141.23135220478798,394.09146049032006L149.45121314526114,394.9996420870202L148.03704352109344,390.55944116668434L154.13565002531323,377.7405553309027L154.40080682984626,377.7405553309027L168.8960454775588,377.53864920401156L171.9895415304236,374.5099310093092L171.9895415304236,374.5099310093092L184.18675453886317,377.63960239898734Z" class="sc-kAyceB dIJauC Pherzawl mapstate" fill="rgb(18, 108, 189)" stroke-width="0.9px" data-darkreader-inline-fill="" style="--darkreader-inline-fill: #0e5697;"></path></svg>