<svg xmlns="http://www.w3.org/2000/svg"  xmlns:xlink="http://www.w3.org/1999/xlink"  id="map" width="633" height="633"><defs><filter id="sofGlow" height="300%" width="300%" x="-75%" y="-75%"><feMorphology operator="dilate" radius="4" in="SourceAlpha" result="thicken"></feMorphology><feGaussianBlur in="thicken" stdDeviation="10" result="blurred"></feGaussianBlur><feFlood flood-color="rgb(0,186,255)" result="glowColor"></feFlood><feComposite in="glowColor" in2="blurred" operator="in" result="softGlow_colored"></feComposite><feMerge><feMergeNode in="softGlow_colored"></feMergeNode><feMergeNode in="SourceGraphic"></feMergeNode></feMerge></filter></defs><path d="M495.4155882352934,294.055787064116L495.32250000000204,294.21077622144276L495.7879411764734,300.25468544557134L494.7639705882357,298.317676831909L492.9022058823539,300.4871174952232L492.25058823529616,301.1844020958215L491.1335294117671,301.1844020958215L427.9266176470592,300.4871174952232L426.7164705882351,293.5133182667196L424.38926470588194,285.99516963961105L422.7136764705865,280.3358502989613L422.4344117647088,279.4829769313428L415.1735294117643,277.46699105895095L414.14955882353024,276.45894362963827L418.05926470588383,265.9886091293838L409.96058823529165,257.3767251315421L401.02411764706267,259.0837962780497L398.97617647058723,262.6527892825261L390.8774999999987,260.4028251462414L387.71250000000146,262.80795253528413L375.51794117647296,260.9459365513885L348.24308823529645,266.5316118429355L340.70294117647063,265.36802166739835L339.67897058823655,263.04069579676525L328.7876470588235,262.3424601885972L325.7157352941176,259.78211344902684L323.5747058823508,256.36795214538324L322.2714705882354,254.19508633278656L329.8116176470576,252.87576371909563L340.60985294117563,250.93546990919913L345.45044117647194,254.42790148672339L349.2670588235269,250.31454734569434L358.9482352941159,248.06358699570046L351.6873529411787,246.3558405037902L353.64220588235185,241.85309739285913L357.92426470588543,242.31893219820722L358.1104411764718,238.35908762400686L364.9058823529449,232.84542341703946L357.7380882352918,236.96136076594303L357.64500000000044,233.9327114086136L361.27544117646903,230.82606136584855L360.9030882352963,226.16543449187157L367.8847058823558,222.12559128594148L374.0285294117675,208.83656923421495L377.7520588235311,212.41202075267393L384.8267647058856,211.479338785658L383.80279411764786,219.7946448149205L386.87470588235374,225.15552884028784L384.5475000000006,230.04934455343482L380.730882352942,229.5833040366697L380.26544117647063,231.36975020825048L389.2019117647069,238.74733261315214L393.2047058823555,239.2132194438227L402.3273529411781,229.8163252728782L402.79279411764946,228.65119953335306L403.90985294117854,225.62164370845676L404.1891176470599,224.68940614136227L404.28220588235126,221.8925054561132L404.37529411764626,208.44790537077097L406.0508823529417,202.77279111623739L415.82514705882204,195.5411633653648L418.80397058823655,196.55214985472776L426.0648529411774,188.4632213194909L426.34411764705874,188.61879999372832L437.42161764705816,193.51907936198586L434.90823529411864,206.7377195193667L438.2594117647059,210.46889786561496L444.961764705884,211.7902362653531L443.93779411764626,214.58815652715202L444.12397058823626,214.8213037913947L445.98573529411806,216.99725031520393L448.4991176470612,213.73326643533528L459.57661764706063,210.5466253995528L460.6936764705897,207.51508982729956L474.00529411764364,208.91430135193968L483.68647058823626,205.02742795280665L491.1335294117671,206.19354730806117L498.95294117647063,198.34072763232598L499.697647058827,198.8072940994325L500.44235294117607,199.35161168871127L502.1179411764715,200.51797042573162L508.7272058823546,200.9845001402282L518.78073529412,201.1400082954142L521.0148529411781,201.1400082954142L519.1530882352927,202.85054027410115L519.1530882352927,203.0060379340157L518.873823529415,208.83656923421495L500.2561764705897,221.97020095039989L497.83588235294155,223.67944675928175L495.4155882352934,229.73865174477396L497.1842647058802,233.6220620390559L495.7879411764734,237.5825813793881L495.88102941176476,237.5825813793881L500.2561764705897,238.51438627026891L504.25897058823466,235.87419128156944L505.9345588235301,238.74733261315214L510.86823529411777,238.04848772890364L500.62852941176243,246.66634765837807L500.7216176470574,251.63399124886564L495.13632352941204,259.8597031665686L494.3916176470593,270.17721378771694L497.3704411764702,277.3119092040397L493.64691176470296,283.2819401294819L493.64691176470296,283.3594646217234L493.64691176470296,283.3594646217234L493.73999999999796,283.4369888992742L495.9741176470561,288.5531167171248L496.16029411764976,292.7383446343074Z" class="sc-kAyceB dIJauC Ribhoi mapstate" fill="rgb(18, 108, 189)" stroke-width="0.9px" data-darkreader-inline-fill="" style="--darkreader-inline-fill: #0e5697;"></path><path d="M322.2714705882354,254.19508633278656L323.5747058823508,256.36795214538324L325.7157352941176,259.78211344902684L328.7876470588235,262.3424601885972L339.67897058823655,263.04069579676525L340.70294117647063,265.36802166739835L348.24308823529645,266.5316118429355L375.51794117647296,260.9459365513885L387.71250000000146,262.80795253528413L390.8774999999987,260.4028251462414L398.97617647058723,262.6527892825261L401.02411764706267,259.0837962780497L409.96058823529165,257.3767251315421L418.05926470588383,265.9886091293838L414.14955882353024,276.45894362963827L415.1735294117643,277.46699105895095L422.4344117647088,279.4829769313428L422.7136764705865,280.3358502989613L424.38926470588194,285.99516963961105L426.7164705882351,293.5133182667196L426.34411764705874,293.8233017217917L422.4344117647088,297.00043459067456L420.66573529411835,308.62102733499887L416.6629411764734,313.2679188452148L406.5163235294094,316.67515132682547L397.11441176470544,328.2102175428945L393.11161764705685,329.13901069688654L390.69132352941233,327.74580948973835L389.66735294117825,322.17231577745133L365.92985294117534,331.69303412017143L367.5123529411758,338.5800053657176L366.95382352941306,338.6573775188426L363.2302941176458,339.19897665417466L360.7169117647063,344.7691079179285L345.9158823529433,344.3823287280202L333.90750000000116,344.07290156460203L316.59308823529136,347.3990660543832L311.28705882352733,354.9781654674098L307.9358823529401,355.5967778463282L299.93029411764655,343.2219593937816L298.25470588235476,346.4708734751821L295.3689705882389,343.4540370727491L291.645441176468,343.4540370727491L289.2251470588235,346.54822402077207L286.89794117647034,342.2936296142607L273.58632352941277,349.3327027339501L275.5411764705859,354.6688542082502L280.28867647058723,357.99377315374386L270.04897058823553,367.6570197428482L271.91073529411733,374.14887205719515L271.1660294117646,374.7670662726441L269.21117647059145,376.62156817371033L261.67102941176563,371.3668314841425L256.2719117647066,372.21692836683997L248.73176470588442,362.7098491032366L248.08014705882306,366.03382452554797L244.91514705882582,367.6570197428482L245.8460294117649,371.98508628766285L234.86161764706048,369.2028335891846L228.15926470588238,374.4579708473857L222.85323529411835,374.2261470702142L216.9886764705916,379.48035473948585L216.8955882352966,379.55761524912396L216.8955882352966,379.48035473948585L218.19882352941204,370.51670913618L216.8025000000016,368.3526463983326L210.28632352940986,365.2608417637857L203.6770588235304,366.34301173010135L197.62632352941364,362.63254271119695L200.97749999999724,353.8955612718373L199.20882352941044,350.80217819471727L200.51205882352951,347.321717836704L198.37102941176636,345.85206149070564L200.13970588235316,344.07290156460203L203.02544117647267,345.7747090401226L206.4697058823549,341.9841795754928L203.02544117647267,341.6747261468554L206.4697058823549,337.7288976865548L206.5627941176499,332.7764893341964L200.41897058823815,322.4819832476596L200.6051470588245,322.09489837785804L200.6051470588245,322.09489837785804L202.65308823529267,316.1331192165271L204.79411764705947,314.66183656079556L206.00426470588354,318.068900240909L208.70382352941306,313.57768430776923L208.79691176470442,313.57768430776923L208.79691176470442,313.57768430776923L211.49647058823393,316.5202860750751L213.7305882352921,313.1904769464627L224.43573529411879,309.0857510553469L247.6147058823517,277.2343679541018L238.67823529411908,274.5202887354699L238.67823529411908,274.5202887354699L238.95750000000044,272.50394501880874L239.32985294117316,270.33233523131184L242.0294117647063,269.1689034080964L247.33544117647034,263.2734371171382L251.33823529411893,257.91989546835066L251.5244117647053,257.91989546835066L252.64147058823437,257.9974903670145L253.5723529411771,258.0750850497543L261.0194117647079,252.41010552875377L261.2055882352943,252.25488440245317L261.29867647058563,252.17727351500253L267.7217647058824,251.32353948261698L266.32544117647194,254.66071469579492L261.39176470588427,256.9111421349953L264.18441176470515,258.8510200021865L276.56514705882364,256.057553113631L282.33661764705903,251.86682780310366L289.2251470588235,253.4190217720543L292.57632352941073,249.30551865464804L294.25191176470616,253.57423641324658L290.5283823529426,259.4717524204543L288.85279411764714,269.09133956363803L291.45926470588165,276.07122340409023L298.25470588235476,282.04151905215986L309.2391176470592,275.4508598605771L322.1783823529404,254.19508633278656L322.1783823529404,254.19508633278656Z" class="sc-kAyceB dIJauC West Khasi Hills mapstate" fill="rgb(18, 108, 189)" stroke-width="0.9px" data-darkreader-inline-fill="" style="--darkreader-inline-fill: #0e5697;"></path><path d="M583.756323529411,342.5257149188874L586.0835294117678,340.901077743064L586.4558823529405,340.9784435370166L586.5489705882355,340.9784435370166L589.9932352941178,342.2936296142607L591.6688235294132,354.6688542082502L596.1370588235332,352.6582486228044L595.6716176470618,349.6420723333931L598.650441176469,353.6635692708396L601.6292647058835,349.95143854886646L603.3048529411753,356.2927006149257L605.8182352941149,354.5141973111495L615.2201470588261,364.25593266593205L619.5022058823524,362.63254271119695L618.292058823532,365.1062426825656L622.015588235292,370.9031315424154L628.811029411765,373.4533874749759L631.0451470588232,385.35155504765135L626.0183823529405,388.7501170725818L627.973235294121,391.0670857503437L624.6220588235301,393.7699775589026L626.6700000000019,397.70801791288613L633,401.1051056842707L627.600882352941,404.8105580784131L620.5261764705901,403.18948189126695L610.1933823529434,409.5960552732213L603.6772058823517,410.2134803473109L602.0947058823549,415.229564335511L596.2301470588245,419.24179764220116L594.8338235294104,424.6419921466522L573.7958823529407,418.9331843018517L573.7958823529407,419.0103379492102L573.7958823529407,419.47325546166667L573.9820588235307,422.0191678509809L577.4263235294093,428.3443937775455L565.0455882352944,426.1075833830455L563.0907352941176,435.8248699172873L559.9257352941204,438.90903393034296L561.5082352941172,442.76377269589284L556.8538235294109,440.9135627167261L553.3164705882373,444.5367786805091L536.1882352941175,439.75712089464923L533.7679411764693,432.2776710874923L526.1347058823521,434.668222880191L507.42397058823553,425.41336530977424L510.68205882352777,423.79345765309426L505.46911764705874,422.2506031957937L510.77514705882277,413.30040549898786L512.8230882352909,404.73336606311295L509.5650000000023,398.8661615013598L506.58617647059145,398.3257003501303L505.3760294117674,383.1886223131478L499.41838235293835,372.83516465327193L499.9769117647047,368.66180832497776L519.9908823529404,358.76695416611165L542.2389705882379,356.4473477959964L558.5294117647063,352.73558224836506L567.4658823529389,348.09519049164555L576.4954411764738,349.7194142045L578.7295588235284,344.1502586730976L579.0088235294133,344.22761556983187L583.1977941176483,344.6143968771894L583.2908823529433,344.53704103921154L583.4770588235297,344.3823287280202Z" class="sc-kAyceB dIJauC East Jaintia Hills mapstate" fill="rgb(18, 108, 189)" stroke-width="0.9px" data-darkreader-inline-fill="" style="--darkreader-inline-fill: #0e5697;"></path><path d="M426.7164705882351,293.5133182667196L427.9266176470592,300.4871174952232L491.1335294117671,301.1844020958215L491.31970588235345,301.64924887360576L491.41279411764845,301.64924887360576L492.3436764705875,304.90296084319834L485.36205882352806,319.6948534115436L487.22382352940986,323.8754447316969L483.22102941176126,335.7170866116312L486.1998529411758,341.13317448917405L483.1279411764699,345.85206149070564L487.03764705882713,355.3647997884282L484.61735294117534,358.1484110448828L486.7583823529385,362.55523610828277L486.57220588235214,372.75788585385817L488.3408823529426,373.91704575616404L486.66529411764714,379.86665518706195L472.60897058823684,376.38976205858944L460.6005882352947,385.7377757261502L459.855882352942,394.001642062437L467.58220588235054,404.2702095850955L467.3029411764728,406.89466355516834L466.5582352941201,407.2805923109727L459.48352941176563,411.3711163791295L451.8502941176448,408.66989262591505L409.40205882352893,411.3711163791295L408.7504411764712,416.77279763935167L400.4655882352963,414.843742988116L398.23147058823815,418.7017221106562L387.15397058823874,422.48203666835707L382.2202941176474,417.23575138270917L378.49676470588383,417.1585929461671L378.8691176470602,410.9080675978212L355.59705882352864,420.0133164216786L350.94264705882597,419.70471140769314L350.01176470588325,416.5413179558336L344.24029411764786,415.9240296343687L338.84117647058883,411.21676761958497L336.7001470588257,412.68304715820886L331.580294117648,410.13630294318955L326.181176470589,396.70425539611006L332.79044117646845,395.46880682977644L336.4208823529407,389.8313925941384L340.70294117647063,390.21755246800694L343.9610294117665,387.5915619914949L352.61823529411777,389.8313925941384L356.155588235295,385.1970653077615L363.9750000000022,386.8191657281541L367.2330882352944,384.347356737253L367.6054411764708,374.2261470702142L362.20632352941175,369.82113554330226L368.9086764705862,351.03419365762693L366.95382352941306,338.6573775188426L367.5123529411758,338.5800053657176L365.92985294117534,331.69303412017143L389.66735294117825,322.17231577745133L390.69132352941233,327.74580948973835L393.11161764705685,329.13901069688654L397.11441176470544,328.2102175428945L406.5163235294094,316.67515132682547L416.6629411764734,313.2679188452148L420.66573529411835,308.62102733499887L422.4344117647088,297.00043459067456L426.34411764705874,293.8233017217917Z" class="sc-kAyceB dIJauC East Khasi Hills mapstate" fill="rgb(18, 108, 189)" stroke-width="0.9px" data-darkreader-inline-fill="" style="--darkreader-inline-fill: #0e5697;"></path><path d="M200.6051470588245,322.09489837785804L200.41897058823815,322.4819832476596L206.5627941176499,332.7764893341964L206.4697058823549,337.7288976865548L203.02544117647267,341.6747261468554L206.4697058823549,341.9841795754928L203.02544117647267,345.7747090401226L200.13970588235316,344.07290156460203L198.37102941176636,345.85206149070564L200.51205882352951,347.321717836704L199.20882352941044,350.80217819471727L200.97749999999724,353.8955612718373L197.62632352941364,362.63254271119695L203.6770588235304,366.34301173010135L210.28632352940986,365.2608417637857L216.8025000000016,368.3526463983326L218.19882352941204,370.51670913618L216.8955882352966,379.48035473948585L216.8955882352966,379.55761524912396L216.9886764705916,379.48035473948585L217.36102941176432,379.86665518706195L221.82926470588427,382.57061131111095L230.20720588235417,381.9525868741757L233.18602941176505,386.66468395899756L236.53720588235592,386.5102013509395L236.53720588235592,386.43295973232125L236.81647058823728,386.74192494843555L241.47088235293995,392.76607626623536L242.3086764705913,393.7699775589026L242.0294117647063,394.9282812339161L240.44691176470587,401.2595091468056L244.35661764705947,404.4245959132659L244.63588235294083,411.139592926982L220.2467647058802,414.1492514345646L212.799705882353,413.30040549898786L204.42176470587947,408.5155292634299L200.32588235293952,412.91455809952276L196.22999999999956,412.91455809952276L195.39220588235185,415.61538047387785L191.8548529411746,412.99172799633925L186.08338235293922,414.1492514345646L182.17367647058927,412.3743629843557L177.98470588235432,406.35435452907586L173.98191176470573,410.98524291610374L147.26558823529558,412.14284766475157L133.30235294117665,417.93016794005325L119.05985294117636,413.68624768711834L109.37867647058738,406.66310379661445L103.70029411764699,407.82088380210644L88.62000000000262,403.8070455872594L87.6891176470599,396.47261287065794L91.5057352941185,392.14827326350587L94.48455882352937,376.31249293311885L104.53808823529107,365.95652719763893L105.56205882352879,361.4729215235029L103.42102941176563,353.50890688032086L106.77220588235286,342.757798316944L106.95838235294286,342.8351590259699L107.51691176470922,343.2219593937816L117.38426470588092,344.1502586730976L132.74382352941393,343.6087544664151L149.03426470588238,349.95143854886646L175.75058823529616,354.0502215493534L183.01147058823335,338.6573775188426Z" class="sc-kAyceB dIJauC South Garo Hills mapstate" fill="rgb(18, 108, 189)" stroke-width="0.9px" data-darkreader-inline-fill="" style="--darkreader-inline-fill: #0e5697;"></path><path d="M106.95838235294286,342.8351590259699L106.77220588235286,342.757798316944L103.42102941176563,353.50890688032086L105.56205882352879,361.4729215235029L104.53808823529107,365.95652719763893L94.48455882352937,376.31249293311885L91.5057352941185,392.14827326350587L87.6891176470599,396.47261287065794L88.62000000000262,403.8070455872594L72.88808823529689,399.25219890648714L62.92764705882655,399.02057709081055L51.757058823528496,391.60768463939075L35.00117647058869,384.7335910529064L33.69794117646961,381.41180446954513L37.607647058823204,378.2441580134873L37.793823529409565,376.544299678877L41.610441176471795,374.9988856334812L46.54411764705583,370.9031315424154L71.21250000000146,363.71481301178846L73.44661764705961,360.5451904031552L71.49176470588282,358.0710922048602L75.30838235294141,323.8754447316969L70.4677941176451,323.7980320132765L69.07147058823466,321.7078081874706L68.60602941176694,325.50106268183754L68.5129411764683,325.50106268183754L67.95441176470558,325.50106268183754L66.55808823529514,325.50106268183754L66.55808823529514,325.268837288716L66.65117647059014,319.6948534115436L66.37191176470515,319.6948534115436L63.11382352941291,320.0819712765033L58.2732352941166,313.65512514031343L43.28602941176723,309.1632042616411L42.82058823529587,309.0082976356043L39.93485294117636,304.51563394843197L35.46661764706005,304.51563394843197L28.485000000000582,297.62032099654607L28.29882352941422,297.38786519947644L27.274852941176505,292.19585034454485L20.851764705883397,284.7548687730523L17.686764705882524,281.11116716570905L16.848970588234806,277.1568264891739L16.755882352939807,276.92420080441116L16.755882352939807,276.76911593955265L20.94485294117476,277.7771521890636L23.085882352941553,278.2423874353781L25.506176470589708,276.84665847948327L25.785441176471068,276.69157318460384L25.320000000003347,274.5202887354699L30.439852941177378,268.4708210537874L28.11264705882786,257.7647050232399L30.06750000000102,256.9111421349953L29.3227941176483,258.7734274784789L30.998382352943736,259.00620440197054L31.370735294116457,255.97995281565818L32.953235294116894,257.53191773605613L39.841764705885,254.50550610583923L42.355147058824514,250.62501035770038L43.84455882352995,248.29645340119987L43.84455882352995,247.7530954253234L42.913676470587234,246.74397390583363L40.86573529411544,244.6479892312118L40.77264705882408,244.57035713763617L41.610441176471795,243.7940242896084L43.37911764706223,242.16365479653723L44.40308823529267,241.23197218327095L48.0335294117649,243.09530620603255L51.850147058823495,237.0390141018952L57.34235294117752,235.64122085894087L58.5525000000016,231.2144116251393L61.438235294117476,228.80655245723847L63.85852941176563,226.70921461917078L64.97558823529471,226.39848442261427L71.11941176470646,224.53403016807533L72.6088235294119,226.70921461917078L76.51852941176548,226.32080132983265L78.65955882353228,229.8163252728782L82.10382352941451,225.8546982062653L83.87250000000131,227.79674291061474L107.88926470588194,222.90252990415502L115.61558823529413,214.8213037913947L115.89485294117549,214.58815652715202L116.26720588235185,214.58815652715202L124.64514705882539,214.5104403363357L125.01749999999811,214.5104403363357L125.57602941176447,215.59844716782754L128.55485294117534,218.62909808424956L130.60279411764714,218.62909808424956L131.0682352941185,218.62909808424956L131.0682352941185,221.03784065125183L126.97235294117854,234.86463867728162L120.17691176470544,247.83071864253907L120.45617647059044,254.11748084926148L111.70588235294053,257.14393460510564L110.96117647058782,262.6527892825261L122.13176470588223,264.0492275005645L124.36588235294039,272.8141612124673L124.36588235294039,272.96926801804693L123.99352941176767,273.5121350590789L121.10779411764815,277.1568264891739L125.2036764705881,282.04151905215986L126.69308823529718,297.3103795057614L122.13176470588223,300.8744999673736L123.43500000000131,303.66349597622684L119.99073529411908,313.9648863382299L121.66632352941087,323.48837901214847L121.20088235294315,324.41732780418715L120.17691176470544,326.12032104009904L118.6875,328.82941637895783L113.19529411764961,331.1512909052408L112.0782352941169,332.0025969995286L106.4929411764715,340.51424559445786Z" class="sc-kAyceB dIJauC West Garo Hills mapstate" fill="rgb(18, 108, 189)" stroke-width="0.9px" data-darkreader-inline-fill="" style="--darkreader-inline-fill: #0e5697;"></path><path d="M238.67823529411908,274.5202887354699L247.6147058823517,277.2343679541018L224.43573529411879,309.0857510553469L213.7305882352921,313.1904769464627L211.49647058823393,316.5202860750751L208.79691176470442,313.57768430776923L208.79691176470442,313.57768430776923L208.70382352941306,313.57768430776923L206.00426470588354,318.068900240909L204.79411764705947,314.66183656079556L202.65308823529267,316.1331192165271L200.6051470588245,322.09489837785804L200.6051470588245,322.09489837785804L183.01147058823335,338.6573775188426L175.75058823529616,354.0502215493534L149.03426470588238,349.95143854886646L132.74382352941393,343.6087544664151L117.38426470588092,344.1502586730976L107.51691176470922,343.2219593937816L106.95838235294286,342.8351590259699L106.4929411764715,340.51424559445786L112.0782352941169,332.0025969995286L113.19529411764961,331.1512909052408L118.6875,328.82941637895783L120.17691176470544,326.12032104009904L121.20088235294315,324.41732780418715L121.66632352941087,323.48837901214847L119.99073529411908,313.9648863382299L123.43500000000131,303.66349597622684L122.13176470588223,300.8744999673736L126.69308823529718,297.3103795057614L125.2036764705881,282.04151905215986L121.10779411764815,277.1568264891739L123.99352941176767,273.5121350590789L131.0682352941185,277.38945023898486L142.0526470588229,283.3594646217234L145.1245588235288,283.04936536455625L148.28955882352966,277.6996122289911L154.06102941176505,268.0829899842629L159.73941176470544,269.3240304508745L164.8592647058831,277.0792848092533L171.3754411764712,278.78515210961814L183.10455882352835,267.77272125085074L197.81250000000364,263.58375585830436L204.23558823529675,260.3252369394513L212.1480882352953,259.54934300136483L214.5683823529398,259.3165706110776L215.49926470588252,259.1613879382585L227.88000000000102,273.5121350590789L236.44411764705728,275.37331344982977Z" class="sc-kAyceB dIJauC East Garo Hills mapstate" fill="rgb(18, 108, 189)" stroke-width="0.9px" data-darkreader-inline-fill="" style="--darkreader-inline-fill: #0e5697;"></path><path d="M491.1335294117671,301.1844020958215L492.25058823529616,301.1844020958215L492.9022058823539,300.4871174952232L494.7639705882357,298.317676831909L495.7879411764734,300.25468544557134L495.32250000000204,294.21077622144276L495.4155882352934,294.055787064116L499.13911764706063,295.0632012744427L510.68205882352777,283.5920368103061L510.86823529411777,283.5920368103061L512.7299999999996,285.5300632524704L519.0600000000013,285.14246869536146L529.020441176468,280.72351141760737L533.7679411764693,281.65387619143894L544.566176470591,274.5202887354699L544.0076470588247,277.38945023898486L549.2205882352973,276.84665847948327L550.3376470588228,280.2583174307265L554.4335294117664,279.71558133724193L557.2261764705909,282.66173646210973L556.4814705882345,289.32820608379916L562.8114705882363,293.12583412828553L570.2585294117634,306.9944337888419L580.4982352941188,307.38172650726483L581.0567647058851,317.68175468877416L585.2457352941165,321.08845281486265L587.0144117647069,322.4819832476596L588.224558823531,321.9400629401971L591.3895588235282,320.5465056881203L594.9269117647054,318.9980278391449L597.812647058825,315.8233818937106L601.1638235294122,313.3453605307195L602.3739705882363,314.9715866723882L603.3048529411753,317.37203441243946L603.118676470589,317.5268949766896L602.839411764704,317.60432493925146L599.9536764705881,321.1658729814535L599.9536764705881,321.1658729814535L599.3020588235267,326.12032104009904L584.6872058823537,336.5682549510784L582.7323529411769,340.51424559445786L583.1977941176483,342.91251952316634L583.756323529411,342.5257149188874L583.4770588235297,344.3823287280202L583.2908823529433,344.53704103921154L583.1977941176483,344.6143968771894L579.0088235294133,344.22761556983187L578.7295588235284,344.1502586730976L576.4954411764738,349.7194142045L567.4658823529389,348.09519049164555L558.5294117647063,352.73558224836506L542.2389705882379,356.4473477959964L519.9908823529404,358.76695416611165L499.9769117647047,368.66180832497776L499.41838235293835,372.83516465327193L505.3760294117674,383.1886223131478L506.58617647059145,398.3257003501303L509.5650000000023,398.8661615013598L512.8230882352909,404.73336606311295L510.77514705882277,413.30040549898786L505.46911764705874,422.2506031957937L502.8626470588242,419.70471140769314L503.3280882352956,422.9448979971612L500.3492647058847,422.71346826878107L491.7851470588248,418.00732429409345L488.9925000000003,412.68304715820886L480.3352941176454,408.5155292634299L466.4651470588251,407.58933155826435L466.5582352941201,407.2805923109727L467.3029411764728,406.89466355516834L467.58220588235054,404.2702095850955L459.855882352942,394.001642062437L460.6005882352947,385.7377757261502L472.60897058823684,376.38976205858944L486.66529411764714,379.86665518706195L488.3408823529426,373.91704575616404L486.57220588235214,372.75788585385817L486.7583823529385,362.55523610828277L484.61735294117534,358.1484110448828L487.03764705882713,355.3647997884282L483.1279411764699,345.85206149070564L486.1998529411758,341.13317448917405L483.22102941176126,335.7170866116312L487.22382352940986,323.8754447316969L485.36205882352806,319.6948534115436L492.3436764705875,304.90296084319834L491.41279411764845,301.64924887360576L491.31970588235345,301.64924887360576Z" class="sc-kAyceB dIJauC West Jaintia Hills mapstate" fill="rgb(18, 108, 189)" stroke-width="0.9px" data-darkreader-inline-fill="" style="--darkreader-inline-fill: #0e5697;"></path><path d="M216.9886764705916,379.48035473948585L222.85323529411835,374.2261470702142L228.15926470588238,374.4579708473857L234.86161764706048,369.2028335891846L245.8460294117649,371.98508628766285L244.91514705882582,367.6570197428482L248.08014705882306,366.03382452554797L248.73176470588442,362.7098491032366L256.2719117647066,372.21692836683997L261.67102941176563,371.3668314841425L269.21117647059145,376.62156817371033L271.1660294117646,374.7670662726441L271.91073529411733,374.14887205719515L270.04897058823553,367.6570197428482L280.28867647058723,357.99377315374386L275.5411764705859,354.6688542082502L273.58632352941277,349.3327027339501L286.89794117647034,342.2936296142607L289.2251470588235,346.54822402077207L291.645441176468,343.4540370727491L295.3689705882389,343.4540370727491L298.25470588235476,346.4708734751821L299.93029411764655,343.2219593937816L307.9358823529401,355.5967778463282L311.28705882352733,354.9781654674098L316.59308823529136,347.3990660543832L333.90750000000116,344.07290156460203L345.9158823529433,344.3823287280202L360.7169117647063,344.7691079179285L363.2302941176458,339.19897665417466L366.95382352941306,338.6573775188426L368.9086764705862,351.03419365762693L362.20632352941175,369.82113554330226L367.6054411764708,374.2261470702142L367.2330882352944,384.347356737253L363.9750000000022,386.8191657281541L356.155588235295,385.1970653077615L352.61823529411777,389.8313925941384L343.9610294117665,387.5915619914949L340.70294117647063,390.21755246800694L336.4208823529407,389.8313925941384L332.79044117646845,395.46880682977644L326.181176470589,396.70425539611006L332.3250000000007,412.2971914196569L313.7073529411755,408.2068000342606L307.1911764705874,403.1122854890946L304.49161764705786,405.27370578431237L279.6370588235295,406.35435452907586L268.3733823529401,404.2702095850955L244.63588235294083,411.139592926982L244.35661764705947,404.4245959132659L240.44691176470587,401.2595091468056L242.0294117647063,394.9282812339161L242.3086764705913,393.7699775589026L241.47088235293995,392.76607626623536L236.81647058823728,386.74192494843555L236.53720588235592,386.43295973232125L236.53720588235592,386.5102013509395L233.18602941176505,386.66468395899756L230.20720588235417,381.9525868741757L221.82926470588427,382.57061131111095L217.36102941176432,379.86665518706195Z" class="sc-kAyceB dIJauC South West Khasi Hills mapstate" fill="rgb(18, 108, 189)" stroke-width="0.9px" data-darkreader-inline-fill="" style="--darkreader-inline-fill: #0e5697;"></path><path d="M252.64147058823437,257.9974903670145L251.5244117647053,257.91989546835066L251.33823529411893,257.91989546835066L247.33544117647034,263.2734371171382L242.0294117647063,269.1689034080964L239.32985294117316,270.33233523131184L238.95750000000044,272.50394501880874L238.67823529411908,274.5202887354699L238.67823529411908,274.5202887354699L236.44411764705728,275.37331344982977L227.88000000000102,273.5121350590789L215.49926470588252,259.1613879382585L214.5683823529398,259.3165706110776L212.1480882352953,259.54934300136483L204.23558823529675,260.3252369394513L197.81250000000364,263.58375585830436L183.10455882352835,267.77272125085074L171.3754411764712,278.78515210961814L164.8592647058831,277.0792848092533L159.73941176470544,269.3240304508745L154.06102941176505,268.0829899842629L148.28955882352966,277.6996122289911L145.1245588235288,283.04936536455625L142.0526470588229,283.3594646217234L131.0682352941185,277.38945023898486L123.99352941176767,273.5121350590789L124.36588235294039,272.96926801804693L124.36588235294039,272.8141612124673L122.13176470588223,264.0492275005645L110.96117647058782,262.6527892825261L111.70588235294053,257.14393460510564L120.45617647059044,254.11748084926148L120.17691176470544,247.83071864253907L126.97235294117854,234.86463867728162L131.0682352941185,221.03784065125183L131.0682352941185,218.62909808424956L140.00470588235112,214.3550073005763L152.4785294117646,228.49584574006622L146.89323529411558,239.83438974202L147.9172058823533,241.07668871356782L155.45735294117912,236.57309083192013L154.3402941176464,234.6316597905152L161.32191176470587,231.52508792249137L163.64911764705903,226.55384995580152L171.3754411764712,230.981402121276L167.55882352941262,236.34012626795538L170.90999999999985,240.7661191731786L172.8648529411803,235.71887788348886L174.07500000000073,235.01995684988015L191.1101470588219,227.33066457515724L191.20323529412053,227.25298409165043L192.59955882353097,229.1949309635056L196.41617647058956,227.40834484124753L196.0438235294132,230.90373185218232L197.34705882352864,233.6220620390559L198.37102941176636,232.84542341703946L198.65029411764772,233.0784172835065L198.18485294117636,234.08803479081416L197.16088235294228,236.02950381165556L196.41617647058956,237.27197280811652L200.32588235293952,235.09761561060986L199.48808823529544,237.66023297990887L202.83926470588267,238.04848772890364L204.04941176470675,238.20378811022601L204.3286764705881,237.66023297990887L210.56558823529485,227.87442187229044L216.33705882353024,228.80655245723847L216.15088235294388,231.60275645378988L218.01264705882204,229.35028084471924L225.83205882352922,230.1270172123859L226.57676470588194,228.34049107735063L233.4652941176464,236.88370721304454L233.5583823529414,229.73865174477396L237.00264705882364,230.82606136584855L239.88838235293952,228.88422859316324L243.9842647058831,236.88370721304454L244.44970588235446,243.71638981349315L256.4580882352966,243.5611202114069L256.64426470588296,244.88088421251086L254.3170588235298,252.4877157676092Z" class="sc-kAyceB dIJauC North Garo Hills mapstate" fill="rgb(18, 108, 189)" stroke-width="0.9px" data-darkreader-inline-fill="" style="--darkreader-inline-fill: #0e5697;"></path><path d="M43.28602941176723,309.1632042616411L58.2732352941166,313.65512514031343L63.11382352941291,320.0819712765033L66.37191176470515,319.6948534115436L66.65117647059014,319.6948534115436L66.55808823529514,325.268837288716L66.55808823529514,325.50106268183754L67.95441176470558,325.50106268183754L68.5129411764683,325.50106268183754L68.60602941176694,325.50106268183754L69.07147058823466,321.7078081874706L70.4677941176451,323.7980320132765L75.30838235294141,323.8754447316969L71.49176470588282,358.0710922048602L73.44661764705961,360.5451904031552L71.21250000000146,363.71481301178846L46.54411764705583,370.9031315424154L41.610441176471795,374.9988856334812L37.793823529409565,376.544299678877L37.607647058823204,378.2441580134873L33.69794117646961,381.41180446954513L19.54852941176432,379.48035473948585L12.473823529409856,384.27010924463684L4.09588235294359,382.18434761254866L5.119852941177669,376.93064005102406L0.9308823529427173,370.1302814675082L0,360.467878105208L5.585294117649028,346.1614691762652L11.822205882352137,339.66319621640196L12.101470588237135,332.62171256586134L14.894117647061648,332.46693494825286L14.33558823529529,329.8355854822703L11.077499999999418,328.6746179450165L13.032352941176214,322.7916473129944L13.125441176471213,322.7916473129944L33.13941176470689,317.06231072728133L35.37352941176505,312.95814997067464L35.46661764706005,312.95814997067464L39.655588235295,314.27464412469453Z" class="sc-kAyceB dIJauC South West Garo Hills mapstate" fill="rgb(18, 108, 189)" stroke-width="0.9px" data-darkreader-inline-fill="" style="--darkreader-inline-fill: #0e5697;"></path></svg>