<svg xmlns="http://www.w3.org/2000/svg"  xmlns:xlink="http://www.w3.org/1999/xlink"  id="map" width="695" height="695"><defs><filter id="sofGlow" height="300%" width="300%" x="-75%" y="-75%"><feMorphology operator="dilate" radius="4" in="SourceAlpha" result="thicken"></feMorphology><feGaussianBlur in="thicken" stdDeviation="10" result="blurred"></feGaussianBlur><feFlood flood-color="rgb(0,186,255)" result="glowColor"></feFlood><feComposite in="glowColor" in2="blurred" operator="in" result="softGlow_colored"></feComposite><feMerge><feMergeNode in="softGlow_colored"></feMergeNode><feMergeNode in="SourceGraphic"></feMergeNode></feMerge></filter></defs><path d="M605.7686604419723,269.37548837198665L593.4363728315984,272.8634460543508L589.2892318652775,272.98371501630754L579.6853264695928,276.71187299265875L568.2261211679215,288.1347048265179L557.858268752123,286.9324553475162L550.21879855101,283.68620097357234L554.0385336515683,275.268756396521L553.3837219200395,267.69153752263264L540.2874872895591,266.488671934565L541.2697048868431,258.30822287739284L541.160569598258,258.30822287739284L542.0336519069533,250.36676802631337L536.5768874775858,237.97011746711723L537.7773756520473,230.74698522507788L533.8485052629039,225.3287738203344L536.4677521890007,215.09235574574086L531.7749347797471,198.34710382377853L535.2672640145393,196.17813603417017L530.9018524710482,190.27312131104918L535.4855345917167,180.87148266983968L532.1023406455097,177.01375305874353L523.3715175585203,178.94266495243392L502.4175421497457,170.86471756361607L502.19927157256825,170.74413866661598L502.5266774383308,163.50873055444208L500.0165658008227,162.18209511842542L500.0165658008227,162.18209511842542L503.29062445844465,151.92931586912528L500.1257010894151,148.43069844857928L507.9834418677019,151.56740433782215L516.82340024328,141.55319959607368L507.6560360019357,130.93294582208182L505.69160080736765,126.82889767183042L507.8743065791132,124.41455149334797L504.6002479214949,124.293830290193L504.38197734432106,124.17310871612062L505.3641949416051,123.9316644551418L510.82095937097256,121.27567964203809L510.7118240823838,120.18908863630895L507.43776542476553,115.23868243227844L505.9098713845415,114.87643307897997L503.5088950356185,114.27267672761809L502.854083304097,114.15192434290293L507.110359559003,112.82362359076978L504.8185184986687,108.35537287197258L504.9276537872538,108.35537287197258L510.7118240823838,106.42299871274372L511.6940416796715,96.75969915154019L511.6940416796715,96.75969915154019L521.7344882297039,87.45652195904404L526.6455762161386,75.61291579170938L528.2826055449514,74.04155572123454L531.7749347797471,70.6568733263939L533.9576405514927,68.60174456486857L538.9778638265125,65.70020227106761L544.6528988330538,61.831143898036316L546.7264693162106,67.39279479827019L555.3481571146149,65.94200569368695L556.1121041347214,65.82110416948672L562.6602214499617,74.16243181510981L573.2463444429413,71.3821870858319L599.5479489924874,57.23613906385981L602.6037370729391,50.70546452368217L627.813988736616,31.5909090909081L627.813988736616,31.5909090909081L627.813988736616,31.5909090909081L628.4688004681375,31.832924109667147L627.2683122936796,49.25405502832837L633.3798884545722,55.6640395338145L630.5423709512979,58.56632766761504L631.9611297029296,64.12844353541186L639.1640587497022,70.77775988776557L639.8188704812237,77.66767598763545L638.5092470181771,85.28143446889226L632.5068061458733,84.79806527759138L623.9942536360577,93.86024459630244L630.7606415284718,97.2429207164696L629.0144769110775,105.45677592960965L632.3976708572845,114.99718323485831L642.7655232730831,119.22320472593128L642.9837938502569,119.34394151389279L634.9077824947926,128.63955997124867L632.9433473002173,137.93298063544898L640.0371410584012,145.89702284884515L640.3645469241601,153.73882366258294L640.3645469241601,153.98008509008832L632.5068061458733,165.92068068143817L623.9942536360577,167.6089580398093L614.1720776631992,176.89319293781045L615.6999717034196,188.34476230915243L611.116289582751,197.62412776714336L606.7508780392563,197.02163763203134L601.1849783213002,202.68468291666613L603.3676840930457,210.63567765696462L587.2156613821244,234.2383297851884L588.5252848451673,237.12748636556898L594.2003198517086,235.0810221560714L600.2027607240161,244.34945912132753L598.8931372609659,253.4954090631909L607.9513662137178,256.62380421545095Z" class="sc-kAyceB dIJauC Mon mapstate" fill="rgb(18, 108, 189)" stroke-width="0.9px"></path><path d="M486.5929253045797,130.69154308542966L487.7934134790412,121.51714022773376L493.4684484855825,125.01815194542723L497.069913008967,117.04987905859161L503.5088950356185,114.27267672761809L505.9098713845415,114.87643307897997L507.43776542476553,115.23868243227844L510.7118240823838,120.18908863630895L510.82095937097256,121.27567964203809L505.3641949416051,123.9316644551418L504.38197734432106,124.17310871612062L504.6002479214949,124.293830290193L507.8743065791132,124.41455149334797L505.69160080736765,126.82889767183042L507.6560360019357,130.93294582208182L516.82340024328,141.55319959607368L507.9834418677019,151.56740433782215L500.1257010894151,148.43069844857928L503.29062445844465,151.92931586912528L500.0165658008227,162.18209511842542L500.0165658008227,162.18209511842542L502.5266774383308,163.50873055444208L502.19927157256825,170.74413866661598L502.4175421497457,170.86471756361607L523.3715175585203,178.94266495243392L532.1023406455097,177.01375305874353L535.4855345917167,180.87148266983968L530.9018524710482,190.27312131104918L535.2672640145393,196.17813603417017L531.7749347797471,198.34710382377853L536.4677521890007,215.09235574574086L533.8485052629039,225.3287738203344L537.7773756520473,230.74698522507788L536.5768874775858,237.97011746711723L542.0336519069533,250.36676802631337L541.160569598258,258.30822287739284L541.0514343096729,258.30822287739284L520.7522706324235,257.58633788943735L495.76028954591675,230.62658855934933L488.9939016535027,230.02459975554484L478.2986433719416,235.56255262896593L471.8596613452901,224.1246264064648L473.71496125127305,217.86247073812046L471.641390768109,210.15384460515634L483.4280019355501,194.3705720660255L485.610707707292,182.19749023525037L485.71984299588075,182.07694593154883L477.53469635183137,169.17657948474698L465.8572204729862,165.67949230446538L481.4635667409748,154.58323219676458L482.8823254926101,148.5513456017543L490.63093098231184,148.43069844857928L488.8847663649176,136.96753265499683L492.9227720426461,137.69162086145843Z" class="sc-kAyceB dIJauC Longleng mapstate" fill="rgb(18, 108, 189)" stroke-width="0.9px"></path><path d="M486.5929253045797,130.69154308542966L492.9227720426461,137.69162086145843L488.8847663649176,136.96753265499683L490.63093098231184,148.43069844857928L482.8823254926101,148.5513456017543L481.4635667409748,154.58323219676458L465.8572204729862,165.67949230446538L477.53469635183137,169.17657948474698L485.71984299588075,182.07694593154883L485.610707707292,182.19749023525037L483.4280019355501,194.3705720660255L471.641390768109,210.15384460515634L473.71496125127305,217.86247073812046L471.8596613452901,224.1246264064648L478.2986433719416,235.56255262896593L478.18950808335285,236.76635328112388L477.7529669290052,239.41458636436982L476.22507288878114,248.5616709185615L473.38755538551413,246.99718717654832L468.6947379762569,257.82696767271045L462.25575594960173,259.7519536001837L464.22019114417344,261.31593616631835L460.1821854664413,272.6229070424233L449.05038603053254,276.8321303529192L442.28399813811484,287.41335948136657L439.22821005766673,285.60993912257254L438.90080419191145,289.45713746354886L433.5531750511327,290.17844590686036L433.3349044739516,291.5008109010887L432.13441629949375,301.11669506911494L439.33734534625546,307.12544887460535L439.4464806348442,313.373596078196L439.4464806348442,313.85418240646504L430.1699811049184,319.74089707658095L423.29445792391925,314.57505108699297L413.5814172396422,315.4160481512863L413.36314666246835,315.4160481512863L413.03574079670943,310.36980085487994L418.601640514662,306.7649490889198L409.76168213908386,292.4625034122528L407.6881116559234,289.0964783584077L405.7236764613517,292.22208245407455L396.8837180857772,318.29933263438215L384.4422951868146,316.3771660345974L373.85617219384585,322.74398980912883L374.18357805960477,321.78302461360727L377.3485014286416,311.5713459828585L374.4018486367786,309.5286978104359L362.94264333511455,306.524614094511L362.8335080465222,306.40444605610173L362.72437275793345,306.40444605610173L370.254707670465,296.6696361043614L367.9628666101271,282.48381756373965L372.32827815362543,273.2242518522762L365.3436196840303,275.02823188871844L370.03643709328753,266.36838337928384L361.1964787177094,253.01409568015515L359.5594493889039,250.8481134256217L352.2473850535498,259.2707158407029L353.12046736224875,253.4954090631909L348.8641911073464,245.31228971699602L356.0671201541081,230.74698522507788L356.1762554426932,230.50619152862237L357.0493377513958,231.34896307890813L359.7777199660777,223.16128216954894L368.07200189871946,220.39153720547074L368.18113718730456,220.39153720547074L368.18113718730456,220.27110912513126L366.6532431470805,215.3332429922866L374.18357805960477,214.85146703573446L375.38406623406627,209.4310840431517L383.0235364351829,205.094243788908L386.8432715357412,190.27312131104918L383.678348166708,178.7015561165499L398.62988270317146,169.90007607385996L402.9952942466698,170.98529609229627L399.1755591461151,164.2323310770389L401.35826491786065,161.09663293275298L411.398711467893,159.64930353987802L416.200664165739,152.89439703358403L419.03818166900965,154.10071524993327L420.0203992662937,148.0687547715479L432.89836331960396,146.01767776458837L432.0252810109014,152.532494367073L434.3171220712393,153.49756075795813L437.4820454402725,147.58615802776694L442.61140400388103,148.79263879939936L442.5022687152923,142.6392003474739L443.1570804468138,142.8805297786912L445.4489215071517,143.84583270853L445.0123803528004,143.36318420249881L442.93880986963995,141.6738678259917L441.8474569837672,140.58784043749984L440.2104276549544,139.1397572965343L442.93880986963995,137.57094041921118L443.59362160116507,135.88137535503847L447.08595083596083,135.1572538260989L447.4133567017161,135.03656560852505L447.5224919903085,135.03656560852505L450.7965506479304,143.6045091952128L473.06014951974794,136.8468499915234L486.92033117034225,126.22532503381444Z" class="sc-kAyceB dIJauC Mokokchung mapstate" fill="rgb(18, 108, 189)" stroke-width="0.9px"></path><path d="M478.2986433719416,235.56255262896593L488.9939016535027,230.02459975554484L495.76028954591675,230.62658855934933L520.7522706324235,257.58633788943735L541.0514343096729,258.30822287739284L541.160569598258,258.30822287739284L541.2697048868431,258.30822287739284L540.2874872895591,266.488671934565L553.3837219200395,267.69153752263264L554.0385336515683,275.268756396521L550.21879855101,283.68620097357234L557.858268752123,286.9324553475162L568.2261211679215,288.1347048265179L579.6853264695928,276.71187299265875L589.2892318652775,272.98371501630754L593.4363728315984,272.8634460543508L605.7686604419723,269.37548837198665L607.733095636544,272.2620958044463L605.0047134218585,297.9917863731098L607.4056897707778,301.83779317500375L603.4768193816344,309.04805956541713L612.0985071800351,316.3771660345974L605.7686604419723,325.50663644979795L604.2407664017446,334.5139451070445L607.0782839050153,344.71978541127646L603.9133605359893,352.16241056161016L614.2812129517879,359.24362973722054L618.9740303610379,357.3234222891151L625.413012387693,363.9237515936311L606.9691486164302,393.91162941984476L595.6190786033476,406.14028676637645L581.6497616641645,414.170824035873L577.6117559864324,412.73263602599036L572.2641268456537,426.5131704229316L572.2641268456537,426.6329805975056L559.7135686581059,429.74792082576823L558.1856746178855,422.91870044297684L548.6909045107823,419.0842475434838L545.8533870075116,407.69857537555254L544.9803046988163,406.73963564506084L540.3966225781442,406.8595043548539L535.4855345917167,408.897218066546L526.0998997732058,406.9793727093602L519.4426471693769,411.89366941512344L524.1354645786305,398.70762238067437L533.521099397145,386.23685572555223L531.120123048222,382.8786832611095L526.2090350617909,383.4783774162988L520.3157294780722,374.96188456603886L502.19927157256825,385.9969955325487L495.9785601230906,381.1994921950409L481.1361608752122,381.1994921950409L472.0779319224639,385.7571339137994L465.96635576157496,382.15903850672476L476.87988462030626,372.3226061441492L471.5322554795239,349.52163678691613L477.2072904860688,330.0705922382567L474.36977298279453,330.19068932596383L472.18706721105264,320.94216116953794L465.09327345286874,316.0167495304959L462.0374853724279,319.2603813576352L456.362450365883,314.45490720784437L448.3955742990038,322.62387041944567L444.466703909864,321.1824096677956L439.4464806348442,313.85418240646504L439.4464806348442,313.373596078196L439.33734534625546,307.12544887460535L432.13441629949375,301.11669506911494L433.3349044739516,291.5008109010887L433.5531750511327,290.17844590686036L438.90080419191145,289.45713746354886L439.22821005766673,285.60993912257254L442.28399813811484,287.41335948136657L449.05038603053254,276.8321303529192L460.1821854664413,272.6229070424233L464.22019114417344,261.31593616631835L462.25575594960173,259.7519536001837L468.6947379762569,257.82696767271045L473.38755538551413,246.99718717654832L476.22507288878114,248.5616709185615L477.7529669290052,239.41458636436982L478.18950808335285,236.76635328112388Z" class="sc-kAyceB dIJauC Tuensang mapstate" fill="rgb(18, 108, 189)" stroke-width="0.9px"></path><path d="M465.96635576157496,382.15903850672476L472.0779319224639,385.7571339137994L481.1361608752122,381.1994921950409L495.9785601230906,381.1994921950409L502.19927157256825,385.9969955325487L520.3157294780722,374.96188456603886L526.2090350617909,383.4783774162988L531.120123048222,382.8786832611095L533.521099397145,386.23685572555223L524.1354645786305,398.70762238067437L519.4426471693769,411.89366941512344L526.0998997732058,406.9793727093602L535.4855345917167,408.897218066546L540.3966225781442,406.8595043548539L544.9803046988163,406.73963564506084L545.8533870075116,407.69857537555254L548.6909045107823,419.0842475434838L558.1856746178855,422.91870044297684L559.7135686581059,429.74792082576823L572.2641268456537,426.6329805975056L572.2641268456537,426.5131704229316L572.7006680000013,426.39335989413667L570.8453680940147,434.77924182075367L577.1752148320847,444.0017098574863L578.2665677179575,452.8628872103345L583.5050615701512,457.5321896357218L580.5584087782918,477.7596423491814L569.0992034766168,482.30644368713547L558.9496216379921,495.94380646955506L548.4726339336048,502.9999507438115L541.8153813297831,523.8025055286662L531.9932053569173,531.0928524674327L526.7547115047237,523.3244046463597L522.1710293840588,522.7267706918556L520.534000055246,509.21791503985514L523.8080587128679,486.13493568378L512.348853411193,470.4597683784923L512.2397181226115,470.2204060912154L492.48623088829845,463.87679250877227L483.20973135837266,475.4860514026004L483.31886664695776,476.32370493531926L483.75540780130905,483.3832433995358L483.75540780130905,483.5028860563143L482.6640549154399,483.86181191994547L480.80875500944603,484.4600146707671L480.4813491436871,481.7082093335521L479.38999625781435,471.7762358042455L471.5322554795239,458.84907540823406L470.7683084594137,457.651908286658L463.23797354688577,453.94046615124535L460.8369971979664,452.7431544530573L460.40045604361876,452.5036878801184L447.7407625674823,451.66554376114436L443.2662157354025,431.904277697844L435.1902043799382,427.11221775369813Z" class="sc-kAyceB dIJauC Kiphire mapstate" fill="rgb(18, 108, 189)" stroke-width="0.9px"></path><path d="M108.76655621516693,500.6081740207592L154.05770097891946,509.3374820057288L195.85651650787258,502.6411931631628L223.24947394329865,506.3482029269999L237.21879088247806,502.043256860401L237.32792617107043,506.3482029269999L237.43706145965552,517.8258430926926L232.74424405039827,518.6626283783798L232.74424405039827,521.8900684977243L240.71112011727382,531.0928524674327L239.40149665422723,540.4130462091453L224.88650327211144,538.2624203190053L216.37395076229586,542.3246190005193L208.0796688296614,539.8156614412792L202.62290440028664,546.7447899785029L186.68915226653917,547.3420738660234L186.68915226653917,547.461529600524L186.58001697795044,548.0588030583467L184.6155817833751,559.1665061271033L185.59779938066276,560.7189565873105L186.3617464007766,561.793695635196L187.12569342088318,562.7489956453774L193.12813429319067,559.6441894375012L193.4555401589496,559.5247691304066L197.6026811252741,561.793695635196L200.54933391713348,566.0923709014705L199.0214398769058,573.1364506915761L199.0214398769058,573.1364506915761L199.0214398769058,573.1364506915761L189.5266697698098,588.0563681054373L179.5953585083589,593.4262163216154L169.4457766697342,609.4122936217382L162.4611182001463,608.4580746344018L160.9332241599186,619.0725203511802L155.6947303077286,620.145739577506L156.56781261642755,625.2729583308046L137.3600018250545,663.4090909090901L132.01237268427212,662.694360691532L130.81188450981062,655.6655252621631L122.19019671140995,647.443852170969L122.08106142282486,647.443852170969L105.3833622689599,648.6354999164905L106.80212102059522,639.4589290715421L96.21599802761921,638.6245946482923L96.21599802761921,627.7767180468973L95.56118629609773,626.9421483008327L88.90393369226877,615.0178852542767L96.21599802761921,600.3463230706357L96.5434038933854,599.7498078480667L95.77945687327156,598.7953655602914L91.85058648412814,584.1180348354656L91.3049100411954,583.6406355303952L91.19577475260667,583.163230694101L90.32269244390773,582.80517343677L81.59186935691469,578.8663381947663L70.89661107535721,574.0914873256579L71.22401694111613,566.5699737493323L69.69612290089572,565.3759562301357L69.47785232372189,563.8236816246645L61.29270567966887,555.3448397250295L58.564323464986956,549.4922239013149L52.34361201550564,546.0280378395546L52.34361201550564,546.1474973986706L52.016206149743084,545.7891176781377L54.52631778725117,541.8467341540581L55.72680596171631,540.65199768001L61.18357039108014,541.8467341540581L82.13754579985107,515.3153845452234L87.59431022922217,512.6852150887626L92.72366879282708,515.1958350572586L92.72366879282708,515.1958350572586L91.63231590695068,512.2069842864857L101.7818977455754,508.3809364861336L103.74633294014711,507.6635126563342L105.71076813472246,504.0762045831798Z" class="sc-kAyceB dIJauC Peren mapstate" fill="rgb(18, 108, 189)" stroke-width="0.9px"></path><path d="M356.1762554426932,230.50619152862237L356.0671201541081,230.74698522507788L348.8641911073464,245.31228971699602L353.12046736224875,253.4954090631909L352.2473850535498,259.2707158407029L359.5594493889039,250.8481134256217L361.1964787177094,253.01409568015515L370.03643709328753,266.36838337928384L365.3436196840303,275.02823188871844L372.32827815362543,273.2242518522762L367.9628666101271,282.48381756373965L370.254707670465,296.6696361043614L362.72437275793345,306.40444605610173L362.8335080465222,306.40444605610173L362.94264333511455,306.524614094511L374.4018486367786,309.5286978104359L377.3485014286416,311.5713459828585L374.18357805960477,321.78302461360727L362.8335080465222,327.78867925783743L378.7672601802806,349.2815578422942L376.58455440852777,354.5629635081532L379.8586130661497,360.32370616080516L369.709031227525,381.679268204276L371.23692526774903,386.23685572555223L363.16091391228474,389.3549085152172L357.2676083285696,382.7587433602712L357.1584730399809,382.8786832611095L351.81084389920215,386.9564277505906L343.9531031209117,385.87706490140226L344.1713736980855,387.67598694575827L334.78573887957464,388.5154564598288L333.80352128228697,387.79591223103125L328.34675685292314,383.83818963045815L326.92799810128054,382.7587433602712L318.74285145723115,392.83245251966764L308.920675484369,398.4678362543109L302.37255816912875,391.75324677836215L290.1494058473472,394.1514425925561L289.3854588272334,391.9930727691208L259.9189309086505,392.35280908445566L250.75156666731345,391.75324677836215L245.07653166077216,399.66675265697813L244.74912579500597,388.03576173258443L247.58664329828025,376.52137694737394L255.33524878798562,366.08362433818183L253.47994888199537,361.1637455617838L258.6093074456003,351.4422167331777L255.11697821080452,349.8817525155664L258.50017215701155,344.8398386886038L255.88092523091836,344.11951364398556L259.9189309086505,342.91894320346364L257.5179545597275,338.1163025742444L259.59152504288795,329.83039698432003L269.08629514998756,321.1824096677956L273.99738313641865,303.27995039342386L282.2916650690604,298.11197968430497L282.2916650690604,291.5008109010887L285.23831786091614,291.62102373063317L291.67729988756764,278.996700866197L296.8066584511762,279.71819828137996L295.0604938337783,275.62954043925674L304.00958749794154,275.38901810662355L308.8115401957839,272.8634460543508L312.30386943057965,270.9390933362338L314.15916933656626,269.9768821530088L311.10338125611815,269.7363257291199L309.68462250448283,268.2929567056599L312.0855988534022,264.2031273009816L312.0855988534022,261.0753274605195L312.30386943057965,241.09973373692992L315.7961986653754,232.31210866735455L332.27562724206655,214.85146703573446L334.45833301380844,210.39476186331194L346.4632147584198,196.41913832518367L347.00889120135616,195.9371322754887L348.75505581875404,223.88379253954736Z" class="sc-kAyceB dIJauC Wokha mapstate" fill="rgb(18, 108, 189)" stroke-width="0.9px"></path><path d="M374.18357805960477,321.78302461360727L373.85617219384585,322.74398980912883L384.4422951868146,316.3771660345974L396.8837180857772,318.29933263438215L405.7236764613517,292.22208245407455L407.6881116559234,289.0964783584077L409.76168213908386,292.4625034122528L418.601640514662,306.7649490889198L413.03574079670943,310.36980085487994L413.36314666246835,315.4160481512863L413.5814172396422,315.4160481512863L423.29445792391925,314.57505108699297L430.1699811049184,319.74089707658095L439.4464806348442,313.85418240646504L444.466703909864,321.1824096677956L448.3955742990038,322.62387041944567L456.362450365883,314.45490720784437L462.0374853724279,319.2603813576352L465.09327345286874,316.0167495304959L472.18706721105264,320.94216116953794L474.36977298279453,330.19068932596383L477.2072904860688,330.0705922382567L471.5322554795239,349.52163678691613L476.87988462030626,372.3226061441492L465.96635576157496,382.15903850672476L435.1902043799382,427.11221775369813L443.2662157354025,431.904277697844L447.7407625674823,451.66554376114436L460.40045604361876,452.5036878801184L460.8369971979664,452.7431544530573L463.23797354688577,453.94046615124535L470.7683084594137,457.651908286658L471.5322554795239,458.84907540823406L479.38999625781435,471.7762358042455L474.15150240562434,472.3746160178998L462.58316181536065,465.4328647299244L455.8167739229466,468.3054571234916L446.64940968160954,465.1934728770666L432.0252810109014,481.10996619956495L430.1699811049184,464.83438245690195L424.60408138696585,463.158585256042L426.56851658153755,453.70100663363155L419.25645224618347,449.2707510009968L417.07374647443794,452.14448537466706L411.94438791083303,446.99556710008073L402.9952942466698,447.35481513676314L400.376047320573,439.45062395257264L400.376047320573,439.45062395257264L376.6936896971165,446.87581704831973L347.5545676442962,461.8418390253082L343.6256972551455,459.5673587626952L343.6256972551455,459.5673587626952L350.7194910133294,454.4193809537974L341.98866792633635,454.53910877267117L325.50923934964885,431.78448310257954L334.5674683023972,415.8486454570466L346.89975591277107,409.9759661199769L344.1713736980855,387.67598694575827L343.9531031209117,385.87706490140226L351.81084389920215,386.9564277505906L357.1584730399809,382.8786832611095L357.2676083285696,382.7587433602712L363.16091391228474,389.3549085152172L371.23692526774903,386.23685572555223L369.709031227525,381.679268204276L379.8586130661497,360.32370616080516L376.58455440852777,354.5629635081532L378.7672601802806,349.2815578422942L362.8335080465222,327.78867925783743Z" class="sc-kAyceB dIJauC Zunheboto mapstate" fill="rgb(18, 108, 189)" stroke-width="0.9px"></path><path d="M531.9932053569173,531.0928524674327L536.6860227661746,538.1429377958011L520.4248647666609,539.5767050977092L514.0950180285945,546.0280378395546L508.7473888878121,562.6295843580683L501.3261892638693,567.1669695102155L494.5598013714589,566.6893735947287L491.3948780024257,562.7489956453774L481.02702558662713,571.106924258238L470.331767305066,572.1813918963871L467.8216556675543,579.2244296905055L449.5960624734689,573.4945920261798L449.26865660771,573.1364506915761L437.37291015168375,562.0325227188814L431.2613339907948,560.002448276834L430.38825168209587,559.2859274752109L434.20798678265055,544.1166375979601L430.93392812503225,541.8467341540581L433.5531750511327,538.8598277128876L429.4060340848082,533.363351309893L439.4464806348442,514.5980823763166L442.5022687152923,514.1198739418251L436.4998278429848,512.44610038672L440.31956294354313,504.4349495626884L438.4642630375565,502.7607793734478L443.48448631257634,498.0966577036834L443.2662157354025,498.0966577036834L438.4642630375565,495.94380646955506L436.2815572658146,494.986947254969L436.1724219772259,494.986947254969L435.8450161114597,494.86733827599346L423.18532263533416,511.3700669241516L420.1295345548824,513.0438845203153L412.81747021952833,521.6510075867354L410.19822329343515,524.7586905448952L407.79724694451215,521.5314766076699L406.8150293472245,521.5314766076699L390.5538713477108,530.9733490433573L387.934624421614,548.0588030583467L378.2215837373369,549.4922239013149L358.5772317916162,559.5247691304066L347.1180264899449,557.8528483930031L336.4227682083838,562.5101727239262L331.07513906760505,562.27134841511L325.50923934964885,562.0325227188814L323.6539394436659,561.9131093504802L320.3798807860403,556.3002896511234L317.21495741701074,550.686703040169L316.6692809740707,549.7311225092317L317.7606338599435,544.2361027215447L317.8697691485322,543.7582401401896L320.0524749202814,532.5268663721708L325.4001040610601,522.9658253205907L323.54480415507714,516.6304058543246L327.25540396704673,506.82650227188606L325.07269819529756,501.8040798885522L343.5165619665604,459.5673587626952L343.6256972551455,459.5673587626952L347.5545676442962,461.8418390253082L376.6936896971165,446.87581704831973L400.376047320573,439.45062395257264L400.376047320573,439.45062395257264L402.9952942466698,447.35481513676314L411.94438791083303,446.99556710008073L417.07374647443794,452.14448537466706L419.25645224618347,449.2707510009968L426.56851658153755,453.70100663363155L424.60408138696585,463.158585256042L430.1699811049184,464.83438245690195L432.0252810109014,481.10996619956495L446.64940968160954,465.1934728770666L455.8167739229466,468.3054571234916L462.58316181536065,465.4328647299244L474.15150240562434,472.3746160178998L479.38999625781435,471.7762358042455L480.4813491436871,481.7082093335521L480.80875500944603,484.4600146707671L482.6640549154399,483.86181191994547L483.75540780130905,483.5028860563143L483.75540780130905,483.3832433995358L483.31886664695776,476.32370493531926L483.20973135837266,475.4860514026004L492.48623088829845,463.87679250877227L512.2397181226115,470.2204060912154L512.348853411193,470.4597683784923L523.8080587128679,486.13493568378L520.534000055246,509.21791503985514L522.1710293840588,522.7267706918556L526.7547115047237,523.3244046463597Z" class="sc-kAyceB dIJauC Phek mapstate" fill="rgb(18, 108, 189)" stroke-width="0.9px"></path><path d="M239.40149665422723,540.4130462091453L240.71112011727382,531.0928524674327L232.74424405039827,521.8900684977243L232.74424405039827,518.6626283783798L237.43706145965552,517.8258430926926L237.32792617107043,506.3482029269999L237.21879088247806,502.043256860401L237.87360261400318,501.56490151620164L248.24145502980173,494.38889885496974L262.75644841192116,455.4969186271828L264.61174831790777,442.085525356606L252.27946070753387,429.388516862351L263.41126014344627,406.14028676637645L259.9189309086505,392.35280908445566L289.3854588272334,391.9930727691208L290.1494058473472,394.1514425925561L302.37255816912875,391.75324677836215L308.920675484369,398.4678362543109L318.74285145723115,392.83245251966764L326.92799810128054,382.7587433602712L328.34675685292314,383.83818963045815L333.80352128228697,387.79591223103125L334.78573887957464,388.5154564598288L344.1713736980855,387.67598694575827L346.89975591277107,409.9759661199769L334.5674683023972,415.8486454570466L325.50923934964885,431.78448310257954L341.98866792633635,454.53910877267117L350.7194910133294,454.4193809537974L343.6256972551455,459.5673587626952L343.6256972551455,459.5673587626952L343.5165619665604,459.5673587626952L325.07269819529756,501.8040798885522L327.25540396704673,506.82650227188606L323.54480415507714,516.6304058543246L325.4001040610601,522.9658253205907L320.0524749202814,532.5268663721708L317.8697691485322,543.7582401401896L314.26830462515136,543.2803719931708L310.2302989474156,546.3864154737303L307.50191673273366,543.0414358324124L302.5908287463026,553.9116231675389L292.6595174848553,553.0755570806114L285.34745314950123,550.2089155547401L288.2941059413606,547.8198947181318L285.45658843808997,541.8467341540581L279.9998240087225,542.6830289820737L274.10651842500374,534.6777931482984L271.0507303445629,536.5896333094979L263.19298956627244,528.8222278025514L259.9189309086505,530.9733490433573L261.4468249488709,537.067579419122L261.11941908310837,537.5455199572916L254.0256253249354,537.187065075972L246.0587492580562,543.0414358324124L243.43950233195574,542.4440893422934Z" class="sc-kAyceB dIJauC Kohima mapstate" fill="rgb(18, 108, 189)" stroke-width="0.9px"></path><path d="M245.07653166077216,399.66675265697813L250.75156666731345,391.75324677836215L259.9189309086505,392.35280908445566L263.41126014344627,406.14028676637645L252.27946070753387,429.388516862351L264.61174831790777,442.085525356606L262.75644841192116,455.4969186271828L248.24145502980173,494.38889885496974L237.87360261400318,501.56490151620164L237.21879088247806,502.043256860401L223.24947394329865,506.3482029269999L195.85651650787258,502.6411931631628L154.05770097891946,509.3374820057288L108.76655621516693,500.6081740207592L111.71320900702995,492.8339320011837L113.24110304725036,495.1065558834616L117.4973793021527,492.4750850822875L117.93392045650398,481.4689131336563L123.8272260402191,479.07587385558327L125.79166123479445,472.01558894493246L128.84744931523892,473.33200607045546L141.07060163702045,466.031338200406L143.3624426973547,456.93359109294033L149.91056001259494,450.10894452502725L156.786083193605,450.2286850452383L163.00679464308269,441.9657608219095L170.97367070996188,442.4448168404888L167.26307089798865,440.0494802027133L160.82408887133715,421.96012125065135L182.43287601162956,412.13337593609504L180.68671139423168,408.897218066546L183.96077005185361,407.45884257455873L187.45309928664938,406.14028676637645L187.45309928664938,406.0204159246605L187.5622345752381,405.9005447276031L186.79828755512426,399.786642340845L189.30839919263235,399.786642340845L189.96321092415747,399.9065316690321L189.5266697698098,400.98551961804696L196.07478708505005,421.4808231474035L190.50888736709385,440.6483276157687L196.07478708505005,454.6588362388484L209.7166981584669,438.3726604302228L222.70379750036227,442.9238672054107L233.28992049333465,429.0291097123318L238.85582021129085,428.54989522176584L240.05630838575235,424.71597529400424L252.60686657329643,417.6462340959042L249.55107849285196,403.7428024096571Z" class="sc-kAyceB dIJauC Dimapur mapstate" fill="rgb(18, 108, 189)" stroke-width="0.9px"></path></svg>