<svg xmlns="http://www.w3.org/2000/svg"  xmlns:xlink="http://www.w3.org/1999/xlink"  id="map" width="695" height="695"><defs><filter id="sofGlow" height="300%" width="300%" x="-75%" y="-75%"><feMorphology operator="dilate" radius="4" in="SourceAlpha" result="thicken"></feMorphology><feGaussianBlur in="thicken" stdDeviation="10" result="blurred"></feGaussianBlur><feFlood flood-color="rgb(0,186,255)" result="glowColor"></feFlood><feComposite in="glowColor" in2="blurred" operator="in" result="softGlow_colored"></feComposite><feMerge><feMergeNode in="softGlow_colored"></feMergeNode><feMergeNode in="SourceGraphic"></feMergeNode></feMerge></filter></defs><path d="M356.1746662082078,481.94587139871146L334.53902813597233,473.7929994106962L333.3143693771708,472.0764769535508L320.0472328234464,455.76728525413637L316.16914675389125,422.2778715808199L302.0855710276228,413.6880971512437L288.8184344738984,395.2162811171984L273.3060901956924,392.4235780183317L261.6718319870415,395.0014620171223L250.4457933646554,399.72731996751827L249.4252443989899,400.15692656265855L228.1978259130192,387.0526613551192L211.46082287601166,359.3317442651078L161.0457039718458,337.18957086635965L163.49502148945612,321.92215916274836L176.14982866377977,310.73813232515204L181.66079307840846,294.8191024539501L178.39503638826136,286.6429579456708L183.089561630346,266.6285991726945L194.72381983900414,260.601567934782L196.56080797720642,242.94777020010952L205.13341928885347,234.7651196000479L192.0703925282578,216.24269036927944L207.78684659959254,205.9022965743552L204.1128703231807,195.9912087959583L171.65941321483842,179.3975248472907L174.1087307324342,174.87123851704564L163.49502148945612,158.05655264317284L173.2922915599047,146.41306135007108L168.59776631781278,138.86523635797312L176.96626783632382,130.02237958264232L208.6032857721293,143.60968615600905L210.03205432407412,131.7479098907388L226.1567279816809,125.92406074185601L233.30057074138313,143.178386897398L241.2608526736076,134.33611912378183L263.7129299183798,128.29680327773167L268.81567474674375,121.39403795413637L275.34718812703795,124.84551265035043L286.9814463356961,114.70628172167744L316.98558592642803,119.23677277237766L320.25134261657513,109.09666260976883L348.01027448284003,98.52336496146927L362.706179588502,76.29221868226887L377.40208469416393,87.51666648504943L389.03634290282207,88.38000473498869L392.9144289723772,59.667815309454454L428.42953297773056,49.73430846108931L424.9596664944547,31.590909090909918L435.9815953237048,36.12723806450413L456.3925746371315,65.06581855386139L500.8885095403966,62.90667147082968L530.6885393379998,94.42304940446229L543.3433465123308,99.60235212898988L547.4255423750219,112.98029689705982L543.7515660985955,151.1569584597928L556.2022634797904,152.0194478981357L561.3050083081398,158.91895028502404L570.6940587923236,194.69834675931634L566.8159727227685,210.85727379626405L553.5488361690441,218.82753193664757L556.8145928591912,229.81196304997502L552.5282872033786,249.4070314806031L558.6515809973935,262.969396639719L553.9570557553088,278.4657895098353L544.1597856848603,284.9215339164148L549.6707500994889,307.7267213331488L538.6488212702388,321.7070997563842L532.1173078899446,320.6317921199807L526.6063434753232,333.9643580319462L529.0556609929263,346.6492789490403L517.8296223705402,357.1823465873367L519.462500715621,362.98555860545275L504.9707054030878,369.21806618644223L512.1145481627827,388.5565622991817L520.2789398881578,390.49009862060484L511.910438369654,426.5723382449796L514.7679754735364,437.736640364481L522.1159280263673,439.02470725446256L519.8707203018857,445.2500087839817L528.8515511997903,453.4064101092863L526.6063434753232,458.55730141387903L520.8912692675658,458.1280758441917L511.29810899024596,457.26961632082566L486.1926044347347,455.338041517507L486.1926044347347,455.5526637352177L467.0062838801168,467.78497540872013L432.7158386335577,475.2949199308023L432.3076190472857,475.2949199308023L412.10074952699506,467.35580989836853L392.09798979984043,471.8619085063983L375.97331614223367,466.71205639708387L360.8691914502924,478.51320594415847Z" class="sc-kAyceB dIJauC North Sikkim mapstate" fill="rgb(18, 108, 189)" stroke-width="0.9px"></path><path d="M161.0457039718458,337.18957086635965L211.46082287601166,359.3317442651078L228.1978259130192,387.0526613551192L249.4252443989899,400.15692656265855L240.24030370794208,407.889365089226L245.9553779156995,464.56616601188944L274.7348587476299,460.0595689016063L278.0006154377843,467.35580989836853L285.5526777837513,462.8494034291489L289.8389834395639,468.85787696857005L289.8389834395639,468.85787696857005L288.61432468076237,482.1604070627491L275.14307833389466,486.45097394826007L270.2444432986813,500.39339156111237L257.58963612435764,508.97187882646176L265.5499180565894,521.623116339726L263.30471033211506,527.6262470155598L246.36359750197153,537.4873512978211L259.83484384883195,551.4190175932526L260.243063435104,569.6329329997152L275.959517506446,590.1979323485702L258.81429488315916,603.9043949189236L249.01702481271786,627.669842660056L248.60880522644584,628.7401585479383L223.29919087779854,635.3757330077406L214.52246977302275,627.669842660056L196.56080797720642,627.0276448662789L181.66079307840846,640.5124978671356L151.24843390139722,626.3854408762909L139.61417569275363,595.3381871582678L141.85938341722795,586.5566778328939L142.06349321035668,586.1282818227937L141.04294424469117,585.4856826256837L124.30594120767637,576.0601797606942L121.4484041038013,574.5605445310175L120.2237453449925,574.9890151974178L117.36620824111742,574.3463081603968L107.77304796380486,579.4877901935724L116.9579886548454,556.7765709445757L117.57031803425343,535.9868432151361L136.552528795728,506.39844954212094L122.6730628626101,484.9493072545265L125.5305999664779,464.35157313312266L140.22650507214712,448.0404702284359L135.9401994163345,433.22820781143673L124.10183141454763,420.98947692151523L123.6936118282756,410.0371032619223L132.47033293305867,400.80133118908816L131.65389376050734,386.1932739220101L142.67582258975744,369.43296967828246L144.30870093483827,354.8179277382678Z" class="sc-kAyceB dIJauC West Sikkim mapstate" fill="rgb(18, 108, 189)" stroke-width="0.9px"></path><path d="M249.4252443989899,400.15692656265855L250.4457933646554,399.72731996751827L261.6718319870415,395.0014620171223L273.3060901956924,392.4235780183317L288.8184344738984,395.2162811171984L302.0855710276228,413.6880971512437L316.16914675389125,422.2778715808199L320.0472328234464,455.76728525413637L333.3143693771708,472.0764769535508L334.53902813597233,473.7929994106962L356.1746662082078,481.94587139871146L356.1746662082078,482.3749420295717L355.154117242535,483.01854274698417L355.76644662193576,508.5429809021425L338.0088946192627,518.8357633746891L332.49793020462675,548.4185985355052L358.6239837258254,564.7049554426158L359.03220331209013,569.6329329997152L357.6034347601453,584.6288740226137L360.46097186402767,589.3411845402497L362.0938502091012,591.9113948132999L363.72672855417477,594.4815056430325L382.0966099362631,601.1204985065706L382.0966099362631,601.1204985065706L381.6883903499911,607.7588282564484L381.07606097058306,617.8221287584875L363.11439917476673,633.2352973723464L352.09247034551663,634.0914798829144L343.3157492407481,652.4967424934766L325.7623070312038,663.4090909090919L329.23217351447965,658.274090585086L289.2266540601704,649.0728925190597L281.4704819210674,640.5124978671356L280.85815254165936,640.7265211393333L272.08143143689085,643.0807317517465L267.9992355741997,631.0947929274989L260.243063435104,629.1682800844683L253.71155005480978,630.2385718800433L250.24168357152666,630.0245148975373L249.01702481271786,627.669842660056L258.81429488315916,603.9043949189236L275.959517506446,590.1979323485702L260.243063435104,569.6329329997152L259.83484384883195,551.4190175932526L246.36359750197153,537.4873512978211L263.30471033211506,527.6262470155598L265.5499180565894,521.623116339726L257.58963612435764,508.97187882646176L270.2444432986813,500.39339156111237L275.14307833389466,486.45097394826007L288.61432468076237,482.1604070627491L289.8389834395639,468.85787696857005L289.8389834395639,468.85787696857005L285.5526777837513,462.8494034291489L278.0006154377843,467.35580989836853L274.7348587476299,460.0595689016063L245.9553779156995,464.56616601188944L240.24030370794208,407.889365089226Z" class="sc-kAyceB dIJauC South Sikkim mapstate" fill="rgb(18, 108, 189)" stroke-width="0.9px"></path><path d="M356.1746662082078,481.94587139871146L360.8691914502924,478.51320594415847L375.97331614223367,466.71205639708387L392.09798979984043,471.8619085063983L412.10074952699506,467.35580989836853L432.3076190472857,475.2949199308023L432.7158386335577,475.2949199308023L467.0062838801168,467.78497540872013L486.1926044347347,455.5526637352177L486.1926044347347,455.338041517507L511.29810899024596,457.26961632082566L520.8912692675658,458.1280758441917L544.1597856848603,480.0150190461991L556.4063732729192,475.2949199308023L568.448851067842,501.68023563273164L585.1858541048568,508.97187882646176L587.2269520361951,514.9761576702622L578.8584505176914,543.7033797814529L565.9995335502317,550.3474549530874L541.0981387878564,549.7045090520969L525.7899043027792,558.2766082924281L519.462500715621,595.3381871582678L506.39947395501804,599.8355839096512L503.54193685115024,615.2529201862453L491.7035688493561,624.6728666078161L482.9268477445876,622.9602482683895L479.6610910544405,616.7516372458522L476.5994441574221,610.5424467030571L474.5583462260911,606.9023068269307L464.96518594877125,601.5487978518904L464.5569663625065,601.7629464895308L453.5350375332564,607.1164382188035L446.5953045666902,610.5424467030571L446.18708498041815,610.756566372389L416.5911649759437,593.8389872571915L386.382915592083,600.049738067657L382.0966099362631,600.9063477988948L382.0966099362631,601.1204985065706L382.0966099362631,601.1204985065706L363.72672855417477,594.4815056430325L362.0938502091012,591.9113948132999L360.46097186402767,589.3411845402497L357.6034347601453,584.6288740226137L359.03220331209013,569.6329329997152L358.6239837258254,564.7049554426158L332.49793020462675,548.4185985355052L338.0088946192627,518.8357633746891L355.76644662193576,508.5429809021425L355.154117242535,483.01854274698417L356.1746662082078,482.3749420295717Z" class="sc-kAyceB dIJauC East Sikkim mapstate" fill="rgb(18, 108, 189)" stroke-width="0.9px"></path></svg>