<svg xmlns="http://www.w3.org/2000/svg"  xmlns:xlink="http://www.w3.org/1999/xlink"  id="map" width="695" height="695"><defs><filter id="sofGlow" height="300%" width="300%" x="-75%" y="-75%"><feMorphology operator="dilate" radius="4" in="SourceAlpha" result="thicken"></feMorphology><feGaussianBlur in="thicken" stdDeviation="10" result="blurred"></feGaussianBlur><feFlood flood-color="rgb(0,186,255)" result="glowColor"></feFlood><feComposite in="glowColor" in2="blurred" operator="in" result="softGlow_colored"></feComposite><feMerge><feMergeNode in="softGlow_colored"></feMergeNode><feMergeNode in="SourceGraphic"></feMergeNode></feMerge></filter></defs><path d="M574.8854021251154,80.35814889098856L568.029892103079,80.35814889098856L563.6792799737104,82.31753560691686L561.7676473714127,90.34961622931746L562.0313208337975,94.20160388140766L555.3076475429552,92.96118968736414L550.2319333920259,92.76532991905992L549.9023415640422,95.1155590379285L545.8154028970621,94.65858509072291L543.5082601011818,92.24303067310075L540.2123418213596,91.52485369467627L533.686423627305,93.1570481201818L534.2796889176734,95.96420568120516L528.4788727451814,103.33985098927997L524.1941789814082,102.88300735171765L520.6345872391994,101.25136398344239L520.3049954112157,96.4211588926837L517.0749954969888,94.13632025854054L516.8772404001993,90.4149084629039L512.1970364428471,91.0025318763428L511.274179324495,89.37021488167716L511.0764242277073,77.54945954367258L506.330301904758,78.46394697043183L506.00071007677616,76.37364678251629L501.056832657041,73.82588550976311L499.1452000547415,80.03157134173148L492.15785330151084,81.01129276035545L486.2911187634236,80.29283368063238L482.27009846203873,80.75003700896582L481.5449964404743,84.47270557125034L478.7764250854234,86.10530183809647L476.8647924831239,81.1419197380394L473.1733640097209,84.86453718093799L473.4370374721075,87.60720808705605L465.6586703317207,89.95785970556722L462.0990785895101,87.28071343467423L459.923772524824,82.70939679545313L462.8241806110709,83.95025506427987L464.9994866757552,81.79504564858121L469.08642534273713,81.79504564858121L468.03173149319264,77.87606557085587L472.1186701601782,74.6098364060083L476.60111902073913,75.00180373456078L479.10601691340526,71.80057873516944L479.04009854781,69.25240648640352L475.0849966120186,68.72967612694879L474.55764968724725,62.12937308765959L472.8437721817372,58.59986385366551L483.78622087075564,56.90031244117904L488.53234319370495,57.619365976490826L488.8619350216868,65.33169310511084L492.685200226284,66.90004375256422L496.3107103340899,63.501840499559876L503.6935672808995,64.41678164342261L505.14377132402115,68.59899202744782L509.03295489421544,71.80057873516944L510.61499566853126,69.44842788079518L513.7131588515658,72.84591642550413L517.6682607873572,68.86035962253845L510.87866913091784,64.93959182627918L514.6360159699179,60.49539608747864L517.2727505937764,62.84829292768268L520.1731586800215,59.972503407155955L533.0931583369365,56.11586939247832L536.1254031543758,52.91249915799631L534.0160154552868,47.616327817689125L537.839280659884,47.02780234082661L537.7074439286916,42.44995768267063L541.7284642300783,41.403487464387354L543.9037702947626,37.28262770335755L544.1015253915521,34.338781472752316L549.5727497360622,35.778034276877634L549.7045864672546,40.16075290310914L557.2851985108518,39.89911749008115L566.3819329631679,40.61860894554434L568.2276471998703,42.0575359662555L570.7325450925364,31.59090909090901L574.0284633723604,39.37583926817956L577.7198918457652,45.26215138364478L580.0270346416419,60.36467382869682L579.8951979104477,64.48213344624537L576.9947898242026,75.3284390415306Z" class="sc-kAyceB dIJauC Thiruvallur mapstate" fill="rgb(18, 108, 189)" stroke-width="0.9px"></path><path d="M555.3076475429552,92.96118968736414L562.0313208337975,94.20160388140766L561.7676473714127,90.34961622931746L563.6792799737104,82.31753560691686L568.029892103079,80.35814889098856L574.8854021251154,80.35814889098856L574.2262184691517,86.17060374949097L570.205198167765,104.25351661654281L569.0845859526235,113.51906963406168L564.4703003608684,111.8227809774894L561.5698922746233,112.34472648221958L562.1631575649917,106.14601795452472L560.1856065970969,100.79448732463925L556.428259758095,98.96690836512016Z" class="sc-kAyceB dIJauC Chennai mapstate" fill="rgb(18, 108, 189)" stroke-width="0.9px"></path><path d="M361.30989759246586,140.25524922697855L360.7825506676945,143.1230574981605L362.36459144200853,146.77259483074408L361.7054077860448,156.28535933884928L365.5945913562373,160.78006585193202L364.0125505819233,167.22781909471018L366.6492852057818,168.2697507898199L372.1205095502919,166.5765935220859L379.04193793792365,167.94415099713842L380.82173380902896,171.06976421473723L384.51316228243195,172.56733944813118L384.0517337232559,178.6870957042579L382.73336641132664,181.87669305069312L388.0068356590473,182.91812193030364L390.6435702829076,187.21364065939338L386.29295815353726,192.35445395291345L383.85397862646823,191.70376572073224L380.2943868842558,193.46059231516756L377.4598971636078,191.89897363819887L373.63663195901063,192.0291115603527L370.933978969555,196.64865088335182L367.506223958535,195.5426271600818L368.09948924890523,192.80992751307258L359.0027547965874,189.10087480683546L358.34357114062186,186.3676013745719L354.84989776400835,186.6279236464411L352.5427549681317,182.26723304761845L348.917244860324,181.0955980484548L344.9621429245344,182.26723304761845L344.43479599976126,179.33806107330565L341.3366328167285,177.25492285281757L342.5231633974636,174.8461162748838L340.4137756983764,172.4371184546428L337.90887780570847,174.71590506894086L334.876632988271,174.12994772583193L333.55826567633994,170.80930878534878L330.85561268688434,169.8976971243219L329.1417351813743,166.25097546488155L330.65785759009304,162.92947034952044L327.88928623504216,160.06356353235333L325.91173526714556,161.17087809812665L320.2427558258478,157.71852729776424L317.80377629877694,159.60759861216775L316.02398042767163,154.5915269875718L312.7939805134429,154.07032851842632L309.43214386802356,156.54594042888743L305.806633760214,155.95962978896273L311.4756132015136,165.33922620176236L309.0366336744428,169.37676383722487L308.9047969432504,173.80441097690004L306.46581741617956,175.17164184519856L299.6762257597402,174.58569330416503L300.5990828780923,177.71062153178127L299.21479720056595,183.04829804050655L297.10540950147697,182.52759026724698L293.74357285605583,185.65170370108672L291.4364300601792,195.60768847886516L287.6790832211791,193.20032804749144L286.09704244686327,194.761880606761L284.31724657575614,191.96404266822105L276.86847126335124,189.8166918310135L270.9358183596687,188.97072446077232L260.32296149863214,190.2722030536379L255.04949225091332,188.51519389573764L254.91765551971912,184.61036806393713L256.8952064876139,180.37957670874084L261.24581861698243,180.50976365859879L265.59643074635096,177.3851231724782L267.0466347894744,173.93462609583935L270.9358183596687,171.00465056754797L272.5837774995798,159.73787501007473L270.34255306930027,157.78366966802787L271.19949182205346,154.46122822144184L268.0354102734218,153.22336163627642L267.1784715206668,146.4467614908524L268.49683883259604,141.55883281113074L270.1447979725108,140.05970674493528L269.3537775853529,135.56187313293617L276.2752059729846,133.60607981245948L278.3845936720736,136.34415419953734L285.37194042530064,134.77957135140332L287.6790832211791,132.1065504712567L287.6790832211791,128.58561638271726L291.4364300601792,125.06426065684445L292.0296953505476,114.17146202610252L296.18255238312486,112.01851163939932L302.3129603836005,112.08375490064896L306.72949087856614,109.60440802621702L307.7841847281088,111.75753713077597L305.3452052010398,115.73714416039752L307.9819398249001,117.43320493463193L310.6845928143557,116.32425328048475L313.5850009006008,117.62889791099428L316.81500081482955,116.51995369410088L318.1992864923559,114.04098471693283L323.34091900888416,115.54143849333082L324.9229597832,118.15073943506695L329.93275556853223,122.25991585544239L340.80928589195537,124.73818783457773L341.86397974149986,131.45455740104558L345.95091840848,131.58495716918378L348.2580612043603,135.10553294524766L357.61846911906287,140.4507904188215L361.37581595806114,140.19006854299596Z" class="sc-kAyceB dIJauC Krishnagiri mapstate" fill="rgb(18, 108, 189)" stroke-width="0.9px"></path><path d="M386.29295815353726,192.35445395291345L390.6435702829076,187.21364065939338L388.0068356590473,182.91812193030364L391.10499884208184,181.55123923211545L394.9941824122743,177.58042260628508L397.1694884769586,169.50699800049756L399.7403047352236,168.00927123649444L401.586018971926,164.03667941196386L400.46540675678443,161.56168526327542L402.7066311870658,158.95620814319568L407.65050860680276,150.35652636264285L411.73744727378653,139.47307155573048L415.5607124783837,134.38841268880242L417.80193690866327,133.2149055957252L424.59152856510264,135.04034091431186L428.5466305008922,131.45455740104558L430.4582631031899,132.62813454322054L435.1384670605421,126.36851571243164L442.71907910413756,124.54254240123487L447.2674463302974,126.56414897278205L451.0907115348946,126.4337269440357L451.35438499728116,121.93381182916892L456.2982624170181,119.19439451166818L460.3852010840001,122.97733193099725L461.24213983675327,126.30330433599943L466.581527450071,128.06396068467166L472.44826198815827,132.954119902608L468.09764985879156,134.9751487394658L471.0639763106319,140.05970674493528L478.7764250854234,135.10553294524766L480.3584658597392,131.78055573933898L480.81989441891346,123.56429565253916L479.765200569369,122.06425387553395L479.4356087413871,115.01955029080386L481.21540461249424,111.56180471229959L485.63193510745805,113.58430953103516L491.03724108637107,113.9757458431402L494.00356753821507,116.12855155378679L500.06805717309,118.54211445837382L500.8590775602479,123.36864238509315L506.725812098337,122.97733193099725L511.9992813460576,126.69457042229214L511.60377115247866,132.43254159766298L503.6276489153024,135.6270640128496L500.8590775602479,135.17072483228344L499.0792816891444,139.73379974057434L503.034383624934,144.10065607889942L505.8688733455838,143.18823173798046L509.69213855017915,144.8175412619023L508.5715263350394,149.18365075268161L511.86744461486524,151.20357451931454L513.2517302923898,153.15820934397243L512.5266282708308,159.93328854726087L507.91234267907384,163.25512430087997L506.6598937327417,166.25097546488155L503.49581218411004,167.22781909471018L502.8366285281445,170.2232758714615L500.1998939042842,172.89288948310036L495.3219348501443,172.24178591477312L487.54356770975755,169.96281315415786L485.1045881826867,172.7626698888646L478.7764250854234,169.50699800049756L478.4468332574397,166.96733055204277L474.7554047840367,165.72997926164112L472.64601708494956,162.3432843563769L464.53805811658094,160.64979397382058L462.6923438798767,162.01762053605216L455.3094869330689,161.2360129784622L453.3978543307712,165.2089740562801L455.90275222343735,168.46510898069914L454.38662981472044,170.09304479320326L456.03458895463154,175.49716392400137L460.51703781519427,176.01799198988147L457.2870379009655,180.77013588920886L455.5072420298602,181.0955980484548L454.18887471793096,189.94683858509507L451.6180584596659,193.59072362258803L459.2645888688603,198.34013978506528L457.2211195353684,203.28396054640075L454.38662981472044,205.69053470235372L450.49744624452615,204.71491906385154L447.3333646958945,209.2675295644126L444.4329566096476,207.64167390274747L441.99397708257857,210.56815285810285L436.7205078348579,209.13746424245437L438.895813899544,204.7799610619893L437.44560985642056,203.41405041719986L433.68826301741865,208.55216355681978L431.3152018559467,205.30029213223338L423.2072428875763,204.84500292358757L417.99969200545456,211.08838694823794L413.45132477929656,209.72275390548907L409.1007126499262,211.93374879913858L405.6070392733127,210.50312298521817L395.8511211650293,214.59973977505797L393.60989673474796,213.62440367169165L394.92826404668085,207.3164925559272L397.69683540173173,199.6412219676913L397.1694884769586,198.01486066545135L390.05030499253735,200.87719925198235L386.0292846911525,197.1691188938546L387.8749989278549,193.7859195508545Z" class="sc-kAyceB dIJauC Tiruvannamalai mapstate" fill="rgb(18, 108, 189)" stroke-width="0.9px"></path><path d="M286.09704244686327,194.761880606761L287.6790832211791,193.20032804749144L291.4364300601792,195.60768847886516L293.74357285605583,185.65170370108672L297.10540950147697,182.52759026724698L299.21479720056595,183.04829804050655L300.5990828780923,177.71062153178127L299.6762257597402,174.58569330416503L306.46581741617956,175.17164184519856L308.9047969432504,173.80441097690004L309.0366336744428,169.37676383722487L311.4756132015136,165.33922620176236L305.806633760214,155.95962978896273L309.43214386802356,156.54594042888743L312.7939805134429,154.07032851842632L316.02398042767163,154.5915269875718L317.80377629877694,159.60759861216775L320.2427558258478,157.71852729776424L325.91173526714556,161.17087809812665L327.88928623504216,160.06356353235333L330.65785759009304,162.92947034952044L329.1417351813743,166.25097546488155L330.85561268688434,169.8976971243219L333.55826567633994,170.80930878534878L334.876632988271,174.12994772583193L337.90887780570847,174.71590506894086L340.4137756983764,172.4371184546428L342.5231633974636,174.8461162748838L341.3366328167285,177.25492285281757L344.43479599976126,179.33806107330565L344.9621429245344,182.26723304761845L348.917244860324,181.0955980484548L352.5427549681317,182.26723304761845L354.84989776400835,186.6279236464411L358.34357114062186,186.3676013745719L359.0027547965874,189.10087480683546L368.09948924890523,192.80992751307258L367.506223958535,195.5426271600818L370.933978969555,196.64865088335182L373.63663195901063,192.0291115603527L377.4598971636078,191.89897363819887L380.2943868842558,193.46059231516756L383.85397862646823,191.70376572073224L386.29295815353726,192.35445395291345L387.8749989278549,193.7859195508545L386.0292846911525,197.1691188938546L390.05030499253735,200.87719925198235L397.1694884769586,198.01486066545135L397.69683540173173,199.6412219676913L394.92826404668085,207.3164925559272L393.60989673474796,213.62440367169165L395.8511211650293,214.59973977505797L394.4009171219077,219.80101796095187L396.57622318659014,222.07630535223007L394.79642731548665,224.54643052701704L389.3911213365718,224.87143253456975L385.5678561319746,227.86129342856702L382.0741827553629,233.25532489864236L376.5370400452557,235.074790435978L369.1541830984479,233.84016451835032L364.5398975066946,231.30578134540906L363.6829587539396,228.70620265415255L360.32112210851847,227.40633292000575L358.01397931264,232.34555287584112L354.3884692048341,236.76420052834692L351.88357131216617,236.11443807695173L356.3001018071318,226.56138881832885L351.22438765620245,223.7014095731122L350.8288774626217,220.5811351049581L343.77561234379755,219.67099654781623L341.2707144511296,215.1849268008118L331.64663307404226,216.42028561042503L322.28622515933966,219.86602846507503L319.122143610708,220.12606913209424L312.33255195426864,224.54643052701704L305.3452052010398,224.54643052701704L299.5443890285478,222.53134301698014L296.18255238312486,224.22142515789824L287.8768383179686,223.18138537703362L285.17418532851116,219.80101796095187L278.05500184408993,218.30573910308362L280.3621446399666,210.95832924109914L283.9876547477761,205.49541403138414L287.08581793081066,203.54413974126442L289.327042361092,199.05574177427684Z" class="sc-kAyceB dIJauC Dharmapuri mapstate" fill="rgb(18, 108, 189)" stroke-width="0.9px"></path><path d="M278.05500184408993,218.30573910308362L285.17418532851116,219.80101796095187L287.8768383179686,223.18138537703362L296.18255238312486,224.22142515789824L299.5443890285478,222.53134301698014L305.3452052010398,224.54643052701704L312.33255195426864,224.54643052701704L319.122143610708,220.12606913209424L322.28622515933966,219.86602846507503L331.64663307404226,216.42028561042503L341.2707144511296,215.1849268008118L343.77561234379755,219.67099654781623L350.8288774626217,220.5811351049581L351.22438765620245,223.7014095731122L356.3001018071318,226.56138881832885L351.88357131216617,236.11443807695173L354.3884692048341,236.76420052834692L358.01397931264,232.34555287584112L360.32112210851847,227.40633292000575L363.6829587539396,228.70620265415255L364.5398975066946,231.30578134540906L369.1541830984479,233.84016451835032L376.5370400452557,235.074790435978L382.0741827553629,233.25532489864236L385.5678561319746,227.86129342856702L393.1484681755719,229.94102924400158L393.01663144438135,235.39968398982978L389.91846826134315,236.24439163300917L387.41357036867885,239.55802739441356L386.8203050783104,244.95006857230328L388.5341825838186,245.5996504800646L388.13867239023966,251.18550964481506L389.25928460537943,253.45854536213437L393.9394885627298,248.39270206289734L395.9170395306264,249.36696495067895L402.97030464945055,247.02868413258489L405.67295763890615,248.782410779746L405.87071273569745,251.8999096657169L403.76132503660847,253.32866194693656L403.6294883054161,257.4197372323456L408.3096922627683,261.64014290100044L407.0572433164343,263.52291503294305L410.0235697682765,267.8723488578339L406.3321412948717,269.62494077954966L403.95908013339977,275.85561363101465L407.3868351444162,277.4779891883113L405.07969234853954,283.77204446058204L403.563569939819,282.9934639900896L398.55377415448675,276.3098869154628L393.80765183153926,275.5960260571144L392.5552028852053,277.9322399001776L388.33642748702914,279.48962298396964L389.7207131645555,285.06963753771606L387.21581527188937,288.70262565729786L383.0629582393103,289.0918506009309L379.3056114003102,291.8162965514239L377.26214206681834,291.29737181157316L377.26214206681834,286.8213069008789L373.9003054213954,285.4589054639482L372.3841830126785,282.4095165087592L369.68153002322106,281.1767043292582L365.33091789385253,282.02021240967406L365.4627546250467,278.45137583834116L363.6170403883425,273.2596448725037L364.7376526034823,270.66346912950166L368.2313259800976,268.19691005945174L366.2537750122028,265.47049495595456L365.79234645302677,259.3027557349535L356.0364283447452,261.51029250103284L352.01540804336037,266.83373118064696L348.98316322591927,260.27668764055556L345.48948984930576,261.4453671051658L342.259489935077,264.4318002553032L338.4362247304798,263.0684628398649L332.8990820203744,266.05474607822225L323.7364292024613,264.95115177307366L323.20908227768996,267.9372613579849L319.64949053547934,268.78111203963044L317.73785793318166,267.0284745299832L312.20071522307444,266.96356021023007L311.5415315671107,274.16825746028485L305.54296029782745,276.05030295592405L303.2358175019508,279.6842906545485L298.0282666198291,280.333174525643L294.46867487761847,276.37478258271153L287.6790832211791,276.18009519381417L284.38316494135324,276.8939432758275L280.4280630055637,274.6225542516322L284.31724657575614,269.3653035033615L283.46030782300295,266.5740715609927L286.03112408126617,262.35431076591794L284.9105118661246,258.5885202978229L287.7450015867762,253.19877800594963L286.29479754365275,251.57518435798306L282.47153233905374,253.26372004216978L279.57112425280866,252.93900854639037L280.49398137116077,243.32605589625132L283.32847109181057,236.4393209678435L282.0101037798795,234.68491377044916L276.93438962895016,233.0603759550986L276.4729610697741,226.8213740346739L279.1096956936326,226.95136583747467Z" class="sc-kAyceB dIJauC Salem mapstate" fill="rgb(18, 108, 189)" stroke-width="0.9px"></path><path d="M278.05500184408993,218.30573910308362L279.1096956936326,226.95136583747467L276.4729610697741,226.8213740346739L276.93438962895016,233.0603759550986L282.0101037798795,234.68491377044916L283.32847109181057,236.4393209678435L280.49398137116077,243.32605589625132L279.57112425280866,252.93900854639037L282.47153233905374,253.26372004216978L286.29479754365275,251.57518435798306L287.7450015867762,253.19877800594963L284.9105118661246,258.5885202978229L286.03112408126617,262.35431076591794L283.46030782300295,266.5740715609927L284.31724657575614,269.3653035033615L280.4280630055637,274.6225542516322L278.84602223124784,279.35984389335204L282.8011241670374,284.55060646031825L285.6356138876872,286.17255135303367L293.1503075656856,297.45907722243237L296.51214421110853,298.04275828152095L299.5443890285478,300.5070762607038L299.08296046937176,306.3428907212692L301.653776727635,310.16803752389023L302.4447971147929,318.98366292973924L307.1250010721433,320.08545370661045L305.9384704914082,322.418538979073L301.258266534056,325.33466915922486L295.52336872716114,322.67776073020764L294.1390830496366,320.08545370661045L289.4588790922844,321.44643970305924L285.10826696291406,318.3355338881888L276.4070427041788,316.19661955789115L271.33132855324766,313.53899104613834L264.80541035919305,315.6132556907155L258.213573799545,315.8077114374796L256.6974513908244,307.5099310617684L259.40010438028,306.60223654353695L258.213573799545,302.12823842616626L254.0607167669641,298.36702109884277L255.37908407889518,293.37302185120643L248.98500261603476,292.4000771354374L245.29357414262995,291.03790638221744L239.4927579701398,291.62170072990057L240.81112528206904,296.22682790676845L234.02153362562967,294.47565791308716L226.30908485084,287.5997966692978L220.57418704394513,291.62170072990057L218.26704424806667,289.41620120840366L214.64153414025895,284.4857269988688L206.7972486342769,281.76067377467416L203.1717385264692,285.6535376977138L197.50275908517142,283.77204446058204L199.4803100530662,281.89044334910477L199.74398351545096,277.41309571382885L203.03990179527682,276.05030295592405L200.66684063380126,272.6755233922179L203.1058201608721,267.7425234677405L197.17316725718592,262.28938706721624L190.84500415992443,261.2505901339391L185.11010635302955,261.57521776631097L184.31908596587164,259.6274029729252L182.9348002883453,254.36771455097892L184.7145961594506,248.97726335711855L188.99928992322202,243.5209417875883L191.30643271909867,236.4393209678435L198.22786110673223,238.51849264224825L199.74398351545096,235.7895518548205L203.1058201608721,234.16507074579044L206.006228247119,236.56927319164515L211.01602403245124,242.8063543557846L214.3119423122771,242.54650040460433L214.18010558108472,238.9083221627427L223.01316657101415,236.76420052834692L228.61622764671665,236.50429714634902L229.8686765930488,234.3600128807543L234.87847237838469,234.8148731924839L239.55867633573507,239.16820585051119L246.34826799217444,237.4789238426863L250.03969646557925,239.68796684586596L252.47867599264828,236.30936821118166L254.2584718637554,227.2113478326055L257.0929615844052,223.31139223355285L257.35663504678996,219.5409745947818L262.4982675633164,220.5811351049581L265.0690838215796,219.4759634157865L270.0129612413184,219.93103883424396Z" class="sc-kAyceB dIJauC Erode mapstate" fill="rgb(18, 108, 189)" stroke-width="0.9px"></path><path d="M184.31908596587164,259.6274029729252L185.11010635302955,261.57521776631097L190.84500415992443,261.2505901339391L197.17316725718592,262.28938706721624L203.1058201608721,267.7425234677405L200.66684063380126,272.6755233922179L203.03990179527682,276.05030295592405L199.74398351545096,277.41309571382885L199.4803100530662,281.89044334910477L197.50275908517142,283.77204446058204L194.53643263332742,286.756431921988L190.58133069753785,287.72954317353515L189.3288817512057,285.97792219261714L184.7145961594506,288.9621094639847L186.03296347137984,292.7892584594724L183.79173904109848,294.99453275415L178.84786162136152,294.47565791308716L177.72724940622174,296.09711478687564L171.3990863089566,299.7937398618087L168.36684149151915,300.4422281299378L159.6656172327821,305.7593552541789L156.50153568414862,305.37032594062066L148.92092364055316,306.7967445883378L145.03174007035886,303.81416330418256L139.36276062905927,304.4625732301595L139.8241891882335,300.5719242649445L147.536637963025,296.9402409891172L149.90969912450055,293.95677493413973L150.50296441486898,286.756431921988L140.61520957539324,283.31787476492036L130.26602617674325,275.53112884085317L125.45398548819867,275.79071693119863L120.70786316525118,272.48081390269385L118.53255710056692,272.6755233922179L115.76398574551422,267.54778440802556L114.9729653583563,262.67892730199947L120.11459787488275,258.84824410705005L122.75133249874125,262.28938706721624L126.57459770334026,259.4326150225629L131.32072002628774,258.7183824642034L132.44133224142752,255.53660854228178L136.85786273639314,255.0820437107875L140.21969938181428,251.51023890157194L146.41602574788521,246.8338196738905L149.5141889309216,248.65250840189356L153.0078623075333,256.90026446845127L157.95173972727207,258.06906639585736L164.47765792132304,257.16000189877127L181.61643297641604,258.0041340689015Z" class="sc-kAyceB dIJauC Nilgiris mapstate" fill="rgb(18, 108, 189)" stroke-width="0.9px"></path><path d="M280.4280630055637,274.6225542516322L284.38316494135324,276.8939432758275L287.6790832211791,276.18009519381417L294.46867487761847,276.37478258271153L298.0282666198291,280.333174525643L303.2358175019508,279.6842906545485L305.54296029782745,276.05030295592405L311.5415315671107,274.16825746028485L312.20071522307444,266.96356021023007L317.73785793318166,267.0284745299832L319.64949053547934,268.78111203963044L323.20908227768996,267.9372613579849L323.7364292024613,264.95115177307366L332.8990820203744,266.05474607822225L338.4362247304798,263.0684628398649L342.259489935077,264.4318002553032L345.48948984930576,261.4453671051658L348.98316322591927,260.27668764055556L352.01540804336037,266.83373118064696L356.0364283447452,261.51029250103284L365.79234645302677,259.3027557349535L366.2537750122028,265.47049495595456L368.2313259800976,268.19691005945174L364.7376526034823,270.66346912950166L363.6170403883425,273.2596448725037L365.4627546250467,278.45137583834116L365.33091789385253,282.02021240967406L369.68153002322106,281.1767043292582L367.2425504961502,284.68036499866116L365.2649995282536,289.87028669644405L366.84704030256944,290.7784389126648L362.43050980760563,303.74932161768925L357.8162242158505,306.60223654353695L357.8162242158505,311.788730561301L353.79520391446385,312.6962844337884L352.8064284305183,316.06698401741096L354.3884692048341,320.1502638080208L351.35622438739483,321.51124719167046L340.677449160763,317.23368590114137L341.3366328167285,320.73354911963725L335.40397991304235,320.1502638080208L336.7223472249716,325.59386857485265L333.36051057955046,326.6306464142242L326.24132709512924,319.4373458442926L320.9019394818133,319.63177951056423L317.80377629877694,317.68739237918294L313.6509192661979,317.03923839599815L308.64112348086564,320.6039310326523L307.1250010721433,320.08545370661045L302.4447971147929,318.98366292973924L301.653776727635,310.16803752389023L299.08296046937176,306.3428907212692L299.5443890285478,300.5070762607038L296.51214421110853,298.04275828152095L293.1503075656856,297.45907722243237L285.6356138876872,286.17255135303367L282.8011241670374,284.55060646031825L278.84602223124784,279.35984389335204Z" class="sc-kAyceB dIJauC Namakkal mapstate" fill="rgb(18, 108, 189)" stroke-width="0.9px"></path><path d="M389.7207131645555,285.06963753771606L388.33642748702914,279.48962298396964L392.5552028852053,277.9322399001776L393.80765183153926,275.5960260571144L398.55377415448675,276.3098869154628L403.563569939819,282.9934639900896L405.07969234853954,283.77204446058204L407.3868351444162,277.4779891883113L403.95908013339977,275.85561363101465L406.3321412948717,269.62494077954966L410.0235697682765,267.8723488578339L413.912753338469,269.62494077954966L423.47091634996286,281.4362475901032L431.4470385871373,282.7988159850406L434.0837732109994,281.76067377467416L441.46663015780723,282.47440007579416L446.80601777112315,284.55060646031825L445.5535688247892,289.1567209778282L442.5872423729452,289.87028669644405L440.08234448027906,297.00509596235406L441.5984668889978,299.46949098062396L438.9617322651393,301.5446291498997L438.36846697476904,305.11097054457923L434.0178548454023,313.21487562257084L435.59989561971815,315.48361790143076L433.9519364798052,318.3355338881888L431.381120221542,318.52997390943005L428.4807121352951,321.38163209009554L424.8552020274874,317.2985014866035L419.5158144141715,317.81702167870344L416.02214103755796,316.6503400156805L406.00254946688983,319.04847514844346L406.3980596604706,315.2891602802092L400.729080219171,314.3168552967104L397.82867213292593,316.0021660598095L398.6856108856791,319.4373458442926L394.00540692832874,320.27988363738837L391.6982641324503,313.1500521622654L391.03908047648474,305.7593552541789L393.67581510034506,306.14838003243017L395.323774240258,303.48995360975164L394.9941824122743,299.46949098062396L398.22418232650307,294.2810777498248L397.63091703613463,290.9081729024931L388.9296927773976,289.6756793960783Z" class="sc-kAyceB dIJauC Perambalur mapstate" fill="rgb(18, 108, 189)" stroke-width="0.9px"></path><path d="M197.50275908517142,283.77204446058204L203.1717385264692,285.6535376977138L206.7972486342769,281.76067377467416L214.64153414025895,284.4857269988688L218.26704424806667,289.41620120840366L218.66255444164563,292.854121567784L215.1688810650303,294.7350963506383L220.24459521596145,297.2645145864551L219.8490850223825,308.8065947493553L225.25439100129552,311.98320845883654L229.143574571488,312.3073357814692L231.38479900176935,315.02988170201047L220.7060237751375,320.4095029688649L221.89255435587438,324.0386423248776L219.05806463522458,328.4449313802745L221.89255435587438,336.60801643770947L225.51806446368028,339.3933843838231L229.67092149625933,339.13428995137065L230.9892888081904,345.28725409315757L233.88969689443547,346.6472343557473L234.94439074398178,349.69080525646905L230.39602351782378,353.89955721133765L227.69337052836636,353.7700647830202L223.87010532376917,350.8563570826004L219.8490850223825,351.9571199404986L216.81684020494322,356.9424900716067L217.60786059210113,364.96937577360245L218.8603095384351,368.3996591970358L222.15622781826096,369.1762805041117L219.51949319440064,376.03568988421716L213.19133009713732,375.7768685130052L210.81826893566358,377.39447093289846L209.89541181731147,381.0823275300295L210.4886771076799,385.3519976428115L208.31337104299564,388.26284217160674L209.96133018290857,389.9445550141454L206.33582007509904,394.08381835711793L211.4115342260302,399.70986229732375L210.29092201089225,404.4945402310434L211.87296278520807,407.0159395367748L207.98377921501378,410.18360248078807L207.45643229024063,412.83388340587476L199.87582024664334,417.6168286053403L194.800106095714,415.80713939307793L191.50418781588996,416.130304767011L189.98806540716942,413.02779881025594L182.40745336357395,408.3088966426444L184.51684106266111,400.93842132747614L181.6823513420095,397.83461231407864L180.82541258925812,394.5365212176423L182.20969826678265,391.4968349645212L183.39622884751952,374.67685648656266L181.02316768604578,373.9003567319287L180.62765749246682,370.14703295822005L188.3401062672583,369.6940184884279L186.49439203055408,364.5162943260332L190.77908579432733,355.45342861736276L190.44949396634547,350.27358608484224L186.95582058973196,350.1440800838245L182.53929009476633,343.08526730076596L176.73847392227435,340.68882715671316L172.19010669611453,340.3001994662959L163.09337224380033,336.15456297407695L163.9503109965517,331.81406071576384L169.55337207225602,323.5202176968787L172.98112708327426,321.6408617958666L173.17888218006192,312.6314599715922L168.36684149151915,311.788730561301L167.18031091078046,308.93625835261514L171.13541284657185,305.82419303213237L171.72867813693847,303.29542627854585L168.36684149151915,300.4422281299378L171.3990863089566,299.7937398618087L177.72724940622174,296.09711478687564L178.84786162136152,294.47565791308716L183.79173904109848,294.99453275415L186.03296347137984,292.7892584594724L184.7145961594506,288.9621094639847L189.3288817512057,285.97792219261714L190.58133069753785,287.72954317353515L194.53643263332742,286.756431921988Z" class="sc-kAyceB dIJauC Coimbatore mapstate" fill="rgb(18, 108, 189)" stroke-width="0.9px"></path><path d="M369.68153002322106,281.1767043292582L372.3841830126785,282.4095165087592L373.9003054213954,285.4589054639482L377.26214206681834,286.8213069008789L377.26214206681834,291.29737181157316L379.3056114003102,291.8162965514239L383.0629582393103,289.0918506009309L387.21581527188937,288.70262565729786L389.7207131645555,285.06963753771606L388.9296927773976,289.6756793960783L397.63091703613463,290.9081729024931L398.22418232650307,294.2810777498248L394.9941824122743,299.46949098062396L395.323774240258,303.48995360975164L393.67581510034506,306.14838003243017L391.03908047648474,305.7593552541789L391.6982641324503,313.1500521622654L394.00540692832874,320.27988363738837L398.6856108856791,319.4373458442926L397.82867213292593,316.0021660598095L400.729080219171,314.3168552967104L406.3980596604706,315.2891602802092L406.00254946688983,319.04847514844346L416.02214103755796,316.6503400156805L419.5158144141715,317.81702167870344L424.8552020274874,317.2985014866035L428.4807121352951,321.38163209009554L429.20581415685774,327.01942993078956L426.23948770501556,328.0561641947377L425.38254895226055,331.5549087673164L421.2296919196815,331.23096605737874L428.01928357612087,337.12624160091036L428.28295703850745,340.36497105398735L421.4933653820681,340.9479098364184L419.1203042205925,343.60339452976086L411.078263617821,346.258674047481L412.9239778545216,348.26618848210364L412.52846766094444,360.3088286017885L413.45132477929656,362.0566067566622L413.31948804810236,364.06320700366473L407.4527535100133,363.2864722051063L404.0909168645903,368.46437829634397L400.46540675678443,368.0760619079672L397.8945904985212,361.02089695003133L392.62112125080057,358.69043728488305L393.0825498099766,363.67484176403696L390.05030499253735,365.87552105352165L389.19336623978415,362.12133759803555L385.6337744975717,362.2507989203666L381.74459092738107,367.4288583645173L378.6464277443429,367.23469496972234L376.99846860442995,364.2573880041891L373.8343870558001,365.6813490415245L374.29581561497434,370.8589010282583L369.2860198296403,369.75873519927995L366.6492852057818,372.8649970844692L367.76989742092155,380.95293556031856L369.68153002322106,381.21171902700144L373.43887686222115,387.68069231137883L376.86663187323757,384.05821246524624L381.3490807338003,388.65093679309643L380.6239787122395,391.8202181271663L378.18499918516864,393.5664366484946L373.8343870558001,392.9843732833449L371.8568360879053,399.96850979015016L371.9227544535006,398.54592555260524L365.5286729906402,396.0886018755941L364.07846894751856,401.4556967943554L361.7054077860448,401.4556967943554L357.55255075346395,407.5331279209033L352.4109182369375,408.6321287056071L352.93826516171066,405.78758748843507L346.28051023646367,400.35647754231354L350.36744890344744,392.6610006538983L341.2047960855343,389.10370850966933L338.04071453690085,388.71561881905427L336.39275539698974,385.610749024863L337.31561251534185,380.3059686188044L342.1935715694799,379.4648939132369L344.43479599976126,376.61803102584213L344.69846946214784,371.18247265362857L347.7966326451842,362.5097201235483L350.4992856346398,362.5097201235483L353.7292855488686,360.24409439374836L357.4207140222734,359.7262163968014L360.7166323020956,365.6813490415245L368.4290810768871,362.2507989203666L373.1752033998346,361.8624135116286L378.77826447553707,358.04305967724963L380.1625501530634,345.41677833769927L376.99846860442995,342.24329388420415L371.52724425992164,341.142220561705L363.15561182916645,334.211122789583L360.25520374292137,332.656290928373L353.3337753552896,332.656290928373L342.9845919566378,331.7492729135847L338.10663290249977,332.9154344969777L335.2062248162547,330.3239100630444L333.36051057955046,326.6306464142242L336.7223472249716,325.59386857485265L335.40397991304235,320.1502638080208L341.3366328167285,320.73354911963725L340.677449160763,317.23368590114137L351.35622438739483,321.51124719167046L354.3884692048341,320.1502638080208L352.8064284305183,316.06698401741096L353.79520391446385,312.6962844337884L357.8162242158505,311.788730561301L357.8162242158505,306.60223654353695L362.43050980760563,303.74932161768925L366.84704030256944,290.7784389126648L365.2649995282536,289.87028669644405L367.2425504961502,284.68036499866116Z" class="sc-kAyceB dIJauC Tiruchirappalli mapstate" fill="rgb(18, 108, 189)" stroke-width="0.9px"></path><path d="M428.4807121352951,321.38163209009554L431.381120221542,318.52997390943005L433.9519364798052,318.3355338881888L435.59989561971815,315.48361790143076L434.0178548454023,313.21487562257084L438.36846697476904,305.11097054457923L438.9617322651393,301.5446291498997L441.5984668889978,299.46949098062396L440.08234448027906,297.00509596235406L442.5872423729452,289.87028669644405L445.5535688247892,289.1567209778282L446.80601777112315,284.55060646031825L453.20009923398175,282.9934639900896L461.3080582023522,284.16132776856466L460.84662964317613,280.6576116372339L469.2841804395266,279.94384574695005L471.3276497730203,280.9820455339823L471.78907833219455,285.8481687788217L481.3472413436866,291.94602646193994L484.1158126987393,292.01089122606754L485.50009837626567,301.8688577894775L484.5113228923183,304.7219336689375L479.6333638381784,310.81632414716L476.53520065514203,314.1872125061798L472.90969054733614,320.47431244791073L468.22948658998394,322.4833446032155L463.0219357078586,326.1122614583062L460.71479291198193,326.50105091826435L452.936425771597,334.3406889113362L443.77377295368206,335.0532937868568L436.39091600687607,337.12624160091036L434.9407119637526,339.9115673695658L431.4470385871373,341.20699055883665L428.28295703850745,340.36497105398735L428.01928357612087,337.12624160091036L421.2296919196815,331.23096605737874L425.38254895226055,331.5549087673164L426.23948770501556,328.0561641947377L429.20581415685774,327.01942993078956Z" class="sc-kAyceB dIJauC Ariyalur mapstate" fill="rgb(18, 108, 189)" stroke-width="0.9px"></path><path d="M218.26704424806667,289.41620120840366L220.57418704394513,291.62170072990057L226.30908485084,287.5997966692978L234.02153362562967,294.47565791308716L240.81112528206904,296.22682790676845L239.4927579701398,291.62170072990057L245.29357414262995,291.03790638221744L248.98500261603476,292.4000771354374L255.37908407889518,293.37302185120643L254.0607167669641,298.36702109884277L258.213573799545,302.12823842616626L259.40010438028,306.60223654353695L256.6974513908244,307.5099310617684L258.213573799545,315.8077114374796L264.80541035919305,315.6132556907155L271.33132855324766,313.53899104613834L276.4070427041788,316.19661955789115L285.10826696291406,318.3355338881888L289.4588790922844,321.44643970305924L291.1727565977926,324.36265368446834L289.98622601705574,328.3153428130047L286.5584710060375,330.3239100630444L288.73377707072177,332.5267184049626L287.613164855582,339.2638374126061L288.99745053310835,342.30806180308355L295.852960555143,346.90627212635513L300.13765431891625,346.5824746087603L300.92867470607416,352.41036505296415L300.13765431891625,354.4175220855134L291.9637769849505,350.5325966305445L288.79969543631887,354.93547921971367L295.1937768991793,357.0072304252619L294.8641850711956,360.89143106017787L293.018470834495,364.90465021211594L290.84316476980894,364.38684140492524L286.8221444684241,366.3933078168484L283.9876547477761,370.7294715434814L280.62581810235315,367.0405304984058L281.48275685510816,360.82669793485275L280.2962262743713,358.62570006646L276.80255289775596,360.82669793485275L275.81377741380857,365.74607316528864L273.6384713491243,366.26386184435L267.9035735422294,364.5810206067422L263.7507165096504,369.6940184884279L263.02561448808774,373.0591293386706L259.9933696706503,372.73557498651803L258.6750023587192,369.305715716534L256.1701044660531,368.46437829634397L248.85316588484056,371.24718662105965L245.0958190458423,375.32392654195223L243.31602317473516,379.91778277760704L244.37071702427966,382.76438013639836L245.22765577703467,391.4968349645212L239.2950028733485,390.78538169966873L237.84479883022686,395.2478998647948L237.3833702710508,402.36091098598445L241.47030893803458,411.5410876035455L238.89949267977136,411.9289311739599L234.21928872241915,416.45346727645597L231.58255409855883,416.130304767011L231.45071736736645,412.83388340587476L227.42969706597978,406.95129046900774L228.2207174531377,402.6195394355723L221.56296252789252,401.97296483164155L215.2347994306292,406.62804339720583L211.87296278520807,407.0159395367748L210.29092201089225,404.4945402310434L211.4115342260302,399.70986229732375L206.33582007509904,394.08381835711793L209.96133018290857,389.9445550141454L208.31337104299564,388.26284217160674L210.4886771076799,385.3519976428115L209.89541181731147,381.0823275300295L210.81826893566358,377.39447093289846L213.19133009713732,375.7768685130052L219.51949319440064,376.03568988421716L222.15622781826096,369.1762805041117L218.8603095384351,368.3996591970358L217.60786059210113,364.96937577360245L216.81684020494322,356.9424900716067L219.8490850223825,351.9571199404986L223.87010532376917,350.8563570826004L227.69337052836636,353.7700647830202L230.39602351782378,353.89955721133765L234.94439074398178,349.69080525646905L233.88969689443547,346.6472343557473L230.9892888081904,345.28725409315757L229.67092149625933,339.13428995137065L225.51806446368028,339.3933843838231L221.89255435587438,336.60801643770947L219.05806463522458,328.4449313802745L221.89255435587438,324.0386423248776L220.7060237751375,320.4095029688649L231.38479900176935,315.02988170201047L229.143574571488,312.3073357814692L225.25439100129552,311.98320845883654L219.8490850223825,308.8065947493553L220.24459521596145,297.2645145864551L215.1688810650303,294.7350963506383L218.66255444164563,292.854121567784Z" class="sc-kAyceB dIJauC Tiruppur mapstate" fill="rgb(18, 108, 189)" stroke-width="0.9px"></path><path d="M413.45132477929656,362.0566067566622L412.52846766094444,360.3088286017885L412.9239778545216,348.26618848210364L411.078263617821,346.258674047481L419.1203042205925,343.60339452976086L421.4933653820681,340.9479098364184L428.28295703850745,340.36497105398735L431.4470385871373,341.20699055883665L434.9407119637526,339.9115673695658L436.39091600687607,337.12624160091036L443.77377295368206,335.0532937868568L452.936425771597,334.3406889113362L460.71479291198193,326.50105091826435L463.0219357078586,326.1122614583062L468.22948658998394,322.4833446032155L472.90969054733614,320.47431244791073L476.53520065514203,314.1872125061798L479.6333638381784,310.81632414716L487.3458126129681,306.9912515002809L490.31213906481025,313.47416821179763L487.6754044409481,321.70566891146404L485.56601674186095,323.3258064133097L487.8731595377394,326.8898359204343L486.0933636666341,331.6196969393675L484.4454045267212,334.85894847829104L482.73152702121297,343.2147998405369L479.30377201019655,343.79769022653136L471.85499669779165,340.10588396881144L468.36132332117813,339.6524768564127L460.78071127757903,335.3124191438005L458.5394868472995,339.7820223578908L458.73724194408896,342.76143381430984L461.176221471158,343.79769022653136L461.9013234927188,347.8776464253972L467.7680580308079,351.8923701540043L466.6474458156681,358.1077979804345L462.62642551428144,360.76196468925286L463.7470377294212,367.23469496972234L468.22948658998394,369.0468448140382L466.97703764364996,375.06509994551425L468.6249967835629,376.61803102584213L472.9756089129296,376.8121426038638L477.45805777349415,382.95845799371614L480.81989441891346,384.3816631779873L482.4019351932311,386.90447769126695L481.14948624689714,393.3077429888185L479.17193527900235,393.3077429888185L481.5449964404743,400.4211384275984L484.4454045267212,400.74444111125877L481.6768331716685,402.8135095550788L481.14948624689714,406.88664128571895L470.73438448265006,406.88664128571895L469.2182620739313,409.407873892633L461.7694867615264,412.70460589504137L457.94622155692923,416.84125850783903L459.2645888688603,418.39238222537824L455.6390787610526,421.6236785342628L453.4637726963683,427.43929414905074L450.6952013413156,424.9839243379138L444.89438516882365,424.7900723668247L445.9490790183663,420.71894433535294L444.76254843763127,418.3277533861101L440.873364867437,416.2595701144801L442.7849974697365,412.70460589504137L441.20295669542065,409.9896718892653L442.7849974697365,407.66242386217573L441.46663015780723,404.3652329591321L445.02622190001784,403.0074786310545L442.71907910413756,394.40717812730304L445.75132392157866,388.71561881905427L443.6419362224897,384.25228324647264L445.68540555598156,381.85866942263533L448.65173200782374,381.3411100512874L447.7947932550687,375.84157403388986L443.77377295368206,375.58275123793624L442.4554056417528,370.2117488337442L439.15948736192877,370.79418634549256L435.2043854261392,368.658534877379L435.2703037917345,366.1344153929995L431.05152839356015,364.8399245307746L427.0305080921735,360.17936006537275L426.30540607061084,365.09882653704244L418.5929572958212,366.0696919877364Z" class="sc-kAyceB dIJauC Thanjavur mapstate" fill="rgb(18, 108, 189)" stroke-width="0.9px"></path><path d="M289.4588790922844,321.44643970305924L294.1390830496366,320.08545370661045L295.52336872716114,322.67776073020764L301.258266534056,325.33466915922486L305.9384704914082,322.418538979073L307.1250010721433,320.08545370661045L308.64112348086564,320.6039310326523L313.6509192661979,317.03923839599815L317.80377629877694,317.68739237918294L320.9019394818133,319.63177951056423L326.24132709512924,319.4373458442926L333.36051057955046,326.6306464142242L335.2062248162547,330.3239100630444L338.10663290249977,332.9154344969777L342.9845919566378,331.7492729135847L353.3337753552896,332.656290928373L360.25520374292137,332.656290928373L363.15561182916645,334.211122789583L371.52724425992164,341.142220561705L376.99846860442995,342.24329388420415L380.1625501530634,345.41677833769927L378.77826447553707,358.04305967724963L373.1752033998346,361.8624135116286L368.4290810768871,362.2507989203666L360.7166323020956,365.6813490415245L357.4207140222734,359.7262163968014L353.7292855488686,360.24409439374836L350.4992856346398,362.5097201235483L347.7966326451842,362.5097201235483L344.69846946214784,371.18247265362857L344.43479599976126,376.61803102584213L342.1935715694799,379.4648939132369L337.31561251534185,380.3059686188044L335.0743880850605,378.81789976082814L330.46010249330357,378.4943982443542L330.1305106653217,374.5474410495542L333.42642894514756,372.6061524123854L331.185204514868,368.46437829634397L331.84438817083173,358.04305967724963L335.14030645065577,349.885066625186L326.5709189231111,350.5973489636067L325.7798985359532,355.0002233174423L322.6158169873197,353.9643032440074L314.57377638455,354.15854061613686L312.7939805134429,355.84188559054724L308.64112348086564,354.8707350011016L306.8613276097585,357.65462732609967L314.5078580189529,357.78410525882214L316.4194906212524,360.4382966568912L315.3647967717061,365.4871759515661L311.27785810472415,365.87552105352165L310.1572458895844,369.62930165821626L301.3901032652502,368.529097276167L300.26949105011045,370.2117488337442L295.58928709275824,370.40589574450655L293.018470834495,364.90465021211594L294.8641850711956,360.89143106017787L295.1937768991793,357.0072304252619L288.79969543631887,354.93547921971367L291.9637769849505,350.5325966305445L300.13765431891625,354.4175220855134L300.92867470607416,352.41036505296415L300.13765431891625,346.5824746087603L295.852960555143,346.90627212635513L288.99745053310835,342.30806180308355L287.613164855582,339.2638374126061L288.73377707072177,332.5267184049626L286.5584710060375,330.3239100630444L289.98622601705574,328.3153428130047L291.1727565977926,324.36265368446834Z" class="sc-kAyceB dIJauC Karur mapstate" fill="rgb(18, 108, 189)" stroke-width="0.9px"></path><path d="M484.4454045267212,400.74444111125877L481.5449964404743,400.4211384275984L479.17193527900235,393.3077429888185L481.14948624689714,393.3077429888185L482.4019351932311,386.90447769126695L480.81989441891346,384.3816631779873L477.45805777349415,382.95845799371614L472.9756089129296,376.8121426038638L468.6249967835629,376.61803102584213L466.97703764364996,375.06509994551425L468.22948658998394,369.0468448140382L463.7470377294212,367.23469496972234L462.62642551428144,360.76196468925286L466.6474458156681,358.1077979804345L467.7680580308079,351.8923701540043L461.9013234927188,347.8776464253972L461.176221471158,343.79769022653136L458.73724194408896,342.76143381430984L458.5394868472995,339.7820223578908L460.78071127757903,335.3124191438005L468.36132332117813,339.6524768564127L471.85499669779165,340.10588396881144L479.30377201019655,343.79769022653136L482.73152702121297,343.2147998405369L484.4454045267212,334.85894847829104L486.0933636666341,331.6196969393675L489.38928194645814,332.1379978776472L494.5968328285817,330.1295377745364L498.0245878395999,331.4253320532998L500.9249959258468,326.8250387295791L506.98948556072173,326.37145492699347L512.3947915396366,328.57451945304206L513.6472404859705,332.656290928373L509.296628356602,331.68448498812063L509.69213855017915,336.2841217205771L503.36397545291584,338.03311673873327L501.58417958181235,341.2717604336651L501.8478530441989,346.8415128662907L510.1535671093552,347.94240373884327L510.2854038405476,351.3743674983598L507.3190773887054,353.1225953801177L503.1662203561282,368.3996591970358L503.9572407432861,371.3766141983299L503.29805708731874,377.1356595281559L508.5715263350394,382.76438013639836L505.8029549799867,391.43215798068263L499.0792816891444,391.9495705726256L499.47479188272337,399.6452001334669L491.10315945196817,398.80458142000407L488.33458809691547,401.9083067331701Z" class="sc-kAyceB dIJauC Thiruvarur mapstate" fill="rgb(18, 108, 189)" stroke-width="0.9px"></path><path d="M337.31561251534185,380.3059686188044L336.39275539698974,385.610749024863L338.04071453690085,388.71561881905427L341.2047960855343,389.10370850966933L350.36744890344744,392.6610006538983L346.28051023646367,400.35647754231354L352.93826516171066,405.78758748843507L352.4109182369375,408.6321287056071L351.88357131216617,416.90588997892496L345.48948984930576,422.0760372524371L346.47826533325315,428.2792514677444L343.9074490749899,433.18938835590507L338.7658165584635,434.48142120732473L332.37173509560307,430.7990085625645L332.9650003859715,425.37162521115783L330.9215310524796,422.2052815746656L328.2847964286211,421.4298088020869L316.94683754602374,421.9467924743326L311.6074499327078,428.08541686395233L307.1909194377422,430.0883252739836L305.0156133730561,434.48142120732473L302.57663384598527,434.15841722267714L292.62296064091424,435.45041626002126L288.0086750491628,436.74237025827097L282.207858876669,440.1658309302161L281.0872466615292,431.3804665306682L283.59214455419533,425.50085792645405L280.4280630055637,419.49105500323617L276.6047978009665,421.4298088020869L272.38602240279215,418.9094088235852L265.79418584314226,422.1406594705327L262.2345941009298,422.5930118066185L254.1925534981583,428.15002851189433L242.32724769078777,425.82393772649925L240.41561508849009,427.50390693081704L235.86724786233208,427.50390693081704L231.9121459265425,429.1191896331927L232.70316631370042,421.9467924743326L234.21928872241915,416.45346727645597L238.89949267977136,411.9289311739599L241.47030893803458,411.5410876035455L237.3833702710508,402.36091098598445L237.84479883022686,395.2478998647948L239.2950028733485,390.78538169966873L245.22765577703467,391.4968349645212L244.37071702427966,382.76438013639836L243.31602317473516,379.91778277760704L245.0958190458423,375.32392654195223L248.85316588484056,371.24718662105965L256.1701044660531,368.46437829634397L258.6750023587192,369.305715716534L259.9933696706503,372.73557498651803L263.02561448808774,373.0591293386706L263.7507165096504,369.6940184884279L267.9035735422294,364.5810206067422L273.6384713491243,366.26386184435L275.81377741380857,365.74607316528864L276.80255289775596,360.82669793485275L280.2962262743713,358.62570006646L281.48275685510816,360.82669793485275L280.62581810235315,367.0405304984058L283.9876547477761,370.7294715434814L286.8221444684241,366.3933078168484L290.84316476980894,364.38684140492524L293.018470834495,364.90465021211594L295.58928709275824,370.40589574450655L300.26949105011045,370.2117488337442L301.3901032652502,368.529097276167L310.1572458895844,369.62930165821626L311.27785810472415,365.87552105352165L315.3647967717061,365.4871759515661L316.4194906212524,360.4382966568912L314.5078580189529,357.78410525882214L306.8613276097585,357.65462732609967L308.64112348086564,354.8707350011016L312.7939805134429,355.84188559054724L314.57377638455,354.15854061613686L322.6158169873197,353.9643032440074L325.7798985359532,355.0002233174423L326.5709189231111,350.5973489636067L335.14030645065577,349.885066625186L331.84438817083173,358.04305967724963L331.185204514868,368.46437829634397L333.42642894514756,372.6061524123854L330.1305106653217,374.5474410495542L330.46010249330357,378.4943982443542L335.0743880850605,378.81789976082814Z" class="sc-kAyceB dIJauC Dindigul mapstate" fill="rgb(18, 108, 189)" stroke-width="0.9px"></path><path d="M352.4109182369375,408.6321287056071L357.55255075346395,407.5331279209033L358.54132623741316,412.12285140642894L361.37581595806114,418.6508964390482L359.33234662456925,423.174599465661L360.12336701172717,427.24545512321106L364.14438731311384,427.956193228006L366.4515301089923,431.5096781691359L365.92418318421915,436.35478878474987L363.08969346357117,437.0007556578896L366.2537750122028,441.07008867427226L366.3196933777981,446.75349247115037L358.67316296860554,448.62624307987767L356.1682650759376,450.7571903191342L350.5652040002369,451.5966211717889L349.7082652474819,458.6341897474074L344.56663273095546,458.11771558776604L341.99581647269224,459.2797725271073L338.4362247304798,457.5366737217487L331.84438817083173,457.5366737217487L328.87806171898774,459.8607876100534L329.93275556853223,464.83133038612687L333.36051057955046,462.8948327065564L336.5905104937774,465.3477131020568L331.185204514868,466.76772943316087L330.1964290309188,470.51115524117085L326.8345923854977,467.6713486176236L326.10949036393504,471.22107389911025L321.62704150337413,472.8344763856385L324.5274495896192,479.6100256420043L321.42928640658465,481.932796402162L319.3198987074975,480.06168647289496L316.5513273524448,483.6102661205696L311.93704176068786,485.67474432521976L309.49806223361884,483.4167156392771L296.9076544046875,484.90057790580954L289.3929607266855,484.3844583567525L287.4813281243896,479.67454894204275L282.47153233905374,477.54522293701007L277.1980630913349,480.1907314521452L274.4294917362822,477.0290049421901L270.07887960691187,478.1259598968786L267.9035735422294,481.35211682742624L262.3664308321222,482.1908734088679L255.37908407889518,493.2865583107571L254.1266351325612,491.48049999275713L261.24581861698243,481.8037572517569L265.79418584314226,472.3181949915411L269.55153268214053,468.3167777749916L272.18826730600085,463.3466909966339L271.59500201563424,459.40888776092856L274.6272468330699,455.85805811059663L275.6160223170209,452.50060266037076L278.4505120376689,450.8863347482072L280.82357319914263,441.52220931154466L282.207858876669,440.1658309302161L288.0086750491628,436.74237025827097L292.62296064091424,435.45041626002126L302.57663384598527,434.15841722267714L305.0156133730561,434.48142120732473L307.1909194377422,430.0883252739836L311.6074499327078,428.08541686395233L316.94683754602374,421.9467924743326L328.2847964286211,421.4298088020869L330.9215310524796,422.2052815746656L332.9650003859715,425.37162521115783L332.37173509560307,430.7990085625645L338.7658165584635,434.48142120732473L343.9074490749899,433.18938835590507L346.47826533325315,428.2792514677444L345.48948984930576,422.0760372524371L351.88357131216617,416.90588997892496Z" class="sc-kAyceB dIJauC Madurai mapstate" fill="rgb(18, 108, 189)" stroke-width="0.9px"></path><path d="M231.9121459265425,429.1191896331927L235.86724786233208,427.50390693081704L240.41561508849009,427.50390693081704L242.32724769078777,425.82393772649925L254.1925534981583,428.15002851189433L262.2345941009298,422.5930118066185L265.79418584314226,422.1406594705327L272.38602240279215,418.9094088235852L276.6047978009665,421.4298088020869L280.4280630055637,419.49105500323617L283.59214455419533,425.50085792645405L281.0872466615292,431.3804665306682L282.207858876669,440.1658309302161L280.82357319914263,441.52220931154466L278.4505120376689,450.8863347482072L275.6160223170209,452.50060266037076L274.6272468330699,455.85805811059663L271.59500201563424,459.40888776092856L272.18826730600085,463.3466909966339L269.55153268214053,468.3167777749916L265.79418584314226,472.3181949915411L261.24581861698243,481.8037572517569L254.1266351325612,491.48049999275713L255.37908407889518,493.2865583107571L253.07194128301853,495.73750369608433L250.03969646557925,495.157030534903L247.13928837933236,497.60785859148837L245.16173741143575,498.31728016838747L242.9864313467533,494.64104714988434L235.99908459352628,489.15830187461324L232.10990102333017,492.19003288803583L228.15479908754241,491.1579807659648L224.06786042055683,487.41656220606615L220.6401054095404,487.35205182823074L221.95847272146966,482.5779856844656L226.90235014120844,474.12514942141524L229.53908476506695,466.3159118016083L227.2978603347874,463.6048933193224L228.35255418433007,459.21521474496217L226.5068399476295,458.6341897474074L226.30908485084,454.0502346736723L232.50541121691094,445.84937243683066L230.52786024901616,441.84514926447673L231.25296227057697,439.32614334928417L224.72704407652418,432.9955795368719L224.39745224854232,430.86361545567456L229.2754113026822,428.0208051026584Z" class="sc-kAyceB dIJauC Theni mapstate" fill="rgb(18, 108, 189)" stroke-width="0.9px"></path><path d="M255.37908407889518,493.2865583107571L262.3664308321222,482.1908734088679L267.9035735422294,481.35211682742624L270.07887960691187,478.1259598968786L274.4294917362822,477.0290049421901L277.1980630913349,480.1907314521452L282.47153233905374,477.54522293701007L287.4813281243896,479.67454894204275L289.3929607266855,484.3844583567525L296.9076544046875,484.90057790580954L309.49806223361884,483.4167156392771L311.93704176068786,485.67474432521976L316.5513273524448,483.6102661205696L319.3198987074975,480.06168647289496L321.42928640658465,481.932796402162L324.5274495896192,479.6100256420043L321.62704150337413,472.8344763856385L326.10949036393504,471.22107389911025L326.8345923854977,467.6713486176236L330.1964290309188,470.51115524117085L335.6017350098318,470.96292318546875L338.23846963369033,468.2522353509239L341.9298981070933,471.1565363841253L346.0827551396742,472.96354564628746L345.62132658049995,479.1583595150455L347.1374489892187,480.31977599930156L349.97193870986666,474.96406358751005L355.2454079575873,482.7715403671409L359.266428258974,483.803815632785L359.9256119149377,487.6746026445983L363.28744856036064,488.0616600847061L361.24397922686876,490.4484290581513L356.89336709750023,492.1255304316908L357.1570405598868,499.60710467227455L353.99295901125333,499.2201617774026L351.88357131216617,501.09035041556467L348.7854081291316,507.15172982039235L339.425000214429,506.50694653624055L339.8864287736051,510.82679370868823L342.1935715694799,514.114719825373L349.0490815915182,513.7923861672245L349.18091832270875,518.5626576986801L352.87234679611356,517.2089900506255L355.70683651676336,517.7891389545975L354.65214266721887,522.4300267516696L351.15846929060535,526.0392342752648L346.47826533325315,525.2658599887548L338.6339798272711,522.8167430961644L338.3043879992874,520.3030200722535L334.0856126011131,518.5626576986801L333.6901024075323,515.5974209941294L321.1656129441981,516.2420564424056L315.89214369647925,522.4944797350265L315.7603069652869,527.1348223727457L309.8276540616007,529.3259090848542L305.47704193223217,534.6742386951664L300.92867470607416,533.9654645913956L301.1923481684589,529.7125590755611L297.4350013294588,529.8414415818454L290.90908313540785,529.0036979261561L282.1419405110719,524.4280210362365L274.5613284674764,524.7502688568536L268.43092046700076,522.4300267516696L268.49683883259604,518.4337389494801L261.6413288105614,514.7593792997748L260.5207165954216,519.4650772848568L258.9386758211058,519.7873650520471L251.55581887429798,517.2089900506255L252.61051272384248,515.4040283237766L249.11683934722714,512.0517392042641L245.55724760501653,512.8253694991563L240.02010489491295,509.6662840964234L243.0523497123486,505.08838622106646L246.01867616419258,505.15286734248366L247.13928837933236,497.60785859148837L250.03969646557925,495.157030534903L253.07194128301853,495.73750369608433Z" class="sc-kAyceB dIJauC Virudhunagar mapstate" fill="rgb(18, 108, 189)" stroke-width="0.9px"></path><path d="M297.4350013294588,529.8414415818454L301.1923481684589,529.7125590755611L300.92867470607416,533.9654645913956L305.47704193223217,534.6742386951664L309.8276540616007,529.3259090848542L315.7603069652869,527.1348223727457L315.89214369647925,522.4944797350265L321.1656129441981,516.2420564424056L333.6901024075323,515.5974209941294L334.0856126011131,518.5626576986801L338.3043879992874,520.3030200722535L338.6339798272711,522.8167430961644L346.47826533325315,525.2658599887548L345.1598980213221,534.6742386951664L348.19214283876136,534.2876361763456L345.81908167728943,540.7949545176234L354.3225508392352,544.338106300353L358.2776527750266,547.0435790269132L345.48948984930576,557.4129078321974L340.28193896718403,561.0190208308248L337.18377578414766,564.8179798632128L334.1515309667084,571.1273509573094L332.8990820203744,580.0747311440877L333.8878575043218,583.4858231598746L336.7882655905687,586.188758039774L333.2286738483581,589.4063139817403L330.3941841277083,594.4252176124202L329.99867393412933,601.6951535028459L331.0533677836738,603.8180011586816L329.471327009358,609.5427392009823L330.9215310524796,614.8165514077579L328.94398008458666,617.9033662924564L321.8907149657607,625.0407967846194L322.08847006254837,629.54128712846L313.78275599739027,632.1127913744781L311.4096948359165,633.8484729211964L302.2470420180034,635.0698380385753L298.7533686413881,633.2056357703418L297.566838060653,623.6905605840714L295.7211238239506,622.7260809167395L296.57806257670563,616.7458361482787L293.87540958725003,607.7417792905521L289.98622601705574,605.4904745443816L290.5135729418271,601.3735008325235L294.2050014152301,600.0225334717559L293.4798993936711,594.2965351180993L295.1937768991793,588.6341226893621L294.46867487761847,583.1640337463208L297.8305115230396,580.2034565836024L292.2274504473371,571.5779839433375L287.6790832211791,570.2904482817411L287.5472464899849,566.0412997094627L280.2303079087742,566.1056839710965L279.70296098400286,562.6287915770713L284.11949147896667,559.7311593231778L283.26255272621165,557.4773054586428L279.4392875216163,556.124934257393L282.0760221454766,552.0031489338814L280.9554099303368,550.586190029388L285.7015322532825,548.9115392857359L285.43785879089774,545.8196968454458L279.2415324248268,546.077359291115L277.85724674730227,541.9545653314501L284.9105118661246,536.3494736624889L285.7674506188796,539.1843291844443L290.2498994794405,538.9910498614584L291.9637769849505,537.509211194445L296.44622584551144,538.5400612026522L298.819287006987,534.6098051982715Z" class="sc-kAyceB dIJauC Thoothukkudi mapstate" fill="rgb(18, 108, 189)" stroke-width="0.9px"></path><path d="M268.2990837358084,656.1492396492844L265.72826747754516,658.5907336708592L264.5417368968083,663.3448494634093L261.97092063854507,663.4090909090908L251.95132906787694,661.2890759076778L239.09724777656083,657.5627520453547L229.80275822745352,652.6152674532311L222.35398291505044,647.0246060315541L218.8603095384351,643.361385107487L212.72990153795945,638.7337335509415L215.102962699435,635.4555253582695L219.58541155999774,634.6841473944969L221.43112579669832,632.1127913744781L219.7172482911883,630.0555998555992L223.93602368936627,624.2049411376622L225.71581956047157,618.3535086708068L231.31888063617407,614.2377494295805L233.7578601632449,609.6713763455159L232.0439826577349,606.005068771015L239.75643143252637,608.9638673516546L244.0411251962978,612.8871817237643L245.55724760501653,612.2440395892129L251.22622704631613,614.1734376265584L251.88541070227984,617.7104467193733L255.04949225091332,620.0897289922501L253.86296167017645,623.1761740472245L255.04949225091332,626.3266977478169L261.97092063854507,630.0555998555992L262.89377775689536,636.6125673850185L265.3327572839662,640.6619795058808L262.89377775689536,645.6750328381335L263.6847981440533,650.4304931139228L262.6960226601059,653.7076153398943Z" class="sc-kAyceB dIJauC Kanyakumari mapstate" fill="rgb(18, 108, 189)" stroke-width="0.9px"></path><path d="M447.3333646958945,209.2675295644126L450.49744624452615,204.71491906385154L454.38662981472044,205.69053470235372L457.2211195353684,203.28396054640075L459.2645888688603,198.34013978506528L451.6180584596659,193.59072362258803L454.18887471793096,189.94683858509507L455.5072420298602,181.0955980484548L457.2870379009655,180.77013588920886L460.51703781519427,176.01799198988147L456.03458895463154,175.49716392400137L454.38662981472044,170.09304479320326L455.90275222343735,168.46510898069914L453.3978543307712,165.2089740562801L455.3094869330689,161.2360129784622L462.6923438798767,162.01762053605216L464.53805811658094,160.64979397382058L472.64601708494956,162.3432843563769L474.7554047840367,165.72997926164112L478.4468332574397,166.96733055204277L478.7764250854234,169.50699800049756L485.1045881826867,172.7626698888646L487.54356770975755,169.96281315415786L495.3219348501443,172.24178591477312L500.1998939042842,172.89288948310036L503.9572407432861,176.14819761050308L506.92356719512827,174.19505465627708L512.592546636426,175.17164184519856L518.1296893465333,173.7393032077266L521.3596892607602,176.60391288698247L526.5672401428819,184.6754525809513L529.6654033259183,186.2374394077906L532.6976481433576,184.08968693533507L537.839280659884,185.7818681611725L541.7284642300783,183.30864859501594L527.8196890892177,205.30029213223338L523.8645871534263,206.79619531446178L522.8098933038837,211.21844411187135L524.7215259061813,211.9987756831199L522.8098933038837,217.85064004973333L518.9866280992865,216.48530314157165L516.4817302066185,217.39553437325935L512.5266282708308,221.75127440731308L511.8015262492663,215.31496687201115L509.2307099910031,213.62440367169165L506.5939753671446,219.4759634157865L511.5378527868834,223.7014095731122L505.20968968961824,226.4963921786316L506.8576488295312,232.21558330613425L505.34152642081244,234.42499332553302L504.08907747447665,235.074790435978L499.54071024831865,235.65959643303154L494.5968328285817,231.1108203723145L491.6964247423348,231.24079448813995L487.60948607535465,229.29112654082337L480.6880576877211,227.60131679994242L482.20418009644163,232.47552191096997L481.80866990286086,235.13976941343753L477.7217312358807,234.94483208097608L476.60111902073913,237.86876613421987L469.2841804395266,233.77518287242515L469.2841804395266,230.39595316896202L466.84520091245577,227.40633292000575L464.8017315789657,229.68106976987497L462.1649969551054,227.2113478326055L458.07805828812343,231.43575465869003L452.54091557801803,227.2113478326055L451.9476502876496,223.11638174686868L454.5843849115081,218.30573910308362L451.42030336287644,215.70508383545416L447.135609599105,214.07956431560046ZM506.13254680797036,208.68223132867456L502.0456081409866,213.6894270275975L506.19846517356564,213.94951909525412ZM500.0021388074965,214.33965312960663L497.69499601161806,221.2962254244767L498.486016398776,223.96141844169802L501.9796897753895,223.44139855170215L503.49581218411004,219.9960490684657L500.9909142914421,218.17571147781814Z" class="sc-kAyceB dIJauC Viluppuram mapstate" fill="rgb(18, 108, 189)" stroke-width="0.9px"></path><path d="M446.80601777112315,284.55060646031825L441.46663015780723,282.47440007579416L434.0837732109994,281.76067377467416L431.4470385871373,282.7988159850406L423.47091634996286,281.4362475901032L413.912753338469,269.62494077954966L417.01091652150535,269.8845759798239L419.1862225861896,262.74385021777994L428.28295703850745,261.8998421340491L429.86499781282146,258.1989306569235L435.86356908210473,259.04303558980837L437.31377312522636,255.01710535271513L440.9392832330341,259.04303558980837L448.51989527663136,260.60132507190883L451.48622172847354,256.7703949668751L454.4525481803139,255.60154585043233L456.1005073202268,252.93900854639037L461.3080582023522,254.7573506076492L465.32907850373886,251.96485433244675L471.3276497730203,249.6267633757268L477.9854046982655,251.3803475938289L477.0625475799152,244.6902321045061L480.09479239735265,242.4165726335873L480.02887403175555,239.8828750264977L476.60111902073913,237.86876613421987L477.7217312358807,234.94483208097608L481.80866990286086,235.13976941343753L482.20418009644163,232.47552191096997L480.6880576877211,227.60131679994242L487.60948607535465,229.29112654082337L491.6964247423348,231.24079448813995L494.5968328285817,231.1108203723145L499.54071024831865,235.65959643303154L504.08907747447665,235.074790435978L505.34152642081244,234.42499332553302L506.8576488295312,232.21558330613425L505.20968968961824,226.4963921786316L511.4719344212863,228.44623299791147L514.8337710667056,227.2763429959109L518.0637709809344,232.67047446144534L511.0764242277073,230.9808457213926L510.9445874965131,234.8148731924839L509.1647916254078,237.6088718055521L517.7341791529525,238.9083221627427L513.84499558276,256.2509117165291L513.383567023584,263.91244039917683L514.4382608731285,268.0021737282159L518.5911179057057,275.79071693119863L519.7117301208473,279.29495415495194L518.5911179057057,284.2262078710546L514.2405057763372,284.0964475378455L513.6472404859705,287.5349232253775L509.69213855017915,288.31339611446606L505.8688733455838,291.6865661311849L501.9796897753895,293.17843519962935L495.1900981189501,303.1008978112095L491.30091454875765,304.13836984403633L487.3458126129681,306.9912515002809L479.6333638381784,310.81632414716L484.5113228923183,304.7219336689375L485.50009837626567,301.8688577894775L484.1158126987393,292.01089122606754L481.3472413436866,291.94602646193994L471.78907833219455,285.8481687788217L471.3276497730203,280.9820455339823L469.2841804395266,279.94384574695005L460.84662964317613,280.6576116372339L461.3080582023522,284.16132776856466L453.20009923398175,282.9934639900896Z" class="sc-kAyceB dIJauC Cuddalore mapstate" fill="rgb(18, 108, 189)" stroke-width="0.9px"></path><path d="M371.8568360879053,399.96850979015016L373.8343870558001,392.9843732833449L378.18499918516864,393.5664366484946L380.6239787122395,391.8202181271663L381.3490807338003,388.65093679309643L376.86663187323757,384.05821246524624L373.43887686222115,387.68069231137883L369.68153002322106,381.21171902700144L367.76989742092155,380.95293556031856L366.6492852057818,372.8649970844692L369.2860198296403,369.75873519927995L374.29581561497434,370.8589010282583L373.8343870558001,365.6813490415245L376.99846860442995,364.2573880041891L378.6464277443429,367.23469496972234L381.74459092738107,367.4288583645173L385.6337744975717,362.2507989203666L389.19336623978415,362.12133759803555L390.05030499253735,365.87552105352165L393.0825498099766,363.67484176403696L392.62112125080057,358.69043728488305L397.8945904985212,361.02089695003133L400.46540675678443,368.0760619079672L404.0909168645903,368.46437829634397L407.4527535100133,363.2864722051063L413.31948804810236,364.06320700366473L413.45132477929656,362.0566067566622L418.5929572958212,366.0696919877364L426.30540607061084,365.09882653704244L427.0305080921735,360.17936006537275L431.05152839356015,364.8399245307746L435.2703037917345,366.1344153929995L435.2043854261392,368.658534877379L439.15948736192877,370.79418634549256L442.4554056417528,370.2117488337442L443.77377295368206,375.58275123793624L447.7947932550687,375.84157403388986L448.65173200782374,381.3411100512874L445.68540555598156,381.85866942263533L443.6419362224897,384.25228324647264L445.75132392157866,388.71561881905427L442.71907910413756,394.40717812730304L445.02622190001784,403.0074786310545L441.46663015780723,404.3652329591321L442.7849974697365,407.66242386217573L441.20295669542065,409.9896718892653L442.7849974697365,412.70460589504137L440.873364867437,416.2595701144801L444.76254843763127,418.3277533861101L445.9490790183663,420.71894433535294L444.89438516882365,424.7900723668247L450.6952013413156,424.9839243379138L453.4637726963683,427.43929414905074L453.33193596517594,431.5096781691359L456.232344051421,437.32373487758696L455.4413236642631,440.0366494590826L445.02622190001784,451.4029080243356L441.7962219857891,456.50368833387006L441.5325485234025,456.89106116615517L441.26887506101593,460.05445732233943L441.0052015986312,460.3126820642992L435.3362221573316,460.24812604390627L432.4358140710847,458.69874852128123L426.7668346297869,449.5948704656405L427.6237733825419,444.42856820895076L419.91132460775043,440.61796254791966L420.50458989811887,434.73982236645475L423.2731612531734,432.2203341025097L414.44010026324213,425.37162521115783L410.55091669304966,428.66691761552147L407.0572433164343,423.6269390464877L406.3321412948717,418.7155247066469L401.7178557031184,420.26656885006605L401.4541822407318,424.4023653548195L397.1694884769586,424.7254548157555L394.86234568108193,422.98073793759386L392.3574477884158,426.4054742113035L390.2480600893268,425.4362416256174L390.84132537969526,419.62030845307595L387.8749989278549,417.2290456169899L388.40234585262624,414.0619968401554L380.03071342187104,410.18360248078807L379.2396930347113,413.674176024158L375.0868360021341,413.9327236940617L371.0658157007474,421.4944321601722L368.1654076145005,419.29717397170157L369.87928512001054,416.19493749803087L366.4515301089923,415.54860503094324L365.92418318421915,412.4460494941475L372.054591184693,412.7692447079205L373.63663195901063,405.65828484512895L370.9998973351503,402.6841962580331Z" class="sc-kAyceB dIJauC Pudukkottai mapstate" fill="rgb(18, 108, 189)" stroke-width="0.9px"></path><path d="M357.55255075346395,407.5331279209033L361.7054077860448,401.4556967943554L364.07846894751856,401.4556967943554L365.5286729906402,396.0886018755941L371.9227544535006,398.54592555260524L371.8568360879053,399.96850979015016L370.9998973351503,402.6841962580331L373.63663195901063,405.65828484512895L372.054591184693,412.7692447079205L365.92418318421915,412.4460494941475L366.4515301089923,415.54860503094324L369.87928512001054,416.19493749803087L368.1654076145005,419.29717397170157L371.0658157007474,421.4944321601722L375.0868360021341,413.9327236940617L379.2396930347113,413.674176024158L380.03071342187104,410.18360248078807L388.40234585262624,414.0619968401554L387.8749989278549,417.2290456169899L390.84132537969526,419.62030845307595L390.2480600893268,425.4362416256174L392.3574477884158,426.4054742113035L394.86234568108193,422.98073793759386L397.1694884769586,424.7254548157555L401.4541822407318,424.4023653548195L401.7178557031184,420.26656885006605L406.3321412948717,418.7155247066469L407.0572433164343,423.6269390464877L410.55091669304966,428.66691761552147L414.44010026324213,425.37162521115783L423.2731612531734,432.2203341025097L420.50458989811887,434.73982236645475L419.91132460775043,440.61796254791966L427.6237733825419,444.42856820895076L426.7668346297869,449.5948704656405L424.0641816403295,449.6594447352493L421.427447016471,452.6943101520055L416.02214103755796,450.8217625891823L416.6154063279264,455.14785210097557L412.9239778545216,459.989900861666L412.6603043921368,467.3486299405422L414.96744718801347,467.60680510083625L414.5719369944345,472.1245876732871L408.63928409075015,468.44586229542506L408.3096922627683,461.02279102655234L406.13438619808403,461.02279102655234L404.420508692574,455.7934944805802L402.37703935908394,457.7303553365525L396.8398966489767,457.9240359584985L395.1260191434685,462.12020597773153L394.79642731548665,466.1868200648744L397.76275376732883,469.99484247828605L396.70805991778434,476.3191938764289L402.97030464945055,475.480309339232L405.01377398294244,477.93238188460214L404.5523454237682,486.1263342560808L407.58459024120566,489.0937943912227L402.04744753110026,490.38392371570353L396.9717333801691,490.25491270984776L393.1484681755719,491.7385134504375L388.8637744118005,498.18829538297905L384.24948882004537,496.1889768605986L383.85397862646823,493.99605832862494L379.83295832508156,491.80301654772506L373.50479522781825,491.48049999275713L368.62683617367657,487.54558263987997L363.28744856036064,488.0616600847061L359.9256119149377,487.6746026445983L359.266428258974,483.803815632785L355.2454079575873,482.7715403671409L349.97193870986666,474.96406358751005L347.1374489892187,480.31977599930156L345.62132658049995,479.1583595150455L346.0827551396742,472.96354564628746L341.9298981070933,471.1565363841253L338.23846963369033,468.2522353509239L335.6017350098318,470.96292318546875L330.1964290309188,470.51115524117085L331.185204514868,466.76772943316087L336.5905104937774,465.3477131020568L333.36051057955046,462.8948327065564L329.93275556853223,464.83133038612687L328.87806171898774,459.8607876100534L331.84438817083173,457.5366737217487L338.4362247304798,457.5366737217487L341.99581647269224,459.2797725271073L344.56663273095546,458.11771558776604L349.7082652474819,458.6341897474074L350.5652040002369,451.5966211717889L356.1682650759376,450.7571903191342L358.67316296860554,448.62624307987767L366.3196933777981,446.75349247115037L366.2537750122028,441.07008867427226L363.08969346357117,437.0007556578896L365.92418318421915,436.35478878474987L366.4515301089923,431.5096781691359L364.14438731311384,427.956193228006L360.12336701172717,427.24545512321106L359.33234662456925,423.174599465661L361.37581595806114,418.6508964390482L358.54132623741316,412.12285140642894Z" class="sc-kAyceB dIJauC Sivaganga mapstate" fill="rgb(18, 108, 189)" stroke-width="0.9px"></path><path d="M346.47826533325315,525.2658599887548L351.15846929060535,526.0392342752648L354.65214266721887,522.4300267516696L355.70683651676336,517.7891389545975L352.87234679611356,517.2089900506255L349.18091832270875,518.5626576986801L349.0490815915182,513.7923861672245L342.1935715694799,514.114719825373L339.8864287736051,510.82679370868823L339.425000214429,506.50694653624055L348.7854081291316,507.15172982039235L351.88357131216617,501.09035041556467L353.99295901125333,499.2201617774026L357.1570405598868,499.60710467227455L356.89336709750023,492.1255304316908L361.24397922686876,490.4484290581513L363.28744856036064,488.0616600847061L368.62683617367657,487.54558263987997L373.50479522781825,491.48049999275713L379.83295832508156,491.80301654772506L383.85397862646823,493.99605832862494L384.24948882004537,496.1889768605986L388.8637744118005,498.18829538297905L393.1484681755719,491.7385134504375L396.9717333801691,490.25491270984776L402.04744753110026,490.38392371570353L407.58459024120566,489.0937943912227L404.5523454237682,486.1263342560808L405.01377398294244,477.93238188460214L402.97030464945055,475.480309339232L396.70805991778434,476.3191938764289L397.76275376732883,469.99484247828605L394.79642731548665,466.1868200648744L395.1260191434685,462.12020597773153L396.8398966489767,457.9240359584985L402.37703935908394,457.7303553365525L404.420508692574,455.7934944805802L406.13438619808403,461.02279102655234L408.3096922627683,461.02279102655234L408.63928409075015,468.44586229542506L414.5719369944345,472.1245876732871L414.96744718801347,467.60680510083625L412.6603043921368,467.3486299405422L412.9239778545216,459.989900861666L416.6154063279264,455.14785210097557L416.02214103755796,450.8217625891823L421.427447016471,452.6943101520055L424.0641816403295,449.6594447352493L426.7668346297869,449.5948704656405L432.4358140710847,458.69874852128123L435.3362221573316,460.24812604390627L441.0052015986312,460.3126820642992L437.1160180284369,464.3149406563291L434.47928340457656,469.22036024518343L432.4358140710847,469.99484247828605L425.58030404905,478.77121290355626L423.2731612531734,485.35217686508213L419.97724297334753,489.5453445258854L418.13152873664694,501.3483004764664L416.8131614247159,504.7014972770978L420.3068348013294,510.6333778013461L429.6013243504367,519.9162794309254L435.3362221573316,523.6546157059893L446.01499738396524,525.2658599887548L451.8158135564554,525.3303084147085L457.7484664601416,524.2991211833835L463.0219357078586,520.2385635585888L465.6586703317207,522.4300267516696L463.28560917024697,525.845892099413L466.97703764364996,532.5478791482046L461.7035683959293,529.6481176679438L456.7596909761942,528.1659368538137L453.06826250278937,528.2303806318946L449.3109156637893,525.5236530720179L438.0388751467872,527.9726049006929L425.51438568345293,526.3614691679434L419.3839776829773,527.1992678018858L417.4064267150843,529.1970249304939L413.6490798760842,528.2948243068388L396.9717333801691,533.8365952395861L395.58744770264457,536.1561808520391L392.22561105722343,535.447432666205L387.8749989278549,536.6716263004237L388.20459075583676,539.3131815563022L380.2284685186587,542.7920415268529L375.35050946452066,542.0189871875273L361.6394894204477,544.7246133550502L358.2776527750266,547.0435790269132L354.3225508392352,544.338106300353L345.81908167728943,540.7949545176234L348.19214283876136,534.2876361763456L345.1598980213221,534.6742386951664Z" class="sc-kAyceB dIJauC Ramanathapuram mapstate" fill="rgb(18, 108, 189)" stroke-width="0.9px"></path><path d="M481.14948624689714,406.88664128571895L481.6768331716685,402.8135095550788L484.4454045267212,400.74444111125877L488.33458809691547,401.9083067331701L491.10315945196817,398.80458142000407L499.47479188272337,399.6452001334669L499.0792816891444,391.9495705726256L505.8029549799867,391.43215798068263L508.5715263350394,382.76438013639836L503.29805708731874,377.1356595281559L503.9572407432861,371.3766141983299L503.1662203561282,368.3996591970358L507.3190773887054,353.1225953801177L510.2854038405476,351.3743674983598L510.1535671093552,347.94240373884327L501.8478530441989,346.8415128662907L501.58417958181235,341.2717604336651L503.36397545291584,338.03311673873327L509.69213855017915,336.2841217205771L515.6247914538635,340.04111189148944L520.9641790671794,341.4660693243957L520.6345872391994,345.93487044168046L523.9964238846205,348.00716093068195L524.2600973470071,370.0823169633841L526.3035666804954,400.93842132747614L527.5560156268311,406.0461913873969L525.051117734165,410.7007456569643L514.7019343355132,411.9289311739599L504.6823427648469,410.7653880357989L499.7384653451081,409.34322909452453Z" class="sc-kAyceB dIJauC Nagapattinam mapstate" fill="rgb(18, 108, 189)" stroke-width="0.9px"></path><path d="M486.0933636666341,331.6196969393675L487.8731595377394,326.8898359204343L485.56601674186095,323.3258064133097L487.6754044409481,321.70566891146404L490.31213906481025,313.47416821179763L487.3458126129681,306.9912515002809L491.30091454875765,304.13836984403633L495.1900981189501,303.1008978112095L501.9796897753895,293.17843519962935L505.8688733455838,291.6865661311849L509.69213855017915,288.31339611446606L513.6472404859705,287.5349232253775L514.2405057763372,284.0964475378455L518.5911179057057,284.2262078710546L519.7117301208473,279.29495415495194L520.898260701586,284.4857269988688L523.1394851318655,287.66466998534816L522.1507096479181,291.1027729308082L524.589689174989,307.83410169901754L524.5237708093919,327.99136923102265L512.3947915396366,328.57451945304206L506.98948556072173,326.37145492699347L500.9249959258468,326.8250387295791L498.0245878395999,331.4253320532998L494.5968328285817,330.1295377745364L489.38928194645814,332.1379978776472Z" class="sc-kAyceB dIJauC Mayiladuthurai mapstate" fill="rgb(18, 108, 189)" stroke-width="0.9px"></path><path d="M395.8511211650293,214.59973977505797L405.6070392733127,210.50312298521817L409.1007126499262,211.93374879913858L413.45132477929656,209.72275390548907L417.99969200545456,211.08838694823794L423.2072428875763,204.84500292358757L431.3152018559467,205.30029213223338L433.68826301741865,208.55216355681978L437.44560985642056,203.41405041719986L438.895813899544,204.7799610619893L436.7205078348579,209.13746424245437L441.99397708257857,210.56815285810285L444.4329566096476,207.64167390274747L447.3333646958945,209.2675295644126L447.135609599105,214.07956431560046L451.42030336287644,215.70508383545416L454.5843849115081,218.30573910308362L451.9476502876496,223.11638174686868L452.54091557801803,227.2113478326055L458.07805828812343,231.43575465869003L462.1649969551054,227.2113478326055L464.8017315789657,229.68106976987497L466.84520091245577,227.40633292000575L469.2841804395266,230.39595316896202L469.2841804395266,233.77518287242515L476.60111902073913,237.86876613421987L480.02887403175555,239.8828750264977L480.09479239735265,242.4165726335873L477.0625475799152,244.6902321045061L477.9854046982655,251.3803475938289L471.3276497730203,249.6267633757268L465.32907850373886,251.96485433244675L461.3080582023522,254.7573506076492L456.1005073202268,252.93900854639037L454.4525481803139,255.60154585043233L451.48622172847354,256.7703949668751L448.51989527663136,260.60132507190883L440.9392832330341,259.04303558980837L437.31377312522636,255.01710535271513L435.86356908210473,259.04303558980837L429.86499781282146,258.1989306569235L428.28295703850745,261.8998421340491L419.1862225861896,262.74385021777994L417.01091652150535,269.8845759798239L413.912753338469,269.62494077954966L410.0235697682765,267.8723488578339L407.0572433164343,263.52291503294305L408.3096922627683,261.64014290100044L403.6294883054161,257.4197372323456L403.76132503660847,253.32866194693656L405.87071273569745,251.8999096657169L405.67295763890615,248.782410779746L402.97030464945055,247.02868413258489L395.9170395306264,249.36696495067895L393.9394885627298,248.39270206289734L389.25928460537943,253.45854536213437L388.13867239023966,251.18550964481506L388.5341825838186,245.5996504800646L386.8203050783104,244.95006857230328L387.41357036867885,239.55802739441356L389.91846826134315,236.24439163300917L393.01663144438135,235.39968398982978L393.1484681755719,229.94102924400158L385.5678561319746,227.86129342856702L389.3911213365718,224.87143253456975L394.79642731548665,224.54643052701704L396.57622318659014,222.07630535223007L394.4009171219077,219.80101796095187Z" class="sc-kAyceB dIJauC Kallakurichi mapstate" fill="rgb(18, 108, 189)" stroke-width="0.9px"></path><path d="M240.02010489491295,509.6662840964234L245.55724760501653,512.8253694991563L249.11683934722714,512.0517392042641L252.61051272384248,515.4040283237766L251.55581887429798,517.2089900506255L258.9386758211058,519.7873650520471L260.5207165954216,519.4650772848568L261.6413288105614,514.7593792997748L268.49683883259604,518.4337389494801L268.43092046700076,522.4300267516696L274.5613284674764,524.7502688568536L282.1419405110719,524.4280210362365L290.90908313540785,529.0036979261561L297.4350013294588,529.8414415818454L298.819287006987,534.6098051982715L296.44622584551144,538.5400612026522L291.9637769849505,537.509211194445L290.2498994794405,538.9910498614584L285.7674506188796,539.1843291844443L284.9105118661246,536.3494736624889L277.85724674730227,541.9545653314501L279.2415324248268,546.077359291115L285.43785879089774,545.8196968454458L285.7015322532825,548.9115392857359L280.9554099303368,550.586190029388L279.2415324248268,549.9421016652743L272.25418567159795,551.2946755798434L270.6062265316832,563.4014594068359L268.69459392938734,567.9727843904171L265.4645940151604,569.7754229460794L268.8264306605797,572.8654801072162L265.9260225743328,581.9412117211218L260.4547982298245,582.1986508663709L254.58806369173544,579.3667342265429L251.88541070227984,587.2827543030661L246.54602308896392,587.4758095515356L242.32724769078777,586.188758039774L235.99908459352628,581.6194105913283L238.17439065820872,577.4357732733581L237.05377844306895,572.4148609394665L235.01030910957525,571.2561037328821L230.59377861461144,571.642359689169L226.63867667882187,568.8097333742668L221.23337069991067,558.7652369603531L218.53071771045325,556.7045273281652L220.5082686783462,552.6472050430104L223.4086767645931,552.8404199125864L224.92479917331366,548.2030126472384L231.9121459265425,540.2151367369925L230.65969698020854,535.2541355563303L232.76908467929752,530.9369262605562L233.691941797646,524.2991211833835L239.88826816371875,515.5974209941294Z" class="sc-kAyceB dIJauC Tenkasi mapstate" fill="rgb(18, 108, 189)" stroke-width="0.9px"></path><path d="M280.9554099303368,550.586190029388L282.0760221454766,552.0031489338814L279.4392875216163,556.124934257393L283.26255272621165,557.4773054586428L284.11949147896667,559.7311593231778L279.70296098400286,562.6287915770713L280.2303079087742,566.1056839710965L287.5472464899849,566.0412997094627L287.6790832211791,570.2904482817411L292.2274504473371,571.5779839433375L297.8305115230396,580.2034565836024L294.46867487761847,583.1640337463208L295.1937768991793,588.6341226893621L293.4798993936711,594.2965351180993L294.2050014152301,600.0225334717559L290.5135729418271,601.3735008325235L289.98622601705574,605.4904745443816L293.87540958725003,607.7417792905521L296.57806257670563,616.7458361482787L295.7211238239506,622.7260809167395L297.566838060653,623.6905605840714L298.7533686413881,633.2056357703418L302.2470420180034,635.0698380385753L311.4096948359165,633.8484729211964L308.9707153088475,636.5482880563744L302.3788787491976,641.2404371766913L296.7758176734951,643.361385107487L292.62296064091424,648.9524980269292L291.3705116945821,653.5791051815114L287.3494913931954,655.5067195825103L284.51500167254744,653.3863392652801L273.4407162523348,654.6714299961643L268.2990837358084,656.1492396492844L262.6960226601059,653.7076153398943L263.6847981440533,650.4304931139228L262.89377775689536,645.6750328381335L265.3327572839662,640.6619795058808L262.89377775689536,636.6125673850185L261.97092063854507,630.0555998555992L255.04949225091332,626.3266977478169L253.86296167017645,623.1761740472245L255.04949225091332,620.0897289922501L251.88541070227984,617.7104467193733L251.22622704631613,614.1734376265584L245.55724760501653,612.2440395892129L244.0411251962978,612.8871817237643L239.75643143252637,608.9638673516546L232.0439826577349,606.005068771015L230.0664316898401,601.2448390942864L225.84765629166577,597.9638352211116L225.05663590450786,594.2965351180993L221.89255435587438,588.6341226893621L224.26561551734812,584.9660230665452L227.62745216277108,582.4560884488834L227.89112562515584,579.8816422506578L231.51663573296173,575.8909409165869L230.59377861461144,571.642359689169L235.01030910957525,571.2561037328821L237.05377844306895,572.4148609394665L238.17439065820872,577.4357732733581L235.99908459352628,581.6194105913283L242.32724769078777,586.188758039774L246.54602308896392,587.4758095515356L251.88541070227984,587.2827543030661L254.58806369173544,579.3667342265429L260.4547982298245,582.1986508663709L265.9260225743328,581.9412117211218L268.8264306605797,572.8654801072162L265.4645940151604,569.7754229460794L268.69459392938734,567.9727843904171L270.6062265316832,563.4014594068359L272.25418567159795,551.2946755798434L279.2415324248268,549.9421016652743Z" class="sc-kAyceB dIJauC Tirunelveli mapstate" fill="rgb(18, 108, 189)" stroke-width="0.9px"></path><path d="M451.35438499728116,121.93381182916892L451.0907115348946,126.4337269440357L447.2674463302974,126.56414897278205L442.71907910413756,124.54254240123487L435.1384670605421,126.36851571243164L430.4582631031899,132.62813454322054L428.5466305008922,131.45455740104558L424.59152856510264,135.04034091431186L417.80193690866327,133.2149055957252L415.5607124783837,134.38841268880242L411.73744727378653,139.47307155573048L406.13438619808403,139.1471580972509L401.586018971926,133.99724884298757L403.563569939819,126.9554115838232L405.6070392733127,125.71639542960065L406.00254946688983,119.5205290781596L410.9464268866286,118.2811983589097L416.4176512311369,113.58430953103516L417.93377363985564,109.14766315328666L415.03336555361057,109.27816242161589L406.3980596604706,113.91050682319997L403.23397811183713,114.69336541825555L399.41071290723994,118.08550975459298L395.65336606823985,113.4538295908917L389.32520297097835,112.60569572264876L382.86520314252084,114.95431360839552L386.35887651913436,104.90611725863141L384.9086724760109,97.98780056962232L388.8637744118005,95.18084043770091L394.466835487503,95.18084043770091L395.52152933704565,88.97844497137794L399.6743863696265,90.54549248410399L403.76132503660847,89.50080366153657L406.66173312285537,86.62771295449284L409.9576514026812,87.80310309092033L415.4947941127866,85.64818428259673L415.5607124783837,93.1570481201818L419.1203042205925,87.67250657062755L422.74581432840023,88.1295917853547L425.7780591458377,86.95421505744389L431.71071204952386,88.84785381085067L435.0725486949468,91.0025318763428L436.9182629316474,93.94046850033783L440.08234448027906,92.43889400362468L446.2127524807529,94.5933025054951L449.50867076057693,91.3289841270489L449.113160566998,86.75831424281569L454.3207114491215,84.7339272414581L453.661527793156,78.72522369381954L457.7484664601416,84.21148151233979L460.9784663743685,90.93724098043958L458.01213992252633,98.70581620438611L458.209895019314,101.96929841680162L452.27724211563145,102.1650956204594L448.8494871046114,106.47229879049792L449.44275239498165,110.45262944660817L447.9266299862629,117.82458957552421Z" class="sc-kAyceB dIJauC Vellore mapstate" fill="rgb(18, 108, 189)" stroke-width="0.9px"></path><path d="M459.923772524824,82.70939679545313L462.0990785895101,87.28071343467423L465.6586703317207,89.95785970556722L473.4370374721075,87.60720808705605L473.1733640097209,84.86453718093799L476.8647924831239,81.1419197380394L478.7764250854234,86.10530183809647L481.5449964404743,84.47270557125034L482.27009846203873,80.75003700896582L486.2911187634236,80.29283368063238L492.15785330151084,81.01129276035545L499.1452000547415,80.03157134173148L501.056832657041,73.82588550976311L506.00071007677616,76.37364678251629L506.330301904758,78.46394697043183L511.0764242277073,77.54945954367258L511.274179324495,89.37021488167716L512.1970364428471,91.0025318763428L516.8772404001993,90.4149084629039L517.0749954969888,94.13632025854054L502.30928160337135,102.68721501153254L502.638873431355,105.1018945822243L491.9600982047232,108.69091109392411L491.03724108637107,113.9757458431402L485.63193510745805,113.58430953103516L481.21540461249424,111.56180471229959L479.4356087413871,115.01955029080386L479.765200569369,122.06425387553395L480.81989441891346,123.56429565253916L480.3584658597392,131.78055573933898L478.7764250854234,135.10553294524766L471.0639763106319,140.05970674493528L468.09764985879156,134.9751487394658L472.44826198815827,132.954119902608L466.581527450071,128.06396068467166L461.24213983675327,126.30330433599943L460.3852010840001,122.97733193099725L456.2982624170181,119.19439451166818L451.35438499728116,121.93381182916892L447.9266299862629,117.82458957552421L449.44275239498165,110.45262944660817L448.8494871046114,106.47229879049792L452.27724211563145,102.1650956204594L458.209895019314,101.96929841680162L458.01213992252633,98.70581620438611L460.9784663743685,90.93724098043958L457.7484664601416,84.21148151233979L453.661527793156,78.72522369381954Z" class="sc-kAyceB dIJauC Ranipet mapstate" fill="rgb(18, 108, 189)" stroke-width="0.9px"></path><path d="M388.0068356590473,182.91812193030364L382.73336641132664,181.87669305069312L384.0517337232559,178.6870957042579L384.51316228243195,172.56733944813118L380.82173380902896,171.06976421473723L379.04193793792365,167.94415099713842L372.1205095502919,166.5765935220859L366.6492852057818,168.2697507898199L364.0125505819233,167.22781909471018L365.5945913562373,160.78006585193202L361.7054077860448,156.28535933884928L362.36459144200853,146.77259483074408L360.7825506676945,143.1230574981605L361.30989759246586,140.25524922697855L361.37581595806114,140.19006854299596L368.03357088330813,139.60343593500215L367.6380606897292,134.51879948550868L371.659080991114,133.86685974229704L371.7249993567111,128.84644076125187L377.4598971636078,131.84575497420542L377.7235706259944,125.12947478636261L381.74459092738107,122.19469534074778L383.45846843288746,117.62889791099428L382.86520314252084,114.95431360839552L389.32520297097835,112.60569572264876L395.65336606823985,113.4538295908917L399.41071290723994,118.08550975459298L403.23397811183713,114.69336541825555L406.3980596604706,113.91050682319997L415.03336555361057,109.27816242161589L417.93377363985564,109.14766315328666L416.4176512311369,113.58430953103516L410.9464268866286,118.2811983589097L406.00254946688983,119.5205290781596L405.6070392733127,125.71639542960065L403.563569939819,126.9554115838232L401.586018971926,133.99724884298757L406.13438619808403,139.1471580972509L411.73744727378653,139.47307155573048L407.65050860680276,150.35652636264285L402.7066311870658,158.95620814319568L400.46540675678443,161.56168526327542L401.586018971926,164.03667941196386L399.7403047352236,168.00927123649444L397.1694884769586,169.50699800049756L394.9941824122743,177.58042260628508L391.10499884208184,181.55123923211545Z" class="sc-kAyceB dIJauC Tirupathur mapstate" fill="rgb(18, 108, 189)" stroke-width="0.9px"></path><path d="M517.0749954969888,94.13632025854054L520.3049954112157,96.4211588926837L520.6345872391994,101.25136398344239L524.1941789814082,102.88300735171765L528.4788727451814,103.33985098927997L534.2796889176734,95.96420568120516L533.686423627305,93.1570481201818L540.2123418213596,91.52485369467627L543.5082601011818,92.24303067310075L545.8154028970621,94.65858509072291L549.9023415640422,95.1155590379285L547.9907089617445,95.96420568120516L548.9794844456919,100.53341170219142L552.7368312846938,102.2303610601914L547.0678518433942,110.517876222322L546.8700967466048,115.60667386165937L535.9276480575845,121.28159287815788L530.6541788098657,120.2380123165608L527.5560156268311,124.02081486408929L531.7088726594102,125.78160810981626L535.4003011328132,130.60694483742395L531.4451991970236,133.8016649759054L532.7635665089529,139.01679170959528L520.898260701586,140.972227290835L520.5686688736023,145.79508410776043L511.86744461486524,151.20357451931454L508.5715263350394,149.18365075268161L509.69213855017915,144.8175412619023L505.8688733455838,143.18823173798046L503.034383624934,144.10065607889942L499.0792816891444,139.73379974057434L500.8590775602479,135.17072483228344L503.6276489153024,135.6270640128496L511.60377115247866,132.43254159766298L511.9992813460576,126.69457042229214L506.725812098337,122.97733193099725L500.8590775602479,123.36864238509315L500.06805717309,118.54211445837382L494.00356753821507,116.12855155378679L491.03724108637107,113.9757458431402L491.9600982047232,108.69091109392411L502.638873431355,105.1018945822243L502.30928160337135,102.68721501153254Z" class="sc-kAyceB dIJauC Kancheepuram mapstate" fill="rgb(18, 108, 189)" stroke-width="0.9px"></path><path d="M549.9023415640422,95.1155590379285L550.2319333920259,92.76532991905992L555.3076475429552,92.96118968736414L556.428259758095,98.96690836512016L560.1856065970969,100.79448732463925L562.1631575649917,106.14601795452472L561.5698922746233,112.34472648221958L564.4703003608684,111.8227809774894L569.0845859526235,113.51906963406168L569.6778512429937,122.12947468078141L559.9219331347103,150.6171591251216L558.537647457184,159.54246020125993L556.428259758095,165.27410019937452L547.2656069401837,175.04143203610215L541.7284642300783,183.30864859501594L537.839280659884,185.7818681611725L532.6976481433576,184.08968693533507L529.6654033259183,186.2374394077906L526.5672401428819,184.6754525809513L521.3596892607602,176.60391288698247L518.1296893465333,173.7393032077266L512.592546636426,175.17164184519856L506.92356719512827,174.19505465627708L503.9572407432861,176.14819761050308L500.1998939042842,172.89288948310036L502.8366285281445,170.2232758714615L503.49581218411004,167.22781909471018L506.6598937327417,166.25097546488155L507.91234267907384,163.25512430087997L512.5266282708308,159.93328854726087L513.2517302923898,153.15820934397243L511.86744461486524,151.20357451931454L520.5686688736023,145.79508410776043L520.898260701586,140.972227290835L532.7635665089529,139.01679170959528L531.4451991970236,133.8016649759054L535.4003011328132,130.60694483742395L531.7088726594102,125.78160810981626L527.5560156268311,124.02081486408929L530.6541788098657,120.2380123165608L535.9276480575845,121.28159287815788L546.8700967466048,115.60667386165937L547.0678518433942,110.517876222322L552.7368312846938,102.2303610601914L548.9794844456919,100.53341170219142L547.9907089617445,95.96420568120516Z" class="sc-kAyceB dIJauC Chengalpattu mapstate" fill="rgb(18, 108, 189)" stroke-width="0.9px"></path></svg>