<svg xmlns="http://www.w3.org/2000/svg"  xmlns:xlink="http://www.w3.org/1999/xlink"  id="map" width="695" height="695"><defs><filter id="sofGlow" height="300%" width="300%" x="-75%" y="-75%"><feMorphology operator="dilate" radius="4" in="SourceAlpha" result="thicken"></feMorphology><feGaussianBlur in="thicken" stdDeviation="10" result="blurred"></feGaussianBlur><feFlood flood-color="rgb(0,186,255)" result="glowColor"></feFlood><feComposite in="glowColor" in2="blurred" operator="in" result="softGlow_colored"></feComposite><feMerge><feMergeNode in="softGlow_colored"></feMergeNode><feMergeNode in="SourceGraphic"></feMergeNode></feMerge></filter></defs><path d="M505.1055541827809,358.50272056625545L503.65399753781094,341.60875060236685L497.9594291613903,329.81158099466666L497.5127963475461,301.42357784874366L488.8034564777263,273.01994678553274L485.0070775601125,269.5082974976576L473.17130799341976,269.6679231208291L470.6031693138648,269.02941765560354L472.166384162294,246.3573326264468L472.166384162294,246.3573326264468L482.2156224736318,244.60062652821034L483.3322045082168,242.84386027899563L482.7739134909207,240.28845650970106L481.4340150494172,232.78122135493686L485.6770267808679,227.03025484611135L490.143354919237,229.4265693469879L493.1581264126362,226.07169765390972L501.30917526516714,204.339584352776L501.97912448591524,201.46258301805028L494.0513920403173,195.54823805399064L514.819817883741,179.40018536569187L515.266450697578,175.0825129429977L515.3781089010372,169.6449234968186L503.8773139447294,166.44607028409882L501.0858588582487,161.4874505730004L500.19259323057486,161.4874505730004L491.48325336074777,165.80627552598344L489.13843108810397,154.7685497774437L478.9775345733069,147.40873502362592L476.52105409721116,137.00717916896792L466.02518297202914,134.2864207470193L466.2484993789549,121.00062245183472L464.01533530976303,117.63860355712859L466.6951321927918,91.8557070229308L481.4340150494172,89.29271358635924L492.0415443780439,72.46984142764268L502.3140990963002,72.95057272437953L495.7262650922057,46.182886342547135L497.84777095793106,32.39277603589471L502.3140990963002,31.590909090909918L518.9511714117325,39.127953451412395L518.2812221909771,40.731434167713815L524.3107651777827,41.53315535770162L524.9807143985381,41.85384025608619L525.0923726019973,42.014181938688125L524.8690561950789,61.892593519261936L530.8985991818699,65.73912219135673L531.0102573853364,66.21991764142331L535.8115601340833,99.22358947414068L520.8493608705394,128.2041979837668L517.4996147667625,143.24836826427418L511.24675537304574,145.16857986714422L520.2910698532432,148.84878262458915L520.7377026670802,148.6887793504393L521.2959936843763,148.84878262458915L547.2006968869318,141.9681868720818L562.0512379470165,170.6045402813943L559.0364664536173,173.9630566747146L561.9395797435573,181.6388345073956L560.4880230985873,201.7822578328978L554.7934547221594,221.4384182538306L559.9297320812911,243.1632767989995L553.2302398737374,258.01394999879994L553.6768726875744,269.6679231208291L559.5947574709135,276.5313564078351L554.458480111789,289.9363543224026L555.6867203498332,297.1161688889788L555.128429332537,297.5947876478949L547.8706461076872,295.8398304821694L545.4141656315842,295.20164943217605L544.9675328177473,295.20164943217605L543.2926597658588,297.9138643529659L539.4962808482451,304.1354656704043L538.9379898309417,305.09256852486396L543.850950783155,315.77901199070766L534.8066363029502,316.89537853091133L534.8066363029502,316.89537853091133L534.6949780994983,316.89537853091133L537.8214077963494,351.6501699104447L537.8214077963494,351.8095418367466L529.0004097230703,354.2000619587616L530.4519663680403,363.2830339525135L522.635892125887,380.96636875204604L517.8345893771402,376.98416064916637L520.0677534463248,368.06290719967L516.1597163252518,359.77751385488045Z" class="sc-kAyceB dIJauC North Tripura mapstate" fill="rgb(18, 108, 189)" stroke-width="0.9px"></path><path d="M472.166384162294,246.3573326264468L472.166384162294,246.3573326264468L470.6031693138648,269.02941765560354L473.17130799341976,269.6679231208291L485.0070775601125,269.5082974976576L488.8034564777263,273.01994678553274L497.5127963475461,301.42357784874366L497.9594291613903,329.81158099466666L503.65399753781094,341.60875060236685L505.1055541827809,358.50272056625545L505.1055541827809,358.8214218244011L490.58998773307394,347.6657125295296L484.67210294973484,348.9407722102751L479.870800200988,365.35436638181636L469.374929075806,374.4353873720029L468.2583470412137,383.03699645688357L462.7870950717188,384.3111879218177L443.58188407671696,375.5504910592372L435.20751881726756,350.5345527104546L426.0515461336108,346.3906214822546L426.3865207439885,362.1676668744349L418.23547189146484,365.99168281318816L428.50802660971385,426.81946044059805L425.26993870938895,430.6387329769277L431.522798103113,439.5492838926475L431.522798103113,448.6173934335584L419.3520539260571,453.86663379266247L420.13366135026445,470.08823529510664L407.1813097489867,464.8406192185703L404.9481456798094,471.36030561171174L394.89890736847155,475.8123089549008L393.0007179096574,473.42735412006004L391.5491612646874,477.561206984632L388.8693643816732,468.02105525794286L392.3307686889093,462.7732323693599L378.70846786687616,450.5262689824558L377.9268604426543,443.36762678398554L369.7758115901306,435.09419823729513L368.65922955553833,433.9803675193707L369.6641533866714,429.52480732094955L365.4211416552207,424.11397346803824L361.73642094106617,420.7717078324058L361.5131045341477,419.18007757471423L357.0467763957713,383.992642981515L351.01723340897297,380.96636875204604L357.0467763957713,372.8423405991107L355.70687795426056,367.90358517948334L356.2651689715567,366.6289914227873L356.48848537847516,366.15101069884804L360.2848642960889,358.18401735064435L357.8283838199859,346.70939718499176L362.6296865687327,314.6626213294312L358.38667483728204,276.21214725175014L360.9548135168516,270.9449102725084L351.1288916124322,258.8122516417952L349.1190439501661,244.28121895735967L351.5755244262691,199.224803301875L347.66748730518884,189.47333275299934L351.9104990366468,185.79606505294396L352.6921064608614,184.99662395607265L349.0073857466996,144.52851739663674L374.1304815250405,158.44805774421548L383.2864542087045,151.56876123185066L385.51961827789637,155.56846545614826L381.83489756373456,163.72688703110907L390.09760461972473,169.48498560825647L398.47196987916686,185.4762901176873L405.95306951093517,187.39490966263293L413.2108527357923,198.7452663224285L413.54582734617,199.224803301875L430.07124145814305,212.17060097110334L429.73626684776536,218.24280880418337L438.6689231245109,209.77347837516209L441.90701102482853,212.3304051490959L443.69354228018346,202.5814361194498L452.1795657430848,206.25749526233994L459.6606653748531,202.4216014621652L467.9233724308433,204.17975519476204L462.7870950717188,230.8643042447129L468.03503063430253,233.26043942848628L472.7246751795901,235.6564625869687L472.83633338304935,235.6564625869687Z" class="sc-kAyceB dIJauC Dhalai mapstate" fill="rgb(18, 108, 189)" stroke-width="0.9px"></path><path d="M229.9797408591112,490.9145088305904L224.508488889609,493.45761035617943L218.1439712924257,498.38451972967596L218.1439712924257,510.46144357153025L214.57090878172312,511.096994441843L212.67271932291624,517.1343455016995L208.2063911845471,522.6944520642228L204.2983540634741,526.1890762658113L198.7154438905054,529.0481421399254L193.46750832792168,529.5246380642111L186.99133252728643,529.206974592551L188.77786378263409,523.1710053571169L192.0159516829517,524.6006394104315L191.2343442587371,519.9939020849488L182.07837157508038,514.7512632132875L184.7581684580946,505.21785632512L191.12268605527788,504.4233278685333L194.80740676943242,495.52378981423317L183.6415864235023,498.7023690094029L181.74339696469542,490.11976438315287L185.316459475398,487.8944160213341L180.29184031972545,487.4175434028639L180.29184031972545,473.42735412006004L171.91747506028332,459.9105621581948L169.7959691945507,446.3902840018309L164.88300824234466,447.02661064961285L163.87808441121888,441.77668444202936L157.9601996278725,443.36762678398554L158.85346525554633,437.00356712952816L150.59075819955615,435.57154699619605L154.61045352409565,422.36328957448313L147.35267029923853,423.4773679328882L141.2114691089737,405.0124292056298L135.62855893601227,403.57953136596734L134.17700229104958,373.4795651684126L139.20162144671485,378.8956586011991L146.68272107848315,379.5328089687282L146.57106287502393,382.71844371380394L155.1687445413845,378.8956586011991L149.92080897880078,375.86908771865455L152.3772894549038,365.83235443866033L132.9487620529908,365.19503605175123L134.17700229104958,344.95610655438395L152.93558047219994,340.97113446987896L159.41175627284247,349.10015246518196L165.55295746310003,345.75306419444314L177.7237016401632,352.6063941211396L185.09314306847227,343.84034526599135L191.2343442587371,353.0844996144897L192.68590090370708,336.9858557878015L212.00277010216814,343.84034526599135L217.80899668204074,342.24635888664125L218.4789459028034,333.00027033914375L235.67430923553184,335.0728130673251L237.57249869433872,341.130539238804L249.63158466794266,343.0433582065107L261.35569603116164,340.0146955542459L282.2357800780519,325.9848943601264L282.34743828151113,326.78214408708664L282.5707546884296,328.0577180917844L284.2456277403253,337.94235064224085L284.80391875762143,341.60875060236685L284.02231133339956,347.028170927053L283.68733672302915,347.50632786409733L272.633174580551,351.0126773068223L272.96814919093595,357.38725074711147L270.7349851217441,359.2994700415511L268.50182105255954,361.2116188748678L261.80232884500583,359.77751385488045L260.35077220003586,366.6289914227873L245.5002311399512,376.5062751792866L234.66938540439878,397.8475460120135L221.82869200658024,407.55970590375364L223.50356505846867,429.52480732094955L213.67764315405657,434.13948764607085L219.93050254777336,449.5718399058678L214.2359341713527,463.25032887628004L218.59060410626262,467.5440021444283L217.25070566475188,479.469029321197L229.75642445218546,488.05337259954104Z" class="sc-kAyceB dIJauC Sipahijala mapstate" fill="rgb(18, 108, 189)" stroke-width="0.9px"></path><path d="M356.48848537847516,366.15101069884804L356.2651689715567,366.6289914227873L355.70687795426056,367.90358517948334L357.0467763957713,372.8423405991107L351.01723340897297,380.96636875204604L357.0467763957713,383.992642981515L361.5131045341477,419.18007757471423L361.73642094106617,420.7717078324058L365.4211416552207,424.11397346803824L369.6641533866714,429.52480732094955L368.65922955553833,433.9803675193707L369.7758115901306,435.09419823729513L367.5426475209388,445.43577952708256L377.36856942535815,454.1847526657457L384.0680616329191,471.2012985083693L382.058213970653,492.34501856958013L369.7758115901306,507.76026684133467L355.3719033438829,516.6577376612913L353.69703029199445,527.3009536189948L358.83330765111896,532.5423457274101L353.473713885076,533.8129078909333L347.44417089827766,535.242253792172L347.2208544913592,534.9246247121646L339.06980563882826,524.6006394104315L341.41462791147205,515.069013742459L320.53454386458907,498.06666853022944L308.92209070482204,499.8148263718231L298.31456137618807,479.469029321197L298.0912449692696,479.31004677335295L294.853157068952,486.30482380254944L286.4787918095026,487.2585849020543L278.7743757708158,478.0381690660197L244.60696551227738,482.4896063139713L244.38364910535165,483.60240669436826L243.3787252742186,489.00710197600165L242.48545964654477,493.45761035617943L237.68415689779795,493.45761035617943L232.32456313175499,489.8018632408439L229.9797408591112,490.9145088305904L229.75642445218546,488.05337259954104L217.25070566475188,479.469029321197L218.59060410626262,467.5440021444283L214.2359341713527,463.25032887628004L219.93050254777336,449.5718399058678L213.67764315405657,434.13948764607085L223.50356505846867,429.52480732094955L221.82869200658024,407.55970590375364L234.66938540439878,397.8475460120135L245.5002311399512,376.5062751792866L260.35077220003586,366.6289914227873L261.80232884500583,359.77751385488045L268.50182105255954,361.2116188748678L270.7349851217441,359.2994700415511L272.96814919093595,357.38725074711147L272.633174580551,351.0126773068223L283.68733672302915,347.50632786409733L284.02231133339956,347.028170927053L284.80391875762143,341.60875060236685L284.2456277403253,337.94235064224085L285.4738679783695,337.7829360601354L285.58552618182875,336.66702024315964L287.70703204756137,337.4641054235908L312.60681141898385,334.4351164508189L329.2438837344089,338.7394161915581L338.17654001114715,334.4351164508189L347.8908037121073,350.05642370492023L345.0993486256266,360.4148987561057L353.1387392746983,368.2222287311379Z" class="sc-kAyceB dIJauC Gomati mapstate" fill="rgb(18, 108, 189)" stroke-width="0.9px"></path><path d="M351.9104990366468,185.79606505294396L347.66748730518884,189.47333275299934L351.5755244262691,199.224803301875L349.1190439501661,244.28121895735967L351.1288916124322,258.8122516417952L360.9548135168516,270.9449102725084L358.38667483728204,276.21214725175014L362.6296865687327,314.6626213294312L357.8283838199859,346.70939718499176L360.2848642960889,358.18401735064435L356.48848537847516,366.15101069884804L353.1387392746983,368.2222287311379L345.0993486256266,360.4148987561057L347.8908037121073,350.05642370492023L338.17654001114715,334.4351164508189L329.2438837344089,338.7394161915581L312.60681141898385,334.4351164508189L287.70703204756137,337.4641054235908L285.58552618182875,336.66702024315964L285.4738679783695,337.7829360601354L284.2456277403253,337.94235064224085L282.5707546884296,328.0577180917844L282.34743828151113,326.78214408708664L282.45909648497036,326.6226951247809L277.65779373622354,278.44656977262093L270.4000105113664,277.3293706368222L273.5264402082321,267.7523829429283L270.065035900996,268.2312746764019L265.9336823729973,261.04743025917014L266.93860620413034,255.77863939945564L257.89429172393284,240.76760441459737L256.21941867203714,224.79359348788057L248.1800280229727,217.7634501762368L254.0979128063118,203.5404335638068L257.3360007066294,208.3351508743417L273.5264402082321,213.12941854947167L288.6002976752352,212.65001200713596L293.17828401706356,208.0155170455655L292.1733601859305,203.8600953790883L298.0912449692696,205.7780242821409L306.6889266356375,201.14290620294014L309.81535633249587,174.28290383238345L316.06821572621993,168.36540632448668L312.60681141898385,155.56846545614826L318.52469620232296,149.80879169270156L325.55916302025435,177.48126499929276L331.7003642105192,177.80109007694227L341.52628611493856,185.95595176885763Z" class="sc-kAyceB dIJauC Khowai mapstate" fill="rgb(18, 108, 189)" stroke-width="0.9px"></path><path d="M282.34743828151113,326.78214408708664L282.2357800780519,325.9848943601264L261.35569603116164,340.0146955542459L249.63158466794266,343.0433582065107L237.57249869433872,341.130539238804L235.67430923553184,335.0728130673251L218.4789459028034,333.00027033914375L217.80899668204074,342.24635888664125L212.00277010216814,343.84034526599135L192.68590090370708,336.9858557878015L191.2343442587371,353.0844996144897L185.09314306847227,343.84034526599135L177.7237016401632,352.6063941211396L165.55295746310003,345.75306419444314L159.41175627284247,349.10015246518196L160.08170549359784,324.86872409600073L167.22783051499573,310.03731725980833L156.95527579673944,290.4150397394442L157.51356681403558,284.989677942016L165.55295746310003,280.68089531132136L161.8682367489455,274.13723947479775L174.82058835022326,272.8603315635846L170.80089302569104,265.1982183691089L172.252449670661,260.7281249807329L179.06360008167394,249.39150152430193L180.40349852318468,255.13996136083006L183.75324462696153,253.70290673368436L186.4330415099903,243.32298431317759L215.12919979902654,252.42549108153253L213.00769393329392,241.40646132454822L221.60537559966178,223.51545741983136L214.79422518864885,210.73234089787366L213.90095956096775,200.18386375516093L223.72688146538712,198.58541966212215L233.66446157326573,199.70433577935182L236.56757486320566,204.8190688276536L236.4559166597537,201.94209449025038L252.0880651440457,205.13872264504244L248.1800280229727,217.7634501762368L256.21941867203714,224.79359348788057L257.89429172393284,240.76760441459737L266.93860620413034,255.77863939945564L265.9336823729973,261.04743025917014L270.065035900996,268.2312746764019L273.5264402082321,267.7523829429283L270.4000105113664,277.3293706368222L277.65779373622354,278.44656977262093L282.45909648497036,326.6226951247809Z" class="sc-kAyceB dIJauC West Tripura mapstate" fill="rgb(18, 108, 189)" stroke-width="0.9px"></path><path d="M193.46750832792168,529.5246380642111L198.7154438905054,529.0481421399254L204.2983540634741,526.1890762658113L208.2063911845471,522.6944520642228L212.67271932291624,517.1343455016995L214.57090878172312,511.096994441843L218.1439712924257,510.46144357153025L218.1439712924257,498.38451972967596L224.508488889609,493.45761035617943L229.9797408591112,490.9145088305904L232.32456313175499,489.8018632408439L237.68415689779795,493.45761035617943L242.48545964654477,493.45761035617943L243.3787252742186,489.00710197600165L244.38364910535165,483.60240669436826L244.60696551227738,482.4896063139713L278.7743757708158,478.0381690660197L286.4787918095026,487.2585849020543L294.853157068952,486.30482380254944L298.0912449692696,479.31004677335295L298.31456137618807,479.469029321197L308.92209070482204,499.8148263718231L320.53454386458907,498.06666853022944L341.41462791147205,515.069013742459L339.06980563882826,524.6006394104315L347.2208544913592,534.9246247121646L347.44417089827766,535.242253792172L353.473713885076,533.8129078909333L359.9498896857185,532.5423457274101L359.9498896857185,542.8647789562528L365.19782524830225,549.6923578963251L364.41621782408765,558.4240236709938L373.5721905077444,581.9129983311868L373.2372158973667,600.1573915305635L381.1649483429792,602.3780205440999L370.445760810886,614.2726695735437L359.0566240580374,611.8939523912559L361.17812992377003,627.9085984943977L357.0467763957713,622.9937239003793L358.05170022690436,626.3232045756286L339.06980563882826,644.3939035118965L329.6905165482458,644.0769264112114L326.2291122410097,648.3559586138363L314.281684470865,648.8313854865628L312.16017860513966,645.3448235301057L302.55757310763875,663.4090909090919L298.761194190025,656.2791878990702L295.41144808624813,657.2298965307746L300.3244090384542,655.6453727570588L297.7562703588919,650.416111188395L291.7267273720936,648.5144347079768L286.9254246233395,652.9515746027155L280.00261600886006,647.8805275119157L279.8909578054154,640.5900541534666L274.53136403936514,639.4805470556839L276.6528699050832,631.7133516407539L273.0798073943952,631.7133516407539L277.4344773293051,624.1035738956398L270.17669410445524,624.1035738956398L269.9533776975295,603.0124689482527L263.2538854899758,598.0952958430498L265.48704955916037,589.6874623720923L260.23911399657663,587.6249603882388L264.59378393148654,581.9129983311868L258.56424094468093,582.8650346844697L261.6906706415466,578.2633674317003L255.7727858582075,576.8351826600574L258.452582741229,571.4394709133103L256.1077604685779,569.058835296757L261.80232884500583,566.6780927608379L260.23911399657663,563.3448735178499L248.40334442989115,561.5988178377265L252.75801436480106,560.1701840147252L250.07821748177957,552.0738641627577L241.0339030015748,552.5501525539075L248.29168622643192,549.2160437788916L243.71369988460356,541.9120234304773L238.68908072893828,541.7532291733605L242.37380144308554,536.1951295734907L229.30979163835582,538.1008295796673L229.86808265565196,531.1129267536726L225.84838733111246,526.3479173218111L226.74165295879357,538.1008295796673L222.8336158377133,534.1305436560451L221.7170338031283,537.7832176851498L225.84838733111246,541.2768435398357L219.93050254777336,541.9120234304773L223.05693224463175,548.5809516175923L217.6973384785888,549.2160437788916L219.7071861408549,552.2326274361276L215.68749081632268,556.6778057423817L218.1439712924257,556.9953041950303L215.352516205945,566.2019314201825L223.83853966884635,594.28813981446L222.72195763425407,601.1091010324271L228.97481702797813,606.501799931144L228.416526010682,614.4312469411998L221.15874278583215,617.1269899580384L211.66779549178318,611.4181962027997L203.29343023233378,598.8884190329136L198.2688110766685,578.7394204793854L194.6957485659732,576.6764930899681L193.02087551408476,542.547195688905L195.9239888040247,539.371258067853L192.79755910717358,539.2124561770815L189.89444581722637,529.8422996245081Z" class="sc-kAyceB dIJauC South Tripura mapstate" fill="rgb(18, 108, 189)" stroke-width="0.9px"></path><path d="M466.6951321927918,91.8557070229308L464.01533530976303,117.63860355712859L466.2484993789549,121.00062245183472L466.02518297202914,134.2864207470193L476.52105409721116,137.00717916896792L478.9775345733069,147.40873502362592L489.13843108810397,154.7685497774437L491.48325336074777,165.80627552598344L500.19259323057486,161.4874505730004L501.0858588582487,161.4874505730004L503.8773139447294,166.44607028409882L515.3781089010372,169.6449234968186L515.266450697578,175.0825129429977L514.819817883741,179.40018536569187L494.0513920403173,195.54823805399064L501.97912448591524,201.46258301805028L501.30917526516714,204.339584352776L493.1581264126362,226.07169765390972L490.143354919237,229.4265693469879L485.6770267808679,227.03025484611135L481.4340150494172,232.78122135493686L482.7739134909207,240.28845650970106L483.3322045082168,242.84386027899563L482.2156224736318,244.60062652821034L472.166384162294,246.3573326264468L472.83633338304935,235.6564625869687L472.7246751795901,235.6564625869687L468.03503063430253,233.26043942848628L462.7870950717188,230.8643042447129L467.9233724308433,204.17975519476204L459.6606653748531,202.4216014621652L452.1795657430848,206.25749526233994L443.69354228018346,202.5814361194498L441.90701102482853,212.3304051490959L438.6689231245109,209.77347837516209L429.73626684776536,218.24280880418337L430.07124145814305,212.17060097110334L413.54582734617,199.224803301875L413.2108527357923,198.7452663224285L408.40954998704547,185.95595176885763L420.13366135026445,137.32725880874204L412.8758781254146,107.39107446928938L426.60983715090697,99.063429529946L432.75103834116453,109.79302514152369L438.89223953142937,111.07401891233167L430.85284888235765,89.29271358635924L436.88239186916326,90.57422655065056L441.57203641445085,84.48675049172016L444.0285168905539,88.97233026775211Z" class="sc-kAyceB dIJauC Unokoti mapstate" fill="rgb(18, 108, 189)" stroke-width="0.9px"></path></svg>