<svg xmlns="http://www.w3.org/2000/svg"  xmlns:xlink="http://www.w3.org/1999/xlink"  id="map" width="695" height="695"><defs><filter id="sofGlow" height="300%" width="300%" x="-75%" y="-75%"><feMorphology operator="dilate" radius="4" in="SourceAlpha" result="thicken"></feMorphology><feGaussianBlur in="thicken" stdDeviation="10" result="blurred"></feGaussianBlur><feFlood flood-color="rgb(0,186,255)" result="glowColor"></feFlood><feComposite in="glowColor" in2="blurred" operator="in" result="softGlow_colored"></feComposite><feMerge><feMergeNode in="softGlow_colored"></feMergeNode><feMergeNode in="SourceGraphic"></feMergeNode></feMerge></filter></defs><path d="M367.16200535903226,120.98917602711754L366.93513606642773,121.72650130480542L363.0783580921561,122.61125931645347L358.1628567523985,129.68805484129098L346.9706383172597,134.9941728899994L351.96176275455036,139.26762518150645L350.14680841371774,147.22290192742003L350.0711853161847,147.1492549938066L344.0969606109393,145.67626517462213L338.3496051983002,148.76943128416588L342.5844986602424,153.3347488436757L342.3576293676415,158.34079637715877L339.63519785639255,159.96015941405676L341.8282676848976,167.02509580454716L337.4421280278839,168.71740483222038L335.92966607719063,174.74981117069365L332.9803652733335,175.77957145921755L333.8122193462168,179.08919398882608L330.7116723472918,182.17773311788642L343.5675989281972,196.51179833839979L340.6182981243419,202.463253409981L336.8371432476051,202.8305754185567L334.56845032156343,200.11225006786208L325.5693017149315,200.47961058924284L319.51945391215486,195.11554917366175L314.2258370847212,197.09966669812457L311.04966698826684,192.0287948486848L304.0167189175354,190.48525815341964L299.2524637728475,185.26584587629532L292.2951387996545,182.61891818109143L291.2364154341685,182.17773311788642L286.2452909968779,171.21884416811918L274.7505801715961,172.32233130004806L270.2131943195145,166.8043503880981L264.7683312970148,168.3495224752669L262.6508845660428,167.09867712503365L261.667784298088,167.17225820302974L255.54231339777834,173.79356270138123L258.18912181149426,181.14826746337167L256.44979056819466,183.28067946250576L255.23982100763897,199.37751096646298L247.29939576649303,203.7121236953235L239.73708601302133,203.27135388795432L236.0315542338194,205.695480658027L229.52796784583188,200.25919499871088L225.67118987156027,204.52017918103684L217.88201082548403,206.43001281696434L216.8989105575347,210.54294866687633L203.2867530012827,211.0570126625962L205.63106902485924,214.58170591251383L205.10170734211715,224.27176210505877L195.57319705274313,237.55210146388526L195.11945846753224,246.8656780776373L193.4557503217693,248.33203247031997L184.98596339788128,247.45223127425015L185.5909481781564,235.8649789672454L188.389002786942,232.41698773859662L186.04468676336728,229.4087342728144L181.50730091128207,225.5194203450401L179.31423108277522,228.16129172510682L175.0793376208312,228.08791059797568L172.9618908898592,237.47875093942275L175.83556859617602,239.82584927685093L176.4405533764584,244.73929484612654L174.3231066454846,249.06517392225123L170.76882106135236,250.75130885364888L168.42450503777582,261.8912960879479L166.60955069693955,261.2318445972451L164.41648086843452,253.17032588193888L155.49295535933925,246.79235785548644L153.45113172589845,240.04587721116422L151.25806189739342,241.07264583308552L149.2918613614911,237.33204917395778L147.2500377280503,237.77215160426204L148.4600072886078,240.41258566087345L142.93952116857508,242.39270818647765L142.93952116857508,239.82584927685093L146.04006816749643,239.67916279370547L143.3932597537805,237.8455011733904L146.11569126503127,234.39781319007216L141.2758130228067,228.6749529141416L135.52845761016943,228.89508983419455L132.73040300138382,234.54453406932043L126.75617829614202,236.45181851669258L118.58888376239338,234.0310068093395L119.79885332294725,230.28924032131636L117.22766800676618,224.71211997546652L113.5977593250991,223.17082970208503L106.33794196176495,223.3176238034266L98.7000091107584,225.88636547976512L100.74183274419738,229.6288640146886L100.74183274419738,229.70224011680966L100.28809415898832,229.7756159796918L96.20444689211217,230.65610767455564L94.99447733156012,230.8762252161323L94.76760803895377,230.80285294145688L94.16262325867683,230.8762252161323L88.26402165096988,227.57423600670063L88.18839855343322,227.13393416512918L87.35654448055357,226.62023779158335L87.88590616329202,219.50066563328892L92.27204582030936,220.8953985664166L98.17064742801449,215.90332328325894L102.32991779242548,203.27135388795432L101.49806371954219,198.6427477837051L90.3058452844034,187.32435098248425L91.13769935728669,183.86889528040774L85.46596704218427,178.64793929096504L84.63411296930099,176.14733149341646L80.47484260489182,164.00805283204136L81.38231977530995,161.5794049049764L85.31472084711277,160.47538663682735L89.32274501645588,157.60468340024818L89.47399121152193,156.57408440998097L88.56651404110562,154.88085407889776L81.60918906791085,146.19182269398152L78.357395873918,143.61391571542208L71.09757851058566,144.79242451209666L62.55216848916098,150.9049381894465L61.11532963600257,150.5367619464878L59.149129100098435,149.87402937745992L56.50232068638434,149.13763673414905L56.426697588847674,148.99035528446893L53.55301988252904,142.7299931743064L52.11618102936882,131.53060048010138L52.04055793183397,131.53060048010138L51.586819346626726,131.3832024498306L47.95691066495965,124.45439195413019L50.528095981138904,125.26532185657379L53.32615058992633,121.28410907679336L55.89733590610558,121.1366430417429L58.468521222286654,112.87698077055938L63.83776114725151,109.8525852215962L65.42584619548143,103.13842763993489L70.6438399253766,103.13842763993489L79.11362684926462,97.75087373131555L82.59228933586382,101.58871765932781L85.84408252985668,100.40791345499201L91.74268413756545,102.99084088471409L94.23824635620986,96.56986481132935L106.4135650592998,94.94587463798507L117.75702968951009,85.56869090307191L124.71435466270486,86.4548941545736L126.68055519860718,86.75028734312036L129.78110219753216,83.5746036557648L134.99909592742551,84.38703129146961L142.25891329075966,76.03976037406937L146.94754533791092,77.51738325390306L147.8550225083327,72.27137428159585L147.93064560586572,72.12358132254576L147.93064560586572,72.04968447180545L151.48493118999795,73.23200438895947L153.60237792096996,72.936430348248L159.72784882127962,71.31070235257448L160.5597028941629,72.19747792580529L162.90401891773945,74.85759085896552L164.9458425511766,73.89703150718105L164.9458425511766,73.97092217225327L167.06328928215044,81.65420139984053L172.50815230465196,78.77328495974507L172.8106446947877,78.9949072583322L175.30620691343393,80.84167326785428L176.8186688641308,81.94965876573042L176.96991505919868,82.24511218034513L182.41477808169657,91.77136782615617L196.02693563794855,91.54987360614177L201.3205524653804,85.64254253113722L207.52164646322854,84.68245211757221L215.08395621670024,88.07950784827972L217.27702604520528,95.01969495865796L220.0750806539927,92.28817904773405L238.67836264753532,94.87205407104284L247.67751125416544,91.91902940730415L249.11435010732384,93.98618805724163L247.82875744923695,98.11992609664048L250.62681205802073,100.03889922779217L251.91240471611127,105.425896618357L262.72650766357583,115.16344506884343L267.4151397107307,115.16344506884343L269.75945573430545,112.3606497562123L275.8093035370839,115.38470329996926L287.45526055743176,112.58193594869317L283.1447439979511,104.76181705267481L282.8422516078135,97.67706251989966L277.1705192927093,94.6505908925501L274.4480877814567,89.99935195507805L275.20431875680515,87.63644322641903L271.49878697760323,87.56259825950838L271.2719176850005,86.8979824571743L268.85197856389095,80.1768552925505L262.8777538586455,75.52256900104749L262.8777538586455,75.37479781173897L262.1215228832989,72.56695723014855L261.89465359069254,71.827992434728L261.89465359069254,71.827992434728L265.1464467846872,70.42389113702666L264.91957749208086,67.31977110188473L268.85197856389095,64.51090500916598L274.29684158638884,52.75413336549536L279.06109673107494,55.04682665341625L281.10292036451574,53.41977859355666L285.4134369239946,58.81815760137306L288.66523011798745,57.11744123543576L287.1527681672924,49.795466562444744L288.8164763130553,39.28898457906598L297.43750943201667,38.54890221233836L300.0086947481941,31.590909090909918L313.4696061093764,36.84661817183496L314.60395257239907,41.5090821682079L320.42693108256935,48.53791271272803L319.0657153269458,53.86353089795648L327.9892408360429,56.451907779274734L332.29975739552174,60.22299818349893L329.12358729906373,65.25011499053471L334.94656580923584,70.12827947682581L334.79531961416797,72.19747792580529L330.03106446948186,77.51738325390306L337.2908818328124,82.90986791766863L341.45015219722336,82.83600715674675L344.92881468382257,87.41490758569762L345.8362918542389,99.3008523227727L349.31495434083445,106.53265166653L359.9778110932293,111.77054244703868L366.330151286149,111.69677792919992L368.37197491958614,115.90096392426858Z" class="sc-kAyceB dIJauC Uttarkashi mapstate" fill="rgb(18, 108, 189)" stroke-width="0.9px"></path><path d="M340.6182981243419,202.463253409981L343.5675989281972,196.51179833839979L330.7116723472918,182.17773311788642L333.8122193462168,179.08919398882608L332.9803652733335,175.77957145921755L335.92966607719063,174.74981117069365L337.4421280278839,168.71740483222038L341.8282676848976,167.02509580454716L339.63519785639255,159.96015941405676L342.3576293676415,158.34079637715877L342.5844986602424,153.3347488436757L338.3496051983002,148.76943128416588L344.0969606109393,145.67626517462213L350.0711853161847,147.1492549938066L350.14680841371774,147.22290192742003L351.96176275455036,139.26762518150645L346.9706383172597,134.9941728899994L358.1628567523985,129.68805484129098L363.0783580921561,122.61125931645347L366.93513606642773,121.72650130480542L367.16200535903226,120.98917602711754L368.1451056269798,120.54676910547005L370.9431602357672,132.63605455475044L379.63981645225795,129.9828724086492L387.0508800106636,130.79360055414782L388.8658343514944,138.89925645524363L395.21817454441407,140.66737072609885L393.47884330111265,144.12952099012364L396.2012748123652,148.03300212514569L403.9904538584433,150.9785727080116L405.88103129680894,153.85012917090808L418.3588423900401,146.26547279382066L418.7369578777125,142.28801874095188L425.46741355830454,145.08704196443068L432.0466230438251,143.2456189220511L436.2815165057691,136.76259755366027L440.74327926031765,141.33037735994367L449.0618199891378,144.86607924065356L458.59033027851,144.6451143240156L462.0689927651092,148.99035528446893L463.4302085207346,157.31023140607522L467.8163481777465,158.4880160570383L472.12686473722897,166.21568527364434L478.1767125400056,164.2288259019242L485.0584144156637,169.45315136607405L487.5539766343136,168.86455607812786L492.1669855839318,174.97047808384377L496.4018790458722,174.60269868480736L506.0060124327847,187.61840768644652L502.7542192387882,191.29379064263503L504.3423042870181,197.17314915885436L506.0060124327847,201.65512381292683L505.55227384757563,201.58165604181977L490.80576982830644,200.11225006786208L481.57975192906997,205.98929640722417L482.26035980687993,210.61638710122497L492.31823177899787,223.02403464240797L491.6376239011879,227.86776578061472L494.20880921736716,231.75667385692213L488.1589614145887,237.0386427768035L484.6802989279913,246.05914252338698L489.67142336528195,258.9602532323852L487.4027304392421,261.74475297542995L489.67142336528195,266.43366135515225L493.15008585187934,267.60573650604056L491.6376239011879,274.71014218534583L493.225708949416,276.17469078066733L485.1340375132004,285.76514286698693L484.831545123061,292.86385583865194L483.0922138797614,296.6684369820423L481.57975192906997,299.960348313768L481.05039024632606,301.2038350637895L478.63045112521286,302.3741133434778L477.6473508572617,302.8129521538358L476.66425058931054,303.25178248661905L471.97561854215746,301.35012314642063L460.32966152181143,307.63961972548987L454.5066830116357,303.6906043426352L445.8100267951413,305.3726762774222L450.04492025708714,317.94770517445977L445.9612729902128,321.1634569078078L442.1801181134779,328.5433518562568L442.1044950159412,335.1174830144091L438.24771704167324,339.5722059023756L442.02887191840637,344.24507908060787L441.12139474799005,347.7491065946351L443.3900876740354,351.7634776104733L447.8518504285821,352.7122259348607L451.48175911024737,356.7257256401663L448.9105737940681,359.35236235766934L448.2299659162545,365.1153143208812L441.27264094306156,368.9807857900969L429.7779301177834,370.00174483768933L407.69598563763975,365.6988235161152L395.21817454441407,371.3143396355208L382.5134941585784,364.9694346989727L380.01793193993217,375.10585799197906L379.63981645225795,375.4703940233012L370.565044748093,385.45642820528246L366.63264367628835,383.6344832763252L360.4315496784402,387.2053593387236L353.47422470524543,376.63687038449825L350.6761700964598,376.63687038449825L352.7179937299006,383.48872143550034L350.6761700964598,386.6952681834764L342.13076007503696,387.49683491238375L342.5844986602424,381.52084598392867L333.2828576634729,376.7826757581197L331.694772615243,375.9807347319238L330.6360492497606,375.3974872806366L329.1992103965986,365.1153143208812L323.4518549839577,361.7598478516102L323.52747808149434,361.61394684831066L326.2499095927433,355.7771438170257L324.28370905684096,350.8876749773917L324.1324628617731,350.8146899099629L317.7044995713204,348.8440049871406L315.88954523048596,344.4640965489025L312.56212893895827,343.00394041664003L313.2427368167737,335.3365880838519L313.54522920691306,332.78023130269776L305.15106538055625,324.8902373279652L305.9072963559047,321.52885450265967L300.9161719186104,319.26329487985004L300.8405488210774,319.19020855759663L306.3610349411101,311.149279731716L307.04164281892554,303.5443313324449L313.0914906217022,304.34882123449825L319.7463232047612,302.00840785833134L314.5283294748606,300.7649651620786L317.55325337625254,294.473564170944L307.7222506967373,282.1783498299701L318.1582381565313,281.1534475226299L320.57817727764086,271.1948388338087L318.99009222941095,267.092961103137L323.9812166667016,259.91288387151235L330.03106446948186,256.8350093205763L331.4679033226421,248.33203247031997L334.71969651663494,245.83917327511608L334.79531961416797,240.92596746551226L338.7277206859744,239.09240731163482L344.7019453912162,240.41258566087345L347.0462614147964,233.88428258393287L347.0462614147964,233.8109201126872L347.34875380493213,233.8109201126872L352.7179937299006,232.3436204859845L353.9279632904527,230.8762252161323L355.44042524114957,227.42746968363008L356.12103311896135,221.99644238899782L355.28917904607806,219.72089237657747L346.44127663451764,213.18658098495234L344.92881468382257,203.78558448780132L343.34072963559265,203.34481612402215Z" class="sc-kAyceB dIJauC Chamoli mapstate" fill="rgb(18, 108, 189)" stroke-width="0.9px"></path><path d="M51.586819346626726,131.3832024498306L52.04055793183397,131.53060048010138L52.11618102936882,131.53060048010138L53.55301988252904,142.7299931743064L56.426697588847674,148.99035528446893L56.50232068638434,149.13763673414905L59.149129100098435,149.87402937745992L61.11532963600257,150.5367619464878L62.55216848916098,150.9049381894465L71.09757851058566,144.79242451209666L78.357395873918,143.61391571542208L81.60918906791085,146.19182269398152L88.56651404110562,154.88085407889776L89.47399121152193,156.57408440998097L89.32274501645588,157.60468340024818L85.31472084711277,160.47538663682735L81.38231977530995,161.5794049049764L80.47484260489182,164.00805283204136L84.63411296930099,176.14733149341646L85.46596704218427,178.64793929096504L91.13769935728669,183.86889528040774L90.3058452844034,187.32435098248425L101.49806371954219,198.6427477837051L102.32991779242548,203.27135388795432L98.17064742801449,215.90332328325894L92.27204582030936,220.8953985664166L87.88590616329202,219.50066563328892L87.35654448055357,226.62023779158335L88.18839855343322,227.13393416512918L88.26402165096988,227.57423600670063L88.18839855343322,227.50085296484667L86.6003135052033,238.725677375769L86.29782111506756,239.3857869626263L81.76043526298236,241.80602335208096L82.28979694572445,245.47255309304546L80.62608879996151,245.83917327511608L82.89478172600138,248.62529191027807L80.77733499502756,249.43173571376337L83.27289721367924,251.11784325298413L79.34049614186915,252.43731779899372L75.55934126513421,250.45807704734307L73.29064833909251,253.39022366498284L73.29064833909251,253.46352244994523L73.36627143662736,253.53682099689286L80.32359640982213,257.7877295977187L83.19727411614076,262.25764971154877L85.69283633478517,261.8912960879479L85.23909774957974,259.25337463098913L87.43216757808659,258.3739990235845L93.02827679565235,262.6239973959764L93.55763847839626,258.74040968721056L102.10304849982458,262.184379461979L106.79168054697584,259.6197710305387L118.51326066485672,267.1662154440528L125.24371634544877,266.94645170935837L133.41101087919924,272.29342979580906L130.31046388027426,276.467589129863L118.05952207964947,281.8855253306383L112.38778976454523,290.8149709398431L114.20274410537786,295.05888434355074L125.69745493065602,302.3741133434778L127.51240927149047,302.5203938889299L128.57113263697647,298.7899456361083L133.10851848905622,301.13069066912067L133.0328953915232,303.83687641105826L137.34341195100205,304.34882123449825L139.30961248690437,300.4723805158046L141.35143612034517,301.935266054732L141.0489437302058,307.49337213268427L145.4350833872195,313.56185680022827L144.45198311926652,316.85132232882006L143.99824453405927,317.28988180520173L133.48663397673408,326.5707427521047L132.42791061124808,327.4474789899841L132.5035337087811,327.59359841688365L134.015995659478,332.0497910169752L137.9483967312808,333.1454426718392L136.58718097565543,338.4038381327591L145.9644450699634,344.61010702760086L146.1913143625643,344.3910909595106L147.2500377280503,345.0481328632113L147.1744146305191,345.6321542440246L143.9226214365226,347.2381360559357L141.88079780308908,356.28792353296376L135.15034212249702,362.489338919424L134.69660353728614,366.28231784491254L131.1423179531539,366.7199288365464L131.9741720260372,372.0435264857533L126.07557041833206,378.1677805821664L123.12626961447495,379.115435696649L125.24371634544877,373.1372632684788L123.50438510214735,370.94973751049747L120.02572261555179,378.67806127732L115.41271366593537,377.8032874217006L111.63155878919679,370.0746687432984L104.90110310860655,367.7409886386504L105.5060878888853,363.87530791115114L99.53186318363987,360.66556765728274L99.60748628117653,352.93116226485927L92.80140750305145,346.43515926253167L86.6003135052033,329.6391720330612L76.84493392322474,317.0706031234331L77.67678799610621,314.65839815429626L77.90365728871075,314.43909411178174L78.05490348377862,314.29289024231093L77.90365728871075,314.29289024231093L77.90365728871075,314.29289024231093L77.75241109363924,314.3659922944953L73.9712562169043,314.87770008285406L64.51836902506511,308.9558057208642L54.98985873568927,307.5664960467111L30.034236549228808,293.9613966344541L23.757519453847635,283.34960998259976L23.757519453847635,283.34960998259976L21.337580332736252,283.42281173186075L21.035087942598693,280.6409789797317L17.25393306586011,278.07846232143675L17.10268687079224,277.6391446350872L16.497702090513485,277.56592419200115L10.750346677876223,276.9801521228619L4.095514094819009,276.3211404289523L2.2049366564497177,277.56592419200115L0.6924747057564673,277.6391446350872L0.6168516082216229,277.6391446350872L0.5412285106885975,276.7604836896635L0.3143592180840642,275.0762882177787L0.3143592180840642,274.9298305155553L3.490529314543892,272.58637837719834L4.7004988750977645,271.63428161980846L4.927368167702298,271.48780163952506L14.304632262006635,270.3891715559703L16.195209700374107,266.65343007385036L23.757519453847635,266.65343007385036L29.882990354162757,260.8654743414545L48.94001093291263,253.24362538098012L50.45247288360406,249.50504735737013L50.98183456634797,248.03876921782285L49.242503323052006,240.41258566087345L40.47022400902097,241.1459846588814L34.3447531087113,233.0039171520275L34.3447531087113,232.93055181214822L34.874114791453394,230.4359879802314L40.01648542381554,232.12351729350212L39.940862326277056,227.57423600670063L44.856363666038305,228.01452923152283L41.90706286218119,220.52837197455756L43.94888649562017,217.59194345332253L35.17660718159095,212.81942844128935L36.84031532735571,206.5769163632558L36.61344603474936,206.13620283897762L34.26913001117464,202.8305754185567L30.941713719645122,199.37751096646298L29.126759378812494,198.6427477837051L27.00931264784049,197.76100017162844L26.177458574960838,197.4670765925439L26.404327867563552,193.20475141139923L26.479950965096577,193.20475141139923L37.97466179037474,178.79502515777676L34.495999303775534,174.01423905690808L37.29405391256296,166.95151424156393L40.39460091148794,166.8043503880981L41.52894737450697,170.77743405262572L46.8225642019388,172.46945879962186L45.990710129057334,163.1249387127591L48.713141640308095,160.54898955441604L48.335026152632054,156.42685209440606L38.27715418051412,157.31023140607522L35.554722669263356,149.28491721011324L37.52092320516931,147.00196039597995L40.092108521348564,144.3504910238562L42.89016313013235,145.82356854099817L48.48627234770174,148.99035528446893L49.0912571279805,149.0639961310253L53.17490439485664,149.13763673414905L48.561895445238406,147.1492549938066L52.04055793183397,139.63598780916527L50.67934217621041,135.9520870374181L47.200679689611206,134.47835587324334L48.94001093291263,131.01470309783326L51.66244244415975,131.53060048010138Z" class="sc-kAyceB dIJauC Dehradun mapstate" fill="rgb(18, 108, 189)" stroke-width="0.9px"></path><path d="M88.26402165096988,227.57423600670063L94.16262325867683,230.8762252161323L94.76760803895377,230.80285294145688L94.99447733156012,230.8762252161323L96.20444689211217,230.65610767455564L100.28809415898832,229.7756159796918L100.74183274419738,229.70224011680966L100.74183274419738,229.6288640146886L98.7000091107584,225.88636547976512L106.33794196176495,223.3176238034266L113.5977593250991,223.17082970208503L117.22766800676618,224.71211997546652L119.79885332294725,230.28924032131636L118.58888376239338,234.0310068093395L126.75617829614202,236.45181851669258L132.73040300138382,234.54453406932043L135.52845761016943,228.89508983419455L141.2758130228067,228.6749529141416L146.11569126503127,234.39781319007216L143.3932597537805,237.8455011733904L146.04006816749643,239.67916279370547L142.93952116857508,239.82584927685093L142.93952116857508,242.39270818647765L148.4600072886078,240.41258566087345L147.2500377280503,237.77215160426204L149.2918613614911,237.33204917395778L151.25806189739342,241.07264583308552L153.45113172589845,240.04587721116422L155.49295535933925,246.79235785548644L164.41648086843452,253.17032588193888L166.60955069693955,261.2318445972451L168.42450503777582,261.8912960879479L170.76882106135236,250.75130885364888L174.3231066454846,249.06517392225123L176.4405533764584,244.73929484612654L175.83556859617602,239.82584927685093L172.9618908898592,237.47875093942275L175.0793376208312,228.08791059797568L179.31423108277522,228.16129172510682L181.50730091128207,225.5194203450401L186.04468676336728,229.4087342728144L188.389002786942,232.41698773859662L185.5909481781564,235.8649789672454L184.98596339788128,247.45223127425015L193.4557503217693,248.33203247031997L195.11945846753224,246.8656780776373L195.57319705274313,237.55210146388526L205.10170734211715,224.27176210505877L205.63106902485924,214.58170591251383L203.2867530012827,211.0570126625962L216.8989105575347,210.54294866687633L217.88201082548403,206.43001281696434L225.67118987156027,204.52017918103684L229.52796784583188,200.25919499871088L236.0315542338194,205.695480658027L239.73708601302133,203.27135388795432L247.29939576649303,203.7121236953235L255.23982100763897,199.37751096646298L256.44979056819466,183.28067946250576L258.18912181149426,181.14826746337167L255.54231339777834,173.79356270138123L261.667784298088,167.17225820302974L262.6508845660428,167.09867712503365L264.7683312970148,168.3495224752669L270.2131943195145,166.8043503880981L274.7505801715961,172.32233130004806L286.2452909968779,171.21884416811918L291.2364154341685,182.17773311788642L292.2951387996545,182.61891818109143L292.74887738485995,183.4277348668029L290.8582999464961,185.41288823452032L291.31203853170155,192.3962879066603L289.34583799579923,196.58528272669355L285.715929314134,196.73225078041105L284.0522211683692,200.7734946727087L277.6998809754514,200.03877724127597L270.44006361212087,204.81401032280337L267.79325519840313,210.32263192240043L267.5663859057968,224.49194211807662L262.95337695617854,230.58273468231346L263.48273863892246,234.61789415045132L258.2647449090273,239.09240731163482L258.94535278683907,252.51061967854912L250.3999427654162,259.6197710305387L255.76918269038288,264.7486968692974L254.48359003229234,270.82862999171175L249.03872700979082,277.56592419200115L252.66863569145607,279.7624345018603L252.66863569145607,287.66810869276014L257.2816446410743,290.0831814780295L256.6766598607974,293.3760481505087L259.474714469583,295.86367493133366L257.3572677386128,300.4723805158046L260.3821916400011,306.61586681387416L269.23009405156336,309.76010409523224L269.6838326367706,309.9063371064176L265.97830085756686,314.2197879552177L265.52456227236326,313.8542729961209L264.84395439454784,313.2694368453076L265.1464467846872,312.31904602815575L261.7434073956265,310.19880030731565L261.51653810302014,310.34503049708655L261.2896688104156,310.19880030731565L256.8279060558689,313.8542729961209L255.16419791010594,313.3425421864631L254.55921312982537,315.6817890698703L251.00492754569314,314.0735826763248L246.99690337635548,319.55563782242916L243.14012540208205,317.509158374226L235.35094635600763,321.0903766852007L228.92298306555494,315.608691245282L222.26815048249955,315.17009936607974L221.73878879975564,321.7480902451416L215.08395621670024,322.4057848088287L214.630217631493,325.4017086226868L209.79033938927023,329.127795839996L209.10973151145663,335.4826569609986L205.177330439652,336.8702646505335L205.93356141499862,341.0325815150827L203.05988370867817,342.1278019187512L203.2867530012827,345.4131479761163L201.47179866044826,346.36215997270574L204.118607074166,350.2308009807193L202.15240653826368,353.66093489126797L206.0848076100683,354.60960448783135L203.89173778155964,355.0474387209706L203.2867530012827,358.0390816924901L192.17015766367695,352.8581837211359L187.93526420173657,357.67426812974827L185.13720959294915,352.93116226485927L181.65854710635176,357.3824130910707L181.053562326073,354.90149490794374L172.65939849971983,351.7634776104733L173.41562947506645,344.68311191690736L170.76882106135236,344.24507908060787L167.66827406242737,339.06105236291387L166.91204308708257,339.06105236291387L166.00456591666443,339.06105236291387L164.03836538076212,339.06105236291387L163.96274228322545,340.66749637081466L160.6353259917014,343.22296978846225L160.48407979662989,343.2959791122148L160.48407979662989,343.36898820253555L152.39240836041245,339.35314150151044L152.24116216534458,339.2801195673055L147.62815321572634,342.63888679474985L147.55253011819332,343.22296978846225L146.1913143625643,344.3910909595106L145.9644450699634,344.61010702760086L136.58718097565543,338.4038381327591L137.9483967312808,333.1454426718392L134.015995659478,332.0497910169752L132.5035337087811,327.59359841688365L132.42791061124808,327.4474789899841L133.48663397673408,326.5707427521047L143.99824453405927,317.28988180520173L144.45198311926652,316.85132232882006L145.4350833872195,313.56185680022827L141.0489437302058,307.49337213268427L141.35143612034517,301.935266054732L139.30961248690437,300.4723805158046L137.34341195100205,304.34882123449825L133.0328953915232,303.83687641105826L133.10851848905622,301.13069066912067L128.57113263697647,298.7899456361083L127.51240927149047,302.5203938889299L125.69745493065602,302.3741133434778L114.20274410537786,295.05888434355074L112.38778976454523,290.8149709398431L118.05952207964947,281.8855253306383L130.31046388027426,276.467589129863L133.41101087919924,272.29342979580906L125.24371634544877,266.94645170935837L118.51326066485672,267.1662154440528L106.79168054697584,259.6197710305387L102.10304849982458,262.184379461979L93.55763847839626,258.74040968721056L93.02827679565235,262.6239973959764L87.43216757808659,258.3739990235845L85.23909774957974,259.25337463098913L85.69283633478517,261.8912960879479L83.19727411614076,262.25764971154877L80.32359640982213,257.7877295977187L73.36627143662736,253.53682099689286L73.29064833909251,253.46352244994523L73.29064833909251,253.39022366498284L75.55934126513421,250.45807704734307L79.34049614186915,252.43731779899372L83.27289721367924,251.11784325298413L80.77733499502756,249.43173571376337L82.89478172600138,248.62529191027807L80.62608879996151,245.83917327511608L82.28979694572445,245.47255309304546L81.76043526298236,241.80602335208096L86.29782111506756,239.3857869626263L86.6003135052033,238.725677375769L88.18839855343322,227.50085296484667Z" class="sc-kAyceB dIJauC Tehri Garhwal mapstate" fill="rgb(18, 108, 189)" stroke-width="0.9px"></path><path d="M292.2951387996545,182.61891818109143L299.2524637728475,185.26584587629532L304.0167189175354,190.48525815341964L311.04966698826684,192.0287948486848L314.2258370847212,197.09966669812457L319.51945391215486,195.11554917366175L325.5693017149315,200.47961058924284L334.56845032156343,200.11225006786208L336.8371432476051,202.8305754185567L340.6182981243419,202.463253409981L343.34072963559265,203.34481612402215L344.92881468382257,203.78558448780132L346.44127663451764,213.18658098495234L355.28917904607806,219.72089237657747L356.12103311896135,221.99644238899782L355.44042524114957,227.42746968363008L353.9279632904527,230.8762252161323L352.7179937299006,232.3436204859845L347.34875380493213,233.8109201126872L347.0462614147964,233.8109201126872L347.0462614147964,233.88428258393287L344.7019453912162,240.41258566087345L338.7277206859744,239.09240731163482L334.79531961416797,240.92596746551226L334.71969651663494,245.83917327511608L331.4679033226421,248.33203247031997L330.03106446948186,256.8350093205763L323.9812166667016,259.91288387151235L318.99009222941095,267.092961103137L320.57817727764086,271.1948388338087L318.1582381565313,281.1534475226299L307.7222506967373,282.1783498299701L317.55325337625254,294.473564170944L314.5283294748606,300.7649651620786L319.7463232047612,302.00840785833134L313.0914906217022,304.34882123449825L307.04164281892554,303.5443313324449L306.3610349411101,311.149279731716L300.8405488210774,319.19020855759663L300.9161719186104,319.26329487985004L300.8405488210774,319.4094668204216L293.42948526267355,320.35956155796157L290.10206897114585,326.64380539368904L286.3209140944109,328.25112424429426L282.16164373000174,328.98168624901155L265.4489391748248,328.76252010637654L266.1295470526384,321.8942462341802L268.6251092712846,323.13653427000554L268.70073236881944,317.1436962521093L263.86085412659486,315.82798401455875L263.86085412659486,315.754886659628L265.52456227236326,313.8542729961209L265.97830085756686,314.2197879552177L269.6838326367706,309.9063371064176L269.23009405156336,309.76010409523224L260.3821916400011,306.61586681387416L257.3572677386128,300.4723805158046L259.474714469583,295.86367493133366L256.6766598607974,293.3760481505087L257.2816446410743,290.0831814780295L252.66863569145607,287.66810869276014L252.66863569145607,279.7624345018603L249.03872700979082,277.56592419200115L254.48359003229234,270.82862999171175L255.76918269038288,264.7486968692974L250.3999427654162,259.6197710305387L258.94535278683907,252.51061967854912L258.2647449090273,239.09240731163482L263.48273863892246,234.61789415045132L262.95337695617854,230.58273468231346L267.5663859057968,224.49194211807662L267.79325519840313,210.32263192240043L270.44006361212087,204.81401032280337L277.6998809754514,200.03877724127597L284.0522211683692,200.7734946727087L285.715929314134,196.73225078041105L289.34583799579923,196.58528272669355L291.31203853170155,192.3962879066603L290.8582999464961,185.41288823452032L292.74887738485995,183.4277348668029Z" class="sc-kAyceB dIJauC Rudraprayag mapstate" fill="rgb(18, 108, 189)" stroke-width="0.9px"></path><path d="M483.0922138797614,296.6684369820423L484.831545123061,292.86385583865194L485.1340375132004,285.76514286698693L493.225708949416,276.17469078066733L491.6376239011879,274.71014218534583L493.15008585187934,267.60573650604056L489.67142336528195,266.43366135515225L487.4027304392421,261.74475297542995L489.67142336528195,258.9602532323852L484.6802989279913,246.05914252338698L488.1589614145887,237.0386427768035L494.20880921736716,231.75667385692213L491.6376239011879,227.86776578061472L492.31823177899787,223.02403464240797L482.26035980687993,210.61638710122497L481.57975192906997,205.98929640722417L490.80576982830644,200.11225006786208L505.55227384757563,201.58165604181977L506.0060124327847,201.65512381292683L504.3423042870181,197.17314915885436L502.7542192387882,191.29379064263503L506.0060124327847,187.61840768644652L509.3334287243124,189.5296821177635L515.9882613073678,187.39786552062742L516.7444922827144,183.72184277571796L520.2231547693136,182.9130367228363L525.5167715967436,189.75020328401934L525.2142792066043,193.79270654293123L528.2392031079926,196.21785837556854L532.6253427650081,194.23366276512752L535.4990204713285,197.83448046414378L535.4233973737901,203.49173987433733L532.3228503748687,205.98929640722417L532.1716041797972,210.17575289152228L525.2899023041373,211.27732220042162L524.3068020361898,215.68305912110827L529.6004188636198,221.48262864922344L528.1635800104596,235.05804961858212L532.7009658625411,235.71826669070106L536.5577438368146,239.60581919403467L548.7330625399009,239.53247535563696L555.0097796352857,249.7982915496068L558.7909345120206,248.03876921782285L562.7989586813637,250.38476850034294L569.2269219718128,248.9185475379527L574.5961618967776,255.22262189194953L585.334641746711,257.56787463947967L593.8044286706008,266.5801740716324L607.1140938367116,261.1585710213376L608.2484402997325,264.2358566620096L610.4415101282375,263.28340826273325L623.5999290992804,274.4904517227851L627.3054608784805,273.75813477933934L632.5234546083793,277.85880454370727L642.9594420681697,288.473161535695L646.362481457234,295.49786456574384L658.3865539652543,297.69263832727756L662.5458243296634,301.0575460388782L667.3100794743514,300.10664440674554L672.7549424968511,309.54075281493897L685.5352459802198,308.51708552309265L692.0388323682037,313.2694368453076L690.9801090027177,317.8015238466187L694.6856407819196,321.8942462341802L691.3582244903955,325.1825080453182L684.5521457122686,327.30135862615407L680.4684984453925,325.84010345046045L671.3181036436908,329.93138184981217L668.8981645225795,326.93605361734444L669.5787724003931,320.5057264600264L667.0832101817487,318.89786092202485L658.0840615751149,331.1732317861879L661.0333623789684,340.66749637081466L654.2272836008415,343.73403015290205L652.9416909427546,347.67611150301855L648.7067974808069,347.96809047031275L637.968317630879,358.84165105565353L634.4140320467468,369.34541924359564L629.4229076094525,370.2205158583274L620.7262513929581,380.20883526830403L611.5002334937235,378.67806127732L606.0553704712256,380.2817267205146L600.156768863515,389.3913359893886L596.3756139867783,405.1242343383874L587.0739729900088,411.3124730740392L584.351541478758,417.7173696214668L572.705584458412,415.3885222400404L567.1094752408426,417.79014231208475L565.2188978024733,425.93923123898276L558.8665576095555,430.15816462604926L563.7064358517782,447.0988809238552L568.8488064841404,450.5146039987121L569.7562836545549,455.74622435747006L566.882605948238,459.52388248018724L567.3363445334435,463.4461838604702L561.5133660232732,471.4340067811072L554.6316641476133,473.53942971304696L553.9510562697978,476.0802033084683L557.2028494637907,478.330370820222L554.0266793673345,483.0477570439407L548.6574394423678,485.51493183567345L548.1280777596257,489.4328483608151L545.1031538582374,488.27205295703607L542.7588378346591,491.1739329560778L545.7081386385125,496.9040839263016L540.7170142012219,495.3810167632464L540.0364063234083,497.33922768963475L534.213427813238,498.49957134106444L522.3406015002838,495.3084872722011L517.8788387457371,491.31901746268795L515.6101458196954,492.116966092296L510.84589067500565,485.6600516175604L507.29160509087524,480.7254711146743L506.91348960320283,480.4351690674612L505.24978145743626,480.4351690674612L500.9392648979574,480.50774491903667L500.636772507818,480.50774491903667L500.48552631274833,480.2174401535831L499.0486874595881,476.95126173594144L485.5121530008728,471.79702435064974L483.3947062699008,459.3785993185502L477.42048156465535,449.4972072610217L477.2692353695893,446.4447488008973L476.0592658090318,443.8280354241979L474.54680385833854,442.7376508492953L467.58947888514376,439.2480747992713L463.5058316182676,438.59372067105505L463.65707781333913,437.3576679030966L463.73270091087215,436.7032602720237L463.808324008407,435.9761189545234L459.3465612538603,430.59456202366255L452.16236698806097,427.97605394224047L449.8180509644844,422.66538960486014L450.2717895496917,421.50124508735007L450.498658842298,420.84638798161905L450.57428193983105,420.7008616558833L459.649053643996,423.9749819873068L466.53075551965594,416.84407941934114L467.51385578761074,418.95447413092734L471.8999954446226,418.8089358682819L471.97561854215746,424.19324015935854L483.16783697729807,424.6297503114656L485.7390222934773,423.3929501036164L486.3440070737561,421.57400584057723L493.15008585187934,419.3910834085864L492.24260868146484,415.1701807364716L492.1669855839318,415.0246185851529L489.44455407267924,414.0056577869145L489.5958002677489,409.85656647425094L484.37780653785376,406.0707785734212L481.05039024632606,406.87167022533504L481.2772595389306,404.39609690472753L486.9489918540312,404.6873546419747L488.2345845121217,396.31222376104506L496.32625594833917,392.8156146229394L502.7542192387882,396.4579042686246L507.14035889580555,391.94137922423306L515.3832765270909,393.90836211141504L517.3494770629932,392.3785010804877L513.3414528936519,383.8531243022244L503.81294260427603,377.5116887232025L499.1243105571248,365.9905725387016L502.60297304372034,355.923082042621L502.1492344585131,344.53710190492984L506.45975101799195,336.06692311698407L508.87969013910333,317.94770517445977L501.16613419056193,315.3893963624878L500.2586570201438,309.54075281493897L497.7630948014976,307.7127431690351L499.1999336546578,305.2995453043022L493.9819399247626,302.9592298733405L490.65452363323493,297.7657937979757L484.9827913181307,297.3268574374579L483.0165907822284,297.1805434311782Z" class="sc-kAyceB dIJauC Pithoragarh mapstate" fill="rgb(18, 108, 189)" stroke-width="0.9px"></path><path d="M380.01793193993217,375.10585799197906L382.5134941585784,364.9694346989727L395.21817454441407,371.3143396355208L407.69598563763975,365.6988235161152L429.7779301177834,370.00174483768933L441.27264094306156,368.9807857900969L448.2299659162545,365.1153143208812L448.9105737940681,359.35236235766934L451.48175911024737,356.7257256401663L447.8518504285821,352.7122259348607L443.3900876740354,351.7634776104733L441.12139474799005,347.7491065946351L442.02887191840637,344.24507908060787L438.24771704167324,339.5722059023756L442.1044950159412,335.1174830144091L442.1801181134779,328.5433518562568L445.9612729902128,321.1634569078078L450.04492025708714,317.94770517445977L445.8100267951413,305.3726762774222L454.5066830116357,303.6906043426352L460.32966152181143,307.63961972548987L471.97561854215746,301.35012314642063L476.66425058931054,303.25178248661905L477.6473508572617,302.8129521538358L478.63045112521286,302.3741133434778L481.05039024632606,301.2038350637895L481.57975192906997,299.960348313768L483.0922138797614,296.6684369820423L483.0165907822284,297.1805434311782L484.9827913181307,297.3268574374579L490.65452363323493,297.7657937979757L493.9819399247626,302.9592298733405L499.1999336546578,305.2995453043022L497.7630948014976,307.7127431690351L500.2586570201438,309.54075281493897L501.16613419056193,315.3893963624878L508.87969013910333,317.94770517445977L506.45975101799195,336.06692311698407L502.1492344585131,344.53710190492984L502.60297304372034,355.923082042621L499.1243105571248,365.9905725387016L503.81294260427603,377.5116887232025L513.3414528936519,383.8531243022244L517.3494770629932,392.3785010804877L515.3832765270909,393.90836211141504L507.14035889580555,391.94137922423306L502.7542192387882,396.4579042686246L496.32625594833917,392.8156146229394L488.2345845121217,396.31222376104506L486.9489918540312,404.6873546419747L481.2772595389306,404.39609690472753L481.05039024632606,406.87167022533504L484.37780653785376,406.0707785734212L489.5958002677489,409.85656647425094L489.44455407267924,414.0056577869145L492.1669855839318,415.0246185851529L492.24260868146484,415.1701807364716L493.15008585187934,419.3910834085864L486.3440070737561,421.57400584057723L485.7390222934773,423.3929501036164L483.16783697729807,424.6297503114656L471.97561854215746,424.19324015935854L471.8999954446226,418.8089358682819L467.51385578761074,418.95447413092734L466.53075551965594,416.84407941934114L459.649053643996,423.9749819873068L450.57428193983105,420.7008616558833L450.498658842298,420.84638798161905L450.2717895496917,421.50124508735007L449.8180509644844,422.66538960486014L452.16236698806097,427.97605394224047L459.3465612538603,430.59456202366255L463.808324008407,435.9761189545234L463.73270091087215,436.7032602720237L462.14461586264224,436.5578338383111L460.9346463020902,435.9761189545234L446.5662577704916,435.83068794619703L437.3402398712533,439.32077967056466L424.93805187556063,424.4114962673757L426.37489072872086,417.135179828364L423.42558992486374,414.07844219497383L427.2067448016005,410.5117358302632L419.72005814566364,406.50763201879L413.8214565379549,407.09009038673776L412.68711007493584,405.0514216314159L407.77160873517823,407.0172838964745L400.6630375669156,401.77461140161995L397.63811366552545,402.79411346833695L387.2021262057315,399.5169817757678L384.4796946944807,394.2725997305397L383.11847893885715,381.0106285079637L382.8159865487178,378.24067851927157L382.6647403536499,376.5639673500891L382.58911725611324,376.1265442769991L381.22790150048786,375.83492425977875Z" class="sc-kAyceB dIJauC Bageshwar mapstate" fill="rgb(18, 108, 189)" stroke-width="0.9px"></path><path d="M77.67678799610621,314.65839815429626L76.84493392322474,317.0706031234331L86.6003135052033,329.6391720330612L92.80140750305145,346.43515926253167L99.60748628117653,352.93116226485927L99.53186318363987,360.66556765728274L105.5060878888853,363.87530791115114L104.90110310860655,367.7409886386504L111.63155878919679,370.0746687432984L115.41271366593537,377.8032874217006L120.02572261555179,378.67806127732L123.50438510214735,370.94973751049747L125.24371634544877,373.1372632684788L123.12626961447495,379.115435696649L126.07557041833206,378.1677805821664L126.07557041833206,378.1677805821664L135.67970380524093,386.5495257724242L140.67082824253157,388.22550766406675L139.00712009676863,392.45135391488566L148.7624996787472,402.1387244675252L152.01429287274004,416.6985278366019L152.7705238480885,417.0624050706547L152.84614694562333,417.2807286547186L137.64590434114143,430.66729412169025L126.45368590600265,430.95822022371976L124.86560085777455,441.2110261042517L120.02572261555179,441.42912152177996L111.78280498426648,450.4419342853889L101.95180230475307,454.4384300094671L103.01052567023908,456.7633467211608L97.18754716006697,455.4556097691175L95.44821591676555,459.16067286928956L89.32274501645588,462.9377747996614L89.77648360166131,466.78688058280204L84.70973606683765,463.518812816792L79.11362684926462,467.07735322463304L72.30754807114135,462.4293545965056L75.33247197252967,458.6521698554243L81.23107358023844,459.45124101314923L82.36542004325747,452.4766000802392L82.44104314079232,452.2586087219888L78.96238065419675,451.0232856077382L79.64298853200853,447.2442411076863L73.66876382676492,440.411325312738L75.63496436266723,438.44830612790247L76.31557224048083,437.79392936657223L75.40809507006452,437.57579966382673L71.09757851058566,436.3396924723593L68.22390080426521,440.484026527236L62.2496760990216,438.95725302825394L60.66159105079532,442.4468729504115L58.24165192968212,441.9380028330215L52.569919614577884,446.154017479349L49.84748810332894,445.5725438807531L49.77186500579592,445.5725438807531L45.46134844631342,442.66495671719167L47.80566446988814,438.95725302825394L40.16773161888159,435.6852560228672L42.20955525232057,431.1764123957664L39.56274683860465,429.0671350569719L41.7558166671115,424.55699919275867L40.621470204090656,418.5178565876622L36.00846125447242,414.0056577869145L37.52092320516931,412.1859728750196L33.73976832843255,408.4733699684966L34.042260718571924,404.54172623400245L29.504874866484897,402.21154638935604L28.89989008620978,401.04636798446063L28.748643891138272,398.2788327505041L28.89989008620978,396.89494025389286L35.2522302791258,390.84853820549506L31.773567792526592,386.11229298956096L35.32785337666064,381.52084598392867L32.378552572808985,380.5003996878577L38.05028488791322,368.17857176502366L42.05830905725088,366.06350921365265L39.940862326277056,359.2794042980977L45.91508703152067,348.26006570660775L51.28432695648735,350.5227473098066L53.02365819978513,346.43515926253167L57.78791334447487,344.17207279109516L68.07265460919734,328.1780667558387L69.4338703648209,321.52885450265967Z" class="sc-kAyceB dIJauC Haridwar mapstate" fill="rgb(18, 108, 189)" stroke-width="0.9px"></path><path d="M300.9161719186104,319.26329487985004L305.9072963559047,321.52885450265967L305.15106538055625,324.8902373279652L313.54522920691306,332.78023130269776L313.2427368167737,335.3365880838519L312.56212893895827,343.00394041664003L315.88954523048596,344.4640965489025L317.7044995713204,348.8440049871406L324.1324628617731,350.8146899099629L324.28370905684096,350.8876749773917L326.2499095927433,355.7771438170257L323.52747808149434,361.61394684831066L323.4518549839577,361.7598478516102L329.1992103965986,365.1153143208812L330.6360492497606,375.3974872806366L331.694772615243,375.9807347319238L331.61914951770814,378.0219840129748L332.072888102919,378.89674952927817L331.4679033226421,381.1564060871815L331.08978783496786,382.6141309529112L331.0141647374312,382.97854770368394L324.1324628617731,383.1971949771578L321.0319158628481,391.649960034224L317.40200718118103,389.82850635864907L305.4535577706956,394.9282129021394L302.579880064377,396.16654233049576L299.4793330654502,401.1920185117924L299.2524637728475,401.77461140161995L299.1012175777778,402.06590231525115L306.3610349411101,407.8909465874449L307.7222506967373,408.98297834516416L308.93222025729483,412.84107599602703L310.5203053055229,418.1540023203752L311.04966698826684,420.0459818288109L310.97404389072835,420.26427717027855L310.2934360129166,421.57400584057723L309.68845123264146,422.8109035398038L309.23471264743057,422.73814668704017L307.4953814041346,422.22884229400097L307.3441352090649,430.59456202366255L309.7640743301745,435.1762370850811L309.91532052524417,435.32167221117925L309.8396974277093,435.3943894310569L306.58790423371465,439.75700409832825L308.93222025729483,443.46457960861426L307.11726591645856,447.7529945636343L306.73915042878616,448.62511733631254L306.5122811361816,448.0437058046873L305.30231157562594,445.5725438807531L304.99981918548474,445.86328250604765L304.4704575027463,446.4447488008973L302.2773876742358,450.73261177060704L301.7480259914955,452.62192651280657L304.5460806002793,456.18213940743954L301.82364908903037,458.87010108409413L299.1012175777778,457.78042445494793L297.81562491968907,465.2618395671425L287.45526055743176,465.77019770736206L285.33781382645975,471.216193515761L286.92589887468966,473.0312416497309L279.6660815113537,477.169021241928L276.1117959272233,495.0183670501783L270.8938021973245,499.73237318413976L269.8350788318385,500.6025470012846L245.6356876207301,493.6402466554382L234.6703384781922,485.36981114871287L227.86425970006894,485.4423716053325L226.5786670419784,484.28137714443346L225.74681296909876,484.20881306698084L211.07593204736077,472.8860430182476L209.03410841391997,472.0148321689221L206.84103858541494,469.61883381040843L192.62389624888783,454.0751407029502L192.24578076121543,453.6391860164331L189.97708783517191,449.2065142688389L188.31337968940898,434.23088645761527L187.93526420173657,433.79455774043345L160.10596430895748,420.55533441210537L152.7705238480885,417.0624050706547L152.01429287274004,416.6985278366019L148.7624996787472,402.1387244675252L139.00712009676863,392.45135391488566L140.67082824253157,388.22550766406675L135.67970380524093,386.5495257724242L126.07557041833206,378.1677805821664L126.07557041833206,378.1677805821664L131.9741720260372,372.0435264857533L131.1423179531539,366.7199288365464L134.69660353728614,366.28231784491254L135.15034212249702,362.489338919424L141.88079780308908,356.28792353296376L143.9226214365226,347.2381360559357L147.1744146305191,345.6321542440246L147.2500377280503,345.0481328632113L146.1913143625643,344.3910909595106L147.55253011819332,343.22296978846225L147.62815321572634,342.63888679474985L152.24116216534458,339.2801195673055L152.39240836041245,339.35314150151044L160.48407979662989,343.36898820253555L160.48407979662989,343.2959791122148L160.6353259917014,343.22296978846225L163.96274228322545,340.66749637081466L164.03836538076212,339.06105236291387L166.00456591666443,339.06105236291387L166.91204308708257,339.06105236291387L167.66827406242737,339.06105236291387L170.76882106135236,344.24507908060787L173.41562947506645,344.68311191690736L172.65939849971983,351.7634776104733L181.053562326073,354.90149490794374L181.65854710635176,357.3824130910707L185.13720959294915,352.93116226485927L187.93526420173657,357.67426812974827L192.17015766367695,352.8581837211359L203.2867530012827,358.0390816924901L203.89173778155964,355.0474387209706L206.0848076100683,354.60960448783135L202.15240653826368,353.66093489126797L204.118607074166,350.2308009807193L201.47179866044826,346.36215997270574L203.2867530012827,345.4131479761163L203.05988370867817,342.1278019187512L205.93356141499862,341.0325815150827L205.177330439652,336.8702646505335L209.10973151145663,335.4826569609986L209.79033938927023,329.127795839996L214.630217631493,325.4017086226868L215.08395621670024,322.4057848088287L221.73878879975564,321.7480902451416L222.26815048249955,315.17009936607974L228.92298306555494,315.608691245282L235.35094635600763,321.0903766852007L243.14012540208205,317.509158374226L246.99690337635548,319.55563782242916L251.00492754569314,314.0735826763248L254.55921312982537,315.6817890698703L255.16419791010594,313.3425421864631L256.8279060558689,313.8542729961209L261.2896688104156,310.19880030731565L261.51653810302014,310.34503049708655L261.7434073956265,310.19880030731565L265.1464467846872,312.31904602815575L264.84395439454784,313.2694368453076L265.52456227236326,313.8542729961209L263.86085412659486,315.754886659628L263.86085412659486,315.82798401455875L268.70073236881944,317.1436962521093L268.6251092712846,323.13653427000554L266.1295470526384,321.8942462341802L265.4489391748248,328.76252010637654L282.16164373000174,328.98168624901155L286.3209140944109,328.25112424429426L290.10206897114585,326.64380539368904L293.42948526267355,320.35956155796157L300.8405488210774,319.4094668204216Z" class="sc-kAyceB dIJauC Pauri Garhwal mapstate" fill="rgb(18, 108, 189)" stroke-width="0.9px"></path><path d="M331.694772615243,375.9807347319238L333.2828576634729,376.7826757581197L342.5844986602424,381.52084598392867L342.13076007503696,387.49683491238375L350.6761700964598,386.6952681834764L352.7179937299006,383.48872143550034L350.6761700964598,376.63687038449825L353.47422470524543,376.63687038449825L360.4315496784402,387.2053593387236L366.63264367628835,383.6344832763252L370.565044748093,385.45642820528246L379.63981645225795,375.4703940233012L380.01793193993217,375.10585799197906L381.22790150048786,375.83492425977875L382.58911725611324,376.1265442769991L382.6647403536499,376.5639673500891L382.8159865487178,378.24067851927157L383.11847893885715,381.0106285079637L384.4796946944807,394.2725997305397L387.2021262057315,399.5169817757678L397.63811366552545,402.79411346833695L400.6630375669156,401.77461140161995L407.77160873517823,407.0172838964745L412.68711007493584,405.0514216314159L413.8214565379549,407.09009038673776L419.72005814566364,406.50763201879L427.2067448016005,410.5117358302632L423.42558992486374,414.07844219497383L426.37489072872086,417.135179828364L424.93805187556063,424.4114962673757L437.3402398712533,439.32077967056466L446.5662577704916,435.83068794619703L460.9346463020902,435.9761189545234L462.14461586264224,436.5578338383111L463.73270091087215,436.7032602720237L463.65707781333913,437.3576679030966L463.5058316182676,438.59372067105505L467.58947888514376,439.2480747992713L474.54680385833854,442.7376508492953L476.0592658090318,443.8280354241979L477.2692353695893,446.4447488008973L477.42048156465535,449.4972072610217L483.3947062699008,459.3785993185502L485.5121530008728,471.79702435064974L499.0486874595881,476.95126173594144L500.48552631274833,480.2174401535831L500.636772507818,480.50774491903667L500.9392648979574,480.50774491903667L501.2417572880968,480.7254711146743L497.9143409965691,482.176926993764L490.65452363323493,485.4423716053325L477.04236607698294,491.4641010653768L477.87422014986623,486.8209772934897L476.2861351016363,485.6600516175604L474.8492962484779,490.81121773473933L471.06814137174115,491.82680611765863L467.58947888514376,487.8367397567781L463.0520930330622,489.28775210066306L457.9853454982349,497.26670429329806L455.79227566972804,496.46893203772015L455.33853708451716,501.110133397332L452.01112079298946,502.4153048258768L451.48175911024737,502.6328262957786L441.27264094306156,496.68650899771455L438.3989632367393,500.8200853811941L432.8028540191717,501.2551560524307L430.9878996783391,497.7743633285081L432.4247385314975,494.3655833412713L427.6604833868114,494.8007745128298L423.57683611993525,491.53664252776707L421.61063558403293,479.2739246328483L415.2582953911151,474.5557724917253L412.0821252946571,475.78984324398607L409.88905546615206,472.66824336928585L400.0580527866332,476.44314828747974L395.74753622715616,476.2253819802663L395.5962900320865,473.75722119427337L391.1345272775379,474.2653933774018L389.0170805465659,482.757483983115L385.9165335476446,486.24052169494644L382.05975557337115,486.31307943654156L361.71714233653074,465.2618395671425L355.66729453375046,463.8819541879893L355.3648021436111,460.97666403692347L352.8692399249667,459.81444607269805L352.79361682743365,459.88708640194363L343.1138603429863,464.82609515456534L342.96261414791843,467.51305537180815L329.50170278673795,480.2174401535831L315.9651683280226,476.58832469201843L315.0576911576045,476.3705597451335L313.8477215970488,473.3942342579112L307.41975830659794,475.3542963446016L307.64662759920066,472.0874343211235L301.0674181136801,466.64164289868586L293.05136977500115,466.0606830735469L297.81562491968907,465.2618395671425L299.1012175777778,457.78042445494793L301.82364908903037,458.87010108409413L304.5460806002793,456.18213940743954L301.7480259914955,452.62192651280657L302.2773876742358,450.73261177060704L304.4704575027463,446.4447488008973L304.99981918548474,445.86328250604765L305.30231157562594,445.5725438807531L306.5122811361816,448.0437058046873L306.73915042878616,448.62511733631254L307.11726591645856,447.7529945636343L308.93222025729483,443.46457960861426L306.58790423371465,439.75700409832825L309.8396974277093,435.3943894310569L309.91532052524417,435.32167221117925L309.7640743301745,435.1762370850811L307.3441352090649,430.59456202366255L307.4953814041346,422.22884229400097L309.23471264743057,422.73814668704017L309.68845123264146,422.8109035398038L310.2934360129166,421.57400584057723L310.97404389072835,420.26427717027855L311.04966698826684,420.0459818288109L310.5203053055229,418.1540023203752L308.93222025729483,412.84107599602703L307.7222506967373,408.98297834516416L306.3610349411101,407.8909465874449L299.1012175777778,402.06590231525115L299.2524637728475,401.77461140161995L299.4793330654502,401.1920185117924L302.579880064377,396.16654233049576L305.4535577706956,394.9282129021394L317.40200718118103,389.82850635864907L321.0319158628481,391.649960034224L324.1324628617731,383.1971949771578L331.0141647374312,382.97854770368394L331.08978783496786,382.6141309529112L331.4679033226421,381.1564060871815L332.072888102919,378.89674952927817L331.61914951770814,378.0219840129748Z" class="sc-kAyceB dIJauC Almora mapstate" fill="rgb(18, 108, 189)" stroke-width="0.9px"></path><path d="M270.8938021973245,499.73237318413976L276.1117959272233,495.0183670501783L279.6660815113537,477.169021241928L286.92589887468966,473.0312416497309L285.33781382645975,471.216193515761L287.45526055743176,465.77019770736206L297.81562491968907,465.2618395671425L293.05136977500115,466.0606830735469L301.0674181136801,466.64164289868586L307.64662759920066,472.0874343211235L307.41975830659794,475.3542963446016L313.8477215970488,473.3942342579112L315.0576911576045,476.3705597451335L315.9651683280226,476.58832469201843L329.50170278673795,480.2174401535831L342.96261414791843,467.51305537180815L343.1138603429863,464.82609515456534L352.79361682743365,459.88708640194363L352.8692399249667,459.81444607269805L355.3648021436111,460.97666403692347L355.66729453375046,463.8819541879893L361.71714233653074,465.2618395671425L382.05975557337115,486.31307943654156L385.9165335476446,486.24052169494644L389.0170805465659,482.757483983115L391.1345272775379,474.2653933774018L395.5962900320865,473.75722119427337L395.74753622715616,476.2253819802663L400.0580527866332,476.44314828747974L409.88905546615206,472.66824336928585L412.0821252946571,475.78984324398607L415.2582953911151,474.5557724917253L421.61063558403293,479.2739246328483L423.57683611993525,491.53664252776707L427.6604833868114,494.8007745128298L432.4247385314975,494.3655833412713L430.9878996783391,497.7743633285081L432.8028540191717,501.2551560524307L438.3989632367393,500.8200853811941L441.27264094306156,496.68650899771455L451.48175911024737,502.6328262957786L452.01112079298946,502.4153048258768L455.33853708451716,501.110133397332L456.92662213274707,500.96510984025826L452.31361318312884,509.0125539218834L457.531606913024,513.143947121479L457.22911452288645,515.3905383792953L464.03519330101153,515.4630054679392L465.62327834924145,520.3902403521924L459.8759229366042,521.1147461219307L457.22911452288645,528.9379786770269L452.01112079298946,526.1132242545045L452.0867438905261,522.7085797968857L444.3731879419829,523.070799573311L449.2886892817405,529.5897966664998L448.07871972118664,533.138265150169L449.439935476812,537.989382665045L456.85099903521404,536.7585972009565L459.3465612538603,540.5231492244138L466.9844941048668,542.9118783113163L470.9925182742063,551.0896235895998L465.77452454431295,558.4688596588603L461.76650037496984,560.4217989509607L461.2371386922259,563.9656077619447L467.74072508021345,570.6901442078606L473.86619598052494,569.7502707732137L480.5966516611152,572.5697785061338L480.52102856358215,572.6420691361773L480.29415927097943,573.1480973320076L476.4373812967078,581.3875981876108L478.63045112521286,586.2287683083659L479.91604378330703,587.3847216626391L480.1429130759079,587.6014566111371L468.11884056788585,592.5135816110705L464.8670473738948,601.6127603572395L461.5396310823653,601.6127603572395L460.8590232045535,605.0781928497499L457.1534914253516,597.1358246593036L448.00309662365,603.5621286292835L448.15434281871967,601.8293647696992L444.2975648444499,600.5297085215698L446.9443732581658,596.4136588088622L445.7344036976083,594.3914769589728L440.3651637726434,594.3192529762637L438.47458633427414,591.6468103025336L434.9203007501419,594.2470287726728L427.7361064843426,593.0191835124215L422.21562036430987,585.7230209033132L416.0145263664617,582.3992681233294L411.17464812423896,588.6851014912118L368.8257135047934,588.3238920608756L372.758114576598,581.026276974465L362.3977502143425,567.1473484266871L341.07203670955096,545.3003640943225L312.56212893895827,537.1205996366152L307.26851211152825,541.6813512960789L300.8405488210774,536.4689912254207L294.0344700429523,541.8985078148862L288.13586843524354,533.7899662164155L291.5389078243079,530.1691751974868L289.4214610933341,525.6061809522289L276.94365000010293,527.3445693867207L271.120671489929,521.984123412115L270.8938021973245,521.984123412115L261.970276688231,520.3902403521924L259.39909137204813,519.9555261129108L255.6935595928444,520.5351433022997L256.07167508052225,517.5644532741962L260.0040761523269,517.1296864749065L261.2140457128844,514.2310343881936L266.1295470526384,511.9118537140166L270.81817909979327,502.56031936456657L274.29684158638884,500.5300337569561Z" class="sc-kAyceB dIJauC Nainital mapstate" fill="rgb(18, 108, 189)" stroke-width="0.9px"></path><path d="M500.9392648979574,480.50774491903667L505.24978145743626,480.4351690674612L506.91348960320283,480.4351690674612L507.29160509087524,480.7254711146743L510.84589067500565,485.6600516175604L515.6101458196954,492.116966092296L517.8788387457371,491.31901746268795L522.3406015002838,495.3084872722011L534.213427813238,498.49957134106444L534.213427813238,505.96790151512505L540.641391103687,510.4622488233954L539.9607832258753,516.9847624109416L549.3380473201796,530.9657972647401L546.6912389064655,534.3692408297793L543.8175612001469,546.7478128775265L544.0444304927496,555.0689114368615L537.389597909696,552.7537714521704L536.4821207392761,549.5700812047435L534.4402971058407,551.4514048982692L533.9109354230986,554.1284133428517L537.3139748121594,557.1668099613389L539.8851601283422,568.015021200842L532.3984734724017,572.8589396946018L522.4918476953553,568.8826619809615L518.7863159161534,571.3408038331409L514.5514224542094,576.6899902859586L511.52649855282107,585.9397711189795L513.2658297961189,586.3732655753347L510.61902138240293,597.496899306213L512.812091210908,598.4356675637227L509.25780562677573,604.3562696284534L505.77914314018017,603.1289495697292L500.3342801176823,614.1725385691652L500.4099032152153,613.6673887997758L501.0905110930271,612.2962136687811L500.4099032152153,611.6466819400976L497.9143409965691,609.4092695462641L497.53622550889486,609.0483767690157L497.4606024113582,608.831838460711L496.0237635581998,603.2011466307704L497.3093562162903,599.0855622013787L488.6883230973326,578.9305047048092L488.6126999997996,578.8582333713575L487.1002380491027,583.1941211912444L479.91604378330703,587.3847216626391L478.63045112521286,586.2287683083659L476.4373812967078,581.3875981876108L480.29415927097943,573.1480973320076L480.52102856358215,572.6420691361773L480.5966516611152,572.5697785061338L473.86619598052494,569.7502707732137L467.74072508021345,570.6901442078606L461.2371386922259,563.9656077619447L461.76650037496984,560.4217989509607L465.77452454431295,558.4688596588603L470.9925182742063,551.0896235895998L466.9844941048668,542.9118783113163L459.3465612538603,540.5231492244138L456.85099903521404,536.7585972009565L449.439935476812,537.989382665045L448.07871972118664,533.138265150169L449.2886892817405,529.5897966664998L444.3731879419829,523.070799573311L452.0867438905261,522.7085797968857L452.01112079298946,526.1132242545045L457.22911452288645,528.9379786770269L459.8759229366042,521.1147461219307L465.62327834924145,520.3902403521924L464.03519330101153,515.4630054679392L457.22911452288645,515.3905383792953L457.531606913024,513.143947121479L452.31361318312884,509.0125539218834L456.92662213274707,500.96510984025826L455.33853708451716,501.110133397332L455.79227566972804,496.46893203772015L457.9853454982349,497.26670429329806L463.0520930330622,489.28775210066306L467.58947888514376,487.8367397567781L471.06814137174115,491.82680611765863L474.8492962484779,490.81121773473933L476.2861351016363,485.6600516175604L477.87422014986623,486.8209772934897L477.04236607698294,491.4641010653768L490.65452363323493,485.4423716053325L497.9143409965691,482.176926993764L501.2417572880968,480.7254711146743Z" class="sc-kAyceB dIJauC Champawat mapstate" fill="rgb(18, 108, 189)" stroke-width="0.9px"></path><path d="M255.6935595928444,520.5351433022997L259.39909137204813,519.9555261129108L261.970276688231,520.3902403521924L270.8938021973245,521.984123412115L271.120671489929,521.984123412115L276.94365000010293,527.3445693867207L289.4214610933341,525.6061809522289L291.5389078243079,530.1691751974868L288.13586843524354,533.7899662164155L294.0344700429523,541.8985078148862L300.8405488210774,536.4689912254207L307.26851211152825,541.6813512960789L312.56212893895827,537.1205996366152L341.07203670955096,545.3003640943225L362.3977502143425,567.1473484266871L372.758114576598,581.026276974465L368.8257135047934,588.3238920608756L411.17464812423896,588.6851014912118L416.0145263664617,582.3992681233294L422.21562036430987,585.7230209033132L427.7361064843426,593.0191835124215L434.9203007501419,594.2470287726728L438.47458633427414,591.6468103025336L440.3651637726434,594.3192529762637L445.7344036976083,594.3914769589728L446.9443732581658,596.4136588088622L444.2975648444499,600.5297085215698L448.15434281871967,601.8293647696992L448.00309662365,603.5621286292835L457.1534914253516,597.1358246593036L460.8590232045535,605.0781928497499L461.5396310823653,601.6127603572395L464.8670473738948,601.6127603572395L468.11884056788585,592.5135816110705L480.1429130759079,587.6014566111371L479.91604378330703,587.3847216626391L487.1002380491027,583.1941211912444L488.6126999997996,578.8582333713575L488.6883230973326,578.9305047048092L497.3093562162903,599.0855622013787L496.0237635581998,603.2011466307704L497.4606024113582,608.831838460711L497.53622550889486,609.0483767690157L497.9143409965691,609.4092695462641L500.4099032152153,611.6466819400976L501.0905110930271,612.2962136687811L500.4099032152153,613.6673887997758L497.4606024113582,619.367739550531L498.6705719719139,637.4698917027654L496.0237635581998,641.1463316383933L499.27555675219446,645.1825519654676L497.9899640941021,649.650425591486L491.6376239011879,657.5032028450041L476.51300439424085,663.409090909091L473.4124573953195,657.1430403673776L474.319934565734,654.9819511324831L470.4631565914642,651.9560966844492L473.6393266879222,648.6416242406376L465.9257707393808,649.9386466939195L460.25403842427477,646.4076975910839L459.5734305464648,643.8852701539672L461.3127617897626,642.4437629023078L468.7238253481628,644.8222030055722L468.57257915309674,641.5788165948161L464.4889318862224,641.1463316383933L463.2789623256649,637.4698917027654L461.3127617897626,638.9117006485812L458.28783788837427,636.6047643321936L454.8847984993099,640.4975894482941L455.48978327958866,645.9032335057555L447.3981118433712,645.8311663344257L448.9105737940681,641.9392147143199L450.498658842298,644.1735611171971L453.0698441584773,638.4070774700649L450.42303574475955,636.8931436231678L452.99422106094426,636.6768594831592L451.78425150038674,633.2160453498554L453.7504520362909,634.9465154593017L455.5654063771217,632.2786547115784L454.58230610917417,628.6729610639813L452.2379900855958,629.6826105060181L449.5911816718799,625.9322674046671L449.36431237927354,625.8601396110507L448.30558901378936,625.8601396110507L445.5831575025404,625.8601396110507L445.2050420148662,626.2929030827081L442.33136430854756,629.538377501538L435.4496624328858,629.3941436203995L434.76905455507404,632.1344374819928L430.9122765808024,631.9181099948282L426.979875508996,636.460573373819L422.21562036430987,633.360256009264L422.36686655937774,633.1439396916803L416.8463804393432,629.8989583690891L402.55361500528124,635.2349148845733L400.3605451767762,633.360256009264L402.4779919077464,627.7353909689655L396.95750578771185,623.1191208888922L390.0001808145189,631.0527803310479L378.95920857444617,629.8268426338836L376.0099077705927,629.4662606705488L375.25367679524425,630.1874191184979L370.7919140406957,630.6201036687489L370.7919140406957,630.6201036687489L370.7919140406957,630.4758763618111L371.8506374061835,626.004394978937L371.01878333330205,624.8503274679415L370.0356830653491,623.6240691977891L371.1700295283681,620.0892051519331L371.1700295283681,620.0892051519331L367.2376284565653,611.1414782735801L362.7002426044819,611.1414782735801L360.1290572883008,602.9845547862697L358.08723365486367,604.3562696284534L358.61659533760576,607.3881990937016L348.0293616827439,605.3669559679956L347.1218845123276,607.8213001528638L337.5177511254187,601.8293647696992L335.85404297965397,597.7857550505578L327.9892408360429,593.8136789122918L319.89756939982544,597.4246848183093L318.1582381565313,593.4525479535914L320.6538003751757,589.5519815661437L314.1502139871882,584.7837469513534L316.34328381569503,573.7986890337143L309.68845123264146,570.2563611322967L308.0247430868785,570.8347367899505L292.9757466774663,561.4343702617352L291.46328472677124,562.5915412162458L293.5051083602084,563.893290471703L293.202615970069,566.7858086599781L293.1269928725378,567.002733186695L289.4214610933341,564.9780264770252L289.1945918007277,566.2796436523477L289.04334560566167,569.6056715289542L293.73197765281293,570.9070327479303L293.73197765281293,570.9070327479303L293.80760075034596,570.9070327479303L293.6563545552799,571.0516239977833L291.84140021444364,573.3649632297966L291.009546141564,574.3769776795552L287.3040143623639,574.5215476222747L283.1447439979511,568.8103598044627L281.7835282423275,567.7981060069815L281.48103585218814,568.015021200842L280.64918177930485,570.1840631758078L280.57355868177183,570.1117649972484L276.94365000010293,572.7143595442676L272.6331334406259,570.4732536693446L271.045048392396,573.1480973320076L267.0370242230547,571.5576863784636L266.96140112552166,571.5576863784636L269.45696334416607,569.09956717765L265.97830085756686,561.2897198876244L267.4151397107307,559.2645211820236L260.6846840301405,553.1878775845726L262.3483921759034,551.7408259312269L260.533437835069,547.3991356967472L257.3572677386128,546.8201829725385L257.3572677386128,544.7937359196703L255.54231339777834,546.8201829725385L253.27362047173665,544.5766062092844L249.64371179006775,547.037291918221L249.4924655950017,546.9649224928771L249.41684249746322,546.8925528443187L247.2237726689582,545.9517270984788L246.3919185960749,545.0108636201239L237.69526237958235,539.6544601171363L239.96395530562586,539.5096754692931L238.67836264753532,536.179381670072L230.66231430885273,530.676119649409L232.55289174722202,530.7485393892721L232.40164555215233,526.40295835078L235.72906184368003,527.4169994354379L238.98085503767106,522.8534683806874L241.17392486617973,525.5337452976864L244.35009496263956,524.9542519869656L244.87945664538347,528.7207019799989L246.61878788867944,526.9824157802032L245.6356876207301,523.5054558998036L250.85368135062527,516.8398374481658L251.15617374076464,518.7962486175202L251.15617374076464,518.9411614487308L251.15617374076464,519.013617527431L251.38304303336736,519.0860733815225L254.71045932489687,520.6800453542965L255.61793649531137,521.1147461219307Z" class="sc-kAyceB dIJauC Udham Singh Nagar mapstate" fill="rgb(18, 108, 189)" stroke-width="0.9px"></path></svg>