<svg xmlns="http://www.w3.org/2000/svg" xmlns:xlink="http://www.w3.org/1999/xlink" version="1.1" x="0px" y="0px" viewBox="0 0 64 80" enable-background="new 0 0 64 64" xml:space="preserve"><path d="M52.761,7.021l-0.139,0.019c-0.191,0.027-0.396,0.039-0.643,0.039c-0.199,0-0.399-0.008-0.6-0.016  c-0.204-0.008-0.407-0.017-0.611-0.017c-0.373,0-0.676,0.029-0.953,0.09c-0.042,0.009-0.09,0.014-0.145,0.014  c-0.494,0-1.365-0.377-2.134-0.709c-0.496-0.215-0.965-0.417-1.278-0.495c-0.133-0.033-0.264-0.049-0.401-0.049  c-0.285,0-0.543,0.07-0.792,0.138c-0.241,0.065-0.469,0.127-0.713,0.127c-0.109,0-0.213-0.013-0.317-0.038  c-0.445-0.109-0.75-0.412-1.072-0.732c-0.259-0.257-0.526-0.522-0.877-0.691c-0.778-0.374-0.91-0.673-1.093-1.087  c-0.105-0.241-0.226-0.513-0.486-0.854c-0.148-0.196-0.204-0.353-0.167-0.481l0.03-0.102h-0.106c-0.159,0-0.356-0.013-0.566-0.026  c-0.246-0.016-0.525-0.034-0.79-0.034c-0.454,0-0.769,0.051-0.989,0.163c-0.235,0.118-0.403,0.288-0.566,0.453  C37.109,2.978,36.9,3.189,36.52,3.189l-0.032,0C36.236,3.181,36.034,3.093,35.82,3c-0.127-0.055-0.258-0.112-0.401-0.152  c-0.105-0.029-0.206-0.043-0.308-0.043c-0.181,0-0.327,0.045-0.469,0.089c-0.258,0.079-0.5,0.115-0.797-0.051l-1.148-1.23  l-0.034,0.146c-0.295,1.253,0.118,1.938,0.596,2.73c0.249,0.415,0.508,0.844,0.696,1.403c0.355,1.051,0.372,1.262,0.131,1.741  l-0.045,0.089l0.097,0.024c0.374,0.093,1.104,0.743,1.104,1.141c0,0.133-0.019,0.265-0.037,0.393  c-0.033,0.227-0.066,0.461,0.002,0.717c0.067,0.253,0.118,0.517,0.039,0.735c-0.171,0.474-0.444,0.693-0.858,0.912  c-0.119,0.063-0.219,0.144-0.313,0.221c-0.091,0.074-0.176,0.144-0.278,0.2l-0.021,0.016c-0.107,0.117-0.254,0.298-0.422,0.508  c-0.482,0.597-1.209,1.5-1.594,1.569c-0.948,0.171-0.99,0.9-1.039,1.756c-0.063,1.103,0.513,1.563,1.07,2.009  c0.444,0.355,0.904,0.723,1.049,1.432c0.224,1.092-0.897,1.613-1.797,2.032l-0.123,0.057c-0.516,0.241-0.73,0.632-0.958,1.045  c-0.089,0.162-0.182,0.33-0.295,0.491l-0.023,0.033l0.013,0.039c0.046,0.138,0.094,0.258,0.138,0.371  c0.136,0.345,0.235,0.594,0.164,1.023c-0.085,0.511,0.117,0.812,0.445,1.104c0.176,0.157,0.424,0.252,0.665,0.345  c0.491,0.188,0.915,0.352,0.817,0.958c-0.051,0.315-0.257,0.615-0.439,0.878c-0.15,0.218-0.28,0.406-0.287,0.563  c-0.015,0.324,0.055,0.698,0.129,1.093c0.068,0.362,0.138,0.736,0.138,1.07c0,0.417-0.16,0.427-0.426,0.443  c-0.192,0.012-0.409,0.024-0.582,0.209c-0.25,0.266-0.178,0.68-0.114,1.045c0.028,0.16,0.055,0.312,0.055,0.442  c0,0.671-0.299,0.871-0.751,1.174c-0.114,0.076-0.236,0.157-0.362,0.253c-0.432,0.326-0.928,1.334-1.01,1.507  c-0.188,0.192-0.337,0.478-0.481,0.753c-0.22,0.422-0.428,0.82-0.726,0.82c-0.12,0-0.258-0.066-0.411-0.193  c-0.45-0.375-0.909-0.607-1.199-0.607c-0.175,0-0.254,0.08-0.29,0.148c-0.11,0.209,0.031,0.6,0.417,1.158  c0.073,0.107,0.098,0.193,0.075,0.266c-0.049,0.158-0.324,0.262-0.566,0.354c-0.156,0.061-0.303,0.115-0.405,0.188  c-0.322,0.229-0.598,0.334-0.869,0.334c-0.364,0-0.702-0.193-1.13-0.439c-0.072-0.041-0.147-0.084-0.225-0.129  c-0.193-0.107-0.361-0.16-0.515-0.16c-0.52,0-0.701,0.607-0.861,1.145c-0.13,0.438-0.252,0.848-0.51,0.9  c-0.133,0.025-0.27,0.051-0.409,0.078c-1.373,0.256-3.081,0.576-3.394,2.355c-0.08,0.453-0.291,0.684-0.626,0.684  c-0.427,0-0.957-0.361-1.281-0.67c-0.482-0.463-0.675-0.596-0.86-0.596c-0.125,0-0.226,0.068-0.353,0.154  c-0.165,0.113-0.389,0.266-0.811,0.383c-0.006,0.002-0.027,0.006-0.099,0.006c-0.034,0-0.073,0-0.115-0.002  c-0.049,0-0.102-0.002-0.155-0.002c-0.292,0-0.44,0.035-0.511,0.117c-0.034,0.041-0.046,0.09-0.037,0.145s0.021,0.109,0.032,0.164  c0.074,0.357,0.137,0.666-0.206,0.881c-0.444,0.279-0.604,0.842-0.373,1.309c0.5,1,0.855,1.354,1.813,1.793  c0.187,0.086,0.427,0.092,0.659,0.098c0.299,0.006,0.608,0.014,0.787,0.193c0.589,0.59,1.214,0.67,1.748,0.67  c0.234,0,0.471-0.018,0.722-0.035c0.262-0.02,0.532-0.039,0.812-0.039c0.253,0,0.301,0.041,0.31,0.037  c-0.023,0.109-0.648,0.432-0.969,0.473l-0.07,0.01v0.07c0,0.443,0.23,1.33,0.785,1.473c0.542,0.139,0.769,0.537,1.009,0.959  c0.158,0.279,0.321,0.566,0.582,0.783c0.234,0.193,0.469,0.326,0.697,0.453c0.142,0.078,0.289,0.16,0.436,0.258  c0.097,0.064,0.149,0.127,0.161,0.191c0.018,0.105-0.072,0.225-0.167,0.354c-0.16,0.215-0.379,0.51,0.001,0.809l0.118,0.092  c0.36,0.277,0.807,0.623,0.816,0.977c0.004,0.156-0.078,0.303-0.25,0.451c-0.204,0.174-1.326,0.855-1.585,0.98l-0.094,0.047  l0.069,0.078c0.335,0.385,0.808,0.484,1.264,0.58c0.502,0.107,0.977,0.207,1.287,0.656c0.123,0.178,0.195,0.428,0.271,0.693  c0.139,0.482,0.296,1.031,0.832,1.117c0.225,0.035,0.458-0.141,0.73-0.348c0.292-0.223,0.622-0.475,0.98-0.475  c0.089,0,0.149,0.02,0.179,0.055c0.061,0.072,0.03,0.24-0.001,0.42c-0.065,0.367-0.153,0.869,0.468,1.051  c0.992,0.293,1.152,0.9,1.373,1.742c0.048,0.182,0.098,0.373,0.159,0.572l0.023,0.076l0.075-0.021  c0.319-0.092,0.601-0.201,0.86-0.332c0.301-0.154,0.672-0.246,1.031-0.336c0.272-0.068,0.554-0.141,0.808-0.236  c0.445-0.17,0.788-0.537,1.12-0.891c0.248-0.264,0.504-0.537,0.813-0.736l1.449-1.428c0.041-0.041,0.08-0.061,0.119-0.061  c0.171,0,0.554,0.316,1.199,2.428l0.019,0.061c0.01,0.031,0.021,0.102,0.037,0.193c0.096,0.564,0.215,1.117,0.512,1.117  c0.08,0,0.161-0.043,0.241-0.129c0.571-0.611,0.93-0.984,1.097-0.984c0.075,0,0.143,0.082,0.264,0.236  c0.134,0.168,0.316,0.4,0.638,0.639c0.204,0.152,0.607,0.174,1.074,0.201c0.392,0.021,0.798,0.043,1.09,0.148  c0.116,0.041,0.224,0.063,0.318,0.063c0.492,0,0.592-0.539,0.671-0.971c0.071-0.389,0.132-0.645,0.313-0.645  c0.046,0,0.1,0.016,0.161,0.041l0.145,0.064c0.51,0.229,1.458,0.652,2.229,0.721l0.167,0.014l-0.943-1.4  c0.019-0.002,0.039-0.004,0.059-0.008l0.065-0.014v-0.064c0-0.182-0.062-0.355-0.126-0.537c-0.058-0.164-0.117-0.334-0.13-0.51  c0.255-0.055,0.431-0.172,0.524-0.344c0.132-0.246,0.094-0.596-0.117-1.064c-0.144-0.32-0.094-0.432-0.024-0.588  c0.05-0.109,0.111-0.246,0.111-0.473c0-0.561-0.277-1.072-0.545-1.566c-0.135-0.25-0.263-0.486-0.354-0.725  c-0.073-0.189-0.085-0.408-0.099-0.643c-0.014-0.246-0.027-0.502-0.12-0.729c-0.116-0.285-0.185-0.598-0.25-0.9  c-0.045-0.209-0.092-0.424-0.154-0.629c0.451-0.867,0.442-2.881-0.373-3.563c-0.48-0.402-0.15-0.848,0.199-1.32  c0.169-0.227,0.328-0.441,0.401-0.658c0.078-0.232,0.077-0.416-0.003-0.564c-0.137-0.252-0.465-0.334-0.812-0.424  c-0.144-0.035-0.292-0.074-0.424-0.125c-0.068-0.025-0.18-0.049-0.32-0.078c-0.318-0.068-0.85-0.18-0.919-0.375  c-0.008-0.021-0.029-0.082,0.062-0.195c0.439-0.549,0.629-1.018,0.581-1.434c-0.037-0.326-0.224-0.623-0.554-0.883  c-0.132-0.104-0.262-0.158-0.387-0.211c-0.191-0.08-0.357-0.15-0.509-0.385c-0.389-0.605-0.493-1.686-0.521-2.154  c0.047-0.059,0.092-0.117,0.136-0.176c0.192-0.254,0.359-0.473,0.665-0.59c1.101-0.42,0.946-1.311,0.798-2.17  c-0.063-0.363-0.128-0.741-0.092-1.072c0.041-0.378,0.066-1.063-0.229-1.393c-0.11-0.123-0.254-0.185-0.426-0.185  c-0.524,0-0.977-0.043-1.478-0.252l-0.016-0.007l-0.88,0.01c-0.129-0.223-0.247-0.456-0.353-0.696  c-0.248-0.56-0.852-0.796-1.435-1.025c-0.188-0.073-0.381-0.149-0.557-0.234c-0.314-0.152-0.522-0.312-0.657-0.502  c-0.201-0.286-0.286-0.663-0.367-1.027c-0.048-0.215-0.094-0.419-0.162-0.603l0.744-0.873c0.168-0.204,0.573-1.047,0.676-1.368  c0.07-0.009,0.132-0.013,0.188-0.013c0.231,0,0.458,0.06,0.545,0.492l0.011,0.056l0.057,0.008c0.011,0.002,0.022,0.002,0.034,0.002  c0.463,0,1.417-1.353,1.537-1.594c0.143-0.285,0.149-0.577,0.155-0.834c0.01-0.407,0.017-0.728,0.467-0.977  c0.132-0.073,0.531-0.116,1.068-0.116c0.823,0,1.719,0.099,1.954,0.217c0.107,0.054,0.192,0.125,0.267,0.187  c0.098,0.082,0.182,0.152,0.283,0.152c0.123,0,0.225-0.097,0.351-0.333c0.05-0.094,0.208-0.249,0.361-0.398  c0.273-0.268,0.442-0.439,0.442-0.572v-0.08h-0.08c-0.496,0-0.827-0.091-1.014-0.278c-0.229-0.23-0.227-0.6-0.226-0.992  c0.001-0.278,0.003-0.565-0.073-0.836c-0.078-0.274-0.332-0.306-0.516-0.306c-0.123,0-0.258,0.016-0.401,0.032  c-0.154,0.018-0.313,0.036-0.468,0.036c-0.292,0-0.496-0.067-0.641-0.213c-0.067-0.067-0.129-0.167-0.195-0.272  c-0.124-0.199-0.252-0.404-0.455-0.463c-0.181-0.052-0.319-0.082-0.432-0.106c-0.356-0.076-0.421-0.09-0.752-0.633  c-0.278-0.455-1.307-1.567-1.954-1.567l-0.024,0c-0.106,0.005-0.219,0.024-0.329,0.042c-0.126,0.021-0.256,0.043-0.376,0.043  c-0.159,0-0.276-0.04-0.368-0.124c-0.295-0.272-0.306-0.521-0.319-0.808c-0.008-0.177-0.016-0.358-0.092-0.552  c0.55-0.374,0.683-0.838,0.813-1.289c0.14-0.485,0.271-0.944,0.947-1.249c0.214-0.096,1.747-1.483,1.884-1.743  c0.375-0.713-0.062-1-0.412-1.231c-0.207-0.136-0.402-0.265-0.43-0.458c-0.024-0.176,0.085-0.404,0.335-0.698  c0.095-0.11,0.175-0.167,0.238-0.167c0.104,0,0.21,0.16,0.323,0.33c0.108,0.163,0.23,0.348,0.4,0.482  c0.091,0.072,0.205,0.149,0.327,0.231c0.338,0.228,0.76,0.512,0.836,0.817l0.012,0.046l0.047,0.012  c0.104,0.026,0.11,0.065,0.124,0.161c0.038,0.25,0.141,0.456,1.026,0.456c0.087,0,0.381,0.173,0.664,0.339  c0.509,0.299,1.142,0.671,1.547,0.671c0.16,0,0.43-0.064,0.43-0.495c0-0.348-0.252-0.69-0.454-0.964  c-0.135-0.184-0.288-0.392-0.248-0.471c0.014-0.029,0.087-0.095,0.45-0.095c0.04,0,0.083,0,0.13,0.002  c0.194,0.007,0.319,0.049,0.384,0.129c0.1,0.125,0.054,0.361,0.006,0.611c-0.053,0.275-0.113,0.586-0.005,0.856  c0.483,1.209,3.294,3.259,4.806,3.259c0.071,0,0.14-0.004,0.203-0.014l0.068-0.01v-0.069c0-0.438,0.694-2.335,0.908-2.343  c0,0,0.021,0.015,0.039,0.102l0.013,0.066l1.342-0.033c0.643-0.053,1.281-0.325,1.708-0.728c0.518-0.49,0.458-1.125,0.401-1.741  c-0.014-0.148-0.027-0.296-0.033-0.442c-0.048-1.235,0.117-2.432,0.441-3.203L52.761,7.021z"/></svg>